<svg width="1440" height="952" fill="none" xmlns="http://www.w3.org/2000/svg"><path fill-rule="evenodd" clip-rule="evenodd" d="M1128.43-1191.87C509.516-1282.7 181.92-983.311-41.183-819.985c0 0-112.042 402.843-339.559 335.708-261.105-57.14-234.202 373.281-545.341 338.048-116.217 45.722-56.273 517.652-159.037 565.448 457.403 70.506 911.165 279.014 1315.615 334.994 80.718 12.442 174.384 14.13 243.368 12.037 241.658-19.968 437.333-163.217 666.037-127.964 121.07 18.663 259.88 105.259 323.71 140.552 114.2 68.513 188.05 130.804 333.45 172.308 91.89-68.562-112.17-1343.964-81.53-1466.513-142.24-163.136-221.29-639.203-587.1-676.503z" fill="url(#paint0_linear)"/><defs><linearGradient id="paint0_linear" x1="-34" y1="-8.5" x2="1058.84" y2="898.303" gradientUnits="userSpaceOnUse"><stop stop-color="#F5F8FF"/><stop offset="1" stop-color="#F5F8FF" stop-opacity="0"/></linearGradient></defs></svg>