<svg width="1440" height="960" fill="none" xmlns="http://www.w3.org/2000/svg"><path fill-rule="evenodd" clip-rule="evenodd" d="M1250.43-1183.87C631.516-1274.7 303.921-975.31 80.818-811.983c0 0-112.042 402.843-339.559 335.708-261.105-57.14-234.202 373.281-545.341 338.048-116.217 45.722-56.273 517.652-159.037 565.448 457.403 70.506 911.165 279.013 1315.615 334.994 80.718 12.442 174.384 14.13 243.368 12.037C837.522 754.284 1033.2 611.035 1261.9 646.288c121.08 18.663 259.88 105.259 323.71 140.552 114.2 68.513 188.05 130.804 333.45 172.308 91.89-68.562-112.17-1343.964-81.53-1466.513-142.23-163.136-221.29-639.205-587.1-676.505z" fill="url(#paint0_linear)"/><defs><linearGradient id="paint0_linear" x1="996.615" y1="718.604" x2="839.383" y2="-328.019" gradientUnits="userSpaceOnUse"><stop stop-color="#F5F8FF"/><stop offset="1" stop-color="#F5F8FF" stop-opacity="0"/></linearGradient></defs></svg>