<svg width="1440" height="1531" fill="none" xmlns="http://www.w3.org/2000/svg"><path fill-rule="evenodd" clip-rule="evenodd" d="M-88.806 540.447C375.062 146.726 1101 878.659 1605.74 441.414c0 0 78.5-306.378 315.65-426.425 276.18-115.831 54.76 507.856 390.51 406.038 137.34 26.86 233.08-91.824 356.01-59.956-489.81 170.302-947.66 491.95-1382.06 635.523-86.43 30.056-189.31 50.876-265.76 62.536-270.363 26.92-515.006-91.338-759.91-6.19-129.654 45.08-265.097 168.62-328.293 220.43C-180.1 1372-248.87 1455.59-400.71 1530.77c-115.147-56.96-307.836-139.33-366.411-268.18 123.72-208.58 362.67-454.231 678.315-722.143z" fill="url(#paint0_linear)"/><defs><linearGradient id="paint0_linear" x1="239" y1="148.561" x2="1183.47" y2="1570.82" gradientUnits="userSpaceOnUse"><stop stop-color="#F5F8FF"/><stop offset="1" stop-color="#F5F8FF" stop-opacity="0"/></linearGradient></defs></svg>