<svg width="1440" height="2063" fill="none" xmlns="http://www.w3.org/2000/svg"><path fill-rule="evenodd" clip-rule="evenodd" d="M1167 2153.37c-617.502 100-949.501-194.51-1175-354.51 0 0-118.004-401.13-344.501-330.63-260.229 61-239.711-369.77-550.293-329.93-116.886-43.99-63.943-516.757-167.406-563.023 456.308-77.281 906.929-292.495 1310.505-354.466 80.524-13.638 174.155-16.715 243.162-15.645C725.395 221.548 923.172 361.88 1151.33 323.24c120.78-20.457 258.29-109.102 321.59-145.337C1586.09 107.705 1659.01 44.325 1803.78.669c92.9 67.193-92.23 1345.481-59.78 1467.561-139.8 165.23-211.78 642.42-577 685.14z" fill="url(#paint0_linear)"/><defs><linearGradient id="paint0_linear" x1="884.999" y1="254.865" x2="1096.91" y2="2212.43" gradientUnits="userSpaceOnUse"><stop stop-color="#F5F8FF"/><stop offset="1" stop-color="#F5F8FF" stop-opacity="0"/></linearGradient></defs></svg>