<svg width="1440" height="1434" fill="none" xmlns="http://www.w3.org/2000/svg"><path fill-rule="evenodd" clip-rule="evenodd" d="M1147 1413.37c-617.502 100-949.498-194.51-1174.998-354.51 0 0-117.998-401.135-344.495-330.633-260.229 61.006-219.719 370.233-530.301 410.073-116.886-43.99-63.943-516.757-167.406-563.023 456.308-77.281 906.929-292.495 1310.505-354.466 80.525-13.638 174.155-16.716 243.163-15.645C725.395 221.548 923.173 361.88 1151.33 323.24c120.78-20.457 258.29-109.102 321.59-145.338C1586.09 107.704 1659.01 44.325 1803.78.669c92.9 67.192-112.23 605.48-79.78 727.561-139.8 165.227-211.78 642.42-577 685.14z" fill="url(#paint0_linear)"/><defs><linearGradient id="paint0_linear" x1="884.995" y1="254.863" x2="1378.07" y2="1502.62" gradientUnits="userSpaceOnUse"><stop stop-color="#F5F8FF"/><stop offset="1" stop-color="#F5F8FF" stop-opacity="0"/></linearGradient></defs></svg>