<svg width="1440" height="1225" fill="none" xmlns="http://www.w3.org/2000/svg"><path fill-rule="evenodd" clip-rule="evenodd" d="M185.355 236.589c149.957-60.808 362.425 12.167 535.165 54.649 142.386 32.058 353.74 129.922 534.05 79.538C1448.5 322.261 2007.32 98.073 2254.79.562c115.16 28.322 111.93 211.049 30.7 344.874C1928.9 509.358 1528.47 612.17 1186.18 695.62c-62.93 28.927-230.13 72.417-288.82 83.145-210.662 39.959-435.426-141.128-613.721-59.167-94.391 43.391-173.362 201.584-213.3 252.446C.953 1068.95-36.97 1151.39-142.96 1224.49c-103.56-58.03-139.749-244.545-212.748-373.507 157.527-153.674 248.513-504.288 541.064-614.394z" fill="url(#paint0_linear)"/><defs><linearGradient id="paint0_linear" x1="1038.39" y1="835.615" x2="692.144" y2="-18.933" gradientUnits="userSpaceOnUse"><stop stop-color="#F5F8FF" stop-opacity="0"/><stop offset="1" stop-color="#F5F8FF"/></linearGradient></defs></svg>