<svg width="594" height="316" fill="none" xmlns="http://www.w3.org/2000/svg"><path d="M269 22v217m-159-71h37m177 0h37M333 33h53m147 135h37" stroke="#7197E1" stroke-linejoin="round" stroke-dasharray="3 3"/><path d="M62 239.273V99.776C62 90.51 67.305 83 73.837 83H195m283 80V99.776C478 90.511 472.695 83 466.163 83H345" stroke="#7197E1" stroke-miterlimit="10" stroke-dasharray="3 3"/><path d="M52 245v11.244H30V268m229-21v11.244h-22V270M71 245v10.756h22V267m185-20v10.756h22V269" stroke="#7197E1" stroke-linejoin="round" stroke-dasharray="3 3"/><path d="M336.625 49.21a49.019 49.019 0 00-30.277-45.49 49 49 0 00-53.559 10.813c-27.675-8.65-56.324 8.65-62.418 36.39C175.093 55.64 164 69.807 164 86.097 164 106.445 180.962 123 201.314 123h135.311c20.352 0 37.314-16.56 37.314-36.903S356.977 49.21 336.625 49.21z" fill="url(#paint0_linear)"/><path d="M268.971 113.238c24.222 0 43.858-19.638 43.858-43.863 0-24.225-19.636-43.863-43.858-43.863-24.222 0-43.858 19.638-43.858 43.863 0 24.225 19.636 43.863 43.858 43.863z" fill="#fff"/><path d="M290.645 74.685a9.8 9.8 0 00-3.217-.9v-4.318a1.413 1.413 0 00-1.413-1.413h-15.647v-5.836h7.063a5.65 5.65 0 001.297-11.151 7.054 7.054 0 00-5.409-5.614 7.051 7.051 0 00-7.275 2.8 5.614 5.614 0 00-6.21 2.699 5.651 5.651 0 00.663 11.267h7.063v5.835h-15.642a1.414 1.414 0 00-1.412 1.413v4.318a9.731 9.731 0 00-3.212.9c-1.574.784-2.439 1.943-2.439 3.258v11.301c0 1.32.865 2.48 2.439 3.264a11.475 11.475 0 009.254 0c1.568-.784 2.433-1.943 2.433-3.264V77.943c0-1.315-.865-2.474-2.433-3.258a9.766 9.766 0 00-3.217-.9v-2.883h14.223v2.883a9.766 9.766 0 00-3.217.9c-1.568.784-2.433 1.943-2.433 3.258v11.301c0 1.32.865 2.48 2.433 3.264a11.475 11.475 0 009.254 0c1.574-.784 2.438-1.943 2.438-3.264V77.943c0-1.315-.864-2.474-2.438-3.258a9.731 9.731 0 00-3.212-.9v-2.883h14.218v2.883a9.726 9.726 0 00-3.211.9c-1.574.784-2.439 1.943-2.439 3.258v11.301c0 1.32.865 2.48 2.439 3.264a11.47 11.47 0 009.253 0c1.568-.784 2.433-1.943 2.433-3.264V77.943c.006-1.315-.859-2.474-2.427-3.258zm-34.483 14.56c0 .051-.15.374-.871.737a8.728 8.728 0 01-6.728 0c-.721-.363-.877-.686-.877-.738v-2.208a11.681 11.681 0 008.476 0v2.208zm0-5.651c0 .052-.15.374-.871.738a8.73 8.73 0 01-6.728 0c-.721-.364-.877-.686-.877-.738v-2.209a11.682 11.682 0 008.476 0v2.209zm-.871-6.383c.721.363.871.686.871.732 0 .046-.15.375-.871.738a8.73 8.73 0 01-6.728 0c-.721-.363-.877-.686-.877-.738 0-.052.156-.37.877-.733a8.643 8.643 0 016.728 0zm17.919 12.033c0 .052-.155.375-.876.739a8.728 8.728 0 01-6.729 0c-.72-.364-.87-.687-.87-.739v-2.208a11.679 11.679 0 008.475 0v2.208zm0-5.65c0 .052-.155.374-.876.738a8.73 8.73 0 01-6.729 0c-.72-.364-.87-.686-.87-.738v-2.209a11.68 11.68 0 008.475 0v2.209zm-.876-6.383c.721.363.876.686.876.732 0 .046-.155.375-.876.738a8.73 8.73 0 01-6.729 0c-.72-.363-.87-.686-.87-.738 0-.052.15-.37.87-.733a8.651 8.651 0 016.729 0zm-11.837-17.818a2.823 2.823 0 01-2.825-2.825 2.826 2.826 0 012.825-2.826 1.504 1.504 0 001.592-.94 2.768 2.768 0 012.779-1.876c.401.022.792.131 1.147.32a1.42 1.42 0 001.6-.212c.142-.128.256-.284.337-.457a4.23 4.23 0 017.116-.901c.608.743.945 1.67.956 2.63a1.414 1.414 0 001.412 1.413 2.825 2.825 0 110 5.651l-16.939.023zm29.756 29.851c0 .052-.15.375-.871.739a8.724 8.724 0 01-6.728 0c-.726-.364-.876-.687-.876-.739v-2.208a11.679 11.679 0 008.475 0v2.208zm0-5.65c0 .052-.15.374-.871.738a8.726 8.726 0 01-6.728 0c-.726-.364-.876-.686-.876-.738v-2.209a11.68 11.68 0 008.475 0v2.209zm-.859-4.913a8.73 8.73 0 01-6.728 0c-.727-.363-.877-.686-.877-.738 0-.052.15-.37.877-.733a8.643 8.643 0 016.728 0c.721.364.871.687.871.733 0 .046-.162.375-.871.738z" fill="url(#paint1_linear)"/><path d="M404 56c12.703 0 23-10.297 23-23s-10.297-23-23-23-23 10.297-23 23 10.297 23 23 23z" fill="url(#paint2_linear)"/><path d="M404 51c9.941 0 18-8.059 18-18s-8.059-18-18-18-18 8.059-18 18 8.059 18 18 18z" fill="#fff"/><g clip-path="url(#clip0)"><g clip-path="url(#clip1)"><path d="M406.992 41.394h-9.621a.793.793 0 01-.625-.298.818.818 0 01-.166-.684c.811-3.894 4.246-6.739 8.213-6.835a5.497 5.497 0 00.416 0 8.504 8.504 0 013.478.826.781.781 0 00.671-1.411 10.11 10.11 0 00-1.175-.472 5.308 5.308 0 002.129-4.251A5.318 5.318 0 00405 22.956a5.32 5.32 0 00-5.313 5.313c0 1.738.84 3.284 2.135 4.254-1.187.39-2.3.998-3.274 1.8a10.194 10.194 0 00-3.497 5.77 2.372 2.372 0 002.32 2.863h9.621a.78.78 0 100-1.562zm-5.742-13.125a3.754 3.754 0 013.75-3.75 3.754 3.754 0 013.75 3.75 3.755 3.755 0 01-3.559 3.745 10.135 10.135 0 00-.38 0 3.755 3.755 0 01-3.561-3.745zM415 39.245a.78.78 0 01-.781.781h-2.149v2.149a.78.78 0 11-1.562 0v-2.149h-2.149a.781.781 0 010-1.562h2.149v-2.149a.781.781 0 011.562 0v2.149h2.149c.431 0 .781.35.781.781z" fill="url(#paint3_linear)"/></g></g><rect y="147" width="123" height="41" rx="7" fill="#F2F6FE"/><rect x="7" y="154" width="109" height="27" rx="4" fill="#fff"/><path d="M39.022 166.682l-6.657-6.562a.416.416 0 00-.585 0l-6.658 6.562a.407.407 0 00-.001.58.417.417 0 00.586.001l.122-.12v6.447c0 .226.185.41.414.41h11.658a.412.412 0 00.414-.41v-6.447l.123.12c.162.16.424.16.585-.001a.407.407 0 000-.58zm-5.707 6.498H30.83v-3.336h2.486v3.336zm4.172 0h-3.343v-3.746a.413.413 0 00-.414-.411h-3.315a.413.413 0 00-.415.411v3.746h-3.343v-6.854l5.415-5.337 5.415 5.337v6.854z" fill="url(#paint4_linear)"/><path d="M30 166.152c0 1.131.93 2.051 2.072 2.051s2.072-.92 2.072-2.051c0-1.13-.93-2.05-2.072-2.05-1.143 0-2.072.92-2.072 2.05zm3.315 0c0 .679-.558 1.231-1.243 1.231a1.238 1.238 0 01-1.243-1.231c0-.678.557-1.23 1.243-1.23.685 0 1.243.552 1.243 1.23z" fill="url(#paint5_linear)"/><path d="M51.844 169.295a.25.25 0 01.19.085l.53.575a2.906 2.906 0 01-1.084.835c-.427.193-.94.29-1.54.29a3.67 3.67 0 01-1.45-.275 3.188 3.188 0 01-1.096-.765 3.387 3.387 0 01-.7-1.17 4.43 4.43 0 01-.24-1.485c0-.543.09-1.04.27-1.49a3.43 3.43 0 01.76-1.17 3.41 3.41 0 011.17-.76c.457-.183.96-.275 1.51-.275.537 0 1.005.087 1.405.26.404.17.749.397 1.035.68l-.45.625a.391.391 0 01-.105.105.279.279 0 01-.17.045.393.393 0 01-.234-.09 2.469 2.469 0 00-.775-.39 2.38 2.38 0 00-.715-.09c-.34 0-.654.06-.94.18a2.09 2.09 0 00-.736.505c-.203.22-.363.488-.48.805a3.11 3.11 0 00-.17 1.06c0 .407.057.768.17 1.085.117.317.274.583.47.8a2.026 2.026 0 001.556.67c.183 0 .348-.01.495-.03.15-.02.286-.052.41-.095.126-.043.245-.098.355-.165.113-.07.225-.155.335-.255a.424.424 0 01.105-.07.247.247 0 01.12-.03zm2.8-3.425v3.26c0 .313.071.557.215.73.146.17.364.255.654.255.214 0 .414-.047.6-.14a2.15 2.15 0 00.53-.395v-3.71h1.236V171h-.755c-.16 0-.266-.075-.316-.225l-.084-.41a3.828 3.828 0 01-.33.295 1.941 1.941 0 01-.78.365 1.938 1.938 0 01-.476.055c-.28 0-.528-.047-.744-.14a1.526 1.526 0 01-.54-.405 1.792 1.792 0 01-.335-.615 2.693 2.693 0 01-.11-.79v-3.26h1.235zm7.598 1a.357.357 0 01-.105.115.29.29 0 01-.14.03.462.462 0 01-.195-.05 6.313 6.313 0 00-.235-.11 1.952 1.952 0 00-.31-.115 1.458 1.458 0 00-.405-.05c-.243 0-.435.052-.575.155a.48.48 0 00-.21.405.4.4 0 00.105.28c.073.073.168.138.285.195.12.057.255.108.405.155.15.043.303.092.46.145.157.053.31.115.46.185.15.067.283.153.4.26.12.103.215.228.285.375.073.147.11.323.11.53 0 .247-.045.475-.135.685-.09.207-.222.387-.395.54-.173.15-.388.268-.645.355a2.809 2.809 0 01-.875.125 2.72 2.72 0 01-.52-.05 2.826 2.826 0 01-.915-.33 2.154 2.154 0 01-.345-.25l.285-.47a.4.4 0 01.13-.13.364.364 0 01.19-.045.39.39 0 01.215.065c.07.043.15.09.24.14a1.429 1.429 0 00.78.205c.147 0 .272-.017.375-.05a.798.798 0 00.26-.14.494.494 0 00.15-.195.586.586 0 00.05-.235.41.41 0 00-.11-.295.901.901 0 00-.285-.2 2.405 2.405 0 00-.405-.15 30.13 30.13 0 01-.465-.15 4.899 4.899 0 01-.465-.185 1.692 1.692 0 01-.405-.275 1.283 1.283 0 01-.285-.405 1.442 1.442 0 01-.105-.58c0-.21.042-.41.125-.6.083-.19.205-.355.365-.495a1.8 1.8 0 01.605-.34 2.49 2.49 0 01.84-.13c.353 0 .675.058.965.175.29.117.532.27.725.46l-.28.445zm3.005 4.21c-.443 0-.785-.125-1.025-.375-.24-.253-.36-.602-.36-1.045v-2.865h-.52a.26.26 0 01-.175-.065c-.046-.043-.07-.108-.07-.195v-.49l.825-.135.26-1.4a.252.252 0 01.09-.155.302.302 0 01.185-.055h.64v1.615h1.35v.88h-1.35v2.78c0 .16.04.285.12.375.08.09.187.135.32.135a.6.6 0 00.325-.085c.04-.02.075-.038.105-.055.03-.02.06-.03.09-.03.037 0 .067.01.09.03a.35.35 0 01.075.08l.37.6c-.18.15-.386.263-.62.34a2.298 2.298 0 01-.725.115zm4.373-5.29a2.8 2.8 0 011.04.185c.313.123.58.298.8.525.22.227.39.503.51.83.12.327.18.692.18 1.095 0 .407-.06.773-.18 1.1-.12.327-.29.605-.51.835a2.21 2.21 0 01-.8.53 2.8 2.8 0 01-1.04.185c-.384 0-.732-.062-1.046-.185a2.256 2.256 0 01-.805-.53 2.433 2.433 0 01-.515-.835 3.173 3.173 0 01-.18-1.1c0-.403.06-.768.18-1.095.124-.327.295-.603.515-.83.224-.227.492-.402.805-.525a2.838 2.838 0 011.046-.185zm0 4.335c.426 0 .741-.143.944-.43.207-.287.31-.707.31-1.26s-.103-.975-.31-1.265c-.203-.29-.518-.435-.944-.435-.434 0-.754.147-.96.44-.207.29-.31.71-.31 1.26s.103.97.31 1.26c.206.287.526.43.96.43zm3.493.875v-5.13h.755c.16 0 .265.075.315.225l.08.38c.09-.1.183-.192.28-.275a1.666 1.666 0 011.1-.41c.323 0 .588.088.795.265.21.173.367.405.47.695a1.626 1.626 0 01.695-.735c.144-.077.295-.133.455-.17a2.21 2.21 0 01.49-.055c.284 0 .535.043.755.13.22.087.405.213.555.38.15.167.263.37.34.61.08.24.12.515.12.825V171h-1.235v-3.265c0-.327-.072-.572-.215-.735-.143-.167-.353-.25-.63-.25a.856.856 0 00-.64.255.852.852 0 00-.19.305 1.21 1.21 0 00-.07.425V171h-1.24v-3.265c0-.343-.07-.593-.21-.75-.137-.157-.34-.235-.61-.235a.988.988 0 00-.5.135 1.664 1.664 0 00-.43.36V171h-1.235zm10.538-5.21c.323 0 .62.052.89.155.273.103.508.255.705.455.197.197.35.44.46.73a2.738 2.738 0 01.15 1.22.34.34 0 01-.045.145.19.19 0 01-.085.075.424.424 0 01-.14.02h-3.17c.037.527.178.913.425 1.16.247.247.573.37.98.37.2 0 .372-.023.515-.07a2.3 2.3 0 00.38-.155c.11-.057.205-.108.285-.155a.488.488 0 01.24-.07c.05 0 .093.01.13.03.037.02.068.048.095.085l.36.45c-.137.16-.29.295-.46.405a2.733 2.733 0 01-1.1.395c-.19.027-.375.04-.555.04-.357 0-.688-.058-.995-.175a2.272 2.272 0 01-.8-.525 2.49 2.49 0 01-.535-.86 3.347 3.347 0 01-.195-1.19c0-.35.057-.678.17-.985.113-.31.275-.578.485-.805.213-.23.472-.412.775-.545.307-.133.652-.2 1.035-.2zm.025.885c-.36 0-.642.102-.845.305-.203.203-.333.492-.39.865h2.32c0-.16-.022-.31-.065-.45a1.046 1.046 0 00-.2-.375.918.918 0 00-.34-.25 1.137 1.137 0 00-.48-.095zM86.873 171v-5.13h.725c.127 0 .215.023.265.07.05.047.083.127.1.24l.075.62a2.42 2.42 0 01.645-.75 1.36 1.36 0 01.83-.275c.253 0 .463.058.63.175l-.16.925a.204.204 0 01-.065.13.234.234 0 01-.135.035.859.859 0 01-.205-.035 1.388 1.388 0 00-.345-.035 1.04 1.04 0 00-.66.215c-.183.14-.338.347-.465.62V171h-1.235zm6.7-.925h1.466v-4.215c0-.163.004-.335.014-.515l-1.04.87a.355.355 0 01-.135.075.451.451 0 01-.314-.02.365.365 0 01-.12-.1l-.39-.535 2.204-1.875h1.016v6.315h1.3V171h-4v-.925z" fill="#2C4251"/><rect y="208" width="123" height="41" rx="7" fill="#F2F6FE"/><rect x="7" y="215" width="109" height="27" rx="4" fill="#fff"/><g clip-path="url(#clip2)"><path d="M32 229.203a2.874 2.874 0 002.871-2.871A2.874 2.874 0 0032 223.461a2.874 2.874 0 00-2.871 2.871A2.874 2.874 0 0032 229.203zm0-4.922c1.13 0 2.05.92 2.05 2.051 0 1.131-.92 2.051-2.05 2.051s-2.05-.92-2.05-2.051c0-1.131.92-2.051 2.05-2.051z" fill="url(#paint6_linear)"/><path d="M31.663 234.824a.41.41 0 00.674 0c.98-1.414 1.834-2.505 2.52-3.382 1.596-2.041 2.475-3.166 2.475-5.11A5.338 5.338 0 0032 221a5.338 5.338 0 00-5.332 5.332c0 1.946.873 3.062 2.459 5.088.688.88 1.545 1.975 2.536 3.404zM32 221.82a4.517 4.517 0 014.512 4.512c0 1.661-.77 2.645-2.302 4.605a74.178 74.178 0 00-2.21 2.938 74.256 74.256 0 00-2.227-2.96c-1.521-1.944-2.285-2.92-2.285-4.583A4.517 4.517 0 0132 221.82z" fill="url(#paint7_linear)"/></g><path d="M48.075 230.89h2.895V232h-4.24v-7.23h1.345v6.12zm5.755-4.1c.384 0 .73.062 1.04.185.314.123.58.298.8.525.22.227.39.503.51.83.12.327.18.692.18 1.095 0 .407-.06.773-.18 1.1-.12.327-.29.605-.51.835-.22.23-.486.407-.8.53-.31.123-.656.185-1.04.185-.383 0-.731-.062-1.044-.185a2.255 2.255 0 01-.806-.53 2.432 2.432 0 01-.514-.835 3.173 3.173 0 01-.18-1.1c0-.403.06-.768.18-1.095.123-.327.294-.603.514-.83.224-.227.492-.402.806-.525a2.837 2.837 0 011.044-.185zm0 4.335c.427 0 .742-.143.946-.43.206-.287.31-.707.31-1.26s-.104-.975-.31-1.265c-.204-.29-.519-.435-.946-.435-.433 0-.753.147-.96.44-.206.29-.31.71-.31 1.26s.104.97.31 1.26c.207.287.527.43.96.43zm7.1-3.17a.573.573 0 01-.11.11c-.034.027-.084.04-.15.04a.347.347 0 01-.186-.055 3.453 3.453 0 00-.215-.13 1.418 1.418 0 00-.725-.19c-.217 0-.407.04-.57.12-.163.077-.3.188-.41.335a1.549 1.549 0 00-.24.535 2.83 2.83 0 00-.08.705c0 .273.028.517.085.73.06.213.145.393.255.54.11.143.243.253.4.33.157.073.333.11.53.11s.355-.023.475-.07c.123-.05.227-.103.31-.16a6.84 6.84 0 00.215-.16.33.33 0 01.21-.075c.1 0 .175.038.225.115l.355.45a2.3 2.3 0 01-.445.405 2.56 2.56 0 01-.5.26 2.62 2.62 0 01-.53.135c-.183.027-.365.04-.545.04-.317 0-.615-.058-.895-.175a2.139 2.139 0 01-.735-.52 2.554 2.554 0 01-.495-.83c-.12-.33-.18-.705-.18-1.125 0-.377.053-.725.16-1.045.11-.323.27-.602.48-.835.21-.237.47-.422.78-.555.31-.133.667-.2 1.07-.2.383 0 .718.062 1.005.185.29.123.55.3.78.53l-.325.45zM66.11 232h-.555a.628.628 0 01-.275-.05c-.067-.037-.117-.108-.15-.215l-.11-.365c-.13.117-.259.22-.385.31-.124.087-.252.16-.385.22-.134.06-.275.105-.425.135a2.56 2.56 0 01-.5.045 2.01 2.01 0 01-.6-.085 1.343 1.343 0 01-.475-.265 1.212 1.212 0 01-.305-.435 1.543 1.543 0 01-.11-.605c0-.193.05-.383.15-.57.103-.19.273-.36.51-.51.236-.153.551-.28.945-.38.393-.1.881-.157 1.465-.17v-.3c0-.343-.074-.597-.22-.76-.144-.167-.354-.25-.63-.25a1.522 1.522 0 00-.85.23 16.12 16.12 0 01-.27.155.55.55 0 01-.275.07.36.36 0 01-.215-.065.512.512 0 01-.145-.16l-.225-.395c.59-.54 1.301-.81 2.135-.81.3 0 .566.05.8.15a1.67 1.67 0 01.97 1.035c.086.243.13.51.13.8V232zm-2.4-.77c.126 0 .243-.012.35-.035a1.27 1.27 0 00.3-.105c.096-.047.188-.103.275-.17.09-.07.18-.152.27-.245v-.865a6.52 6.52 0 00-.905.095c-.24.043-.434.1-.58.17a.771.771 0 00-.315.245.552.552 0 00-.09.305c0 .217.063.372.19.465.13.093.298.14.505.14zm5.3.85c-.444 0-.786-.125-1.026-.375-.24-.253-.36-.602-.36-1.045v-2.865h-.52a.26.26 0 01-.175-.065c-.047-.043-.07-.108-.07-.195v-.49l.825-.135.26-1.4a.252.252 0 01.09-.155.302.302 0 01.185-.055h.64v1.615h1.35v.88h-1.35v2.78c0 .16.04.285.12.375.08.09.187.135.32.135a.6.6 0 00.325-.085c.04-.02.075-.038.105-.055.03-.02.06-.03.09-.03.037 0 .067.01.09.03a.355.355 0 01.075.08l.37.6c-.18.15-.387.263-.62.34a2.298 2.298 0 01-.725.115zm3.496-5.21V232h-1.235v-5.13h1.235zm.185-1.495a.702.702 0 01-.065.3.809.809 0 01-.175.245.824.824 0 01-.25.17.803.803 0 01-.615 0 .841.841 0 01-.415-.415.804.804 0 010-.61.773.773 0 01.415-.415.755.755 0 01.615 0 .76.76 0 01.25.165.784.784 0 01.24.56zm3.405 1.415a2.8 2.8 0 011.04.185c.313.123.58.298.8.525.22.227.39.503.51.83.12.327.18.692.18 1.095 0 .407-.06.773-.18 1.1-.12.327-.29.605-.51.835a2.21 2.21 0 01-.8.53c-.31.123-.657.185-1.04.185s-.732-.062-1.045-.185a2.256 2.256 0 01-.805-.53 2.432 2.432 0 01-.515-.835 3.173 3.173 0 01-.18-1.1c0-.403.06-.768.18-1.095.123-.327.295-.603.515-.83.223-.227.492-.402.805-.525a2.838 2.838 0 011.045-.185zm0 4.335c.427 0 .742-.143.945-.43.207-.287.31-.707.31-1.26s-.103-.975-.31-1.265c-.203-.29-.518-.435-.945-.435-.433 0-.753.147-.96.44-.207.29-.31.71-.31 1.26s.103.97.31 1.26c.207.287.527.43.96.43zm3.494.875v-5.13h.755c.16 0 .265.075.315.225l.085.405a2.391 2.391 0 01.69-.515 1.91 1.91 0 01.415-.145c.146-.033.306-.05.48-.05.28 0 .528.048.745.145.216.093.396.227.54.4.146.17.256.375.33.615.076.237.115.498.115.785V232h-1.235v-3.265c0-.313-.074-.555-.22-.725-.144-.173-.36-.26-.65-.26-.214 0-.414.048-.6.145a2.15 2.15 0 00-.53.395V232H79.59z" fill="#2C4251"/><rect y="269" width="59" height="47" rx="7" fill="#F2F6FE"/><rect x="7" y="277" width="45" height="31" rx="4" fill="#fff"/><path d="M31.174 289.871h-2.34a.52.52 0 00-.521.522.523.523 0 00.52.522h2.34a.52.52 0 00.521-.522.522.522 0 00-.52-.522zm3.119-3.988a.515.515 0 00-.481.322.524.524 0 00.38.712.525.525 0 00.533-.222.524.524 0 00-.432-.812zm-3.12 3.988h-2.34a.52.52 0 00-.52.522.523.523 0 00.52.522h2.34a.52.52 0 00.521-.522.522.522 0 00-.52-.522zm0 0h-2.34a.52.52 0 00-.52.522.523.523 0 00.52.522h2.34a.52.52 0 00.521-.522.522.522 0 00-.52-.522z" fill="#63E17D"/><path d="M34.58 284.058h-.806v-4.536a.527.527 0 00-.52-.522h-6.507a.527.527 0 00-.521.522v4.536h-.798a2.08 2.08 0 00-2.08 2.094v3.719a2.088 2.088 0 002.08 2.085h.805v.522a.522.522 0 00.52.522h6.507a.52.52 0 00.52-.522v-.522h.806c.513 0 1.008-.19 1.39-.534a2.09 2.09 0 00.679-1.329v-3.941a2.087 2.087 0 00-2.076-2.094zm-7.306-4.008h5.46v4.008h-5.46v-4.008zm5.46 11.906h-5.46v-3.194h5.46v3.194zm1.845-1.041h-.805v-2.153h.285a.52.52 0 00.52-.522.522.522 0 00-.52-.522h-8.113a.52.52 0 00-.52.522.524.524 0 00.52.522h.287v2.174h-.805a1.042 1.042 0 01-1.041-1.043v-3.741a1.044 1.044 0 011.04-1.041h9.152a1.044 1.044 0 011.041 1.041v3.719a1.045 1.045 0 01-1.04 1.044z" fill="url(#paint8_linear)"/><path d="M16.448 301.212c.216 0 .405-.028.568-.084.165-.056.303-.135.412-.236a1 1 0 00.252-.368c.056-.144.084-.303.084-.476 0-.349-.11-.624-.328-.824-.216-.2-.545-.3-.988-.3h-.888v2.288h.888zm0-2.956c.368 0 .688.043.96.128s.497.207.676.364c.179.155.31.343.396.564.088.221.132.467.132.736 0 .269-.047.517-.14.744-.093.224-.23.417-.412.58a1.905 1.905 0 01-.68.38c-.27.088-.58.132-.932.132h-.888V304h-.852v-5.744h1.74zm3.61 2.46c.13-.267.287-.476.471-.628a1.01 1.01 0 01.664-.228c.088 0 .171.011.248.032.08.019.15.048.208.088l-.052.588c-.018.072-.062.108-.132.108a1.1 1.1 0 01-.168-.02 1.143 1.143 0 00-.24-.024.92.92 0 00-.332.056.76.76 0 00-.26.16 1.061 1.061 0 00-.2.26 2.473 2.473 0 00-.164.348V304h-.78v-4.064h.448c.086 0 .143.016.172.048.032.029.055.083.068.16l.048.572zm3.01-.78V304h-.78v-4.064h.78zm.147-1.256a.511.511 0 01-.044.208.552.552 0 01-.292.288.548.548 0 01-.412 0 .623.623 0 01-.172-.116.637.637 0 01-.116-.172.558.558 0 010-.416.556.556 0 01.288-.288.516.516 0 01.412 0 .478.478 0 01.172.116.521.521 0 01.164.38zm1.713 1.82c.088-.093.18-.179.276-.256a1.688 1.688 0 01.652-.324c.126-.032.26-.048.4-.048.224 0 .42.037.588.112.171.075.314.18.428.316.115.133.202.295.26.484.06.189.088.399.088.628V304h-.784v-2.588c0-.291-.066-.516-.2-.676-.133-.163-.337-.244-.612-.244-.2 0-.388.048-.564.144a1.837 1.837 0 00-.484.384V304h-.78v-4.064h.468c.11 0 .178.052.204.156l.06.408zm4.962 3.564c-.328 0-.581-.092-.76-.276-.176-.184-.264-.447-.264-.788v-2.432h-.472a.174.174 0 01-.116-.04c-.029-.029-.044-.072-.044-.128v-.316l.66-.092.176-1.212a.189.189 0 01.06-.104.18.18 0 01.12-.04h.396V300h1.152v.568h-1.152v2.38c0 .16.039.28.116.36a.42.42 0 00.304.116.526.526 0 00.184-.028.886.886 0 00.136-.06c.038-.024.07-.045.096-.064a.128.128 0 01.072-.028c.027 0 .047.007.06.02a.174.174 0 01.048.056l.232.376c-.128.117-.28.208-.456.272a1.591 1.591 0 01-.548.096zm4.295-2.548a1.28 1.28 0 00-.068-.428.946.946 0 00-.192-.34.877.877 0 00-.312-.224 1.06 1.06 0 00-.424-.08c-.328 0-.586.095-.776.284-.186.189-.305.452-.356.788h2.128zm.644 1.904a1.592 1.592 0 01-.332.292 1.98 1.98 0 01-.4.196 2.39 2.39 0 01-.44.112 2.788 2.788 0 01-.444.036c-.28 0-.54-.047-.78-.14a1.794 1.794 0 01-.62-.416 1.964 1.964 0 01-.408-.68 2.806 2.806 0 01-.144-.936c0-.283.044-.545.132-.788.088-.245.214-.459.376-.64.166-.181.367-.324.604-.428.238-.104.504-.156.8-.156.248 0 .476.041.684.124.211.08.392.197.544.352.152.155.271.345.356.572.088.227.132.485.132.776 0 .12-.013.201-.04.244-.026.04-.076.06-.148.06h-2.664c.008.243.043.455.104.636.062.179.146.328.252.448.11.12.239.209.388.268.15.059.316.088.5.088.174 0 .323-.02.448-.06a2.26 2.26 0 00.56-.26.33.33 0 01.168-.06.17.17 0 01.148.072l.224.288zm1.635-2.704c.13-.267.288-.476.472-.628.184-.152.405-.228.664-.228.088 0 .17.011.248.032a.62.62 0 01.208.088l-.052.588c-.019.072-.063.108-.132.108-.038 0-.094-.007-.168-.02a1.145 1.145 0 00-.24-.024.92.92 0 00-.332.056.76.76 0 00-.26.16 1.059 1.059 0 00-.2.26 2.462 2.462 0 00-.164.348V304h-.78v-4.064h.448c.085 0 .142.016.172.048.032.029.054.083.068.16l.048.572zm6.991 1.144l-.852-2.228a4.966 4.966 0 01-.184-.576c-.029.115-.06.221-.092.32a3.7 3.7 0 01-.088.264l-.848 2.22h2.064zM45.14 304h-.656a.293.293 0 01-.184-.056.311.311 0 01-.104-.144l-.508-1.332h-2.532l-.508 1.332a.338.338 0 01-.104.14.288.288 0 01-.184.06h-.656l2.288-5.744h.86L45.14 304z" fill="#2C4251"/><rect x="64" y="269" width="59" height="47" rx="7" fill="#F2F6FE"/><rect x="71" y="277" width="45" height="31" rx="4" fill="#fff"/><path d="M95.174 289.871h-2.34a.52.52 0 00-.522.522.523.523 0 00.521.522h2.34a.52.52 0 00.521-.522.522.522 0 00-.52-.522zm3.119-3.988a.515.515 0 00-.481.322.524.524 0 00.38.712.525.525 0 00.534-.222.524.524 0 00-.433-.812zm-3.12 3.988h-2.34a.52.52 0 00-.52.522.523.523 0 00.52.522h2.34a.52.52 0 00.521-.522.522.522 0 00-.52-.522zm0 0h-2.34a.52.52 0 00-.52.522.523.523 0 00.52.522h2.34a.52.52 0 00.521-.522.522.522 0 00-.52-.522z" fill="#63E17D"/><path d="M98.58 284.058h-.806v-4.536a.527.527 0 00-.52-.522h-6.507a.527.527 0 00-.521.522v4.536h-.798a2.08 2.08 0 00-2.08 2.094v3.719a2.088 2.088 0 002.08 2.085h.805v.522a.522.522 0 00.52.522h6.507a.52.52 0 00.52-.522v-.522h.806c.513 0 1.008-.19 1.39-.534a2.09 2.09 0 00.679-1.329v-3.941a2.083 2.083 0 00-.605-1.478 2.093 2.093 0 00-1.47-.616zm-7.306-4.008h5.46v4.008h-5.46v-4.008zm5.46 11.906h-5.46v-3.194h5.46v3.194zm1.845-1.041h-.805v-2.153h.285a.52.52 0 00.52-.522.522.522 0 00-.52-.522h-8.113a.52.52 0 00-.52.522.524.524 0 00.52.522h.287v2.174h-.805a1.042 1.042 0 01-1.041-1.043v-3.741a1.044 1.044 0 011.04-1.041h9.152a1.044 1.044 0 011.041 1.041v3.719a1.045 1.045 0 01-1.04 1.044z" fill="url(#paint9_linear)"/><path d="M80.448 301.212c.216 0 .405-.028.568-.084.165-.056.303-.135.412-.236a1 1 0 00.252-.368c.056-.144.084-.303.084-.476 0-.349-.11-.624-.328-.824-.216-.2-.545-.3-.988-.3h-.888v2.288h.888zm0-2.956c.368 0 .688.043.96.128s.497.207.676.364c.179.155.31.343.396.564.088.221.132.467.132.736 0 .269-.047.517-.14.744-.093.224-.23.417-.412.58a1.905 1.905 0 01-.68.38c-.27.088-.58.132-.932.132h-.888V304h-.852v-5.744h1.74zm3.61 2.46c.13-.267.287-.476.471-.628a1.01 1.01 0 01.664-.228c.088 0 .171.011.248.032.08.019.15.048.208.088l-.052.588c-.018.072-.062.108-.132.108a1.1 1.1 0 01-.168-.02 1.143 1.143 0 00-.24-.024.92.92 0 00-.332.056.76.76 0 00-.26.16 1.061 1.061 0 00-.2.26 2.473 2.473 0 00-.164.348V304h-.78v-4.064h.448c.086 0 .143.016.172.048.032.029.055.083.068.16l.048.572zm3.01-.78V304h-.78v-4.064h.78zm.147-1.256a.511.511 0 01-.044.208.552.552 0 01-.292.288.548.548 0 01-.412 0 .623.623 0 01-.172-.116.637.637 0 01-.116-.172.558.558 0 010-.416.556.556 0 01.288-.288.516.516 0 01.412 0 .478.478 0 01.172.116.521.521 0 01.164.38zm1.713 1.82c.088-.093.18-.179.276-.256a1.688 1.688 0 01.652-.324c.126-.032.26-.048.4-.048.224 0 .42.037.588.112.171.075.314.18.428.316.115.133.202.295.26.484.06.189.088.399.088.628V304h-.784v-2.588c0-.291-.066-.516-.2-.676-.133-.163-.337-.244-.612-.244-.2 0-.388.048-.564.144a1.837 1.837 0 00-.484.384V304h-.78v-4.064h.468c.11 0 .178.052.204.156l.06.408zm4.962 3.564c-.328 0-.581-.092-.76-.276-.176-.184-.264-.447-.264-.788v-2.432h-.472a.174.174 0 01-.116-.04c-.029-.029-.044-.072-.044-.128v-.316l.66-.092.176-1.212a.189.189 0 01.06-.104.18.18 0 01.12-.04h.396V300h1.152v.568h-1.152v2.38c0 .16.039.28.116.36a.42.42 0 00.304.116.526.526 0 00.184-.028.886.886 0 00.136-.06c.038-.024.07-.045.096-.064a.128.128 0 01.072-.028c.027 0 .047.007.06.02a.174.174 0 01.048.056l.232.376c-.128.117-.28.208-.456.272a1.591 1.591 0 01-.548.096zm4.295-2.548a1.28 1.28 0 00-.068-.428.946.946 0 00-.192-.34.877.877 0 00-.312-.224 1.06 1.06 0 00-.424-.08c-.328 0-.586.095-.776.284-.186.189-.305.452-.356.788h2.128zm.644 1.904a1.592 1.592 0 01-.332.292 1.98 1.98 0 01-.4.196 2.39 2.39 0 01-.44.112 2.788 2.788 0 01-.444.036c-.28 0-.54-.047-.78-.14a1.794 1.794 0 01-.62-.416 1.964 1.964 0 01-.408-.68 2.806 2.806 0 01-.144-.936c0-.283.044-.545.132-.788.088-.245.214-.459.376-.64.166-.181.367-.324.604-.428.238-.104.504-.156.8-.156.248 0 .476.041.684.124.211.08.392.197.544.352.152.155.271.345.356.572.088.227.132.485.132.776 0 .12-.013.201-.04.244-.026.04-.076.06-.148.06h-2.664c.008.243.043.455.104.636.062.179.146.328.252.448.11.12.239.209.388.268.15.059.316.088.5.088.174 0 .323-.02.448-.06a2.26 2.26 0 00.56-.26.33.33 0 01.168-.06.17.17 0 01.148.072l.224.288zm1.635-2.704c.13-.267.288-.476.472-.628.184-.152.405-.228.664-.228.088 0 .17.011.248.032.08.019.149.048.208.088l-.052.588c-.019.072-.063.108-.132.108-.038 0-.094-.007-.168-.02a1.149 1.149 0 00-.24-.024.916.916 0 00-.332.056.757.757 0 00-.26.16 1.035 1.035 0 00-.2.26 2.356 2.356 0 00-.164.348V304h-.78v-4.064h.448c.085 0 .142.016.172.048.032.029.054.083.068.16l.048.572zm6.991 1.144l-.852-2.228a5.168 5.168 0 01-.184-.576c-.029.115-.06.221-.092.32a3.257 3.257 0 01-.088.264l-.848 2.22h2.064zm1.684 2.14h-.656a.294.294 0 01-.184-.056.316.316 0 01-.104-.144l-.508-1.332h-2.532l-.508 1.332a.33.33 0 01-.104.14.287.287 0 01-.184.06h-.656l2.288-5.744h.86l2.288 5.744z" fill="#2C4251"/><path d="M157 188c11.598 0 21-9.178 21-20.5s-9.402-20.5-21-20.5-21 9.178-21 20.5 9.402 20.5 21 20.5z" fill="url(#paint10_linear)"/><path d="M157 184c8.837 0 16-7.387 16-16.5s-7.163-16.5-16-16.5-16 7.387-16 16.5 7.163 16.5 16 16.5z" fill="#fff"/><g clip-path="url(#clip3)"><path d="M158.994 173.785h-7.216a.594.594 0 01-.469-.223.613.613 0 01-.124-.513c.608-2.921 3.185-5.054 6.16-5.126a3.968 3.968 0 00.312 0 6.378 6.378 0 012.609.619.585.585 0 10.503-1.058 7.73 7.73 0 00-.882-.354 3.982 3.982 0 00-2.387-7.173 3.988 3.988 0 00-3.984 3.984 3.98 3.98 0 001.6 3.191 7.627 7.627 0 00-5.078 5.678 1.782 1.782 0 001.74 2.147h7.216a.586.586 0 100-1.172zm-4.307-9.844a2.816 2.816 0 012.813-2.812 2.815 2.815 0 012.812 2.812 2.815 2.815 0 01-2.669 2.809l-.143-.001-.142.001a2.816 2.816 0 01-2.671-2.809zM165 172.174a.586.586 0 01-.586.586h-1.611v1.611a.586.586 0 01-1.172 0v-1.611h-1.611a.586.586 0 010-1.172h1.611v-1.611a.586.586 0 111.172 0v1.611h1.611c.324 0 .586.262.586.586z" fill="url(#paint11_linear)"/></g><rect x="208" y="147" width="123" height="41" rx="7" fill="#F2F6FE"/><rect x="215" y="154" width="109" height="27" rx="4" fill="#fff"/><path d="M254.022 166.682l-6.657-6.562a.416.416 0 00-.585 0l-6.658 6.562a.407.407 0 00-.001.58.417.417 0 00.586.001l.122-.12v6.447c0 .226.185.41.414.41h11.658a.413.413 0 00.415-.41v-6.447l.121.12c.163.16.425.16.587-.001a.408.408 0 00-.002-.58zm-5.707 6.498h-2.486v-3.336h2.486v3.336zm4.172 0h-3.343v-3.746a.412.412 0 00-.414-.411h-3.315a.413.413 0 00-.415.411v3.746h-3.342v-6.854l5.414-5.337 5.415 5.337v6.854z" fill="url(#paint12_linear)"/><path d="M245 166.152c0 1.131.929 2.051 2.072 2.051 1.142 0 2.072-.92 2.072-2.051 0-1.13-.93-2.05-2.072-2.05-1.143 0-2.072.92-2.072 2.05zm3.315 0c0 .679-.558 1.231-1.243 1.231a1.238 1.238 0 01-1.243-1.231c0-.678.557-1.23 1.243-1.23.685 0 1.243.552 1.243 1.23z" fill="url(#paint13_linear)"/><path d="M263.265 168.175V171h-1.345v-7.23h2.205c.493 0 .915.052 1.265.155.353.1.641.242.865.425.226.183.391.403.495.66.106.253.16.533.16.84 0 .243-.037.473-.11.69a2.028 2.028 0 01-.81 1.055 2.6 2.6 0 01-.675.32c.17.097.316.235.44.415l1.81 2.67h-1.21a.6.6 0 01-.3-.07.61.61 0 01-.205-.2l-1.52-2.315a.528.528 0 00-.19-.185.638.638 0 00-.3-.055h-.575zm0-.965h.84c.253 0 .473-.032.66-.095.19-.063.345-.15.465-.26.123-.113.215-.247.275-.4.06-.153.09-.322.09-.505 0-.367-.122-.648-.365-.845-.24-.197-.609-.295-1.105-.295h-.86v2.4zm7.212-1.42c.324 0 .62.052.89.155.274.103.509.255.705.455.197.197.35.44.46.73a2.738 2.738 0 01.15 1.22.322.322 0 01-.045.145.189.189 0 01-.085.075.42.42 0 01-.14.02h-3.17c.037.527.179.913.425 1.16.247.247.574.37.98.37.2 0 .372-.023.515-.07.147-.047.274-.098.38-.155.11-.057.205-.108.285-.155a.492.492 0 01.24-.07.266.266 0 01.225.115l.36.45c-.136.16-.29.295-.46.405a2.725 2.725 0 01-1.1.395c-.19.027-.375.04-.555.04-.356 0-.688-.058-.995-.175a2.281 2.281 0 01-.8-.525 2.501 2.501 0 01-.535-.86 3.347 3.347 0 01-.195-1.19c0-.35.057-.678.17-.985.114-.31.275-.578.485-.805.214-.23.472-.412.775-.545.307-.133.652-.2 1.035-.2zm.025.885c-.36 0-.641.102-.845.305-.203.203-.333.492-.39.865h2.32c0-.16-.021-.31-.065-.45a1.041 1.041 0 00-.2-.375.916.916 0 00-.34-.25 1.132 1.132 0 00-.48-.095zm6.242.195a.35.35 0 01-.105.115.29.29 0 01-.14.03.462.462 0 01-.195-.05 6.55 6.55 0 00-.235-.11 1.94 1.94 0 00-.31-.115 1.455 1.455 0 00-.405-.05c-.243 0-.435.052-.575.155a.48.48 0 00-.21.405.4.4 0 00.105.28c.073.073.168.138.285.195.12.057.255.108.405.155.15.043.303.092.46.145.157.053.31.115.46.185.15.067.283.153.4.26.12.103.215.228.285.375.073.147.11.323.11.53 0 .247-.045.475-.135.685-.09.207-.222.387-.395.54-.173.15-.388.268-.645.355a2.808 2.808 0 01-.875.125 2.72 2.72 0 01-.52-.05 2.826 2.826 0 01-.915-.33 2.154 2.154 0 01-.345-.25l.285-.47c.037-.057.08-.1.13-.13a.364.364 0 01.19-.045.39.39 0 01.215.065c.07.043.15.09.24.14a1.426 1.426 0 00.78.205c.147 0 .272-.017.375-.05a.798.798 0 00.26-.14.494.494 0 00.15-.195.59.59 0 00.05-.235.411.411 0 00-.11-.295.901.901 0 00-.285-.2 2.424 2.424 0 00-.405-.15 30.13 30.13 0 01-.465-.15 4.836 4.836 0 01-.465-.185 1.692 1.692 0 01-.405-.275 1.274 1.274 0 01-.285-.405 1.442 1.442 0 01-.105-.58c0-.21.042-.41.125-.6.083-.19.205-.355.365-.495.163-.143.365-.257.605-.34.243-.087.523-.13.84-.13.353 0 .675.058.965.175.29.117.532.27.725.46l-.28.445zm3.44-1.08c.324 0 .62.052.89.155.274.103.509.255.705.455.197.197.35.44.46.73a2.738 2.738 0 01.15 1.22.322.322 0 01-.045.145.189.189 0 01-.085.075.42.42 0 01-.14.02h-3.17c.037.527.179.913.425 1.16.247.247.574.37.98.37.2 0 .372-.023.515-.07.147-.047.274-.098.38-.155.11-.057.205-.108.285-.155a.492.492 0 01.24-.07.266.266 0 01.225.115l.36.45c-.136.16-.29.295-.46.405a2.725 2.725 0 01-1.1.395c-.19.027-.375.04-.555.04-.356 0-.688-.058-.995-.175a2.281 2.281 0 01-.8-.525 2.501 2.501 0 01-.535-.86 3.347 3.347 0 01-.195-1.19c0-.35.057-.678.17-.985.114-.31.275-.578.485-.805.214-.23.472-.412.775-.545.307-.133.652-.2 1.035-.2zm.025.885c-.36 0-.641.102-.845.305-.203.203-.333.492-.39.865h2.32c0-.16-.021-.31-.065-.45a1.041 1.041 0 00-.2-.375.916.916 0 00-.34-.25 1.132 1.132 0 00-.48-.095zm4.512-3.105V171h-1.235v-7.43h1.235zm2.715 0V171h-1.235v-7.43h1.235zm3.52 2.22c.323 0 .62.052.89.155.273.103.508.255.705.455.196.197.35.44.46.73a2.738 2.738 0 01.15 1.22.35.35 0 01-.045.145.194.194 0 01-.085.075.428.428 0 01-.14.02h-3.17c.036.527.178.913.425 1.16.246.247.573.37.98.37.2 0 .371-.023.515-.07.146-.047.273-.098.38-.155.11-.057.205-.108.285-.155a.486.486 0 01.24-.07c.05 0 .093.01.13.03.036.02.068.048.095.085l.36.45c-.137.16-.29.295-.46.405-.17.107-.349.193-.535.26a3.038 3.038 0 01-.565.135c-.19.027-.375.04-.555.04-.357 0-.689-.058-.995-.175a2.263 2.263 0 01-.8-.525 2.486 2.486 0 01-.535-.86 3.347 3.347 0 01-.195-1.19c0-.35.056-.678.17-.985.113-.31.275-.578.485-.805.213-.23.471-.412.775-.545.306-.133.651-.2 1.035-.2zm.025.885c-.36 0-.642.102-.845.305-.204.203-.334.492-.39.865h2.32c0-.16-.022-.31-.065-.45a1.057 1.057 0 00-.2-.375.924.924 0 00-.34-.25 1.139 1.139 0 00-.48-.095zm3.197 4.325v-5.13h.725c.126 0 .215.023.265.07.05.047.083.127.1.24l.075.62a2.42 2.42 0 01.645-.75c.246-.183.523-.275.83-.275.253 0 .463.058.63.175l-.16.925a.204.204 0 01-.065.13.237.237 0 01-.135.035.854.854 0 01-.205-.035 1.391 1.391 0 00-.345-.035 1.04 1.04 0 00-.66.215c-.184.14-.339.347-.465.62V171h-1.235z" fill="#2C4251"/><rect x="208" y="208" width="123" height="41" rx="7" fill="#F2F6FE"/><rect x="215" y="215" width="109" height="27" rx="4" fill="#fff"/><g clip-path="url(#clip4)"><path d="M240 229.203a2.874 2.874 0 002.871-2.871 2.874 2.874 0 00-2.871-2.871 2.874 2.874 0 00-2.871 2.871 2.874 2.874 0 002.871 2.871zm0-4.922c1.131 0 2.051.92 2.051 2.051 0 1.131-.92 2.051-2.051 2.051a2.053 2.053 0 01-2.051-2.051c0-1.131.92-2.051 2.051-2.051z" fill="url(#paint14_linear)"/><path d="M239.663 234.824a.412.412 0 00.674 0c.981-1.414 1.834-2.505 2.519-3.382 1.597-2.041 2.476-3.166 2.476-5.11A5.338 5.338 0 00240 221a5.338 5.338 0 00-5.332 5.332c0 1.946.873 3.062 2.459 5.088.688.88 1.545 1.975 2.536 3.404zM240 221.82a4.517 4.517 0 014.512 4.512c0 1.661-.769 2.645-2.302 4.605-.612.783-1.358 1.736-2.21 2.938a74.57 74.57 0 00-2.227-2.96c-1.521-1.944-2.285-2.92-2.285-4.583A4.517 4.517 0 01240 221.82z" fill="url(#paint15_linear)"/></g><path d="M259.7 230.295c.073 0 .137.028.19.085l.53.575a2.903 2.903 0 01-1.085.835c-.427.193-.94.29-1.54.29-.537 0-1.02-.092-1.45-.275a3.18 3.18 0 01-1.095-.765 3.386 3.386 0 01-.7-1.17 4.43 4.43 0 01-.24-1.485c0-.543.09-1.04.27-1.49.18-.453.433-.843.76-1.17.327-.327.717-.58 1.17-.76.457-.183.96-.275 1.51-.275.537 0 1.005.087 1.405.26.403.17.748.397 1.035.68l-.45.625a.403.403 0 01-.105.105.28.28 0 01-.17.045.392.392 0 01-.235-.09 2.46 2.46 0 00-.775-.39 2.382 2.382 0 00-.715-.09c-.34 0-.653.06-.94.18a2.096 2.096 0 00-.735.505c-.203.22-.363.488-.48.805a3.11 3.11 0 00-.17 1.06c0 .407.057.768.17 1.085.117.317.273.583.47.8a2.025 2.025 0 001.555.67c.183 0 .348-.01.495-.03.15-.02.287-.052.41-.095.127-.043.245-.098.355-.165.113-.07.225-.155.335-.255a.41.41 0 01.105-.07.248.248 0 01.12-.03zm2.799-3.425v3.26c0 .313.072.557.215.73.147.17.365.255.655.255.213 0 .413-.047.6-.14a2.15 2.15 0 00.53-.395v-3.71h1.235V232h-.755c-.16 0-.265-.075-.315-.225l-.085-.41a3.92 3.92 0 01-.33.295 1.947 1.947 0 01-.78.365 1.94 1.94 0 01-.475.055c-.28 0-.528-.047-.745-.14a1.531 1.531 0 01-.54-.405 1.792 1.792 0 01-.335-.615 2.703 2.703 0 01-.11-.79v-3.26h1.235zm7.599 1a.373.373 0 01-.105.115.293.293 0 01-.14.03.462.462 0 01-.195-.05 6.55 6.55 0 00-.235-.11 1.978 1.978 0 00-.31-.115 1.465 1.465 0 00-.405-.05c-.244 0-.435.052-.575.155a.48.48 0 00-.21.405.4.4 0 00.105.28c.073.073.168.138.285.195.12.057.255.108.405.155.15.043.303.092.46.145.156.053.31.115.46.185.15.067.283.153.4.26.12.103.215.228.285.375.073.147.11.323.11.53 0 .247-.045.475-.135.685-.09.207-.222.387-.395.54-.174.15-.389.268-.645.355a2.812 2.812 0 01-.875.125 2.72 2.72 0 01-.52-.05 2.782 2.782 0 01-.915-.33 2.154 2.154 0 01-.345-.25l.285-.47c.036-.057.08-.1.13-.13a.364.364 0 01.19-.045c.076 0 .148.022.215.065.07.043.15.09.24.14a1.426 1.426 0 00.78.205c.146 0 .271-.017.375-.05a.809.809 0 00.26-.14.494.494 0 00.15-.195.59.59 0 00.05-.235.411.411 0 00-.11-.295.901.901 0 00-.285-.2 2.424 2.424 0 00-.405-.15 30.13 30.13 0 01-.465-.15 4.836 4.836 0 01-.465-.185 1.692 1.692 0 01-.405-.275 1.274 1.274 0 01-.285-.405 1.442 1.442 0 01-.105-.58c0-.21.041-.41.125-.6.083-.19.205-.355.365-.495.163-.143.365-.257.605-.34.243-.087.523-.13.84-.13.353 0 .675.058.965.175.29.117.531.27.725.46l-.28.445zm3.005 4.21c-.444 0-.785-.125-1.025-.375-.24-.253-.36-.602-.36-1.045v-2.865h-.52a.26.26 0 01-.175-.065c-.047-.043-.07-.108-.07-.195v-.49l.825-.135.26-1.4a.249.249 0 01.09-.155.3.3 0 01.185-.055h.64v1.615h1.35v.88h-1.35v2.78c0 .16.04.285.12.375.08.09.186.135.32.135a.603.603 0 00.325-.085c.04-.02.075-.038.105-.055.03-.02.06-.03.09-.03.036 0 .066.01.09.03a.37.37 0 01.075.08l.37.6c-.18.15-.387.263-.62.34a2.301 2.301 0 01-.725.115zm4.372-5.29a2.8 2.8 0 011.04.185c.313.123.58.298.8.525.22.227.39.503.51.83.12.327.18.692.18 1.095 0 .407-.06.773-.18 1.1-.12.327-.29.605-.51.835a2.21 2.21 0 01-.8.53 2.8 2.8 0 01-1.04.185c-.383 0-.732-.062-1.045-.185a2.256 2.256 0 01-.805-.53 2.427 2.427 0 01-.515-.835 3.173 3.173 0 01-.18-1.1c0-.403.06-.768.18-1.095.123-.327.295-.603.515-.83.223-.227.492-.402.805-.525a2.838 2.838 0 011.045-.185zm0 4.335c.427 0 .742-.143.945-.43.207-.287.31-.707.31-1.26s-.103-.975-.31-1.265c-.203-.29-.518-.435-.945-.435-.433 0-.753.147-.96.44-.207.29-.31.71-.31 1.26s.103.97.31 1.26c.207.287.527.43.96.43zm3.494.875v-5.13h.755c.16 0 .265.075.315.225l.08.38c.09-.1.183-.192.28-.275a1.65 1.65 0 011.1-.41c.323 0 .588.088.795.265.21.173.366.405.47.695a1.613 1.613 0 01.695-.735 1.82 1.82 0 01.455-.17c.163-.037.326-.055.49-.055.283 0 .535.043.755.13.22.087.405.213.555.38.15.167.263.37.34.61.08.24.12.515.12.825V232h-1.235v-3.265c0-.327-.072-.572-.215-.735-.144-.167-.354-.25-.63-.25a.965.965 0 00-.355.065.843.843 0 00-.475.495c-.047.123-.07.265-.07.425V232h-1.24v-3.265c0-.343-.07-.593-.21-.75-.137-.157-.34-.235-.61-.235a.985.985 0 00-.5.135 1.646 1.646 0 00-.43.36V232h-1.235zm10.538-5.21c.323 0 .62.052.89.155.273.103.508.255.705.455.196.197.35.44.46.73a2.738 2.738 0 01.15 1.22.35.35 0 01-.045.145.194.194 0 01-.085.075.428.428 0 01-.14.02h-3.17c.036.527.178.913.425 1.16.246.247.573.37.98.37.2 0 .371-.023.515-.07.146-.047.273-.098.38-.155.11-.057.205-.108.285-.155a.486.486 0 01.24-.07c.05 0 .093.01.13.03.036.02.068.048.095.085l.36.45c-.137.16-.29.295-.46.405-.17.107-.349.193-.535.26a3.038 3.038 0 01-.565.135c-.19.027-.375.04-.555.04-.357 0-.689-.058-.995-.175a2.263 2.263 0 01-.8-.525 2.486 2.486 0 01-.535-.86 3.347 3.347 0 01-.195-1.19c0-.35.056-.678.17-.985.113-.31.275-.578.485-.805.213-.23.471-.412.775-.545.306-.133.651-.2 1.035-.2zm.025.885c-.36 0-.642.102-.845.305-.204.203-.334.492-.39.865h2.32c0-.16-.022-.31-.065-.45a1.057 1.057 0 00-.2-.375.924.924 0 00-.34-.25 1.139 1.139 0 00-.48-.095zm3.196 4.325v-5.13h.725c.127 0 .215.023.265.07.05.047.084.127.1.24l.075.62c.184-.317.399-.567.645-.75.247-.183.524-.275.83-.275.254 0 .464.058.63.175l-.16.925c-.01.06-.031.103-.065.13a.233.233 0 01-.135.035.861.861 0 01-.205-.035 1.38 1.38 0 00-.345-.035c-.256 0-.476.072-.66.215-.183.14-.338.347-.465.62V232h-1.235zm8.366-7.31c.333 0 .638.05.915.15.277.097.513.235.71.415.197.18.35.397.46.65.11.253.165.535.165.845 0 .267-.04.513-.12.74a2.953 2.953 0 01-.315.65c-.13.207-.283.407-.46.6-.177.193-.362.39-.555.59l-1.63 1.665c.16-.047.317-.082.47-.105.153-.027.3-.04.44-.04h1.855c.133 0 .238.038.315.115a.38.38 0 01.12.295v.74h-4.96v-.41c0-.083.017-.17.05-.26a.761.761 0 01.17-.25l2.195-2.2c.183-.187.347-.365.49-.535a3.34 3.34 0 00.365-.505c.1-.167.175-.335.225-.505.053-.173.08-.355.08-.545 0-.173-.025-.325-.075-.455a.866.866 0 00-.55-.535 1.231 1.231 0 00-.43-.07c-.297 0-.542.075-.735.225-.19.15-.323.352-.4.605a.52.52 0 01-.165.275.466.466 0 01-.28.08 1.01 1.01 0 01-.165-.015l-.65-.115c.05-.347.147-.65.29-.91.143-.263.322-.482.535-.655.217-.177.463-.308.74-.395.28-.09.58-.135.9-.135z" fill="#2C4251"/><rect x="208" y="269" width="59" height="47" rx="7" fill="#F2F6FE"/><rect x="215" y="277" width="45" height="31" rx="4" fill="#fff"/><path d="M239.174 289.871h-2.341a.52.52 0 00-.521.522.522.522 0 00.521.522h2.341a.52.52 0 00.52-.522.524.524 0 00-.52-.522zm3.119-3.988a.518.518 0 00-.481.322.52.52 0 101.001.2.524.524 0 00-.321-.482.505.505 0 00-.199-.04zm-3.119 3.988h-2.341a.52.52 0 00-.521.522.522.522 0 00.521.522h2.341a.52.52 0 00.52-.522.524.524 0 00-.52-.522zm0 0h-2.341a.52.52 0 00-.521.522.522.522 0 00.521.522h2.341a.52.52 0 00.52-.522.524.524 0 00-.52-.522z" fill="#63E17D"/><path d="M242.579 284.058h-.805v-4.536a.522.522 0 00-.52-.522h-6.507a.529.529 0 00-.368.153.53.53 0 00-.153.369v4.536h-.798a2.082 2.082 0 00-2.08 2.094v3.719a2.088 2.088 0 002.08 2.085h.805v.522a.52.52 0 00.52.522h6.507a.518.518 0 00.521-.522v-.522h.805c.513 0 1.008-.19 1.39-.534a2.09 2.09 0 00.679-1.329v-3.941a2.083 2.083 0 00-.605-1.478 2.1 2.1 0 00-.674-.455 2.097 2.097 0 00-.797-.161zm-7.305-4.008h5.459v4.008h-5.459v-4.008zm5.459 11.906h-5.459v-3.194h5.459v3.194zm1.846-1.041h-.805v-2.153h.285a.52.52 0 00.52-.522.524.524 0 00-.52-.522h-8.113a.52.52 0 00-.52.522.521.521 0 00.52.522h.287v2.174h-.805a1.042 1.042 0 01-1.041-1.043v-3.741a1.042 1.042 0 011.041-1.041h9.151a1.04 1.04 0 011.041 1.041v3.719a1.042 1.042 0 01-1.041 1.044z" fill="url(#paint16_linear)"/><path d="M224.448 301.212c.216 0 .405-.028.568-.084.165-.056.303-.135.412-.236a1 1 0 00.252-.368c.056-.144.084-.303.084-.476 0-.349-.109-.624-.328-.824-.216-.2-.545-.3-.988-.3h-.888v2.288h.888zm0-2.956c.368 0 .688.043.96.128s.497.207.676.364a1.4 1.4 0 01.396.564c.088.221.132.467.132.736 0 .269-.047.517-.14.744a1.596 1.596 0 01-.412.58 1.903 1.903 0 01-.68.38 3 3 0 01-.932.132h-.888V304h-.852v-5.744h1.74zm3.609 2.46a1.86 1.86 0 01.472-.628 1.01 1.01 0 01.664-.228c.088 0 .171.011.248.032.08.019.15.048.208.088l-.052.588c-.018.072-.062.108-.132.108a1.1 1.1 0 01-.168-.02 1.135 1.135 0 00-.24-.024.92.92 0 00-.332.056.766.766 0 00-.26.16 1.084 1.084 0 00-.2.26 2.578 2.578 0 00-.164.348V304h-.78v-4.064h.448c.086 0 .143.016.172.048.032.029.055.083.068.16l.048.572zm3.01-.78V304h-.78v-4.064h.78zm.148-1.256a.518.518 0 01-.164.38.549.549 0 01-.172.116.55.55 0 01-.412 0 .628.628 0 01-.172-.116.628.628 0 01-.116-.172.55.55 0 01.116-.588.533.533 0 01.172-.116.518.518 0 01.412 0 .476.476 0 01.172.116.512.512 0 01.12.172.497.497 0 01.044.208zm1.713 1.82c.088-.093.18-.179.276-.256a1.709 1.709 0 01.652-.324c.126-.032.259-.048.4-.048.224 0 .42.037.588.112.171.075.314.18.428.316.115.133.202.295.26.484.059.189.088.399.088.628V304h-.784v-2.588c0-.291-.066-.516-.2-.676-.133-.163-.337-.244-.612-.244-.2 0-.388.048-.564.144a1.852 1.852 0 00-.484.384V304h-.78v-4.064h.468c.11 0 .178.052.204.156l.06.408zm4.962 3.564c-.328 0-.581-.092-.76-.276-.176-.184-.264-.447-.264-.788v-2.432h-.472a.174.174 0 01-.116-.04c-.029-.029-.044-.072-.044-.128v-.316l.66-.092.176-1.212a.189.189 0 01.06-.104.18.18 0 01.12-.04h.396V300h1.152v.568h-1.152v2.38c0 .16.039.28.116.36.08.077.182.116.304.116a.524.524 0 00.184-.028.844.844 0 00.232-.124.13.13 0 01.072-.028c.027 0 .047.007.06.02a.174.174 0 01.048.056l.232.376c-.128.117-.28.208-.456.272a1.588 1.588 0 01-.548.096zm4.295-2.548a1.28 1.28 0 00-.068-.428.925.925 0 00-.192-.34.872.872 0 00-.312-.224 1.058 1.058 0 00-.424-.08c-.328 0-.586.095-.776.284-.186.189-.305.452-.356.788h2.128zm.644 1.904a1.575 1.575 0 01-.332.292 1.98 1.98 0 01-.4.196 2.385 2.385 0 01-.44.112 2.788 2.788 0 01-.444.036c-.28 0-.54-.047-.78-.14a1.797 1.797 0 01-.62-.416 1.974 1.974 0 01-.408-.68 2.806 2.806 0 01-.144-.936c0-.283.044-.545.132-.788.088-.245.214-.459.376-.64.166-.181.367-.324.604-.428.238-.104.504-.156.8-.156.248 0 .476.041.684.124.211.08.392.197.544.352.152.155.271.345.356.572.088.227.132.485.132.776 0 .12-.013.201-.04.244-.026.04-.076.06-.148.06h-2.664c.008.243.043.455.104.636.062.179.146.328.252.448.11.12.239.209.388.268.15.059.316.088.5.088.174 0 .323-.02.448-.06a2.229 2.229 0 00.56-.26.33.33 0 01.168-.06.17.17 0 01.148.072l.224.288zm1.635-2.704c.13-.267.288-.476.472-.628.184-.152.405-.228.664-.228.088 0 .17.011.248.032.08.019.149.048.208.088l-.052.588c-.019.072-.063.108-.132.108-.038 0-.094-.007-.168-.02a1.149 1.149 0 00-.24-.024.916.916 0 00-.332.056.757.757 0 00-.26.16 1.035 1.035 0 00-.2.26 2.356 2.356 0 00-.164.348V304h-.78v-4.064h.448c.085 0 .142.016.172.048.032.029.054.083.068.16l.048.572zm6.991 1.144l-.852-2.228a5.168 5.168 0 01-.184-.576c-.029.115-.06.221-.092.32a3.257 3.257 0 01-.088.264l-.848 2.22h2.064zm1.684 2.14h-.656a.294.294 0 01-.184-.056.316.316 0 01-.104-.144l-.508-1.332h-2.532l-.508 1.332a.33.33 0 01-.104.14.287.287 0 01-.184.06h-.656l2.288-5.744h.86l2.288 5.744z" fill="#2C4251"/><rect x="272" y="269" width="59" height="47" rx="7" fill="#F2F6FE"/><rect x="279" y="277" width="45" height="31" rx="4" fill="#fff"/><path d="M303.174 289.871h-2.341a.52.52 0 00-.521.522.522.522 0 00.521.522h2.341a.52.52 0 00.52-.522.524.524 0 00-.52-.522zm3.119-3.988a.518.518 0 00-.481.322.52.52 0 101.001.2.524.524 0 00-.321-.482.505.505 0 00-.199-.04zm-3.119 3.988h-2.341a.52.52 0 00-.521.522.522.522 0 00.521.522h2.341a.52.52 0 00.52-.522.524.524 0 00-.52-.522zm0 0h-2.341a.52.52 0 00-.521.522.522.522 0 00.521.522h2.341a.52.52 0 00.52-.522.524.524 0 00-.52-.522z" fill="#63E17D"/><path d="M306.579 284.058h-.805v-4.536a.522.522 0 00-.52-.522h-6.507a.529.529 0 00-.368.153.53.53 0 00-.153.369v4.536h-.798a2.082 2.082 0 00-2.08 2.094v3.719a2.088 2.088 0 002.08 2.085h.805v.522a.52.52 0 00.52.522h6.507a.518.518 0 00.521-.522v-.522h.805c.513 0 1.008-.19 1.39-.534a2.09 2.09 0 00.679-1.329v-3.941a2.083 2.083 0 00-.605-1.478 2.1 2.1 0 00-.674-.455 2.097 2.097 0 00-.797-.161zm-7.305-4.008h5.459v4.008h-5.459v-4.008zm5.459 11.906h-5.459v-3.194h5.459v3.194zm1.846-1.041h-.805v-2.153h.285a.52.52 0 00.52-.522.524.524 0 00-.52-.522h-8.113a.52.52 0 00-.52.522.521.521 0 00.52.522h.287v2.174h-.805a1.042 1.042 0 01-1.041-1.043v-3.741a1.042 1.042 0 011.041-1.041h9.151a1.04 1.04 0 011.041 1.041v3.719a1.042 1.042 0 01-1.041 1.044z" fill="url(#paint17_linear)"/><path d="M288.448 301.212c.216 0 .405-.028.568-.084.165-.056.303-.135.412-.236a1 1 0 00.252-.368c.056-.144.084-.303.084-.476 0-.349-.109-.624-.328-.824-.216-.2-.545-.3-.988-.3h-.888v2.288h.888zm0-2.956c.368 0 .688.043.96.128s.497.207.676.364a1.4 1.4 0 01.396.564c.088.221.132.467.132.736 0 .269-.047.517-.14.744a1.596 1.596 0 01-.412.58 1.903 1.903 0 01-.68.38 3 3 0 01-.932.132h-.888V304h-.852v-5.744h1.74zm3.609 2.46a1.86 1.86 0 01.472-.628 1.01 1.01 0 01.664-.228c.088 0 .171.011.248.032.08.019.15.048.208.088l-.052.588c-.018.072-.062.108-.132.108a1.1 1.1 0 01-.168-.02 1.135 1.135 0 00-.24-.024.92.92 0 00-.332.056.766.766 0 00-.26.16 1.084 1.084 0 00-.2.26 2.578 2.578 0 00-.164.348V304h-.78v-4.064h.448c.086 0 .143.016.172.048.032.029.055.083.068.16l.048.572zm3.01-.78V304h-.78v-4.064h.78zm.148-1.256a.518.518 0 01-.164.38.549.549 0 01-.172.116.55.55 0 01-.412 0 .628.628 0 01-.172-.116.628.628 0 01-.116-.172.55.55 0 01.116-.588.533.533 0 01.172-.116.518.518 0 01.412 0 .476.476 0 01.172.116.512.512 0 01.12.172.497.497 0 01.044.208zm1.713 1.82c.088-.093.18-.179.276-.256a1.709 1.709 0 01.652-.324c.126-.032.259-.048.4-.048.224 0 .42.037.588.112.171.075.314.18.428.316.115.133.202.295.26.484.059.189.088.399.088.628V304h-.784v-2.588c0-.291-.066-.516-.2-.676-.133-.163-.337-.244-.612-.244-.2 0-.388.048-.564.144a1.852 1.852 0 00-.484.384V304h-.78v-4.064h.468c.11 0 .178.052.204.156l.06.408zm4.962 3.564c-.328 0-.581-.092-.76-.276-.176-.184-.264-.447-.264-.788v-2.432h-.472a.174.174 0 01-.116-.04c-.029-.029-.044-.072-.044-.128v-.316l.66-.092.176-1.212a.189.189 0 01.06-.104.18.18 0 01.12-.04h.396V300h1.152v.568h-1.152v2.38c0 .16.039.28.116.36.08.077.182.116.304.116a.524.524 0 00.184-.028.844.844 0 00.232-.124.13.13 0 01.072-.028c.027 0 .047.007.06.02a.174.174 0 01.048.056l.232.376c-.128.117-.28.208-.456.272a1.588 1.588 0 01-.548.096zm4.295-2.548a1.28 1.28 0 00-.068-.428.925.925 0 00-.192-.34.872.872 0 00-.312-.224 1.058 1.058 0 00-.424-.08c-.328 0-.586.095-.776.284-.186.189-.305.452-.356.788h2.128zm.644 1.904a1.575 1.575 0 01-.332.292 1.98 1.98 0 01-.4.196 2.385 2.385 0 01-.44.112 2.788 2.788 0 01-.444.036c-.28 0-.54-.047-.78-.14a1.797 1.797 0 01-.62-.416 1.974 1.974 0 01-.408-.68 2.806 2.806 0 01-.144-.936c0-.283.044-.545.132-.788.088-.245.214-.459.376-.64.166-.181.367-.324.604-.428.238-.104.504-.156.8-.156.248 0 .476.041.684.124.211.08.392.197.544.352.152.155.271.345.356.572.088.227.132.485.132.776 0 .12-.013.201-.04.244-.026.04-.076.06-.148.06h-2.664c.008.243.043.455.104.636.062.179.146.328.252.448.11.12.239.209.388.268.15.059.316.088.5.088.174 0 .323-.02.448-.06a2.229 2.229 0 00.56-.26.33.33 0 01.168-.06.17.17 0 01.148.072l.224.288zm1.635-2.704c.13-.267.288-.476.472-.628.184-.152.405-.228.664-.228.088 0 .17.011.248.032.08.019.149.048.208.088l-.052.588c-.019.072-.063.108-.132.108-.038 0-.094-.007-.168-.02a1.149 1.149 0 00-.24-.024.916.916 0 00-.332.056.757.757 0 00-.26.16 1.035 1.035 0 00-.2.26 2.356 2.356 0 00-.164.348V304h-.78v-4.064h.448c.085 0 .142.016.172.048.032.029.054.083.068.16l.048.572zm6.991 1.144l-.852-2.228a5.168 5.168 0 01-.184-.576c-.029.115-.06.221-.092.32a3.257 3.257 0 01-.088.264l-.848 2.22h2.064zm1.684 2.14h-.656a.294.294 0 01-.184-.056.316.316 0 01-.104-.144l-.508-1.332h-2.532l-.508 1.332a.33.33 0 01-.104.14.287.287 0 01-.184.06h-.656l2.288-5.744h.86l2.288 5.744z" fill="#2C4251"/><path d="M365 188c11.598 0 21-9.178 21-20.5s-9.402-20.5-21-20.5-21 9.178-21 20.5 9.402 20.5 21 20.5z" fill="url(#paint18_linear)"/><path d="M365 184c8.837 0 16-7.387 16-16.5s-7.163-16.5-16-16.5-16 7.387-16 16.5 7.163 16.5 16 16.5z" fill="#fff"/><g clip-path="url(#clip5)"><path d="M366.994 173.785h-7.216a.594.594 0 01-.469-.223.613.613 0 01-.124-.513c.608-2.921 3.185-5.054 6.16-5.126a3.968 3.968 0 00.312 0 6.378 6.378 0 012.609.619.585.585 0 10.503-1.058 7.73 7.73 0 00-.882-.354 3.982 3.982 0 00-2.387-7.173 3.988 3.988 0 00-3.984 3.984 3.98 3.98 0 001.6 3.191 7.627 7.627 0 00-5.078 5.678 1.782 1.782 0 001.74 2.147h7.216a.586.586 0 100-1.172zm-4.307-9.844a2.816 2.816 0 012.813-2.812 2.815 2.815 0 012.812 2.812 2.815 2.815 0 01-2.669 2.809l-.143-.001-.142.001a2.816 2.816 0 01-2.671-2.809zM373 172.174a.586.586 0 01-.586.586h-1.611v1.611a.586.586 0 01-1.172 0v-1.611h-1.611a.586.586 0 010-1.172h1.611v-1.611a.586.586 0 111.172 0v1.611h1.611c.324 0 .586.262.586.586z" fill="url(#paint19_linear)"/></g><rect x="416" y="147" width="123" height="41" rx="7" fill="#F2F6FE"/><rect x="423" y="154" width="109" height="27" rx="4" fill="#fff"/><path d="M455.022 166.682l-6.657-6.562a.416.416 0 00-.585 0l-6.658 6.562a.407.407 0 00-.001.58.417.417 0 00.586.001l.122-.12v6.447c0 .226.185.41.414.41h11.658a.413.413 0 00.415-.41v-6.447l.121.12c.163.16.425.16.587-.001a.408.408 0 00-.002-.58zm-5.707 6.498h-2.486v-3.336h2.486v3.336zm4.172 0h-3.343v-3.746a.412.412 0 00-.414-.411h-3.315a.413.413 0 00-.415.411v3.746h-3.342v-6.854l5.414-5.337 5.415 5.337v6.854z" fill="url(#paint20_linear)"/><path d="M446 166.152c0 1.131.929 2.051 2.072 2.051 1.142 0 2.072-.92 2.072-2.051 0-1.13-.93-2.05-2.072-2.05-1.143 0-2.072.92-2.072 2.05zm3.315 0c0 .679-.558 1.231-1.243 1.231a1.238 1.238 0 01-1.243-1.231c0-.678.557-1.23 1.243-1.23.685 0 1.243.552 1.243 1.23z" fill="url(#paint21_linear)"/><path d="M467.845 169.295c.073 0 .136.028.19.085l.53.575a2.911 2.911 0 01-1.085.835c-.427.193-.94.29-1.54.29-.537 0-1.02-.092-1.45-.275a3.18 3.18 0 01-1.095-.765 3.37 3.37 0 01-.7-1.17 4.43 4.43 0 01-.24-1.485c0-.543.09-1.04.27-1.49.18-.453.433-.843.76-1.17.326-.327.716-.58 1.17-.76.456-.183.96-.275 1.51-.275.536 0 1.005.087 1.405.26.403.17.748.397 1.035.68l-.45.625a.403.403 0 01-.105.105.28.28 0 01-.17.045.392.392 0 01-.235-.09 2.488 2.488 0 00-.775-.39 2.382 2.382 0 00-.715-.09c-.34 0-.654.06-.94.18a2.078 2.078 0 00-.735.505c-.204.22-.364.488-.48.805-.114.313-.17.667-.17 1.06 0 .407.056.768.17 1.085.116.317.273.583.47.8.196.217.428.383.695.5.266.113.553.17.86.17.183 0 .348-.01.495-.03.15-.02.286-.052.41-.095.126-.043.245-.098.355-.165.113-.07.225-.155.335-.255a.41.41 0 01.105-.07.243.243 0 01.12-.03zm2.799-3.425v3.26c0 .313.071.557.215.73.146.17.365.255.655.255.213 0 .413-.047.6-.14.186-.097.363-.228.53-.395v-3.71h1.235V171h-.755c-.16 0-.265-.075-.315-.225l-.085-.41a3.92 3.92 0 01-.33.295 1.947 1.947 0 01-.78.365 1.94 1.94 0 01-.475.055c-.28 0-.529-.047-.745-.14a1.514 1.514 0 01-.54-.405 1.775 1.775 0 01-.335-.615 2.67 2.67 0 01-.11-.79v-3.26h1.235zm7.598 1a.35.35 0 01-.105.115.29.29 0 01-.14.03.462.462 0 01-.195-.05 6.55 6.55 0 00-.235-.11 1.94 1.94 0 00-.31-.115 1.455 1.455 0 00-.405-.05c-.243 0-.435.052-.575.155a.48.48 0 00-.21.405.4.4 0 00.105.28c.073.073.168.138.285.195.12.057.255.108.405.155.15.043.303.092.46.145.157.053.31.115.46.185.15.067.283.153.4.26.12.103.215.228.285.375.073.147.11.323.11.53 0 .247-.045.475-.135.685-.09.207-.222.387-.395.54-.173.15-.388.268-.645.355a2.808 2.808 0 01-.875.125 2.72 2.72 0 01-.52-.05 2.826 2.826 0 01-.915-.33 2.154 2.154 0 01-.345-.25l.285-.47c.037-.057.08-.1.13-.13a.364.364 0 01.19-.045.39.39 0 01.215.065c.07.043.15.09.24.14a1.426 1.426 0 00.78.205c.147 0 .272-.017.375-.05a.798.798 0 00.26-.14.494.494 0 00.15-.195.59.59 0 00.05-.235.411.411 0 00-.11-.295.901.901 0 00-.285-.2 2.424 2.424 0 00-.405-.15 30.13 30.13 0 01-.465-.15 4.836 4.836 0 01-.465-.185 1.692 1.692 0 01-.405-.275 1.274 1.274 0 01-.285-.405 1.442 1.442 0 01-.105-.58c0-.21.042-.41.125-.6.083-.19.205-.355.365-.495.163-.143.365-.257.605-.34.243-.087.523-.13.84-.13.353 0 .675.058.965.175.29.117.532.27.725.46l-.28.445zm3.005 4.21c-.443 0-.785-.125-1.025-.375-.24-.253-.36-.602-.36-1.045v-2.865h-.52a.262.262 0 01-.175-.065c-.046-.043-.07-.108-.07-.195v-.49l.825-.135.26-1.4a.258.258 0 01.09-.155.303.303 0 01.185-.055h.64v1.615h1.35v.88h-1.35v2.78c0 .16.04.285.12.375.08.09.187.135.32.135a.6.6 0 00.325-.085c.04-.02.075-.038.105-.055.03-.02.06-.03.09-.03.037 0 .067.01.09.03a.326.326 0 01.075.08l.37.6c-.18.15-.386.263-.62.34a2.297 2.297 0 01-.725.115zm4.373-5.29a2.8 2.8 0 011.04.185c.313.123.58.298.8.525.22.227.39.503.51.83.12.327.18.692.18 1.095 0 .407-.06.773-.18 1.1-.12.327-.29.605-.51.835a2.21 2.21 0 01-.8.53 2.8 2.8 0 01-1.04.185c-.384 0-.732-.062-1.045-.185a2.247 2.247 0 01-.805-.53 2.427 2.427 0 01-.515-.835 3.173 3.173 0 01-.18-1.1c0-.403.06-.768.18-1.095.123-.327.295-.603.515-.83.223-.227.491-.402.805-.525a2.834 2.834 0 011.045-.185zm0 4.335c.426 0 .741-.143.945-.43.206-.287.31-.707.31-1.26s-.104-.975-.31-1.265c-.204-.29-.519-.435-.945-.435-.434 0-.754.147-.96.44-.207.29-.31.71-.31 1.26s.103.97.31 1.26c.206.287.526.43.96.43zm3.493.875v-5.13h.755c.16 0 .265.075.315.225l.08.38c.09-.1.183-.192.28-.275a1.65 1.65 0 011.1-.41c.323 0 .588.088.795.265.21.173.367.405.47.695a1.632 1.632 0 01.695-.735 1.82 1.82 0 01.455-.17 2.21 2.21 0 01.49-.055c.283 0 .535.043.755.13.22.087.405.213.555.38.15.167.263.37.34.61.08.24.12.515.12.825V171h-1.235v-3.265c0-.327-.072-.572-.215-.735-.143-.167-.353-.25-.63-.25a.965.965 0 00-.355.065.848.848 0 00-.285.19.856.856 0 00-.19.305c-.047.123-.07.265-.07.425V171h-1.24v-3.265c0-.343-.07-.593-.21-.75-.137-.157-.34-.235-.61-.235a.988.988 0 00-.5.135 1.662 1.662 0 00-.43.36V171h-1.235zm10.538-5.21c.323 0 .62.052.89.155.273.103.508.255.705.455.197.197.35.44.46.73a2.738 2.738 0 01.15 1.22.35.35 0 01-.045.145.189.189 0 01-.085.075.424.424 0 01-.14.02h-3.17c.037.527.178.913.425 1.16.247.247.573.37.98.37.2 0 .372-.023.515-.07a2.3 2.3 0 00.38-.155c.11-.057.205-.108.285-.155a.486.486 0 01.24-.07c.05 0 .093.01.13.03.037.02.068.048.095.085l.36.45c-.137.16-.29.295-.46.405a2.725 2.725 0 01-1.1.395c-.19.027-.375.04-.555.04-.357 0-.688-.058-.995-.175a2.272 2.272 0 01-.8-.525 2.486 2.486 0 01-.535-.86 3.347 3.347 0 01-.195-1.19c0-.35.057-.678.17-.985.113-.31.275-.578.485-.805.213-.23.472-.412.775-.545.307-.133.652-.2 1.035-.2zm.025.885c-.36 0-.642.102-.845.305-.203.203-.333.492-.39.865h2.32c0-.16-.022-.31-.065-.45a1.041 1.041 0 00-.2-.375.916.916 0 00-.34-.25 1.139 1.139 0 00-.48-.095zm3.197 4.325v-5.13h.725c.127 0 .215.023.265.07.05.047.083.127.1.24l.075.62a2.42 2.42 0 01.645-.75 1.36 1.36 0 01.83-.275c.253 0 .463.058.63.175l-.16.925a.204.204 0 01-.065.13.233.233 0 01-.135.035.861.861 0 01-.205-.035 1.391 1.391 0 00-.345-.035 1.04 1.04 0 00-.66.215c-.183.14-.338.347-.465.62V171h-1.235zm8.481-7.31c.333 0 .633.048.9.145.27.093.5.225.69.395a1.758 1.758 0 01.59 1.325c0 .23-.027.433-.08.61a1.356 1.356 0 01-.585.785c-.14.09-.3.165-.48.225.433.137.756.345.97.625.213.28.32.632.32 1.055 0 .36-.067.678-.2.955-.134.277-.314.51-.54.7-.227.187-.49.328-.79.425a3.025 3.025 0 01-.945.145c-.364 0-.68-.042-.95-.125a2.063 2.063 0 01-.705-.37c-.2-.163-.37-.363-.51-.6s-.26-.51-.36-.82l.545-.225a.715.715 0 01.285-.06c.086 0 .163.018.23.055.07.037.123.09.16.16.06.117.125.232.195.345.073.113.16.215.26.305.1.087.216.158.35.215.136.053.298.08.485.08.21 0 .393-.033.55-.1.156-.07.286-.16.39-.27a1.128 1.128 0 00.315-.775c0-.173-.019-.33-.055-.47a.708.708 0 00-.23-.365c-.117-.1-.285-.178-.505-.235-.217-.057-.509-.085-.875-.085v-.88c.303-.003.555-.032.755-.085.2-.053.358-.127.475-.22a.769.769 0 00.25-.345c.046-.133.07-.28.07-.44 0-.343-.094-.602-.28-.775-.187-.177-.442-.265-.765-.265-.294 0-.537.078-.73.235a1.193 1.193 0 00-.405.595.561.561 0 01-.165.275.444.444 0 01-.275.08 1.03 1.03 0 01-.17-.015l-.65-.115c.05-.347.146-.65.29-.91a2.15 2.15 0 011.275-1.05c.28-.09.58-.135.9-.135z" fill="#2C4251"/><path d="M573 187c11.598 0 21-9.178 21-20.5s-9.402-20.5-21-20.5-21 9.178-21 20.5 9.402 20.5 21 20.5z" fill="url(#paint22_linear)"/><path d="M573 183c8.837 0 16-7.387 16-16.5s-7.163-16.5-16-16.5-16 7.387-16 16.5 7.163 16.5 16 16.5z" fill="#fff"/><g clip-path="url(#clip6)"><path d="M574.994 172.785h-7.216a.594.594 0 01-.469-.223.613.613 0 01-.124-.513c.608-2.921 3.185-5.054 6.16-5.126a3.968 3.968 0 00.312 0 6.378 6.378 0 012.609.619.585.585 0 10.503-1.058 7.73 7.73 0 00-.882-.354 3.982 3.982 0 00-2.387-7.173 3.988 3.988 0 00-3.984 3.984 3.98 3.98 0 001.6 3.191 7.627 7.627 0 00-5.078 5.678 1.782 1.782 0 001.74 2.147h7.216a.586.586 0 100-1.172zm-4.307-9.844a2.816 2.816 0 012.813-2.812 2.815 2.815 0 012.812 2.812 2.815 2.815 0 01-2.669 2.809l-.143-.001-.142.001a2.816 2.816 0 01-2.671-2.809zM581 171.174a.586.586 0 01-.586.586h-1.611v1.611a.586.586 0 01-1.172 0v-1.611h-1.611a.586.586 0 010-1.172h1.611v-1.611a.586.586 0 111.172 0v1.611h1.611c.324 0 .586.262.586.586z" fill="url(#paint23_linear)"/></g><defs><linearGradient id="paint0_linear" x1="163.977" y1="61.504" x2="373.913" y2="61.504" gradientUnits="userSpaceOnUse"><stop stop-color="#F2F6FE"/><stop offset=".38" stop-color="#EEF4FE"/><stop offset=".8" stop-color="#E0ECFD"/><stop offset="1" stop-color="#D7E7FD"/></linearGradient><linearGradient id="paint1_linear" x1="268.964" y1="93.483" x2="268.964" y2="45.285" gradientUnits="userSpaceOnUse"><stop stop-color="#D90F16"/><stop offset="1" stop-color="#FFB8A9"/></linearGradient><linearGradient id="paint2_linear" x1="9116.86" y1="19201.7" x2="12755" y2="19201.7" gradientUnits="userSpaceOnUse"><stop stop-color="#F2F6FE"/><stop offset="1" stop-color="#D7E7FD"/></linearGradient><linearGradient id="paint3_linear" x1="405" y1="42.956" x2="405" y2="22.956" gradientUnits="userSpaceOnUse"><stop stop-color="#D90F16"/><stop offset="1" stop-color="#FFB8A9"/></linearGradient><linearGradient id="paint4_linear" x1="32.072" y1="174" x2="32.072" y2="160" gradientUnits="userSpaceOnUse"><stop stop-color="#2BC44E"/><stop offset="1" stop-color="#9CFFAC"/></linearGradient><linearGradient id="paint5_linear" x1="32.072" y1="168.203" x2="32.072" y2="164.102" gradientUnits="userSpaceOnUse"><stop stop-color="#2BC44E"/><stop offset="1" stop-color="#9CFFAC"/></linearGradient><linearGradient id="paint6_linear" x1="32" y1="229.203" x2="32" y2="223.461" gradientUnits="userSpaceOnUse"><stop stop-color="#FD9800"/><stop offset="1" stop-color="#FAC64B"/></linearGradient><linearGradient id="paint7_linear" x1="32" y1="235" x2="32" y2="221" gradientUnits="userSpaceOnUse"><stop stop-color="#FD5900"/><stop offset="1" stop-color="#FFDE00"/></linearGradient><linearGradient id="paint8_linear" x1="30.001" y1="293" x2="30.001" y2="279" gradientUnits="userSpaceOnUse"><stop stop-color="#2BC44E"/><stop offset="1" stop-color="#9CFFAC"/></linearGradient><linearGradient id="paint9_linear" x1="94.001" y1="293" x2="94.001" y2="279" gradientUnits="userSpaceOnUse"><stop stop-color="#2BC44E"/><stop offset="1" stop-color="#9CFFAC"/></linearGradient><linearGradient id="paint10_linear" x1="8112.22" y1="17252.6" x2="11434" y2="17252.6" gradientUnits="userSpaceOnUse"><stop stop-color="#F2F6FE"/><stop offset="1" stop-color="#D7E7FD"/></linearGradient><linearGradient id="paint11_linear" x1="157.5" y1="174.957" x2="157.5" y2="159.957" gradientUnits="userSpaceOnUse"><stop stop-color="#D90F16"/><stop offset="1" stop-color="#FFB8A9"/></linearGradient><linearGradient id="paint12_linear" x1="247.072" y1="174" x2="247.072" y2="160" gradientUnits="userSpaceOnUse"><stop stop-color="#2BC44E"/><stop offset="1" stop-color="#9CFFAC"/></linearGradient><linearGradient id="paint13_linear" x1="247.072" y1="168.203" x2="247.072" y2="164.102" gradientUnits="userSpaceOnUse"><stop stop-color="#2BC44E"/><stop offset="1" stop-color="#9CFFAC"/></linearGradient><linearGradient id="paint14_linear" x1="240" y1="229.203" x2="240" y2="223.461" gradientUnits="userSpaceOnUse"><stop stop-color="#FD9800"/><stop offset="1" stop-color="#FAC64B"/></linearGradient><linearGradient id="paint15_linear" x1="240" y1="235" x2="240" y2="221" gradientUnits="userSpaceOnUse"><stop stop-color="#FD5900"/><stop offset="1" stop-color="#FFDE00"/></linearGradient><linearGradient id="paint16_linear" x1="238.001" y1="293" x2="238.001" y2="279" gradientUnits="userSpaceOnUse"><stop stop-color="#2BC44E"/><stop offset="1" stop-color="#9CFFAC"/></linearGradient><linearGradient id="paint17_linear" x1="302.001" y1="293" x2="302.001" y2="279" gradientUnits="userSpaceOnUse"><stop stop-color="#2BC44E"/><stop offset="1" stop-color="#9CFFAC"/></linearGradient><linearGradient id="paint18_linear" x1="8320.22" y1="17252.6" x2="11642" y2="17252.6" gradientUnits="userSpaceOnUse"><stop stop-color="#F2F6FE"/><stop offset="1" stop-color="#D7E7FD"/></linearGradient><linearGradient id="paint19_linear" x1="365.5" y1="174.957" x2="365.5" y2="159.957" gradientUnits="userSpaceOnUse"><stop stop-color="#D90F16"/><stop offset="1" stop-color="#FFB8A9"/></linearGradient><linearGradient id="paint20_linear" x1="448.072" y1="174" x2="448.072" y2="160" gradientUnits="userSpaceOnUse"><stop stop-color="#2BC44E"/><stop offset="1" stop-color="#9CFFAC"/></linearGradient><linearGradient id="paint21_linear" x1="448.072" y1="168.203" x2="448.072" y2="164.102" gradientUnits="userSpaceOnUse"><stop stop-color="#2BC44E"/><stop offset="1" stop-color="#9CFFAC"/></linearGradient><linearGradient id="paint22_linear" x1="8528.22" y1="17251.6" x2="11850" y2="17251.6" gradientUnits="userSpaceOnUse"><stop stop-color="#F2F6FE"/><stop offset="1" stop-color="#D7E7FD"/></linearGradient><linearGradient id="paint23_linear" x1="573.5" y1="173.957" x2="573.5" y2="158.957" gradientUnits="userSpaceOnUse"><stop stop-color="#D90F16"/><stop offset="1" stop-color="#FFB8A9"/></linearGradient><clipPath id="clip0"><path fill="#fff" transform="translate(395 22.956)" d="M0 0h20.241v20H0z"/></clipPath><clipPath id="clip1"><path fill="#fff" transform="translate(395 22.956)" d="M0 0h20v20H0z"/></clipPath><clipPath id="clip2"><path fill="#fff" transform="translate(25 221)" d="M0 0h14v14H0z"/></clipPath><clipPath id="clip3"><path fill="#fff" transform="translate(150 159.957)" d="M0 0h15v15H0z"/></clipPath><clipPath id="clip4"><path fill="#fff" transform="translate(233 221)" d="M0 0h14v14H0z"/></clipPath><clipPath id="clip5"><path fill="#fff" transform="translate(358 159.957)" d="M0 0h15v15H0z"/></clipPath><clipPath id="clip6"><path fill="#fff" transform="translate(566 158.957)" d="M0 0h15v15H0z"/></clipPath></defs></svg>