<svg width="1440" height="1108" fill="none" xmlns="http://www.w3.org/2000/svg"><path fill-rule="evenodd" clip-rule="evenodd" d="M1384.37 992.963c-181.8 17.337-469.391-42.156-703.763-148.085 0 0-249.858-87.486-468.479-22.349-250.897 52.554-408.13 258.831-707.105 284.811-111.676-55.96-54.088-579.702-152.837-637.4 439.521-59.062 875.54-272.182 1264.178-317.309 77.563-10.423 167.567-8.298 233.854-3.012 232.212 32.606 420.242 200.732 640.002 171.201 116.34-15.634 249.72-106.269 311.06-142.898 109.73-71.52 180.69-137.83 320.41-177.895 88.3 80.393 57.24 261.987 86.68 399.966-136.67 175.847-472.49 567.025-824 592.97z" fill="url(#paint0_linear)"/><defs><linearGradient id="paint0_linear" x1="1942.22" y1="-246.155" x2="711.157" y2="1409.63" gradientUnits="userSpaceOnUse"><stop stop-color="#F5F8FF"/><stop offset="1" stop-color="#F5F8FF" stop-opacity=".45"/></linearGradient></defs></svg>