<svg width="195" height="37" fill="none" xmlns="http://www.w3.org/2000/svg"><path fill-rule="evenodd" clip-rule="evenodd" d="M32.67 29.013c-.324.821-1.07 1.978-2.129 2.792a6.97 6.97 0 01-2.342 1.218c-1.068.316-2.384.423-4.02.423H9.207c-1.638 0-2.953-.107-4.021-.423a6.97 6.97 0 01-2.343-1.218c-1.058-.814-1.804-1.97-2.127-2.792-.652-1.655-.658-3.533-.658-4.716V9.327c0-1.183.006-3.06.658-4.716.323-.821 1.07-1.978 2.127-2.793.611-.47 1.34-.92 2.343-1.217C6.255.285 7.57.178 9.207.178h14.971c1.637 0 2.953.107 4.021.423a6.972 6.972 0 012.342 1.217c1.058.815 1.805 1.972 2.128 2.793.652 1.655.658 3.533.658 4.716v14.97c0 1.183-.006 3.06-.658 4.716z" fill="url(#paint0_linear)"/><path d="M19.108 19.3c-.5-.527-1.377-.864-2.412-.864s-1.912.337-2.41.864a1.53 1.53 0 00-.442.958c-.085.777-.037 1.447.054 2.517.086 1.02.251 2.379.466 3.764.153.985.277 1.517.39 1.898.184.617.87 1.157 1.942 1.157 1.073 0 1.758-.54 1.942-1.157.113-.38.237-.913.39-1.898a57.95 57.95 0 00.467-3.764c.091-1.07.138-1.74.054-2.517a1.53 1.53 0 00-.441-.958zm-5.132-4.69a2.723 2.723 0 105.446 0 2.723 2.723 0 00-5.446 0zm2.69-10.745C10.296 3.883 5.08 9.05 5 15.417c-.064 5.158 3.229 9.57 7.826 11.187a.156.156 0 00.207-.17c-.06-.4-.117-.803-.169-1.2a.403.403 0 00-.237-.316c-3.634-1.588-6.171-5.232-6.13-9.454.053-5.54 4.577-10.057 10.117-10.101C22.278 5.317 26.9 9.911 26.9 15.564c0 4.18-2.526 7.78-6.132 9.354a.402.402 0 00-.236.318c-.052.395-.11.797-.17 1.198a.156.156 0 00.208.17c4.554-1.602 7.827-5.945 7.827-11.04 0-6.462-5.267-11.717-11.733-11.699zm-.212 5.367a6.347 6.347 0 016.59 6.336c0 1.82-.77 3.464-2.003 4.621a.485.485 0 00-.153.38c.025.436.016.859-.013 1.337a.154.154 0 00.24.137 7.835 7.835 0 003.427-6.475c0-4.424-3.686-8.004-8.148-7.831-4.146.16-7.473 3.58-7.526 7.729a7.834 7.834 0 003.426 6.577.154.154 0 00.24-.137c-.03-.478-.038-.901-.014-1.336a.485.485 0 00-.152-.38 6.324 6.324 0 01-2.002-4.792c.088-3.323 2.767-6.037 6.088-6.166z" fill="#fff"/><path d="M46.125 10.482V2.518h1.252v6.913h3.792v1.05h-5.044zm6.887-6.734c-.388 0-.726-.298-.726-.68 0-.383.338-.693.726-.693.4 0 .726.31.726.692 0 .383-.325.681-.726.681zm-.55 6.734V4.715h1.126v5.767H52.46zm2.33-.752l.539-.788c.413.43 1.214.823 2.027.823.851 0 1.302-.334 1.302-.823 0-.574-.688-.765-1.464-.932-1.026-.227-2.228-.49-2.228-1.73 0-.92.826-1.708 2.303-1.708 1.039 0 1.79.358 2.303.824l-.501.752c-.35-.406-1.026-.705-1.79-.705-.763 0-1.239.287-1.239.753 0 .501.651.668 1.402.835 1.051.227 2.303.502 2.303 1.827 0 .99-.851 1.767-2.44 1.767-1.014 0-1.903-.299-2.516-.895zm7.99.895c-.952 0-1.44-.513-1.44-1.42V5.657H60.34v-.943h1V3.14h1.127v1.576h1.227v.943h-1.227v3.307c0 .406.2.705.588.705.263 0 .501-.108.614-.227l.288.812c-.238.215-.589.37-1.177.37zm1.73-3.033c0-1.671 1.264-3.02 3.028-3.02 1.815 0 2.942 1.349 2.942 3.116v.263H65.7c.087.979.838 1.79 2.052 1.79.639 0 1.34-.238 1.79-.68l.526.704c-.601.561-1.452.86-2.428.86-1.803 0-3.13-1.218-3.13-3.033zm3.028-2.137c-1.213 0-1.79.932-1.852 1.72h3.692c-.025-.765-.563-1.72-1.84-1.72zm8.377 5.027v-3.69c0-.955-.513-1.265-1.29-1.265-.7 0-1.338.406-1.664.836v4.119h-1.126V4.715h1.126v.812c.4-.466 1.202-.955 2.14-.955 1.277 0 1.94.645 1.94 1.862v4.048h-1.126zm8.705.143c-1.877 0-3.053-1.361-3.053-3.033 0-1.66 1.176-3.02 3.053-3.02 1.89 0 3.054 1.36 3.054 3.02 0 1.672-1.164 3.033-3.054 3.033zm0-.955c1.214 0 1.877-.98 1.877-2.078 0-1.086-.663-2.065-1.877-2.065-1.201 0-1.877.979-1.877 2.065 0 1.099.676 2.078 1.877 2.078zm8.502.812v-3.69c0-.955-.513-1.265-1.29-1.265-.7 0-1.338.406-1.664.836v4.119h-1.126V4.715h1.126v.812c.4-.466 1.201-.955 2.14-.955 1.277 0 1.94.645 1.94 1.862v4.048h-1.126zM48.905 32.624l1.418-4.19h5.908l1.418 4.19h2.546L54.6 17.123H52l-5.597 15.501h2.503zm6.714-6.123h-4.684l2.31-6.8h.065l2.31 6.8zm8.325 9.861v-5.596h.054c.645 1.257 1.934 2.051 3.556 2.051 2.836 0 4.715-2.266 4.715-5.843 0-3.578-1.89-5.833-4.758-5.833-1.633 0-2.933.827-3.599 2.127h-.043v-1.945h-2.245v15.04h2.32zm2.954-5.51c-1.783 0-2.964-1.526-2.964-3.878 0-2.331 1.192-3.878 2.964-3.878 1.837 0 2.987 1.514 2.987 3.878 0 2.374-1.15 3.878-2.987 3.878zm9.475 5.51v-5.596h.054c.644 1.257 1.933 2.051 3.555 2.051 2.836 0 4.716-2.266 4.716-5.843 0-3.578-1.89-5.833-4.759-5.833-1.632 0-2.932.827-3.598 2.127h-.043v-1.945h-2.245v15.04h2.32zm2.954-5.51c-1.783 0-2.965-1.526-2.965-3.878 0-2.331 1.193-3.878 2.965-3.878 1.837 0 2.987 1.514 2.987 3.878 0 2.374-1.15 3.878-2.987 3.878zm9.56 1.772V17.123h-2.32v15.501h2.32zm7.209.215c2.589 0 4.544-1.472 4.866-3.534H98.76c-.312.988-1.29 1.654-2.61 1.654-1.859 0-3.04-1.3-3.04-3.266v-.14h7.981v-.794c0-3.427-1.955-5.64-5.092-5.64-3.19 0-5.231 2.363-5.231 5.908 0 3.567 2.008 5.812 5.328 5.812zm2.674-6.907h-5.65c.118-1.708 1.257-2.944 2.879-2.944s2.718 1.214 2.772 2.944zm11.258 6.692v-5.296h3.33c3.04 0 5.178-2.084 5.178-5.113 0-3.019-2.095-5.092-5.102-5.092h-5.812v15.501h2.406zm2.761-7.315h-2.761v-6.156h2.772c2.084 0 3.276 1.117 3.276 3.073 0 1.955-1.192 3.083-3.287 3.083zm12.429 7.53c3.233 0 5.36-2.224 5.36-5.865 0-3.631-2.138-5.855-5.36-5.855-3.223 0-5.361 2.224-5.361 5.855 0 3.641 2.127 5.865 5.361 5.865zm0-1.912c-1.816 0-2.997-1.44-2.997-3.953 0-2.503 1.181-3.943 2.997-3.943 1.815 0 2.997 1.44 2.997 3.943 0 2.513-1.171 3.953-2.997 3.953zm11.397 1.89c1.644 0 2.933-.827 3.599-2.116h.043v1.923h2.256V17.123h-2.331v6.08h-.043c-.634-1.246-1.923-2.062-3.545-2.062-2.836 0-4.727 2.266-4.727 5.833 0 3.566 1.891 5.843 4.748 5.843zm.613-1.965c-1.837 0-2.987-1.494-2.987-3.878 0-2.374 1.15-3.878 2.987-3.878 1.783 0 2.975 1.536 2.975 3.878 0 2.363-1.192 3.878-2.975 3.878zm12.493 1.987c2.717 0 4.64-1.633 4.887-4.04h-2.234c-.269 1.311-1.203 2.096-2.632 2.096-1.805 0-2.997-1.44-2.997-3.921 0-2.428 1.182-3.921 2.976-3.921 1.514 0 2.417.956 2.653 2.159h2.213c-.204-2.224-1.977-4.093-4.888-4.093-3.212 0-5.317 2.267-5.317 5.855 0 3.652 2.105 5.865 5.339 5.865zm9.84-.022c1.482 0 2.911-.794 3.566-2.051h.054v1.858h2.223v-7.788c0-2.267-1.751-3.717-4.49-3.717-2.793 0-4.533 1.504-4.662 3.545h2.191c.204-1.01 1.042-1.654 2.385-1.654 1.418 0 2.267.752 2.267 2.009v.87l-3.094.182c-2.686.15-4.2 1.364-4.2 3.341 0 2.03 1.547 3.405 3.76 3.405zm.644-1.837c-1.246 0-2.062-.644-2.062-1.632 0-.967.784-1.58 2.169-1.676l2.783-.172v.892c0 1.471-1.268 2.588-2.89 2.588zm11.688 1.859c2.664 0 4.586-1.418 4.586-3.48 0-1.633-.88-2.536-3.19-3.073l-1.837-.419c-1.224-.28-1.74-.762-1.74-1.472 0-.902.838-1.514 2.095-1.514 1.299 0 2.105.687 2.234 1.783h2.181c-.076-2.084-1.784-3.545-4.415-3.545-2.6 0-4.362 1.386-4.362 3.405 0 1.644 1.064 2.675 3.212 3.17l1.837.429c1.235.28 1.654.709 1.654 1.44 0 .923-.859 1.503-2.255 1.503-1.418 0-2.224-.58-2.439-1.761h-2.299c.215 2.148 1.912 3.534 4.738 3.534zm10.237-.14c.515 0 1.031-.043 1.289-.107v-1.837c-.15.032-.526.054-.763.054-.945 0-1.375-.44-1.375-1.418v-6.23h2.149v-1.838h-2.149v-2.675h-2.331v2.675h-1.643v1.837h1.643v6.488c0 2.181.892 3.051 3.18 3.051zm7.444.14c2.664 0 4.587-1.418 4.587-3.48 0-1.633-.881-2.536-3.19-3.073l-1.837-.419c-1.225-.28-1.74-.762-1.74-1.472 0-.902.837-1.514 2.094-1.514 1.3 0 2.106.687 2.235 1.783h2.18c-.075-2.084-1.783-3.545-4.415-3.545-2.599 0-4.361 1.386-4.361 3.405 0 1.644 1.063 2.675 3.212 3.17l1.837.429c1.235.28 1.654.709 1.654 1.44 0 .923-.859 1.503-2.256 1.503-1.418 0-2.223-.58-2.438-1.761h-2.299c.215 2.148 1.912 3.534 4.737 3.534z" fill="#000"/><defs><linearGradient id="paint0_linear" x1="16.693" y1=".178" x2="16.693" y2="33.446" gradientUnits="userSpaceOnUse"><stop stop-color="#F452FF"/><stop offset="1" stop-color="#832BC1"/></linearGradient></defs></svg>