<svg width="496" height="346" fill="none" xmlns="http://www.w3.org/2000/svg"><g clip-path="url(#clip0)"><path opacity=".9" d="M137.219 339.323c29.96 2.08 58.412-10.009 87.559-16.139 47.07-9.897 96.381-1.835 144.85-.457 111.808 3.271 138.217-93.784 114.798-158.013-18.054-49.989-79.037-57.463-98.835-78.398-19.719-20.853-27.618-50.246-53.065-65.821-16.222-9.942-36.845-12.412-56.685-13.743C188.213.634 84.008 12.367 26.665 60.16c-25.485 21.223-34.108 82.932-.94 115.845 36.484 36.188 42.988 45.388 37.715 86.91-4.614 36.313 31.692 73.462 73.779 76.409z" fill="url(#paint0_linear)" fill-opacity=".5"/><path d="M338.483 133.36h-66.455a4.041 4.041 0 01-4.082-4.079V92.904a4.041 4.041 0 014.082-4.079h66.455a4.041 4.041 0 014.082 4.079v36.377c0 2.284-1.878 4.079-4.082 4.079zM94.052 172.918h61.883V73.002h-77.64v84.256l15.757 15.66z" fill="#DCE8F7"/><path d="M94.052 172.918v-15.66H78.377l15.675 15.66z" fill="#87A4D4"/><path d="M75.682 188.742h61.884V88.826H60.007v84.255l15.675 15.661z" fill="#fff"/><path d="M75.682 188.742v-15.661H60.007l15.675 15.661z" fill="#87A4D4"/><path d="M58.393 73.038c1.47-3.318.374-8.745-.797-13.153-1.313-4.852-3.27-9.998-7.4-13.042-3.708-2.718-8.232-.738-7.34 4.33.938 5.373 7.58 7.585 10.916 11.366 6.706 7.79 4.251 9.001 4.621 10.499zm9.654-16.579c3.982-2.6 10.25-2.428 12.5-7.102 2.062-4.414-1.521-7.305-5.585-5.78-4.496 1.664-7.644 5.849-10.056 9.926-2.173 3.654-3.491 7.493-4.154 11.703.603-1.02.361-3.7 7.295-8.747zM58.62 89.886c-.653-2.529-.571-5.383 0-7.912 1.388-6.444 3.756-14.437 8.328-19.412 3.347-3.752 10.94-6.444 14.613-1.713 2.286 3.752 1.96 10.114-7.184 11.827-16.328 4.241-15.757 17.21-15.757 17.21zm-8 49.428c-10.288 2.773-13.798-3.671-13.308-8.646 1.47-6.688 10.531-7.586 15.92-5.465 7.184 2.936 13.552 9.951 18.205 15.905 1.878 2.365 3.348 5.302 3.92 8.156 0 .082-5.797-13.621-24.738-9.95zM30.046 77.406c6.04-10.114 20.41-3.262 24.9 5.873 1.551 3.1 2.776 6.362 3.837 9.625-1.061-1.713-2.53-3.1-4.49-3.834-6.695-2.61-13.716.734-20.41-1.468-3.674-1.224-5.797-7.015-3.838-10.196zm37.881 7.26c5.47-6.933 14.368-6.852 17.47-1.958.98 1.631 2.777 7.34-3.591 11.745-3.184 2.121-16.655 5.22-19.023 14.111.082-.897 0-17.292 5.144-23.898z" fill="#F4C1C3"/><path d="M29.72 102.284c1.142-4.568 5.47-5.71 8.898-5.792 12.9-.081 21.88 14.437 29.472 30.75-8.327-14.518-25.553-13.376-31.758-14.845-4.49-1.06-8.082-3.915-6.613-10.113z" fill="#D20F16"/><path d="M80.091 104.159c3.021-3.752 8.164-4.975 11.512-2.936 4.49 2.692 4.98 9.054 2.122 13.05-4.082 5.791-10.94 4.323-15.675 9.788-3.673 4.241-5.796 10.603-4.898 16.884-3.184-11.093 2.367-31.158 6.94-36.786z" fill="#F4C1C3"/><path d="M62.783 59.952c-16.49 34.42 13.961 66.393 31.677 163.21" stroke="#F4C1C3" stroke-miterlimit="10"/><path d="M402.734 144.452l-.245-56.769c0-1.468-1.143-2.773-2.612-2.773h-47.515v-7.177c0-.653-.49-1.224-1.143-1.224h-37.881c-.653 0-1.143.571-1.143 1.224l.327 66.801c0 1.468 1.142 2.773 2.612 2.773h84.906c1.551-.082 2.694-1.387 2.694-2.855z" fill="#FBBD20"/><path d="M396.693 132.952l-.163-34.828c0-1.305-.98-2.366-2.286-2.366h-73.803c-1.061.082-1.878.816-2.204 1.795l.163 34.828c0 1.305.98 2.365 2.286 2.365h73.721c1.143-.081 1.96-.816 2.286-1.794z" fill="#fff"/><path d="M402.571 145.268l-.163-40.13c0-1.468-1.143-2.773-2.612-2.773H314.89c-1.225.082-2.205.979-2.531 2.039l.163 40.13c0 1.468 1.143 2.773 2.612 2.773h84.906a2.795 2.795 0 002.531-2.039z" fill="#FCD97A"/><path d="M367.873 301.464h-264.76c-8.572 0-15.511-6.933-15.511-15.498V133.849c0-8.564 6.94-15.497 15.511-15.497h264.76c8.573 0 15.512 6.933 15.512 15.497v152.117c0 8.565-6.939 15.498-15.512 15.498z" fill="#fff"/><path d="M213.572 179.851h-81.15a1.115 1.115 0 01-1.143-1.142v-13.702c0-.653.489-1.142 1.143-1.142h81.15c.653 0 1.143.489 1.143 1.142v13.702c0 .653-.49 1.142-1.143 1.142z" fill="#D20F16"/><path d="M364.2 179.851H227.044a1.115 1.115 0 01-1.143-1.142v-13.702c0-.653.49-1.142 1.143-1.142H364.2c.653 0 1.143.489 1.143 1.142v13.702c.081.653-.49 1.142-1.143 1.142zm-150.627 25.04h-81.15a1.115 1.115 0 01-1.143-1.141v-13.703c0-.653.489-1.142 1.143-1.142h81.15c.653 0 1.143.489 1.143 1.142v13.703c0 .57-.49 1.141-1.143 1.141zm150.627 0H227.044a1.115 1.115 0 01-1.143-1.141v-13.703c0-.653.49-1.142 1.143-1.142H364.2c.653 0 1.143.489 1.143 1.142v13.703c.081.57-.49 1.141-1.143 1.141zm-150.627 25.041h-81.15c-.654 0-1.143-.49-1.143-1.142v-13.703c0-.652.489-1.142 1.143-1.142h81.15c.653 0 1.143.49 1.143 1.142v13.621c0 .653-.49 1.224-1.143 1.224zm150.627 0H227.044c-.653 0-1.143-.49-1.143-1.142v-13.703c0-.652.49-1.142 1.143-1.142H364.2c.653 0 1.143.49 1.143 1.142v13.621c.081.653-.49 1.224-1.143 1.224zm-150.79 48.857h-80.906a1.289 1.289 0 01-1.306-1.305v-37.275c0-.734.571-1.305 1.306-1.305h80.906c.735 0 1.306.571 1.306 1.305v37.275c0 .652-.571 1.305-1.306 1.305zm150.708 0H227.207a1.289 1.289 0 01-1.306-1.305v-37.275c0-.734.571-1.305 1.306-1.305h136.911c.735 0 1.306.571 1.306 1.305v37.275c0 .652-.571 1.305-1.306 1.305z" fill="#DCE8F7"/><path d="M383.385 145.92v-15.007c0-6.933-5.633-12.561-12.573-12.561H102.624c-8.328 0-15.022 6.77-15.022 15.008v12.479h295.783v.081z" fill="#A6BBDE"/><path d="M100.174 301.464h15.022V118.352h-15.022c-6.94 0-12.572 5.628-12.572 12.561v157.99c0 6.933 5.633 12.561 12.572 12.561z" fill="#2C4251"/><path d="M227.371 244.776c0-10.114 8.246-18.27 18.287-18.27 10.042 0 18.288 8.156 18.288 18.27v38.172h6.531v-38.172c0-13.703-11.185-24.795-24.9-24.795-13.716 0-24.9 11.092-24.9 24.795l.163 37.438 6.531.082v-37.52z" fill="#274253"/><path d="M275.457 322.915h-59.598c-3.592 0-6.531-2.937-6.531-6.525v-51.957c0-3.589 2.939-6.525 6.531-6.525h59.598c3.592 0 6.531 2.936 6.531 6.525v51.957c0 3.588-2.939 6.525-6.531 6.525z" fill="#FCD97A"/><path d="M254.148 280.665a8.48 8.48 0 00-8.49-8.483c-4.654 0-8.491 3.752-8.491 8.483 0 2.854 1.47 5.383 3.674 6.932l-3.347 17.047h16.409l-3.347-17.047c2.123-1.549 3.592-4.078 3.592-6.932z" fill="#274253"/><path d="M412.041 257.826h-69.558c-2.286 0-4.082-1.794-4.082-4.078v-28.303c0-2.283 1.796-4.078 4.082-4.078h69.558c2.286 0 4.082 1.795 4.082 4.078v28.303c0 2.284-1.796 4.078-4.082 4.078z" fill="#75DBA1"/><path d="M384.447 239.23h-37.228c-.653 0-1.143-.49-1.143-1.142v-8.075c0-.653.49-1.142 1.143-1.142h37.228c.653 0 1.143.489 1.143 1.142v8.075c.082.571-.49 1.142-1.143 1.142zm0 11.582h-37.228c-.653 0-1.143-.49-1.143-1.142v-8.075c0-.652.49-1.142 1.143-1.142h37.228c.653 0 1.143.49 1.143 1.142v8.075c.082.652-.49 1.142-1.143 1.142z" fill="#fff"/><path d="M402.244 244.939l8.083-10.032c.326-.327.244-.897-.164-1.142l-2.286-1.876c-.326-.326-.898-.245-1.143.163l-6.776 8.401a.85.85 0 01-1.306 0l-3.021-3.833c-.245-.327-.816-.408-1.143-.164l-2.367 1.876c-.327.327-.408.816-.164 1.142l6.695 8.32a.85.85 0 001.306 0l2.286-2.855z" fill="#274253"/><path d="M447.963 175.936c8.572.816 16.083-5.546 16.9-14.029.816-8.483-5.552-16.068-14.043-16.884-4-.326-7.756.816-10.695 3.018 1.47-2.691 2.368-5.709 2.695-8.972 1.143-12.969-8.409-24.388-21.309-25.611-12.98-1.142-24.41 8.401-25.635 21.288-.245 3.018.082 5.954.817 8.728-2.041-5.302-7.021-9.299-13.063-9.788-8.572-.816-16.083 5.546-16.899 14.029-.164 1.957 0 3.915.571 5.709-15.511-5.22-40.82 1.876-43.024 22.512h123.685z" fill="#fff"/><path d="M114.749 256.622l-6.105-8.271-44.088 32.482 6.106 8.271 44.087-32.482z" fill="#A6BBDE"/><path opacity=".5" d="M148.506 259.829c12.338-9.09 14.964-26.452 5.865-38.778-9.098-12.326-26.476-14.95-38.813-5.86-12.338 9.09-14.964 26.452-5.866 38.778 9.099 12.326 26.476 14.95 38.814 5.86z" fill="#DCE8F7"/><path d="M154.384 221.041c-9.144-12.316-26.534-14.926-38.861-5.873-12.328 9.136-14.94 26.509-5.878 38.825 9.143 12.316 26.533 14.926 38.86 5.873 12.328-9.054 15.022-26.509 5.879-38.825zm-8.246 35.562c-10.613 7.83-25.472 5.546-33.309-5.057-7.838-10.603-5.552-25.448 5.061-33.278 10.614-7.83 25.472-5.547 33.31 5.057 7.837 10.603 5.551 25.529-5.062 33.278z" fill="#A6BBDE"/><path d="M407.061 174.06l-3.429-1.55c.082-.815.082-1.631.082-2.365l3.511-1.387c.734-.244 1.061-1.06.816-1.794l-2.286-5.873c-.245-.734-1.061-1.06-1.796-.815l-3.511 1.386a10.933 10.933 0 00-1.632-1.713l1.551-3.425c.326-.734 0-1.55-.735-1.795l-5.796-2.528c-.735-.326-1.552 0-1.797.734l-1.551 3.426c-.816-.082-1.632-.082-2.367-.082l-1.388-3.507c-.245-.734-1.061-1.061-1.796-.816l-5.878 2.284c-.735.245-1.062 1.06-.817 1.794l1.388 3.508a10.892 10.892 0 00-1.714 1.631l-3.429-1.55c-.735-.326-1.551 0-1.796.734l-2.531 5.791c-.327.734 0 1.55.735 1.795l3.428 1.549c-.081.816-.081 1.632-.081 2.366l-3.511 1.386c-.734.245-1.061 1.061-.816 1.795l2.286 5.872c.245.734 1.061 1.061 1.796.816l3.51-1.387c.49.653 1.062 1.224 1.633 1.713l-1.551 3.426c-.326.734 0 1.55.735 1.794l5.796 2.529c.735.326 1.552 0 1.796-.734l1.552-3.426c.816.082 1.632.082 2.367.082l1.388 3.507c.245.734 1.061 1.06 1.796.816l5.878-2.284c.735-.245 1.062-1.061.817-1.795l-1.388-3.507a10.892 10.892 0 001.714-1.631l3.429 1.55c.735.326 1.551 0 1.796-.735l2.531-5.791c.245-.652-.082-1.468-.735-1.794zm-21.308 3.752c-3.755-1.631-5.47-6.117-3.837-9.869 1.633-3.752 6.123-5.465 9.879-3.834 3.755 1.631 5.469 6.117 3.837 9.869-1.633 3.834-6.042 5.547-9.879 3.834z" fill="#DCE8F7"/><path d="M433.92 151.711l-2.857-1.223c.082-.653.082-1.305.082-1.958l2.857-1.142c.572-.244.898-.897.653-1.468l-1.878-4.812c-.244-.571-.898-.897-1.469-.652l-2.857 1.141a11.287 11.287 0 00-1.388-1.386l1.224-2.855c.245-.571 0-1.223-.571-1.468l-4.735-2.121c-.572-.244-1.225 0-1.47.571l-1.225 2.855c-.653-.082-1.306-.082-1.959-.082l-1.143-2.854c-.245-.571-.898-.898-1.469-.653l-4.817 1.876c-.572.245-.898.897-.653 1.468l1.143 2.855c-.49.408-.98.897-1.388 1.387l-2.858-1.224a1.107 1.107 0 00-1.469.571l-2.123 4.731c-.245.571 0 1.223.572 1.468l2.857 1.223c-.082.653-.082 1.305-.082 1.958l-2.857 1.142c-.571.245-.898.897-.653 1.468l1.878 4.812c.245.571.898.898 1.469.653l2.858-1.142c.408.489.898.979 1.387 1.387l-1.224 2.854c-.245.571 0 1.224.571 1.468l4.735 2.121c.572.245 1.225 0 1.47-.571l1.225-2.855c.653.082 1.306.082 1.959.082l1.143 2.855c.245.571.898.897 1.469.652l4.817-1.876c.572-.244.898-.897.653-1.468l-1.143-2.855c.49-.407.98-.897 1.388-1.386l2.858 1.223c.571.245 1.224 0 1.469-.571l2.123-4.73c.245-.571 0-1.224-.572-1.469zm-17.307 3.018c-3.021-1.305-4.409-4.894-3.103-7.911 1.307-3.018 4.899-4.405 7.919-3.1 3.021 1.305 4.409 4.894 3.103 7.912-1.306 3.018-4.899 4.404-7.919 3.099z" fill="#75DBA1"/><ellipse cx="356.839" cy="245.657" rx="1.961" ry="1.958" fill="#274253"/><ellipse cx="362.721" cy="245.657" rx="1.961" ry="1.958" fill="#274253"/><ellipse cx="368.603" cy="245.657" rx="1.961" ry="1.958" fill="#274253"/><ellipse cx="374.485" cy="245.657" rx="1.961" ry="1.958" fill="#274253"/></g><defs><linearGradient id="paint0_linear" x1="3.193" y1="168.916" x2="492.974" y2="177.995" gradientUnits="userSpaceOnUse"><stop stop-color="#E8EFFF"/><stop offset="1" stop-color="#EFF3FE"/></linearGradient><clipPath id="clip0"><path fill="#fff" transform="translate(0 .964)" d="M0 0h496v345H0z"/></clipPath></defs></svg>