<svg width="448" height="336" fill="none" xmlns="http://www.w3.org/2000/svg"><g clip-path="url(#clip0)"><path opacity=".9" d="M159.367 59.748c63.934 12.871 139.586-48.164 169.047-55.21C347.31 0 369.186-1.964 385.17 5.759c15.441 7.452 21.266 21.745 24.788 35.158 2.709 10.094 4.537 20.797-.068 30.687-3.251 6.91-9.414 13.007-13.478 19.645-14.222 23.304-1.083 49.791 17.474 70.181 8.737 9.552 18.693 18.561 25.669 28.926 6.975 10.364 10.633 22.558 6.027 33.938-4.537 11.313-38.266 61.849-127.191 72.62-71.114 9.28-138.367-9.349-210.091-6.165-26.549 1.22-85.065 13.481-102.945-20.051-18.219-34.21 22.892-66.32 38.808-89.081 15.916-22.761-26.143-43.219-19.1-80.477 9.076-47.962 72.74-53.787 134.304-41.39z" fill="url(#paint0_linear)" fill-opacity=".5"/><path d="M210.976 106.423h114.662c4.606 0 8.466 3.793 8.466 8.467v103.104" stroke="#A6BBDE" stroke-miterlimit="10" stroke-dasharray="2 2"/><path d="M305.59 188.661v91.655c0 4.607-3.792 8.468-8.465 8.468H194.111" stroke="#A6BBDE" stroke-miterlimit="10" stroke-dasharray="2 2"/><path d="M297.993 92.689c-1.218-2.786-.318-7.3.65-10.921 1.097-4.027 2.715-8.323 6.157-10.824 3.102-2.258 6.838-.613 6.136 3.55-.778 4.495-6.252 6.327-9.042 9.441-5.666 6.499-3.587 7.484-3.901 8.754zm-8.036-13.805c-3.312-2.158-8.528-1.976-10.35-5.898-1.715-3.616 1.229-6.108 4.665-4.806 3.76 1.384 6.33 4.875 8.384 8.248 1.815 3.021 2.906 6.213 3.423 9.746-.557-.821-.321-3.047-6.122-7.29zm7.777 27.809c.542-2.1.474-4.471 0-6.571-1.152-5.351-3.116-11.99-6.908-16.122-2.777-3.116-9.076-5.352-12.124-1.423-1.896 3.116-1.625 8.4 5.96 9.823 13.614 3.522 13.072 14.293 13.072 14.293zm6.705 41.052c8.533 2.303 11.446-3.048 11.039-7.181-1.219-5.555-8.736-6.3-13.206-4.538-5.96 2.438-11.243 8.264-15.104 13.209-1.557 1.965-2.776 4.403-3.251 6.774 0 .068 4.809-11.312 20.522-8.264zm17.068-51.416c-5.012-8.4-16.932-2.71-20.657 4.877-1.287 2.574-2.303 5.284-3.183 7.994.88-1.423 2.1-2.574 3.725-3.184 5.554-2.168 11.378.61 16.932-1.219 3.048-1.017 4.741-5.826 3.183-8.468zm-31.426 6.029c-4.537-5.758-11.92-5.69-14.493-1.626-.813 1.355-2.303 6.097 2.98 9.755 2.641 1.761 13.816 4.336 15.78 11.72-.068-.746 0-14.362-4.267-19.849z" fill="#F4C1C3"/><path d="M321.71 116.99c-.948-3.793-4.537-4.742-7.382-4.809-10.701-.068-18.151 11.99-24.45 25.538 6.909-12.058 21.199-11.109 26.346-12.329 3.725-.88 6.773-3.251 5.486-8.4z" fill="#D20F16"/><path d="M279.99 118.548c-2.506-3.116-6.773-4.132-9.55-2.438-3.725 2.235-4.131 7.519-1.761 10.838 3.387 4.81 9.076 3.591 13.004 8.129 3.048 3.523 4.808 8.807 4.063 14.023 2.642-9.213-2.031-25.877-5.756-30.552z" fill="#F4C1C3"/><path d="M294.348 81.832c13.681 28.587-11.581 55.142-26.278 135.552" stroke="#F4C1C3" stroke-miterlimit="10"/><path d="M254.931 133.248a51.697 51.697 0 00-8.602-28.587c-5.621-8.468-13.613-15.039-23.095-18.968-9.346-3.86-19.776-4.877-29.732-2.913-9.956 2.033-19.167 6.91-26.21 14.159-28.92-9.01-58.855 9.009-65.222 38.07-15.983 4.878-27.565 19.781-27.565 36.717 0 21.271 17.745 38.545 39.011 38.545h141.415c21.266 0 39.011-17.342 39.011-38.545 0-21.204-17.745-38.478-39.011-38.478z" fill="#fff" stroke="#D90F16" stroke-miterlimit="10"/><path d="M245.787 296.506H131.125c-4.605 0-8.466-3.793-8.466-8.467V184.935" stroke="#A6BBDE" stroke-miterlimit="10" stroke-dasharray="2 2"/><path d="M263.464 332.342h-75.516c-8.06 0-14.291-6.165-14.291-14.294V160.21c0-8.062 6.163-14.294 14.291-14.294h75.583c8.06 0 14.291 6.165 14.291 14.294v157.838c-.068 8.129-6.705 14.294-14.358 14.294z" fill="#A6BBDE"/><path d="M272.539 162.174h-93.192V308.09h93.125V162.174h.067z" fill="#F4F7FC"/><path d="M225.469 327.6a7.111 7.111 0 007.111-7.113 7.111 7.111 0 10-14.223 0 7.112 7.112 0 007.112 7.113z" fill="#87A4D4"/><path d="M118.934 241.974h40.095v-64.761h-50.254v54.6l10.159 10.161z" fill="#75DBA1"/><path d="M118.934 241.974v-10.161h-10.159l10.159 10.161z" fill="#D90F16"/><path d="M106.066 256.878h40.094v-64.762H95.907v54.6l10.159 10.162z" fill="#DCE8F7"/><path d="M106.066 256.878v-10.162h-10.16l10.16 10.162z" fill="#D90F16"/><path d="M350.562 269.951H229.059c-5.35 0-9.617-4.2-9.617-9.619v-68.013c0-5.352 4.199-9.619 9.617-9.619H350.63c5.35 0 9.617 4.2 9.617 9.619v68.013c-.068 5.148-4.47 9.619-9.685 9.619z" fill="#DCE8F7"/><path d="M281.819 232.896h-46.935c-1.287 0-2.371-1.084-2.371-2.371v-10.567c0-1.287 1.084-2.371 2.371-2.371h46.935c1.286 0 2.37 1.084 2.37 2.371v10.567c0 1.287-1.084 2.371-2.37 2.371zm0 17.545h-46.935c-1.287 0-2.371-1.083-2.371-2.371v-10.567c0-1.287 1.084-2.371 2.371-2.371h46.935c1.286 0 2.37 1.084 2.37 2.371v10.567c0 1.288-1.084 2.371-2.37 2.371zm.609-34.48h-48.154c-.948 0-1.761-.813-1.761-1.761v-.61c0-.948.813-1.761 1.761-1.761h48.154c.948 0 1.761.813 1.761 1.761v.61c0 .948-.813 1.761-1.761 1.761z" fill="#A6BBDE"/><path d="M282.428 210.203h-48.154c-.948 0-1.761-.813-1.761-1.761v-.61c0-.949.813-1.761 1.761-1.761h48.154c.948 0 1.761.812 1.761 1.761v.61c0 .948-.813 1.761-1.761 1.761zm77.751-15.377v-7.113c0-3.252-2.709-5.962-5.96-5.962H226.553c-4.063 0-7.111 3.252-7.111 7.113v5.962h140.737z" fill="#EA8F96"/><path d="M343.924 253.422h-44.497a3.354 3.354 0 01-3.386-3.387v-41.458a3.354 3.354 0 013.386-3.387h44.497a3.354 3.354 0 013.387 3.387v41.458c0 1.897-1.558 3.387-3.387 3.387z" fill="#fff"/><path d="M323.944 236.69c-.609-.271-1.354-.813-1.896-.406-.339.203-.406.677-.609 1.016-.339.542-1.016.881-1.694.745a1.51 1.51 0 01-1.219-1.355c-1.964-.203-3.792-1.355-4.876-2.98-1.084-1.626-1.422-3.794-.813-5.623.677-2.235 2.438-3.929 4.132-5.555 1.354-1.287 2.709-2.574 4.47-3.251 1.693-.678 3.86-.61 5.215.609.609.542 1.015 1.287 1.49 1.965.948 1.287 2.302 2.371 3.047 3.726 2.168 3.793-2.167 13.548-7.247 11.109z" fill="#274253"/><path d="M325.232 229.51c-.474 1.287-.542 5.961 2.709 5.758.948 2.371 0 3.184 0 5.758s-1.152 5.284-3.387 6.435c-1.354.678-3.047.745-4.537.61-1.355-.136-2.777-.407-3.996-1.016-1.219-.61-2.371-1.626-2.845-2.845-.609-1.491-.406-3.184 0-4.81.407-1.626 0-2.168 0-3.794 1.761-.542 3.251-.88 3.928-1.829.678-.948.813-2.235.813-3.387 0-1.151 0-2.371.407-3.522" fill="#C1826A"/><path d="M315.75 223.752c0 5.554 5.012 10.093 6.638 10.093 2.032 0 6.637-4.539 6.637-10.093 0-5.555-2.98-10.094-6.637-10.094-3.725 0-6.638 4.539-6.638 10.094z" fill="#C1826A"/><path d="M309.113 224.022c.271-.474.068-1.219-.474-1.287.406.136.677-.406.61-.813-.068-.406-.407-.677-.542-1.083a1.773 1.773 0 01.406-2.1c.474-.475 1.152-.61 1.693-1.017.542-.406.745-1.354.204-1.625.406-.746.745-1.491 1.151-2.236.609-1.693 2.912-1.355 4.267-1.355-.068-.813.203-1.626.677-2.303.745.339 2.574.406 2.845-.068.406-.813 2.235-1.49 5.892-.609 3.657.88 9.414 5.554 9.685 8.061.067.474-.542 1.084-.948.745.203.474-.339.881-.813.948h-.271c.88 1.355 2.37 2.642 1.354 4.404-.27.406-.677.745-.948 1.151-.338.407-.541.949-.338 1.355.135.339.474.61.542.949.067.88-1.626 1.219-1.355 2.032.135.338.474.406.677.677.474.542.203 1.355-.203 1.965-.474.88-1.084 1.693-1.964 2.235-.881.474-2.032.542-2.845-.068.474-.338.542-1.016.339-1.625-.203-.542-.61-1.016-.813-1.558-1.151-2.507 1.152-5.488.204-8.062-.204-.474-.475-.948-.746-1.422-.067-.068-.203-.068-.27-.136-.542-.406-.813-1.287-.407-1.897-.271 0-.474.068-.745.068-.067-.474-.135-1.016-.135-1.49-.203.406-.61.61-1.016.61-.271-.678-.339-1.355-.339-2.033-.609.745-2.032.881-2.912.61-1.49 1.423-1.964 3.997-3.86 4.674-.542.203-1.355.339-1.355.949-.068.812 1.355 1.083 1.287 1.896-.068.61-.948.745-1.152 1.355-.135.61.542 1.016.949 1.49.541.61.541 1.626 0 2.304-.204 1.422-.407 2.777-.61 4.2a5.485 5.485 0 01-3.793-1.829c-.271-1.22-1.286-2.033-2.031-3.049-.745-1.016-1.152-2.506-.204-3.387-1.083-.339-1.964-1.084-1.693-1.626z" fill="#274253"/><path d="M301.053 253.422c.542-4.267.745-11.448 3.387-14.225 2.641-2.846 10.633-4.2 10.633-4.2s1.896 10.025 6.502 10.093c4.605.068 5.147-10.026 5.147-10.026s7.653.813 11.513 4.404c3.387 3.183 3.996 12.938 4.132 13.954h-41.314z" fill="#75DBA1"/><path d="M167.292 268.123c0-8.604 6.976-15.581 15.578-15.581 8.601 0 15.577 6.977 15.577 15.581v32.516h5.621v-32.516c0-11.652-9.482-21.136-21.198-21.136-11.717 0-21.131 9.484-21.199 21.136l.135 31.906 5.622.068-.136-31.974z" fill="#274253"/><path d="M208.334 334.713h-50.998c-2.98 0-5.419-2.438-5.419-5.419V284.72c0-2.981 2.439-5.42 5.419-5.42h50.998c2.98 0 5.418 2.439 5.418 5.42v44.574c0 2.981-2.438 5.419-5.418 5.419z" fill="#FCDA2C"/><path d="M190.047 298.742c0-3.997-3.251-7.181-7.179-7.181-3.996 0-7.179 3.252-7.179 7.181a7.102 7.102 0 003.115 5.893L175.96 319.2h13.952l-2.845-14.565a7.338 7.338 0 002.98-5.893z" fill="#274253"/><path d="M74.115 335.467H374.35v-3.251H74.115v3.251z" fill="#C3D3EA"/></g><defs><linearGradient id="paint0_linear" x1="40.475" y1="-4.346" x2="372.975" y2="316.205" gradientUnits="userSpaceOnUse"><stop stop-color="#E8EFFF"/><stop offset="1" stop-color="#EFF3FE"/></linearGradient><clipPath id="clip0"><path fill="#fff" transform="translate(.75)" d="M0 0h447v336H0z"/></clipPath></defs></svg>