<svg width="449" height="370" fill="none" xmlns="http://www.w3.org/2000/svg"><g clip-path="url(#clip0)"><path d="M337.549 330.497c0 .269.179.448.179.448l-.179-.448z" fill="#EA8F96"/><path d="M316.607 303.362c3.759 14.687-.716 13.344 5.549 24.807 6.264 11.642 9.039 11.374 12.529 21.941" stroke="#EA8F96" stroke-miterlimit="10"/><path d="M319.471 322.079c-1.432-.895-2.238-2.328-4.117-3.045-5.728-2.06-11.456.538-16.109-5.015-2.238-2.776-1.522-8.687 3.221-7.254 2.506.806 3.312 3.941 5.46 5.463 2.237 1.702 5.28 1.433 7.696 2.955 2.596 1.702 3.043 4.747 4.207 7.433m-12.709-29.553c-1.074-1.701-3.58-3.851-5.459-2.149-1.342 1.074-1.7 3.045-1.432 4.657 2.237 12.627 17.094 9.582 18.168 18.717 0-6.09-5.012-7.254-6.981-10.568-1.969-3.313-2.237-7.522-4.296-10.657z" fill="#D90F16"/><path d="M318.486 313.123c-1.7-13.881-12.351-22.209-12.44-29.463 0-1.702.268-3.762 1.432-5.015 3.311-3.941 6.444 6.627 6.891 8.328.627 2.597.895 5.374 1.432 8.06.537 4.12 2.864 12.538 2.685 18.09z" fill="#D90F16"/><path d="M318.754 315.9c-.089-.806-.089-1.702-.089-2.508 0-1.97-.179-3.851-.179-5.731 0-4.747.358-16.12 5.012-18.897 2.237-1.433 2.774 1.881 2.774 3.224-.179 3.851-2.148 7.254-3.848 10.568-1.969 3.672-3.67 7.523-3.58 11.732m10.292-9.135c.269-1.075 1.074-4.746-.716-5.284-1.7-.537-5.549 1.791-7.428 15.941-1.074 7.971 4.027 16.12 5.012 18.09.358.627.626 1.523 1.074 2.239l.268.538c.358-.717-1.611-4.12-1.879-4.657-1.88-4.12-3.401-6.896-2.148-11.374 1.611-5.373 4.475-10.12 5.817-15.493z" fill="#D90F16"/><path d="M333.611 317.959c.269-.806 1.253-3.582-.447-3.85-1.701-.269-3.312 2.149-3.938 2.955-2.416 3.313-3.043 7.075-3.58 10.657-.805 5.911 2.953 10.03 3.848 11.463.269.537.716 1.075.985 1.702l.268.447c.537-.358-1.342-2.865-1.611-3.313-1.7-2.955-3.042-4.926-1.7-8.329 1.7-4.03 4.743-7.702 6.175-11.732zm-9.576 13.882c-5.459-5.911-13.067-9.762-20.853-10.837-1.79-.268-4.027-.089-5.012 1.612-.626 1.344-.089 2.777.716 3.851 1.522 1.791 4.028 2.687 6.444 2.776 2.417.18 4.743-.268 7.16-.089 5.459.089 9.218.895 13.066 4.746" fill="#D90F16"/><path d="M337.817 283.123c-1.074-2.418-3.669-5.374-6.444-3.583-1.879 1.075-2.685 3.583-2.685 5.463.537 16.389 19.958 15.046 19.421 26.688 1.074-7.523-5.012-9.851-6.981-14.24-1.789-4.388-1.163-9.851-3.311-14.328z" fill="#EA8F96"/><path d="M350.436 305.78c.895-3.403.806-7.344 3.938-10.03 2.685-2.329 6.623-2.508 9.128-5.015 2.238-2.239 2.775-6.448 5.907-7.792 5.728-2.686 7.697 4.478 5.281 8.419-4.744 7.791-12.44 5.373-19.153 9.224-2.058 1.074-2.864 3.045-4.474 4.657" fill="#D90F16"/><path d="M360.281 267.808c1.074-2.418 3.669-5.373 6.444-3.582 1.879 1.075 2.685 3.582 2.685 5.463-.537 16.389-19.958 15.045-19.421 26.687-1.074-7.522 5.012-9.851 6.981-14.239 1.879-4.657 1.342-9.851 3.311-14.329z" fill="#EA8F96"/><path d="M349.899 271.659c0-3.403 0-6.985.269-10.299.179-2.059 2.237-15.851 7.16-11.463 1.7 1.433 2.237 3.941 2.505 6.09 1.343 9.314-10.829 21.493-10.292 39.136-.984-7.254.448-18.09.358-23.464z" fill="#EA8F96"/><path d="M349.452 296.645c-.537-5.284-3.311-9.94-6.444-14.149-2.774-3.851-5.727-7.792-6.622-12.449-.269-1.791-.179-5.91 2.774-4.478 6.265 2.687 8.771 16.658 9.487 22.748.268 2.418.537 4.746.805 7.164.09.896.269 1.97.269 3.045v.09m-26.939 16.209c0 .269 0 .537-.09.537l.09-.537z" fill="#F4C1C3"/><path d="M333.074 304.258c-.358-.806-2.238-3.851-.09-4.389 2.148-.537 4.654 1.881 5.46 2.687 3.58 3.314 5.012 7.433 6.354 11.374 2.058 6.448-1.879 11.642-2.685 13.343-.268.627-.716 1.254-.984 1.971 0 0-.269.537-.269.447-.716-.447 1.074-3.582 1.432-4.119 1.611-3.582 2.953-5.911.537-9.403-2.864-3.941-7.339-7.523-9.755-11.911z" fill="#EA8F96"/><path d="M350.437 282.316c-2.148 19.076 3.132 16.389-2.685 31.972-5.907 15.583-9.397 15.851-11.903 29.732" stroke="#F4C1C3" stroke-miterlimit="10"/><path d="M348.915 312.138c4.654-8.955 12.619-16.209 21.837-20.06 2.148-.896 4.923-1.612 6.623.09 1.343 1.343 1.253 3.313.448 4.925-1.343 2.776-4.117 4.478-6.892 5.463-2.774.985-5.906 1.343-8.86 2.149-6.533 1.971-10.918 4.209-14.23 10.21m-.358 27.135c3.938-8.597 10.023-14.956 17.183-18.09 1.701-.717 3.848-.985 4.922.806.895 1.433.716 3.313.179 4.925-.895 2.687-3.132 4.209-5.28 4.926-2.237.627-4.475.806-6.712 1.433-5.012 1.343-8.323 3.224-11.098 8.866" fill="#EA8F96"/><path d="M346.767 343.125c1.879-3.762 1.879-7.881 1.432-12.001-.269-3.672-.626-7.523.716-11.105.537-1.433 2.237-4.03 3.848-1.88 3.043 4.298-.895 14.597-2.774 18.985-.716 1.702-1.611 3.314-2.416 5.195a12.14 12.14 0 01-1.074 2.149v.089" fill="#EA8F96"/><path d="M345.514 367.574h-12.441l-6.98-26.061h26.312l-6.891 26.061z" fill="#274253"/><path d="M63.81 366.56h28.37v-60.808H63.81v60.808z" fill="#DCE8F7"/><path opacity=".5" d="M63.827 366.56h11.456v-60.808H63.827v60.808z" fill="#A6BBDE"/><path d="M134.312 366.587h24.253v-46.569h-24.253v46.569z" fill="#DCE8F7"/><path opacity=".5" d="M134.303 366.587h7.786v-46.569h-7.786v46.569z" fill="#A6BBDE"/><path d="M86.93 366.568h32.666v-39.225H86.93v39.225z" fill="#DCE8F7"/><path opacity=".5" d="M86.913 366.568h10.471v-39.225h-10.47v39.225z" fill="#A6BBDE"/><path d="M105.693 366.545h24.88v-29.464h-24.88v29.464z" fill="#DCE8F7"/><path opacity=".5" d="M105.715 366.545h9.397v-29.464h-9.397v29.464z" fill="#A6BBDE"/><path d="M105.65 366.527h36.872v-8.06H105.65v8.06zm-56.84 0h23.895v-8.06H48.81v8.06zm97.58.051h23.985v-14.687H146.39v14.687z" fill="#C3D3EA"/><path d="M380.132 91.629c0-17.762-5.133-35.138-15.014-50.069a88.643 88.643 0 00-40.293-33.207c-16.297-6.693-34.519-8.624-51.842-5.02a87.93 87.93 0 00-45.812 24.841c-50.559-15.703-102.658 15.703-113.822 66.544-27.974 8.624-48.121 34.623-48.121 64.227 0 37.198 30.926 67.445 68.011 67.445h246.893c37.085 0 68.011-30.247 68.011-67.445 0-37.198-30.926-67.316-68.011-67.316z" fill="url(#paint0_linear)"/><path d="M289.22 80.817c-72.402 6.537-110.886-20.598-123.326-31.614-2.506-2.239-6.623-2.239-9.129 0-12.44 11.016-50.923 38.151-123.326 31.614-3.759-.359-6.98 2.149-6.98 5.283-.448 159.32 105.158 220.038 134.871 224.874 29.623-4.836 135.229-65.554 134.871-224.874 0-3.134-3.311-5.642-6.981-5.283z" fill="#FCDA2C"/><path d="M289.22 80.817c-72.403 6.537-110.886-20.598-123.326-31.613-1.253-1.075-2.864-1.612-4.564-1.612v263.472c29.623-4.836 135.229-65.555 134.871-224.874 0-3.224-3.312-5.731-6.981-5.373z" fill="#FBBD20"/><path d="M301.571 365.334h-92.002c-9.845 0-17.362-7.522-17.362-17.373V155.774c0-9.851 7.517-17.374 17.362-17.374h92.002c9.845 0 17.363 7.523 17.363 17.374v192.187c0 9.851-8.145 17.373-17.363 17.373z" fill="#A6BBDE"/><path d="M312.49 158.103H199.187v177.678h113.392V158.103h-.089z" fill="#F4F7FC"/><path d="M255.302 359.513a8.635 8.635 0 008.681-8.687 8.635 8.635 0 00-8.681-8.687 8.635 8.635 0 00-8.681 8.687 8.635 8.635 0 008.681 8.687z" fill="#87A4D4"/><path d="M9.759 369.141h396.738v-4.299H9.759v4.299z" fill="#C3D3EA"/><path d="M295.127 214.075h-79.741c-1.701 0-3.133-1.433-3.133-3.134v-16.837c0-1.701 1.432-3.134 3.133-3.134h79.741c1.701 0 3.133 1.433 3.133 3.134v16.837c0 1.701-1.432 3.134-3.133 3.134zm0 26.419h-79.741c-1.701 0-3.133-1.433-3.133-3.134v-16.837c0-1.701 1.432-3.134 3.133-3.134h79.741c1.701 0 3.133 1.433 3.133 3.134v16.837c0 1.701-1.432 3.134-3.133 3.134zm0-52.032h-79.741c-1.701 0-3.133-1.432-3.133-3.134s1.432-3.134 3.133-3.134h79.741c1.701 0 3.133 1.432 3.133 3.134a3.114 3.114 0 01-3.133 3.134z" fill="#DCE8F7"/><path d="M295.127 179.865h-79.741c-1.701 0-3.133-1.433-3.133-3.134 0-1.702 1.432-3.135 3.133-3.135h79.741c1.701 0 3.133 1.433 3.133 3.135 0 1.701-1.432 3.134-3.133 3.134z" fill="#EA8F96"/><path d="M295.127 292.615h-79.741c-1.701 0-3.133-1.433-3.133-3.134v-16.837c0-1.701 1.432-3.134 3.133-3.134h79.741c1.701 0 3.133 1.433 3.133 3.134v16.837c0 1.701-1.432 3.134-3.133 3.134zm0 26.419h-79.741c-1.701 0-3.133-1.433-3.133-3.134v-16.837c0-1.701 1.432-3.134 3.133-3.134h79.741c1.701 0 3.133 1.433 3.133 3.134V315.9a3.114 3.114 0 01-3.133 3.134zm0-51.942h-79.741c-1.701 0-3.133-1.433-3.133-3.134 0-1.702 1.432-3.135 3.133-3.135h79.741c1.701 0 3.133 1.433 3.133 3.135 0 1.701-1.432 3.134-3.133 3.134z" fill="#DCE8F7"/><path d="M295.127 258.405h-79.741c-1.701 0-3.133-1.433-3.133-3.134 0-1.702 1.432-3.135 3.133-3.135h79.741c1.701 0 3.133 1.433 3.133 3.135 0 1.701-1.432 3.134-3.133 3.134zM79.888 178.969v-48.807H1.04v61.166h66.407l12.44-12.359z" fill="#75DBA1"/><path d="M79.888 178.969h-12.35v12.359l12.35-12.359z" fill="#D90F16"/><path d="M68.701 161.148v52.659c0 5.642 4.654 10.299 10.292 10.299h125.474" stroke="#87A4D4" stroke-miterlimit="10" stroke-dasharray="2 2"/><path d="M229.076 259.749v-69.226H117.294v86.779h94.151l17.631-17.553z" fill="#fff"/><path d="M229.076 259.749h-17.542v17.553l17.542-17.553z" fill="#A6BBDE"/><path d="M213.504 250.525h-79.742c-1.7 0-3.132-1.433-3.132-3.134v-16.837c0-1.701 1.432-3.134 3.132-3.134h79.742c1.7 0 3.132 1.433 3.132 3.134v16.837c0 1.701-1.432 3.134-3.132 3.134zm0-25.524h-79.742c-1.7 0-3.132-1.432-3.132-3.134s1.432-3.134 3.132-3.134h79.742c1.7 0 3.132 1.432 3.132 3.134s-1.432 3.134-3.132 3.134z" fill="#DCE8F7"/><path d="M213.504 216.314h-79.742c-1.7 0-3.132-1.433-3.132-3.134 0-1.702 1.432-3.135 3.132-3.135h79.742c1.7 0 3.132 1.433 3.132 3.135 0 1.701-1.432 3.134-3.132 3.134z" fill="#75DBA1"/><path d="M97.966 194.642v-48.808H19.12V207h66.406l12.44-12.358z" fill="#DCE8F7"/><path d="M97.966 194.642h-12.35V207l12.35-12.358z" fill="#D90F16"/></g><defs><linearGradient id="paint0_linear" x1="418.558" y1="104.985" x2="-2.957" y2="231.855" gradientUnits="userSpaceOnUse"><stop stop-color="#EFF3FE" stop-opacity=".42"/><stop offset="1" stop-color="#E8EFFF"/></linearGradient><clipPath id="clip0"><path fill="#fff" transform="translate(.236 .67)" d="M0 0h448v369H0z"/></clipPath></defs></svg>