<svg width="450" height="306" fill="none" xmlns="http://www.w3.org/2000/svg"><g clip-path="url(#clip0)"><path opacity=".9" d="M160.303 60C224.38 72.87 300.201 11.835 329.728 4.79c18.938-4.539 40.863-6.503 56.883 1.22 15.476 7.451 21.313 21.744 24.843 35.157 2.715 10.094 4.548 20.797-.068 30.688-3.258 6.91-9.435 13.006-13.508 19.645-14.254 23.303-1.086 49.79 17.513 70.18 8.757 9.552 18.735 18.562 25.726 28.926 6.992 10.365 10.657 22.558 6.041 33.939-4.547 11.313-38.351 61.848-127.476 72.619-71.341 9.281-138.676-9.416-210.628-6.164-26.608 1.219-85.256 13.48-103.176-20.052-18.259-34.21 22.944-66.319 38.895-89.081 15.951-22.761-26.133-43.151-19.074-80.477C34.795 53.429 98.601 47.603 160.303 60z" fill="url(#paint0_linear)" fill-opacity=".5"/><path d="M356.589 198.274c-1.31-2.967-.333-7.815.722-11.707 1.173-4.36 2.941-8.936 6.605-11.662 3.334-2.419 7.341-.682 6.633 3.868-.794 4.821-6.758 6.786-9.761 10.188-6.057 6.877-3.833 7.971-4.199 9.313zm-8.646-14.815c-3.591-2.313-9.193-2.142-11.188-6.363-1.826-3.923 1.348-6.577 4.993-5.175 4.04 1.539 6.837 5.256 9.002 8.937 1.979 3.257 3.109 6.702 3.665 10.488-.455-.965-.246-3.38-6.472-7.887zm8.461 29.909c.543-2.236.475-4.81 0-7.113-1.29-5.758-3.394-12.871-7.467-17.342-3.055-3.319-9.775-5.758-13.033-1.558-2.036 3.319-1.765 9.077 6.449 10.568 14.594 3.861 14.051 15.445 14.051 15.445zm7.195 44.168c9.163 2.506 12.354-3.252 11.879-7.723-1.29-5.961-9.436-6.842-14.187-4.877-6.381 2.642-12.15 8.942-16.291 14.226-1.697 2.1-2.987 4.742-3.53 7.316 0 0 5.159-12.194 22.129-8.942zm18.395-55.345c-5.431-9.078-18.26-2.913-22.332 5.216-1.358 2.709-2.444 5.69-3.394 8.603.95-1.49 2.24-2.778 4.004-3.455 6.042-2.371 12.286.677 18.26-1.287 3.326-1.084 5.159-6.232 3.462-9.077zm-33.94 6.57c-4.887-6.232-12.897-6.096-15.612-1.761-.882 1.423-2.511 6.571 3.191 10.5 2.85 1.897 14.933 4.674 17.037 12.668-.068-.949 0-15.581-4.616-21.407z" fill="#F4C1C3"/><path d="M382.265 224.478c-1.018-4.065-4.887-5.149-7.942-5.149-11.607-.068-19.549 12.871-26.405 27.436 7.467-13.007 22.876-11.991 28.442-13.278 4.005-.948 7.195-3.522 5.905-9.009z" fill="#D20F16"/><path d="M337.194 226.171c-2.715-3.319-7.331-4.403-10.318-2.642-4.005 2.439-4.48 8.062-1.901 11.652 3.666 5.148 9.843 3.861 13.984 8.739 3.326 3.793 5.226 9.416 4.344 15.106 2.986-9.89-2.037-27.842-6.109-32.855z" fill="#F4C1C3"/><path d="M352.67 186.61c14.798 30.822-9.299 72.416-28.305 109.2" stroke="#F4C1C3" stroke-miterlimit="10"/><path d="M143.238 85.065h86.749m62 145.712H138.445c-4.955 0-9.096-4.132-9.096-9.077V110.671" stroke="#A6BBDE" stroke-miterlimit="10" stroke-dasharray="2 2"/><path d="M222.275 297.571H91.948c-2.647 0-4.684-2.032-4.684-4.674v-94.703c0-2.642 2.037-4.675 4.684-4.675h130.327c2.647 0 4.684 2.033 4.684 4.675v94.703c.068 2.506-1.969 4.674-4.684 4.674z" fill="#A6BBDE"/><path d="M219.628 201.31H94.798v88.268h124.83V201.31z" fill="#F6F8FB"/><path d="M78.983 283.481v13.955c0 2.371 1.9 4.2 4.208 4.2h148.044a4.182 4.182 0 004.209-4.2v-13.955H78.983z" fill="#87A4D4"/><path d="M134.779 283.481v2.98c0 1.084.951 2.168 2.172 2.168h40.32c1.086 0 2.173-.948 2.173-2.168v-2.98h-44.665zm7.874-13.278h-34.211v-56.496h42.832V261.6l-8.621 8.603z" fill="#DCE8F7"/><path d="M142.653 270.203V261.6h8.621l-8.621 8.603z" fill="#87A4D4"/><path d="M197.228 270.203h-34.21v-56.496h42.831V261.6l-8.621 8.603z" fill="#DCE8F7"/><path d="M197.228 270.203V261.6h8.621l-8.621 8.603z" fill="#87A4D4"/><path d="M145.301 221.226h-30.885v13.142h30.885v-13.142z" fill="#F4C1C3"/><path d="M55.227 305.192h323.985v-3.455H55.226v3.455z" fill="#C3D3EA"/><path d="M147.947 163.577h-37.808c-4.073 0-7.127-3.116-7.127-7.113V77.748c0-4.064 3.122-7.113 7.127-7.113h37.808c4.073 0 7.128 3.116 7.128 7.113v78.784c0 3.997-3.326 7.045-7.128 7.045z" fill="#A6BBDE"/><path d="M152.495 78.697h-46.564v72.822h46.564V78.697z" fill="#F4F7FC"/><path d="M128.941 161.206c1.969 0 3.598-1.558 3.598-3.59a3.574 3.574 0 00-3.598-3.59c-1.968 0-3.597 1.626-3.597 3.59a3.574 3.574 0 003.597 3.59z" fill="#87A4D4"/><path d="M131.724 112.906c-.543-.271-1.154-.677-1.697-.338-.271.203-.339.609-.543.88-.271.475-.882.746-1.425.678-.543-.068-1.018-.61-1.086-1.152-1.697-.203-3.326-1.151-4.277-2.574-.95-1.423-1.221-3.319-.746-4.945.611-1.965 2.172-3.455 3.665-4.878 1.154-1.084 2.376-2.235 3.869-2.845 1.494-.61 3.394-.542 4.548.542.543.474.883 1.152 1.29 1.694.814 1.151 1.968 2.032 2.715 3.251 1.901 3.32-1.833 11.855-6.313 9.687z" fill="#274253"/><path d="M132.811 106.674c-.476 1.152-.476 5.216 2.375 5.013.815 2.1 0 2.777 0 5.013 0 2.235-1.018 4.606-2.986 5.622-1.222.61-2.648.678-4.005.542-1.222-.135-2.444-.338-3.53-.88-1.086-.542-2.036-1.423-2.511-2.507-.543-1.287-.34-2.777 0-4.2.339-1.355 0-1.896 0-3.319 1.493-.474 2.85-.745 3.461-1.626.611-.813.679-1.897.747-2.981 0-1.016 0-2.1.339-3.048" fill="#C1826A"/><path d="M124.529 101.661c0 4.878 4.412 8.807 5.77 8.807 1.765 0 5.77-3.929 5.77-8.807 0-4.877-2.58-8.806-5.77-8.806-3.19 0-5.77 3.929-5.77 8.806z" fill="#C1826A"/><path d="M118.76 101.932c.271-.406.067-1.084-.408-1.151.34.135.611-.339.543-.678-.068-.339-.339-.61-.475-.948a1.662 1.662 0 01.34-1.83c.407-.406 1.018-.541 1.493-.88.475-.339.679-1.152.136-1.422.339-.678.678-1.288 1.018-1.965.543-1.49 2.579-1.152 3.733-1.152-.068-.745.136-1.422.543-2.032.611.271 2.24.339 2.444-.068.339-.745 1.968-1.355 5.159-.542 3.19.813 8.213 4.878 8.484 7.046.068.406-.475.948-.814.677.203.406-.272.813-.747.813h-.203c.814 1.151 2.104 2.303 1.153 3.793-.203.339-.61.678-.882 1.017-.271.338-.475.812-.271 1.219.135.271.407.474.475.813.068.745-1.426 1.016-1.154 1.761.068.271.407.407.611.61.407.474.135 1.151-.136 1.693-.475.746-.95 1.491-1.765 1.897-.747.407-1.765.474-2.444-.068.408-.271.476-.948.272-1.422-.204-.474-.543-.881-.747-1.355-1.018-2.168 1.018-4.81.136-7.045-.136-.407-.407-.813-.611-1.287-.068-.068-.136-.068-.204-.136-.475-.339-.746-1.151-.407-1.626-.203 0-.407 0-.611.068-.068-.406-.068-.88-.135-1.287-.136.339-.543.542-.883.542-.204-.542-.271-1.152-.271-1.761-.476.61-1.765.745-2.58.542-1.289 1.219-1.697 3.522-3.394 4.064-.475.136-1.154.271-1.222.813-.067.677 1.154.948 1.087 1.626-.068.542-.883.677-1.019 1.151-.135.542.476.881.815 1.288.475.541.475 1.422 0 1.964-.204 1.219-.339 2.439-.543 3.658-1.222-.068-2.512-.61-3.326-1.626-.204-1.084-1.154-1.829-1.765-2.642-.611-.88-.95-2.235-.204-2.913-.678-.135-1.425-.812-1.221-1.219z" fill="#274253"/><path d="M111.7 127.539c.475-3.726.679-9.958 2.987-12.465 2.308-2.439 9.299-3.658 9.299-3.658s1.629 8.806 5.702 8.806c4.073.068 4.48-8.738 4.48-8.738s6.72.745 10.046 3.861c2.987 2.777 3.53 11.245 3.598 12.194H111.7z" fill="#75DBA1"/><path d="M145.436 142.713h-31.36c-1.29 0-2.376-1.084-2.376-2.371v-4.471c0-1.287 1.086-2.371 2.376-2.371h31.36c1.29 0 2.376 1.084 2.376 2.371v4.471c0 1.287-1.086 2.371-2.376 2.371z" fill="#DCE8F7"/><path d="M296.942 151.52v65.303" stroke="#A6BBDE" stroke-miterlimit="10" stroke-dasharray="2 2"/><path d="M348.53 91.906c0-8.874-2.58-17.613-7.535-25.064-4.887-7.452-11.947-13.21-20.296-16.597-8.213-3.387-17.377-4.268-26.133-2.506-8.756 1.76-16.834 6.029-23.011 12.396-25.387-7.925-51.656 7.926-57.29 33.33-14.05 4.267-24.164 17.341-24.164 32.177 0 18.629 15.612 33.803 34.278 33.803H348.53c18.666 0 34.278-15.174 34.278-33.803 0-18.629-15.612-33.736-34.278-33.736z" fill="#fff" stroke="#D90F16" stroke-miterlimit="10"/><path d="M274.406 89.197c0-6.571 5.363-11.923 12.015-11.923s12.014 5.352 12.014 11.923v24.997h4.277V89.197c0-8.942-7.331-16.258-16.291-16.258s-16.291 7.248-16.291 16.258l.068 24.523 4.276.067-.068-24.59z" fill="#274253"/><path d="M304.816 140.342h-36.723c-2.986 0-5.43-2.439-5.43-5.419v-31.704c0-2.98 2.444-5.419 5.43-5.419h36.723c2.986 0 5.43 2.439 5.43 5.419v31.704c0 2.98-2.444 5.419-5.43 5.419z" fill="#FCDA2C"/><path d="M291.987 112.703c0-3.048-2.512-5.554-5.566-5.554-3.055 0-5.567 2.506-5.567 5.554 0 1.897.951 3.523 2.376 4.539l-2.24 11.178h10.793l-2.24-11.178c1.493-1.016 2.444-2.642 2.444-4.539z" fill="#274253"/><path d="M329.591 301.568h-60.208c-2.647 0-4.684-2.032-4.684-4.674V212.69c0-2.642 2.037-4.674 4.684-4.674h60.208c2.648 0 4.684 2.032 4.684 4.674v84.204c0 2.642-2.172 4.674-4.684 4.674z" fill="#87A4D4"/><path d="M330.677 212.081h-62.244v77.767h62.244v-77.767z" fill="#F4F7FC"/><path d="M299.453 299.061a3.328 3.328 0 003.326-3.319 3.328 3.328 0 00-3.326-3.319 3.328 3.328 0 00-3.326 3.319 3.328 3.328 0 003.326 3.319z" fill="#A6BBDE"/><path d="M309.16 272.168h-19.278c-4.412 0-7.874-3.455-7.874-7.858v-29.129c0-4.404 3.462-7.858 7.874-7.858h19.278c4.412 0 7.874 3.454 7.874 7.858v29.129c0 4.403-3.598 7.858-7.874 7.858z" fill="#fff"/><path d="M311.06 242.429h-16.63c-1.086 0-1.901-.813-1.901-1.897v-.135c0-1.084.815-1.897 1.901-1.897h16.63c1.086 0 1.901.813 1.901 1.897v.135c0 1.084-.815 1.897-1.901 1.897z" fill="#F4C1C3"/><path d="M311.06 248.526h-16.63c-1.086 0-1.901-.813-1.901-1.897v-.135c0-1.084.815-1.897 1.901-1.897h16.63c1.086 0 1.901.813 1.901 1.897v.135c0 1.084-.815 1.897-1.901 1.897z" fill="#DCE8F7"/><path d="M311.06 254.758h-16.63c-1.086 0-1.901-.813-1.901-1.897v-.135c0-1.084.815-1.897 1.901-1.897h16.63c1.086 0 1.901.813 1.901 1.897v.135c0 .949-.815 1.897-1.901 1.897z" fill="#75DBA1"/><path d="M310.45 266.681h-15.341c-1.425 0-2.511-1.084-2.511-2.507v-4.877c0-1.423 1.086-2.507 2.511-2.507h15.341c1.425 0 2.511 1.084 2.511 2.507v4.877c0 1.423-1.086 2.507-2.511 2.507zm6.584-32.584v-3.59c0-1.694-1.426-3.117-3.123-3.117h-28.237c-2.037 0-3.598 1.694-3.598 3.591v2.98h34.958v.136z" fill="#DCE8F7"/><path d="M285.063 272.168h3.597V227.39h-3.597c-1.697 0-3.123 1.423-3.123 3.117v38.477c-.068 1.761 1.358 3.184 3.123 3.184z" fill="#A6BBDE"/></g><defs><linearGradient id="paint0_linear" x1="41.142" y1="-4.095" x2="373.668" y2="317.199" gradientUnits="userSpaceOnUse"><stop stop-color="#E8EFFF"/><stop offset="1" stop-color="#EFF3FE"/></linearGradient><clipPath id="clip0"><path fill="#fff" transform="translate(.75 .67)" d="M0 0h449v305H0z"/></clipPath></defs></svg>