<svg width="451" height="338" fill="none" xmlns="http://www.w3.org/2000/svg"><g clip-path="url(#clip0)"><path opacity=".9" d="M159.962 60.045c64.266 12.935 140.31-48.404 169.924-55.484C348.88 0 370.87-1.974 386.936 5.787c15.522 7.488 21.377 21.853 24.917 35.332 2.723 10.144 4.561 20.9-.068 30.84-3.268 6.944-9.463 13.071-13.548 19.743-14.296 23.419-1.089 50.038 17.564 70.529 8.783 9.599 18.79 18.654 25.802 29.07 7.012 10.416 10.689 22.67 6.059 34.107-4.561 11.369-38.464 62.156-127.851 72.981-71.551 9.326-139.153-9.395-211.249-6.195-26.686 1.225-85.506 13.547-103.48-20.152-18.312-34.38 23.011-66.649 39.01-89.523 15.998-22.875-26.278-43.434-19.198-80.878 9.122-48.2 73.116-54.054 135.068-41.596z" fill="url(#paint0_linear)" fill-opacity=".5"/><path d="M337.715 133.911a51.945 51.945 0 00-8.646-28.729c-5.65-8.51-13.684-15.114-23.215-19.062-9.395-3.88-19.879-4.902-29.886-2.928-10.008 2.043-19.267 6.944-26.347 14.229-29.069-9.055-59.16 9.054-65.559 38.26-16.067 4.902-27.708 19.879-27.708 36.899 0 21.376 17.836 38.736 39.213 38.736h142.148c21.377 0 39.213-17.428 39.213-38.736 0-21.309-17.836-38.669-39.213-38.669z" fill="#fff" stroke="#D90F16" stroke-miterlimit="10"/><path d="M87.291 112.79c1.226-2.77.313-7.299-.664-10.978-1.093-4.05-2.725-8.344-6.17-10.885-3.092-2.268-6.865-.615-6.122 3.615.781 4.484 6.32 6.33 9.103 9.485 5.654 6.492 3.545 7.513 3.853 8.763zm8.111-13.846c3.321-2.17 8.549-2.027 10.425-5.928 1.72-3.684-1.267-6.097-4.657-4.824-3.75 1.39-6.375 4.883-8.387 8.285-1.813 3.05-2.912 6.255-3.465 9.768.441-.842.24-3.079 6.084-7.301zm-7.877 27.955c-.544-2.111-.476-4.494 0-6.604 1.158-5.378 3.132-12.05 6.944-16.203 2.792-3.131 9.123-5.378 12.187-1.429 1.906 3.131 1.633 8.441-5.991 9.871-13.684 3.54-13.14 14.365-13.14 14.365zm-6.739 41.187c-8.578 2.315-11.506-3.064-11.097-7.216 1.225-5.583 8.782-6.332 13.207-4.562 5.991 2.451 11.301 8.306 15.182 13.276 1.566 1.974 2.791 4.425 3.267 6.808.069.068-4.765-11.369-20.56-8.306zm-17.088-51.672c5.038-8.441 17.02-2.723 20.764 4.902 1.293 2.587 2.315 5.31 3.2 8.033-.885-1.429-2.11-2.587-3.745-3.199-5.582-2.179-11.437.612-17.02-1.226-3.13-1.021-4.833-5.786-3.199-8.51zm31.589 6.128c4.56-5.787 11.981-5.719 14.568-1.634.817 1.361 2.315 6.127-2.995 9.803-2.655 1.77-13.888 4.357-15.862 11.778 0-.817-.069-14.433 4.289-19.947z" fill="#F4C1C3"/><path d="M63.425 137.246c.954-3.812 4.562-4.765 7.421-4.833 10.757-.068 18.245 12.05 24.576 25.666-6.944-12.118-21.308-11.165-26.482-12.391-3.745-.953-6.74-3.336-5.514-8.442z" fill="#D20F16"/><path d="M105.362 138.812c2.519-3.131 6.808-4.153 9.599-2.451 3.744 2.247 4.153 7.557 1.77 10.893-3.404 4.834-9.122 3.608-13.071 8.169-3.064 3.54-4.834 8.851-4.085 14.093-2.655-9.259 2.043-26.006 5.787-30.704z" fill="#F4C1C3"/><path d="M90.93 101.914c-13.752 28.729 11.641 55.416 26.414 136.225" stroke="#F4C1C3" stroke-miterlimit="10"/><path d="M247.103 332.36h-53.51c-2.247 0-3.813-2.042-3.813-4.425l6.264-39.145c0-2.451 1.838-4.425 3.812-4.425h40.983c2.247 0 3.813 2.042 3.813 4.425l6.263 39.145c0 2.383-1.838 4.425-3.812 4.425z" fill="#87A4D4"/><path d="M318.925 300.635h-197.36c-3.404 0-6.059-2.655-6.059-6.059v-140.65c0-3.404 2.655-6.059 6.059-6.059h197.36c3.404 0 6.059 2.655 6.059 6.059v140.65c0 3.472-2.655 6.059-6.059 6.059z" fill="#A6BBDE"/><path d="M313.888 160.597h-187.08v117.436h187.08V160.597z" fill="#F4F7FC"/><path d="M264.667 333.926h-88.639c-1.634 0-2.859-1.225-2.859-2.859v-.205c0-1.633 1.225-2.859 2.859-2.859h88.571c1.633 0 2.859 1.226 2.859 2.859v.205c0 1.702-1.226 2.859-2.791 2.859z" fill="#A6BBDE"/><path d="M220.211 295.393c3.336 0 6.059-2.723 6.059-6.059 0-3.336-2.723-6.059-6.059-6.059-3.336 0-6.059 2.723-6.059 6.059 0 3.336 2.723 6.059 6.059 6.059z" fill="#87A4D4"/><path d="M65.06 243.79v-56.505h91.294v70.869H79.357L65.06 243.79z" fill="#fff" stroke="#A6BBDE" stroke-miterlimit="10"/><path d="M65.06 243.79h14.297v14.296L65.06 243.79zm12.526-7.489h65.492c1.294 0 2.383-1.089 2.383-2.382v-14.093c0-1.293-1.089-2.383-2.383-2.383H77.586c-1.293 0-2.382 1.09-2.382 2.383v14.093c0 1.293 1.089 2.382 2.382 2.382zm-.204-20.9h65.9c1.226 0 2.179-1.021 2.179-2.178v-.749c0-1.226-1.021-2.179-2.179-2.179h-65.9c-1.225 0-2.178 1.021-2.178 2.179v.749a2.15 2.15 0 002.178 2.178z" fill="#DCE8F7"/><path d="M77.382 208.321h65.9c1.226 0 2.179-1.021 2.179-2.179v-.749c0-1.225-1.021-2.178-2.179-2.178h-65.9c-1.225 0-2.178 1.021-2.178 2.178v.749a2.15 2.15 0 002.178 2.179z" fill="#EA8F96"/><path d="M66.456 337.135H368.25v-3.268H66.456v3.268z" fill="#C3D3EA"/><path d="M263.918 184.357c-24.304 2.179-37.171-6.876-41.392-10.62-.817-.749-2.247-.749-3.064 0-4.153 3.676-17.087 12.799-41.392 10.62-1.225-.136-2.314.749-2.314 1.77-.136 53.374 35.265 73.729 45.204 75.363 9.94-1.634 45.34-21.989 45.204-75.363.068-1.021-1.021-1.838-2.246-1.77z" fill="#FCDA2C"/><path d="M263.917 184.357c-24.304 2.178-37.171-6.876-41.391-10.62a2.38 2.38 0 00-1.498-.545v88.298c9.939-1.634 45.34-21.989 45.204-75.363 0-1.021-1.089-1.838-2.315-1.77z" fill="#FBBD20"/><path opacity=".9" d="M228.04 226.77l17.564-21.853c.613-.749.477-1.906-.272-2.519l-5.038-4.017c-.749-.612-1.906-.476-2.519.273l-14.705 18.245c-.749.885-2.11.885-2.791 0l-6.536-8.306c-.612-.749-1.77-.885-2.518-.272l-5.038 4.016c-.817.613-.885 1.771-.273 2.519l14.501 18.109c.749.885 2.111.885 2.791 0l4.834-6.195z" fill="url(#paint1_linear)" fill-opacity=".5"/><path d="M341.323 261.558h-56.165a3.371 3.371 0 01-3.404-3.404v-52.08a3.371 3.371 0 013.404-3.404h56.165a3.371 3.371 0 013.404 3.404v52.08c0 1.838-1.566 3.404-3.404 3.404z" fill="#DCE8F7"/><path d="M338.056 241.611h-50.174a.93.93 0 01-.953-.953v-9.599a.93.93 0 01.953-.953h50.174a.93.93 0 01.953.953v9.599a.93.93 0 01-.953.953zm0 14.978h-50.174a.93.93 0 01-.953-.954v-9.599a.93.93 0 01.953-.953h50.174c.544 0 .953.409.953.953v9.599a.931.931 0 01-.953.954z" fill="#fff"/><path d="M289.311 225.613h47.315c1.294 0 2.383-1.09 2.383-2.383v-4.561c0-1.294-1.089-2.383-2.383-2.383h-47.315c-1.293 0-2.382 1.089-2.382 2.383v4.561a2.368 2.368 0 002.382 2.383z" fill="#A6BBDE"/><path d="M289.311 214.38h47.315c1.294 0 2.383-1.09 2.383-2.383v-.817c0-1.294-1.089-2.383-2.383-2.383h-47.315c-1.293 0-2.382 1.089-2.382 2.383v.817a2.368 2.368 0 002.382 2.383z" fill="#75DBA1"/><circle cx="299.385" cy="250.984" fill="#2C4251" r="2.557"/><circle cx="306.544" cy="250.984" fill="#2C4251" r="2.557"/><circle cx="313.703" cy="250.984" fill="#2C4251" r="2.557"/><circle cx="320.862" cy="250.984" fill="#2C4251" r="2.557"/><circle cx="328.021" cy="250.984" fill="#2C4251" r="2.557"/></g><defs><linearGradient id="paint0_linear" x1="40.404" y1="-4.367" x2="374.559" y2="317.849" gradientUnits="userSpaceOnUse"><stop stop-color="#E8EFFF"/><stop offset="1" stop-color="#EFF3FE"/></linearGradient><linearGradient id="paint1_linear" x1="205.39" y1="215.806" x2="246.005" y2="215.806" gradientUnits="userSpaceOnUse"><stop stop-color="#E8EFFF"/><stop offset="1" stop-color="#EFF3FE"/></linearGradient><clipPath id="clip0"><path fill="#fff" transform="translate(.249)" d="M0 0h450v337.67H0z"/></clipPath></defs></svg>