<svg width="678" height="1579" fill="none" xmlns="http://www.w3.org/2000/svg"><path fill-rule="evenodd" clip-rule="evenodd" d="M7.73 524.713c23.618 102.1 186.657 178.973 305.492 248.647 95.543 58.693 278.306 124.398 325.215 237.48 55.068 119.2 34.644 259.67 75.934 426.95 79.223 46.45 152.664 101.55 230.698 140.61-40.427-251.02-63.67-573.53-106.312-793.761-7.134-44.298-22.428-94.718-42.315-129.11-70.2-124.064-25.64-196.745-45.854-322.256-10.701-66.447-67.182-137.662-45.243-179.623 45.068-76.538-7.834-51.473 0-136.47-97.758-27.9-307.523-30.583-452.021 81.101C207.389 137.01-45.286 329.156 7.731 524.714z" fill="url(#paint0_linear)"/><defs><linearGradient id="paint0_linear" x1="325.5" y1="33.501" x2="382.297" y2="1398.61" gradientUnits="userSpaceOnUse"><stop stop-color="#F5F8FF"/><stop offset="1" stop-color="#F5F8FF" stop-opacity=".42"/></linearGradient></defs></svg>