<svg width="110" height="18" fill="none" xmlns="http://www.w3.org/2000/svg"><g clip-path="url(#clip0)"><path d="M5.27 6.003c1.574 0 2.882.813 3.504 1.69V6.218h2.4v10.934H9.447a.683.683 0 01-.686-.686v-.787c-.61.888-1.917 1.701-3.491 1.701-2.997 0-5.27-2.565-5.27-5.689s2.273-5.689 5.27-5.689zm.43 2.184c-1.942 0-3.263 1.537-3.263 3.505s1.308 3.505 3.263 3.505c1.943 0 3.264-1.537 3.264-3.505S7.657 8.187 5.7 8.187zm8.203-1.968h2.413v1.486c.66-1.092 1.904-1.702 3.326-1.702 2.54 0 4.178 1.79 4.178 4.572v6.578h-1.727a.683.683 0 01-.686-.686v-5.499c0-1.727-.876-2.78-2.273-2.78-1.6 0-2.819 1.244-2.819 3.58v5.384H14.59a.683.683 0 01-.686-.685V6.219zm17.091-.216c1.574 0 2.882.813 3.505 1.69V.758h2.4v16.406h-1.727a.683.683 0 01-.686-.685v-.788c-.61.876-1.93 1.689-3.505 1.689-2.996 0-5.27-2.565-5.27-5.689.014-3.124 2.286-5.689 5.283-5.689zm.432 2.184c-1.943 0-3.264 1.537-3.264 3.505s1.308 3.505 3.264 3.505c1.943 0 3.263-1.537 3.263-3.505s-1.32-3.505-3.263-3.505zM39.63 6.22h2.4v1.943a3.08 3.08 0 012.882-2.057c.315 0 .63.029.94.089V8.67a3.878 3.878 0 00-1.207-.203c-1.384 0-2.628 1.155-2.628 3.352v5.333H40.29a.683.683 0 01-.686-.685V6.219h.026zm12.722 11.162c-3.237 0-5.726-2.514-5.726-5.689 0-3.174 2.489-5.689 5.727-5.689 3.237 0 5.726 2.515 5.726 5.69 0 3.174-2.489 5.688-5.727 5.688zm0-2.235c1.93 0 3.277-1.511 3.277-3.454 0-1.943-1.36-3.454-3.276-3.454-1.943 0-3.302 1.511-3.302 3.454 0 1.943 1.359 3.454 3.301 3.454zm8.876-11.314a1.623 1.623 0 01-1.612-1.613 1.63 1.63 0 011.612-1.6 1.606 1.606 0 110 3.213zM60.035 6.22h2.4v10.934H60.72a.683.683 0 01-.685-.686V6.219zm9.65-.216c1.574 0 2.882.813 3.504 1.69V.758h2.4v16.406h-1.727a.683.683 0 01-.685-.685v-.788c-.61.876-1.93 1.689-3.505 1.689-2.996 0-5.27-2.565-5.27-5.689.013-3.124 2.286-5.689 5.283-5.689zm.444 2.184c-1.943 0-3.263 1.537-3.263 3.505s1.308 3.505 3.263 3.505c1.943 0 3.264-1.537 3.264-3.505s-1.321-3.505-3.264-3.505z" fill="#000"/><path d="M102.139 13.025a1.217 1.217 0 01-1.126-.752 1.213 1.213 0 01.264-1.329 1.214 1.214 0 011.328-.264 1.217 1.217 0 01.753 1.126 1.222 1.222 0 01-1.219 1.22zm-13.422 0a1.218 1.218 0 110-2.436 1.218 1.218 0 010 2.436zm13.853-7.314l2.438-4.203a.497.497 0 00-.04-.56.49.49 0 00-.336-.19.501.501 0 00-.5.255l-2.463 4.254a14.879 14.879 0 00-6.235-1.346 15.129 15.129 0 00-6.247 1.333L86.724 1a.503.503 0 00-.876.495l2.425 4.203a14.363 14.363 0 00-7.441 11.48h29.167A14.288 14.288 0 00102.57 5.71z" fill="#3DDC84"/></g><defs><clipPath id="clip0"><path fill="#fff" transform="translate(0 .62)" d="M0 0h110v16.762H0z"/></clipPath></defs></svg>