<svg width="1440" height="2194" fill="none" xmlns="http://www.w3.org/2000/svg"><path fill-rule="evenodd" clip-rule="evenodd" d="M276.446 2167.44c615.056 114.08 953.694-172.76 1182.794-327.57 0 0 127.13-398.33 351.96-322.68 258.77 66.94 248.09-364.19 557.68-317.27 117.86-41.31 75.73-515.163 180.23-559.053-454.43-87.684-900.02-313.133-1302.07-384.306-80.19-15.474-173.73-20.689-242.74-21.195-242.24 10.852-443.171 146.63-670.383 102.789C213.629 314.944 78.181 223.182 15.727 185.51-95.814 112.745-167.26 47.717-310.999.766-405.405 65.819-249.521 1348-284.754 1469.31c135.987 168.38 197.055 647.09 561.2 698.13z" fill="url(#paint0_linear)"/><defs><linearGradient id="paint0_linear" x1="1607.33" y1="374.995" x2="157.684" y2="984.167" gradientUnits="userSpaceOnUse"><stop stop-color="#F5F8FF"/><stop offset="1" stop-color="#F5F8FF" stop-opacity="0"/></linearGradient></defs></svg>