<svg width="1440" height="2149" fill="none" xmlns="http://www.w3.org/2000/svg"><path fill-rule="evenodd" clip-rule="evenodd" d="M1103.03 2134.43c-620.068 82.58-943.644-221.15-1164.55-387.44 0 0-106.664-404.3-335.055-340.2-261.844 53.65-229.207-376.37-540.787-345.29-115.598-47.27-49.369-518.356-151.488-567.516 458.303-64.404 914.804-266.845 1319.964-317.43 80.877-11.365 174.557-11.805 243.507-8.792 241.37 23.186 435.118 169.031 664.269 136.829 121.32-17.048 261.27-101.786 325.56-136.225C1579.55 101.381 1654.22 40.08 1800.17.517c90.96 69.781-130.08 1342.353-101.08 1465.293-144.39 161.23-229.78 636.2-596.06 668.62z" fill="url(#paint0_linear)"/><defs><linearGradient id="paint0_linear" x1="706" y1="18.5" x2="286.113" y2="1298.95" gradientUnits="userSpaceOnUse"><stop stop-color="#F5F8FF"/><stop offset="1" stop-color="#F5F8FF" stop-opacity="0"/></linearGradient></defs></svg>