<svg width="601" height="455" fill="none" xmlns="http://www.w3.org/2000/svg"><path d="M520 125l-2.887 5h5.774L520 125zm-80 83l5 2.887v-5.774L440 208zm79.5-78.583v2.944h1v-2.944h-1zm0 5.889v2.944h1v-2.944h-1zm0 5.888v2.945h1v-2.945h-1zm0 5.889v2.945h1v-2.945h-1zm0 5.889v2.945h1v-2.945h-1zm0 5.889v2.945h1v-2.945h-1zm0 5.889v2.944h1v-2.944h-1zm0 5.889v2.944h1v-2.944h-1zm0 5.889V178h1v-1.472h-1zm0 1.472c0 .486-.012.969-.035 1.449l.999.048c.024-.496.036-.995.036-1.497h-1zm-.316 4.331a28.98 28.98 0 01-.562 2.84l.971.242c.24-.962.434-1.941.581-2.937l-.99-.145zm-1.401 5.61a29.19 29.19 0 01-1.109 2.674l.904.429c.426-.899.809-1.822 1.147-2.766l-.942-.337zm-2.476 5.227a29.816 29.816 0 01-1.61 2.406l.802.596c.595-.8 1.151-1.63 1.666-2.487l-.858-.515zm-3.449 4.643a29.5 29.5 0 01-2.047 2.047l.672.741a30.608 30.608 0 002.116-2.116l-.741-.672zm-4.284 3.886a29.816 29.816 0 01-2.406 1.61l.515.858a30.439 30.439 0 002.487-1.666l-.596-.802zm-4.959 2.977a29.19 29.19 0 01-2.674 1.109l.337.942a30.354 30.354 0 002.766-1.147l-.429-.904zm-5.444 1.948a28.98 28.98 0 01-2.84.562l.145.99a30.559 30.559 0 002.937-.581l-.242-.971zm-5.723.843c-.479.023-.962.035-1.448.035v1c.502 0 1.001-.012 1.497-.036l-.049-.999zM490 207.5h-1.562v1H490v-1zm-4.688 0h-3.124v1h3.124v-1zm-6.25 0h-3.124v1h3.124v-1zm-6.25 0h-3.124v1h3.124v-1zm-6.25 0h-3.124v1h3.124v-1zm-6.25 0h-3.124v1h3.124v-1zm-6.25 0h-3.124v1h3.124v-1zm-6.25 0h-3.124v1h3.124v-1z" fill="#7197E1"/><path d="M383.634 156.615a67.255 67.255 0 00-11.304-37.588 67.43 67.43 0 00-30.375-24.915 67.573 67.573 0 00-39.131-3.78 67.496 67.496 0 00-34.598 18.636c-38.097-11.884-77.534 11.884-85.923 50C161.27 165.448 146 184.914 146 207.295 146 235.254 169.35 258 197.366 258h186.268C411.65 258 435 235.246 435 207.295c0-27.95-23.35-50.68-51.366-50.68z" fill="url(#paint0_linear)"/><path d="M291 244c33.137 0 60-26.863 60-60s-26.863-60-60-60-60 26.863-60 60 26.863 60 60 60z" fill="#fff"/><path d="M312.483 189.499a10.188 10.188 0 00-3.336-.933v-4.48a1.466 1.466 0 00-1.465-1.466h-16.226v-6.053h7.324a5.86 5.86 0 005.824-5.185 5.86 5.86 0 00-4.479-6.384 7.314 7.314 0 00-9.819-5.51 7.308 7.308 0 00-3.334 2.591 5.821 5.821 0 00-6.439 2.799 5.857 5.857 0 00-5.203 6.171 5.862 5.862 0 005.89 5.518h7.324v6.053h-16.22a1.465 1.465 0 00-1.465 1.466v4.48a10.1 10.1 0 00-3.33.933c-1.632.814-2.529 2.016-2.529 3.38v11.724c0 1.37.897 2.573 2.529 3.386a11.887 11.887 0 009.596 0c1.626-.813 2.523-2.016 2.523-3.386v-11.724c0-1.364-.897-2.566-2.523-3.38-1.05-.5-2.179-.816-3.336-.933v-2.991h14.749v2.991a10.133 10.133 0 00-3.336.933c-1.626.814-2.523 2.016-2.523 3.38v11.724c0 1.37.897 2.573 2.523 3.386a11.887 11.887 0 009.596 0c1.632-.813 2.529-2.016 2.529-3.386v-11.724c0-1.364-.897-2.566-2.529-3.38a10.1 10.1 0 00-3.33-.933v-2.991h14.743v2.991a10.1 10.1 0 00-3.33.933c-1.632.814-2.529 2.016-2.529 3.38v11.724c0 1.37.897 2.573 2.529 3.386a11.887 11.887 0 009.596 0c1.626-.813 2.523-2.016 2.523-3.386v-11.724c.006-1.364-.891-2.566-2.517-3.38zm-35.759 15.104c0 .054-.155.389-.903.766a9.04 9.04 0 01-6.977 0c-.747-.377-.908-.712-.908-.766v-2.291a12.104 12.104 0 008.788 0v2.291zm0-5.862c0 .054-.155.389-.903.766a9.04 9.04 0 01-6.977 0c-.747-.377-.908-.712-.908-.766v-2.291a12.104 12.104 0 008.788 0v2.291zm-.903-6.622c.748.377.903.712.903.76 0 .048-.155.389-.903.766a9.04 9.04 0 01-6.977 0c-.747-.377-.908-.712-.908-.766 0-.054.161-.383.908-.76a8.974 8.974 0 016.977 0zm18.582 12.484c0 .054-.161.389-.908.766a9.049 9.049 0 01-6.978 0c-.747-.377-.902-.712-.902-.766v-2.291a12.104 12.104 0 008.788 0v2.291zm0-5.862c0 .054-.161.389-.908.766a9.049 9.049 0 01-6.978 0c-.747-.377-.902-.712-.902-.766v-2.291a12.104 12.104 0 008.788 0v2.291zm-.908-6.622c.747.377.908.712.908.76 0 .048-.161.389-.908.766a9.048 9.048 0 01-6.978 0c-.747-.377-.902-.712-.902-.766 0-.054.155-.383.902-.76a8.974 8.974 0 016.978 0zm-12.275-18.483a2.93 2.93 0 01-2.071-5.004 2.926 2.926 0 012.071-.859 1.553 1.553 0 001.65-.975 2.884 2.884 0 011.663-1.748 2.868 2.868 0 012.409.133 1.465 1.465 0 001.152.08c.187-.065.36-.167.507-.299.147-.133.266-.295.35-.475a4.39 4.39 0 014.901-2.448 4.393 4.393 0 013.469 4.243 1.464 1.464 0 001.465 1.466 2.93 2.93 0 012.071 5.003 2.926 2.926 0 01-2.071.859l-17.566.024zm30.856 30.967c0 .054-.155.389-.902.766a9.049 9.049 0 01-6.978 0c-.753-.377-.908-.712-.908-.766v-2.291a12.104 12.104 0 008.788 0v2.291zm0-5.862c0 .054-.155.389-.902.766a9.049 9.049 0 01-6.978 0c-.753-.377-.908-.712-.908-.766v-2.291a12.104 12.104 0 008.788 0v2.291zm-.89-5.096a9.048 9.048 0 01-6.978 0c-.753-.377-.908-.712-.908-.766 0-.054.155-.383.908-.76a8.974 8.974 0 016.978 0c.747.377.902.712.902.76 0 .048-.167.389-.902.766z" fill="url(#paint1_linear)"/><g filter="url(#filter0_d)"><rect width="154.35" height="117.6" rx="10" transform="matrix(-1 0 0 1 161.352 327.4)" fill="#fff"/></g><path d="M106.095 381.784a.9.9 0 00-1.264 0 .88.88 0 000 1.253l.262.26h-1.418c-2.463 0-4.468 1.987-4.468 4.43v3.544c0 .489.4.886.894.886a.89.89 0 00.893-.886v-3.544c0-1.466 1.203-2.658 2.681-2.658h1.418l-.262.259a.88.88 0 000 1.253.894.894 0 001.264 0l1.787-1.772a.882.882 0 000-1.253l-1.787-1.772zm1.095 12.204H92.892a.89.89 0 00-.894.886v10.632c0 .49.4.886.894.886h4.217l-.616 2.444a.88.88 0 00.163.76c.17.215.43.341.704.341h5.362a.9.9 0 00.705-.341.88.88 0 00.162-.76l-.616-2.444h4.217a.89.89 0 00.894-.886v-10.632a.89.89 0 00-.894-.886zm-8.685 14.176l.447-1.772h2.179l.447 1.772h-3.073zm7.792-3.544H93.786v-8.86h12.511v8.86zm11.677-3.544a.89.89 0 00-.894.886v1.772c0 1.466-1.203 2.658-2.681 2.658h-1.417l.262-.259a.88.88 0 000-1.253.9.9 0 00-1.264 0l-1.787 1.772a.882.882 0 000 1.253l1.787 1.772a.9.9 0 001.264 0 .88.88 0 000-1.253l-.262-.26h1.417c2.464 0 4.468-1.987 4.468-4.43v-1.772a.89.89 0 00-.893-.886zm3.634-21.383h-10.724a.89.89 0 00-.894.886V398.3a.89.89 0 00.894.886h10.724a.89.89 0 00.894-.886v-17.721a.89.89 0 00-.894-.886zm-.894 17.721h-8.936v-15.949h8.936v15.949zm-6.255-1.772h3.574a.89.89 0 00.894-.886.89.89 0 00-.894-.886h-3.574a.89.89 0 00-.894.886c0 .489.4.886.894.886zm1.787-10.632a.89.89 0 00.894-.886.89.89 0 00-.894-.887.89.89 0 00-.894.887c0 .489.4.886.894.886zm-9.03-25.914a5.11 5.11 0 002.765-.808 4.832 4.832 0 001.833-2.152c.377-.876.476-1.84.283-2.77a4.745 4.745 0 00-1.362-2.455 5.04 5.04 0 00-2.549-1.311 5.15 5.15 0 00-2.875.273 4.938 4.938 0 00-2.234 1.766 4.667 4.667 0 00-.838 2.664 4.71 4.71 0 001.459 3.388 5.09 5.09 0 003.518 1.405zm0-7.647c.586 0 1.159.168 1.646.481a2.88 2.88 0 011.091 1.281c.224.521.283 1.095.169 1.648a2.828 2.828 0 01-.811 1.461 3 3 0 01-1.517.781 3.07 3.07 0 01-1.712-.162 2.94 2.94 0 01-1.329-1.051 2.776 2.776 0 01-.5-1.585 2.81 2.81 0 01.869-2.017 3.027 3.027 0 012.094-.837zm-9.402 10.464a3.93 3.93 0 002.126-.621 3.725 3.725 0 001.41-1.655c.29-.674.366-1.415.218-2.13a3.644 3.644 0 00-1.048-1.888 3.867 3.867 0 00-1.96-1.009 3.967 3.967 0 00-2.211.21c-.7.279-1.297.751-1.718 1.358a3.59 3.59 0 00-.645 2.048c0 .978.403 1.916 1.121 2.607a3.9 3.9 0 002.707 1.08zm0-5.433c.358 0 .709.102 1.007.294.298.192.53.465.668.784.137.319.173.67.103 1.009a1.73 1.73 0 01-.496.894 1.835 1.835 0 01-.928.478 1.883 1.883 0 01-1.048-.099 1.808 1.808 0 01-.814-.644 1.701 1.701 0 01-.305-.97c0-.463.19-.907.53-1.235a1.85 1.85 0 011.283-.511zm18.803 5.433c.757 0 1.497-.216 2.127-.621a3.73 3.73 0 001.41-1.655 3.564 3.564 0 00.217-2.13 3.642 3.642 0 00-1.047-1.888 3.871 3.871 0 00-1.96-1.009 3.968 3.968 0 00-2.212.21 3.793 3.793 0 00-1.717 1.358 3.588 3.588 0 00-.646 2.048c0 .978.404 1.916 1.122 2.607a3.898 3.898 0 002.706 1.08zm0-5.433c.359 0 .709.102 1.008.294.298.192.53.465.667.784.138.319.173.67.104 1.009-.07.338-.243.65-.497.894a1.83 1.83 0 01-.928.478 1.884 1.884 0 01-1.048-.099 1.807 1.807 0 01-.813-.644 1.695 1.695 0 01.225-2.205 1.85 1.85 0 011.282-.511zm.134 7.379a5.471 5.471 0 00-2.524.634 8.172 8.172 0 00-2.95-2.699 8.538 8.538 0 00-3.927-1.024 8.538 8.538 0 00-3.927 1.024 8.172 8.172 0 00-2.95 2.699 5.473 5.473 0 00-2.524-.634 6.104 6.104 0 00-4.144 1.879 5.66 5.66 0 00-1.565 4.146c0 .257.107.504.295.686.19.182.446.284.713.284.267 0 .523-.102.712-.284a.953.953 0 00.295-.686 3.766 3.766 0 01.976-2.773 4.055 4.055 0 012.718-1.311 3.399 3.399 0 011.588.406 9.475 9.475 0 00-.716 3.621.95.95 0 00.295.686c.189.182.445.285.712.285.268 0 .524-.103.713-.285a.95.95 0 00.295-.686c0-3.924 2.921-7.116 6.514-7.116 3.593 0 6.514 3.192 6.514 7.116a.95.95 0 00.295.686c.189.182.445.285.713.285.267 0 .523-.103.712-.285a.95.95 0 00.295-.686 9.5 9.5 0 00-.716-3.621 3.397 3.397 0 011.588-.406 4.056 4.056 0 012.718 1.311 3.768 3.768 0 01.976 2.773c0 .257.106.504.295.686.189.182.445.284.712.284.267 0 .524-.102.713-.284a.957.957 0 00.295-.686 5.664 5.664 0 00-1.565-4.146 6.105 6.105 0 00-4.144-1.879zm-53.275 39.825H58.45a1.12 1.12 0 00-1.118 1.111c0 .295.117.578.327.786.21.208.494.326.79.326h5.027c.296 0 .58-.118.79-.326a1.107 1.107 0 000-1.571 1.12 1.12 0 00-.79-.326zm6.698-8.492a1.124 1.124 0 00-1.033.686 1.105 1.105 0 00.243 1.211 1.117 1.117 0 001.218.241 1.113 1.113 0 00.69-1.027 1.106 1.106 0 00-.334-.773 1.12 1.12 0 00-.784-.319v-.019zm-6.698 8.492H58.45a1.12 1.12 0 00-1.118 1.111c0 .295.117.578.327.786.21.208.494.326.79.326h5.027c.296 0 .58-.118.79-.326a1.107 1.107 0 000-1.571 1.12 1.12 0 00-.79-.326z" fill="#2BC44E"/><path d="M70.79 391.325h-1.73v-9.659a1.11 1.11 0 00-.327-.786 1.123 1.123 0 00-1.581 0c-.21.208-.328.491-.328.786v9.659H55.101v-9.659c0-.295-.118-.578-.328-.786a1.122 1.122 0 00-1.58 0c-.21.208-.328.491-.328.786v9.659h-1.729a4.486 4.486 0 00-3.157 1.301 4.434 4.434 0 00-1.31 3.139v7.918a4.43 4.43 0 001.31 3.138 4.482 4.482 0 003.157 1.302h1.729v1.116c0 .295.117.577.327.786.21.208.494.325.79.325h13.975c.297 0 .581-.117.79-.325.21-.209.328-.491.328-.786v-1.111h1.728a4.487 4.487 0 002.987-1.139 4.435 4.435 0 001.457-2.829c0-.149.024-.301.024-.463v-7.932a4.425 4.425 0 00-1.315-3.143 4.472 4.472 0 00-3.166-1.297zm-3.965 16.817H55.101v-6.825h11.724v6.825zm3.965-2.218h-1.73v-4.631h.61c.297 0 .581-.117.791-.325a1.107 1.107 0 000-1.572 1.123 1.123 0 00-.79-.325h-17.44c-.297 0-.582.117-.791.325a1.109 1.109 0 00.79 1.897h.615v4.631h-1.71a2.242 2.242 0 01-1.58-.651 2.216 2.216 0 01-.655-1.572v-7.936a2.216 2.216 0 01.656-1.569c.42-.415.987-.649 1.58-.649H70.79c.592 0 1.16.234 1.579.649.42.416.655.98.656 1.569v7.918a2.21 2.21 0 01-.648 1.583 2.23 2.23 0 01-1.587.658z" fill="#2BC44E"/><path d="M57.435 385.62a1.108 1.108 0 01.79-1.862 1.12 1.12 0 01.78.283l.834.82v-3.195c0-.295.118-.578.328-.786a1.123 1.123 0 011.58 0c.21.208.328.491.328.786v3.269l.932-.926a1.116 1.116 0 011.213-.249 1.104 1.104 0 01.375 1.805l-1.598 1.597a2.794 2.794 0 01-1.98.829 2.802 2.802 0 01-1.974-.806l-1.608-1.565z" fill="#2BC44E"/><path fill-rule="evenodd" clip-rule="evenodd" d="M75.296 365.56H73.52v-15.051c0-.28-.111-.549-.31-.747-.2-.198-.47-.311-.753-.312H49.774a1.074 1.074 0 00-.752.312 1.05 1.05 0 00-.311.747v15.051h-1.796c-.282 0-.553.111-.752.309-.2.197-.311.465-.311.745v2.099c-.002.417.08.83.24 1.215a3.173 3.173 0 001.733 1.72c.388.16.805.241 1.226.241h24.1c.85 0 1.665-.335 2.265-.931a3.16 3.16 0 00.939-2.245v-2.099a1.05 1.05 0 00-.31-.744 1.069 1.069 0 00-.749-.31zm-3.903-13.964v13.964h-6.03a1.082 1.082 0 00-.756.309 1.054 1.054 0 00-.312.745.343.343 0 01-.215.324.347.347 0 01-.134.027h-5.671a.353.353 0 01-.252-.101.35.35 0 01-.103-.25c0-.28-.111-.548-.31-.745-.2-.198-.47-.309-.753-.309h-6.039v-13.964h20.575zm2.835 17.117a1.068 1.068 0 01-.665.986 1.08 1.08 0 01-.412.082h-24.1a1.089 1.089 0 01-.758-.316c-.2-.2-.314-.47-.315-.752v-1.064h8.033a2.476 2.476 0 002.245 1.406h5.67c.47 0 .93-.132 1.326-.381.397-.249.714-.604.915-1.025H74.2l.028 1.064z" fill="#2BC44E"/><path d="M59.505 431.691V435h-1.748v-9.399h3.062c.628 0 1.172.074 1.631.221.46.147.838.353 1.137.617.3.265.52.581.663.949.144.369.215.772.215 1.209 0 .455-.076.874-.228 1.255a2.597 2.597 0 01-.682.975 3.181 3.181 0 01-1.138.637c-.455.152-.988.227-1.599.227h-1.313zm0-1.365h1.313c.321 0 .6-.039.839-.117a1.62 1.62 0 00.592-.344 1.45 1.45 0 00.35-.546 2.12 2.12 0 00.118-.722c0-.251-.04-.478-.117-.682a1.347 1.347 0 00-.352-.52 1.533 1.533 0 00-.591-.325 2.702 2.702 0 00-.838-.117h-1.314v3.373zm12.78 2.457c.095 0 .177.037.246.111l.69.747a3.769 3.769 0 01-1.411 1.086c-.555.251-1.222.377-2.002.377-.698 0-1.326-.119-1.885-.358a4.144 4.144 0 01-1.424-.994 4.4 4.4 0 01-.91-1.521 5.763 5.763 0 01-.311-1.931c0-.706.116-1.352.35-1.937a4.445 4.445 0 01.989-1.521 4.45 4.45 0 011.52-.988 5.23 5.23 0 011.963-.357c.698 0 1.307.113 1.827.338.524.221.973.516 1.345.884l-.585.812a.514.514 0 01-.136.137.363.363 0 01-.221.058.511.511 0 01-.305-.117 3.208 3.208 0 00-1.008-.507c-.243-.078-.552-.117-.93-.117-.442 0-.849.078-1.222.234a2.718 2.718 0 00-.955.657 3.104 3.104 0 00-.624 1.046 4.037 4.037 0 00-.221 1.378c0 .529.074.999.221 1.411.152.412.355.758.611 1.04.256.282.557.498.903.65.347.147.72.221 1.118.221a4.8 4.8 0 00.644-.039 2.627 2.627 0 00.995-.338 2.99 2.99 0 00.435-.332.544.544 0 01.136-.091.32.32 0 01.156-.039zm11.235 0c.095 0 .178.037.247.111l.689.747a3.77 3.77 0 01-1.41 1.086c-.555.251-1.223.377-2.003.377-.697 0-1.326-.119-1.885-.358a4.144 4.144 0 01-1.423-.994 4.398 4.398 0 01-.91-1.521 5.763 5.763 0 01-.312-1.931c0-.706.117-1.352.35-1.937a4.445 4.445 0 01.989-1.521 4.448 4.448 0 011.52-.988 5.23 5.23 0 011.964-.357c.698 0 1.306.113 1.826.338.525.221.973.516 1.346.884l-.585.812a.514.514 0 01-.137.137.363.363 0 01-.22.058.511.511 0 01-.306-.117 3.21 3.21 0 00-1.008-.507c-.242-.078-.552-.117-.93-.117a3.13 3.13 0 00-1.221.234 2.716 2.716 0 00-.956.657 3.1 3.1 0 00-.624 1.046 4.035 4.035 0 00-.22 1.378c0 .529.073.999.22 1.411.152.412.356.758.611 1.04.256.282.557.498.904.65.346.147.72.221 1.118.221.238 0 .453-.013.643-.039a2.628 2.628 0 00.995-.338 2.99 2.99 0 00.435-.332.544.544 0 01.137-.091.32.32 0 01.156-.039zm3.879-7.442V435h-1.606v-9.659H87.4zm3.53 2.99V435h-1.606v-6.669h1.605zm.24-1.944a.912.912 0 01-.085.39 1.036 1.036 0 01-.227.319 1.08 1.08 0 01-.325.221c-.126.052-.26.078-.403.078a1.03 1.03 0 01-.397-.078 1.097 1.097 0 01-.54-.54 1.045 1.045 0 010-.793c.057-.125.13-.234.222-.325a.995.995 0 01.318-.214.98.98 0 01.8 0 .987.987 0 01.325.214 1.028 1.028 0 01.312.728zm4.335 1.84c.42 0 .806.067 1.157.201.355.135.661.332.917.592.255.256.455.572.598.949a3.556 3.556 0 01.195 1.586.433.433 0 01-.059.188.241.241 0 01-.11.098.548.548 0 01-.182.026h-4.121c.047.685.231 1.187.552 1.508.32.321.746.481 1.274.481.26 0 .483-.03.67-.091.19-.061.355-.128.494-.202.143-.073.266-.14.37-.201a.636.636 0 01.312-.091c.065 0 .121.013.17.039a.378.378 0 01.123.11l.468.585a2.748 2.748 0 01-.598.527 3.554 3.554 0 01-1.43.514 5.294 5.294 0 01-.722.052c-.463 0-.895-.076-1.293-.228a2.967 2.967 0 01-1.04-.682 3.254 3.254 0 01-.696-1.119c-.169-.446-.253-.962-.253-1.547 0-.455.073-.881.22-1.28a3.09 3.09 0 01.631-1.047 3 3 0 011.008-.708c.398-.173.847-.26 1.345-.26zm.033 1.15c-.468 0-.835.133-1.099.397s-.433.639-.507 1.124h3.016a1.98 1.98 0 00-.084-.585 1.356 1.356 0 00-.26-.487 1.195 1.195 0 00-.442-.325 1.476 1.476 0 00-.624-.124zM99.692 435v-6.669h.982c.208 0 .344.097.409.292l.111.527a3.215 3.215 0 01.897-.67c.169-.082.349-.145.539-.188a2.84 2.84 0 01.624-.065c.364 0 .687.063.969.188.282.122.516.295.702.52.191.221.334.488.429.8.1.308.149.648.149 1.02V435h-1.605v-4.245c0-.407-.095-.721-.286-.942-.186-.225-.468-.338-.845-.338-.277 0-.537.063-.78.188a2.798 2.798 0 00-.689.514V435h-1.606zm9.58.104c-.577 0-1.021-.163-1.333-.488-.312-.329-.468-.782-.468-1.358v-3.725h-.676a.336.336 0 01-.227-.084c-.061-.056-.091-.141-.091-.254v-.637l1.072-.175.338-1.82a.326.326 0 01.117-.202.4.4 0 01.241-.071h.832v2.099h1.755v1.144h-1.755v3.614c0 .208.052.371.156.488a.528.528 0 00.416.175c.099 0 .182-.01.247-.032a3.172 3.172 0 00.312-.15.21.21 0 01.117-.039c.047 0 .086.013.117.039a.5.5 0 01.097.104l.481.78a2.422 2.422 0 01-.806.442c-.303.1-.617.15-.942.15z" fill="#2C4251"/><g filter="url(#filter1_d)"><rect width="154" height="118" rx="10" transform="matrix(-1 0 0 1 594 4)" fill="#fff"/></g><g filter="url(#filter2_d)"><rect width="154.35" height="117.6" rx="10" transform="matrix(-1 0 0 1 587.652 327.4)" fill="#fff"/></g><path d="M547.883 381.456h-12.831a.907.907 0 00-.916.897v2.691h-6.696a2.75 2.75 0 00-2.591-1.794c-1.516 0-2.75 1.207-2.75 2.691 0 1.17.766 2.167 1.833 2.537v7.33h-5.499a.907.907 0 00-.916.897v8.971c0 .495.41.897.916.897h3.409l-.632 2.473c-.145.567.294 1.115.889 1.115h5.499c.596 0 1.034-.55.889-1.115l-.632-2.473h3.409a.907.907 0 00.916-.897v-2.691h6.696a2.75 2.75 0 002.591 1.794c1.516 0 2.75-1.208 2.75-2.691 0-1.17-.766-2.167-1.833-2.537v-3.743h1.833c.596 0 1.033-.549.889-1.114l-.632-2.474h3.409a.906.906 0 00.916-.897v-8.97a.907.907 0 00-.916-.897zm-23.034 3.588c.505 0 .916.403.916.897a.907.907 0 01-.916.897.908.908 0 01-.917-.897c0-.494.411-.897.917-.897zm-1.576 23.323l.458-1.794h2.235l.458 1.794h-3.151zm7.074-3.588H519.35v-7.177h10.997v7.177zm8.529-3.588h-6.696v-4.486a.907.907 0 00-.916-.897h-5.499v-7.33a2.73 2.73 0 001.675-1.64h6.696v4.485c0 .496.41.897.916.897h3.409l-.632 2.474c-.145.566.294 1.114.889 1.114h1.833v3.743a2.73 2.73 0 00-1.675 1.64zm2.591 1.794a.908.908 0 01-.916-.897c0-.495.411-.897.916-.897.506 0 .917.402.917.897a.908.908 0 01-.917.897zm-1.575-8.971l.458-1.794h2.235l.458 1.794h-3.151zm7.074-3.588h-10.997v-7.176h10.997v7.176zm-52.531-37.632h-10.196a.859.859 0 00-.602.245.833.833 0 00-.249.592c0 .222.09.435.249.592a.86.86 0 00.602.246h10.196a.86.86 0 00.602-.246.833.833 0 00.249-.592.833.833 0 00-.249-.592.859.859 0 00-.602-.245zm6.854 18.399H490.05a2.52 2.52 0 00-.602-.935 2.574 2.574 0 00-.95-.592v-1.817h9.35a.862.862 0 00.6-.245.836.836 0 00.246-.592v-6.693a.822.822 0 00-.246-.591.846.846 0 00-.6-.246h-9.35v-1.669h9.35a.858.858 0 00.598-.247.83.83 0 00.248-.591v-6.688a.829.829 0 00-.248-.59.854.854 0 00-.598-.247h-20.42a.858.858 0 00-.599.247.832.832 0 00-.247.59v6.688c0 .222.089.434.247.591a.862.862 0 00.599.247h9.35v1.669h-9.35a.86.86 0 00-.6.246.827.827 0 00-.246.591v6.684a.82.82 0 00.521.773.86.86 0 00.325.064h9.35v1.817a2.578 2.578 0 00-.951.592 2.517 2.517 0 00-.601.935h-11.239a.86.86 0 00-.56.265.828.828 0 000 1.14.86.86 0 00.56.265h11.248c.175.489.5.913.931 1.213a2.581 2.581 0 002.944 0c.43-.3.755-.724.931-1.213h11.229a.86.86 0 00.56-.265.833.833 0 00.228-.57.833.833 0 00-.228-.57.86.86 0 00-.56-.265l.019.009zm-22.996-15.055v-5.013h18.699v5.013h-18.699zm0 10.032v-5.018h18.699v5.018h-18.699zm9.349 6.684a.855.855 0 01-.786-.518.828.828 0 01.187-.913.853.853 0 01.928-.178.846.846 0 01.381.31.826.826 0 01-.111 1.057.867.867 0 01-.603.242h.004zm-6.802-20.06a.86.86 0 00-.786.517.827.827 0 00.185.912.86.86 0 001.309-.127.828.828 0 00-.106-1.057.857.857 0 00-.602-.245zm13.595 10.032h-10.196a.871.871 0 00-.642.222.83.83 0 00.298 1.403c.11.038.227.054.344.045h10.196a.86.86 0 00.561-.265.83.83 0 000-1.139.862.862 0 00-.561-.266zm-13.595 0a.86.86 0 00-.786.517.827.827 0 00.185.912.853.853 0 00.927.182.833.833 0 00.001-1.548.873.873 0 00-.327-.063zm52.252-3.572c.954 0 1.887-.285 2.68-.821a4.865 4.865 0 001.777-2.187c.365-.89.46-1.87.274-2.815a4.887 4.887 0 00-1.32-2.495 4.81 4.81 0 00-2.471-1.334 4.778 4.778 0 00-2.787.278 4.838 4.838 0 00-2.164 1.795 4.906 4.906 0 00.602 6.151 4.803 4.803 0 003.409 1.428zm0-7.772c.568 0 1.123.17 1.595.489.472.319.84.772 1.058 1.302a2.926 2.926 0 01-.623 3.16 2.858 2.858 0 01-1.47.794 2.84 2.84 0 01-1.659-.165 2.873 2.873 0 01-1.288-1.068 2.918 2.918 0 01.358-3.661 2.86 2.86 0 012.029-.851zm-9.112 10.636c.733 0 1.451-.22 2.061-.632a3.741 3.741 0 001.366-1.682 3.78 3.78 0 00-.804-4.084 3.696 3.696 0 00-1.899-1.025 3.67 3.67 0 00-2.144.213 3.723 3.723 0 00-1.665 1.38 3.782 3.782 0 00-.625 2.082c0 .994.391 1.947 1.087 2.65a3.689 3.689 0 002.623 1.098zm0-5.523c.347 0 .687.104.976.299a1.79 1.79 0 01.266 2.732 1.747 1.747 0 01-2.703-.269 1.792 1.792 0 01.218-2.242 1.75 1.75 0 011.243-.52zm18.223 5.523c.734 0 1.451-.22 2.061-.632a3.743 3.743 0 001.367-1.682 3.79 3.79 0 00.211-2.165 3.758 3.758 0 00-1.016-1.919 3.688 3.688 0 00-4.042-.812 3.718 3.718 0 00-1.665 1.38 3.774 3.774 0 00-.625 2.082c0 .994.39 1.947 1.086 2.65a3.69 3.69 0 002.623 1.098zm0-5.523c.348 0 .688.104.977.299a1.79 1.79 0 01.266 2.732 1.75 1.75 0 01-2.704-.269 1.792 1.792 0 01.219-2.242c.329-.333.776-.52 1.242-.52zm.13 7.501a5.101 5.101 0 00-2.446.644 8.077 8.077 0 00-2.859-2.743 7.984 7.984 0 00-3.806-1.041 7.978 7.978 0 00-3.806 1.041 8.069 8.069 0 00-2.859 2.743 5.107 5.107 0 00-2.446-.644 5.798 5.798 0 00-4.016 1.909 5.918 5.918 0 00-1.517 4.214c0 .262.103.513.286.698a.972.972 0 001.381 0 .993.993 0 00.286-.698 3.942 3.942 0 01.946-2.818 3.857 3.857 0 012.634-1.332 3.164 3.164 0 011.539.413 10.024 10.024 0 00-.694 3.68c0 .262.103.513.286.698a.97.97 0 001.381 0 .993.993 0 00.286-.698c0-3.989 2.831-7.234 6.313-7.234 3.482 0 6.313 3.245 6.313 7.234 0 .262.103.513.286.698a.971.971 0 001.381 0 .993.993 0 00.286-.698 10.045 10.045 0 00-.694-3.68c.47-.267 1-.409 1.539-.413a3.86 3.86 0 012.634 1.332c.67.777 1.01 1.79.946 2.818 0 .262.103.513.286.698a.97.97 0 001.381 0 .993.993 0 00.286-.698 5.918 5.918 0 00-1.517-4.214 5.798 5.798 0 00-4.016-1.909zm-52.844 39.841h-4.872c-.287 0-.563.112-.766.313a1.057 1.057 0 000 1.511c.203.201.479.313.766.313h4.872c.287 0 .563-.112.766-.313a1.06 1.06 0 000-1.511 1.089 1.089 0 00-.766-.313zm6.492-8.168a1.09 1.09 0 00-1.001.659 1.062 1.062 0 00.235 1.165 1.09 1.09 0 001.667-.162 1.06 1.06 0 00.183-.594 1.063 1.063 0 00-.324-.744 1.091 1.091 0 00-.76-.307v-.017zm-6.492 8.168h-4.872c-.287 0-.563.112-.766.313a1.057 1.057 0 000 1.511c.203.201.479.313.766.313h4.872c.287 0 .563-.112.766-.313a1.06 1.06 0 000-1.511 1.089 1.089 0 00-.766-.313z" fill="#D90F16"/><path d="M496.578 392.05h-1.675v-9.291c0-.283-.114-.555-.318-.755a1.087 1.087 0 00-.766-.313c-.287 0-.563.112-.766.313a1.06 1.06 0 00-.317.755v9.291h-11.365v-9.291a1.06 1.06 0 00-.317-.755 1.089 1.089 0 00-.766-.313c-.288 0-.563.112-.766.313-.204.2-.318.472-.318.755v9.291h-1.675a4.36 4.36 0 00-3.06 1.252 4.247 4.247 0 00-1.27 3.019v7.616a4.247 4.247 0 001.27 3.019 4.365 4.365 0 003.06 1.252h1.675v1.073c0 .284.114.556.318.756.203.201.478.313.766.313h13.545c.287 0 .563-.112.766-.313.203-.2.317-.472.317-.756v-1.069h1.675c1.069 0 2.1-.39 2.895-1.094a4.26 4.26 0 001.413-2.722c0-.143.022-.29.022-.446v-7.629c0-.562-.113-1.118-.332-1.637a4.286 4.286 0 00-2.351-2.312 4.388 4.388 0 00-1.66-.322zm-3.842 16.176h-11.365v-6.565h11.365v6.565zm3.842-2.134h-1.675v-4.453h.591c.288 0 .563-.113.766-.313a1.061 1.061 0 000-1.512 1.091 1.091 0 00-.766-.313H478.59c-.287 0-.563.113-.766.313a1.06 1.06 0 000 1.512c.203.2.479.313.766.313h.596v4.453h-1.657a2.18 2.18 0 01-1.532-.626 2.12 2.12 0 01-.635-1.511v-7.634c.001-.566.23-1.109.636-1.509.407-.4.957-.624 1.531-.624h19.049c.574 0 1.124.224 1.531.624.406.4.635.943.636 1.509v7.616a2.113 2.113 0 01-.628 1.523 2.193 2.193 0 01-1.539.632z" fill="#D90F16"/><path d="M483.634 386.563a1.062 1.062 0 01.028-1.474 1.091 1.091 0 011.494-.045l.808.789v-3.074c0-.283.114-.555.317-.755a1.09 1.09 0 011.533 0c.203.2.317.472.317.755v3.145l.903-.891a1.087 1.087 0 011.765.333 1.039 1.039 0 01.006.816c-.053.13-.132.248-.231.347l-1.549 1.537a2.714 2.714 0 01-1.919.797 2.726 2.726 0 01-1.914-.775l-1.558-1.505z" fill="#D90F16"/><path d="M75 321l2.887-5h-5.774L75 321zm86-83l-5-2.887v5.774l5-2.887zm-85.5 78.583v-2.944h-1v2.944h1zm0-5.889v-2.944h-1v2.944h1zm0-5.888v-2.945h-1v2.945h1zm0-5.889v-2.945h-1v2.945h1zm0-5.889v-2.945h-1v2.945h1zm0-5.889v-2.945h-1v2.945h1zm0-5.889v-2.944h-1v2.944h1zm0-5.889v-2.944h-1v2.944h1zm0-5.889V268h-1v1.472h1zm0-1.472c0-.486.012-.969.035-1.449l-.999-.048A30.97 30.97 0 0074.5 268h1zm.316-4.331c.141-.962.33-1.91.561-2.84l-.97-.242c-.24.962-.434 1.941-.58 2.937l.989.145zm1.4-5.61a29.19 29.19 0 011.11-2.674l-.904-.429a30.38 30.38 0 00-1.147 2.766l.942.337zm2.477-5.227a29.64 29.64 0 011.61-2.406l-.802-.596c-.595.8-1.15 1.63-1.666 2.487l.858.515zm3.449-4.643a29.573 29.573 0 012.047-2.047l-.672-.741c-.74.67-1.446 1.377-2.116 2.116l.74.672zm4.284-3.886a29.71 29.71 0 012.406-1.61l-.514-.858a30.342 30.342 0 00-2.488 1.666l.596.802zm4.959-2.977a29.297 29.297 0 012.674-1.109l-.337-.942a30.26 30.26 0 00-2.766 1.147l.428.904zm5.444-1.948a28.98 28.98 0 012.84-.562l-.145-.99a30.57 30.57 0 00-2.937.581l.242.971zm5.723-.843c.479-.023.962-.035 1.448-.035v-1c-.502 0-1.001.012-1.497.036l.049.999zM105 238.5h1.556v-1H105v1zm4.667 0h3.111v-1h-3.111v1zm6.222 0H119v-1h-3.111v1zm6.222 0h3.111v-1h-3.111v1zm6.222 0h3.111v-1h-3.111v1zm6.223 0h3.111v-1h-3.111v1zm6.222 0h3.111v-1h-3.111v1zm6.222 0h3.111v-1H147v1zm6.222 0h3.111v-1h-3.111v1z" fill="#7197E1"/><path d="M511 320v-51c0-16.569-13.431-30-30-30h-48" stroke="#7197E1" stroke-opacity=".2" stroke-dasharray="3 3"/><path d="M297 320l-2.887-5h5.774L297 320zm0-48l2.887 5h-5.774l2.887-5zm.5 4.5v3h-1v-3h1zm0 6v3h-1v-3h1zm0 6v3h-1v-3h1zm0 6v3h-1v-3h1zm0 6v3h-1v-3h1zm0 6v3h-1v-3h1zm0 6v3h-1v-3h1z" fill="#7197E1"/><path d="M529.181 56.12a5.792 5.792 0 00-3.455-1.152h-3.77a4.12 4.12 0 01-1.839-.435l-1.967-.983a2.173 2.173 0 00-.964-.227c-.176 0-.345.027-.509.067V42.629a4.117 4.117 0 00-4.112-4.113h-7.404v-3.441a2.464 2.464 0 001.494-1.494H517.5v-1.646h-10.845a2.463 2.463 0 00-2.316-1.645 2.47 2.47 0 00-2.468 2.468c0 1.071.69 1.976 1.645 2.316v3.442h-7.403A4.118 4.118 0 00492 42.63v31.258A4.118 4.118 0 00496.113 78h16.452c2.044 0 3.732-1.504 4.047-3.462.276.107.574.172.888.172h8.226a5.793 5.793 0 003.455-1.152l1.679-1.26 8.85 1.77V55.61l-8.849 1.77-1.68-1.26zm-24.842-24.184a.823.823 0 11-.002 1.646.823.823 0 01.002-1.646zm3.29 32.903h2.468v1.645h-13.162v-8.226h13.162v1.645h-2.468a2.47 2.47 0 00-2.468 2.468 2.47 2.47 0 002.468 2.468zm-12.339-8.226v11.516h16.452v-3.29h1.796a2.443 2.443 0 00-.151.822 2.46 2.46 0 001.153 2.08 2.44 2.44 0 00-.33 1.21c0 .29.059.565.151.823h-20.716V46.742h21.387v8.734c0 1.746.746 3.318 1.93 4.427h-5.22v-3.29H495.29zm4.936-16.452h8.226v.823c0 .454-.37.822-.823.822h-6.581a.823.823 0 01-.822-.822v-.823zm-4.113 0h2.468v.823a2.47 2.47 0 002.467 2.468h6.581a2.47 2.47 0 002.468-2.468v-.823h2.468a2.47 2.47 0 012.467 2.468v2.468h-21.387v-2.468a2.47 2.47 0 012.468-2.468zm18.919 33.726a2.47 2.47 0 01-2.467 2.468h-16.452a2.47 2.47 0 01-2.468-2.468V71.42h21.539a2.419 2.419 0 00-.152.823v1.645zm13.162-1.645a4.138 4.138 0 01-2.468.822H517.5a.824.824 0 01-.823-.822c0-.454.37-.823.823-.823h1.645v-1.645h-2.468a.823.823 0 010-1.645h2.468v-1.645h-3.29a.824.824 0 01-.823-.823c0-.454.37-.822.823-.822h3.29v-1.645h-11.516a.824.824 0 01-.823-.823c0-.454.37-.823.823-.823h16.452v-1.645h-2.976a4.432 4.432 0 01-4.428-4.427c0-.358.414-.617.737-.455l1.966.983a5.783 5.783 0 002.576.609h3.77c.884 0 1.761.292 2.468.822l1.645 1.234v12.34l-1.645 1.233zm3.29-13.31l6.581-1.316V72.06l-6.581-1.316V58.932zm-19.742 14.132h1.645v1.646h-1.645v-1.645zm-16.452 0h1.645v1.646h-1.645v-1.645zm6.581 0h4.935v1.646h-4.935v-1.645zm-6.581-18.096h8.226v-6.58h-8.226v6.58zm1.645-4.936h4.936v3.29h-4.936v-3.29zm16.452-1.645h-8.226v6.58h8.226v-6.58zm-1.645 4.936h-4.936v-3.29h4.936v3.29zM530.661 27c-6.803 0-12.338 5.535-12.338 12.339 0 6.803 5.535 12.338 12.338 12.338 6.804 0 12.339-5.535 12.339-12.338C543 32.535 537.465 27 530.661 27zm0 23.032c-1.151 0-2.378-1.548-3.19-4.113h6.38c-.812 2.565-2.038 4.113-3.19 4.113zm-3.62-5.758a23.332 23.332 0 01-.475-4.113h8.19a23.332 23.332 0 01-.475 4.113h-7.24zm-7.031-4.113h4.911a25.68 25.68 0 00.429 4.113h-4.166a10.597 10.597 0 01-1.174-4.113zm10.651-11.516c1.152 0 2.378 1.548 3.19 4.113h-6.38c.812-2.565 2.039-4.113 3.19-4.113zm3.62 5.758c.26 1.225.43 2.607.476 4.113h-8.191c.047-1.506.216-2.888.476-4.113h7.239zm-9.36 4.113h-4.911a10.598 10.598 0 011.174-4.113h4.166a25.682 25.682 0 00-.429 4.113zm11.48 1.645h4.912a10.598 10.598 0 01-1.175 4.113h-4.165a25.8 25.8 0 00.428-4.113zm0-1.645a25.801 25.801 0 00-.428-4.113h4.165a10.599 10.599 0 011.175 4.113h-4.912zm2.672-5.758h-3.494c-.401-1.416-.931-2.626-1.562-3.566a10.728 10.728 0 015.056 3.566zm-11.766-3.566c-.633.94-1.162 2.15-1.562 3.566h-3.495a10.721 10.721 0 015.057-3.566zM522.25 45.92h3.494c.4 1.416.93 2.627 1.562 3.566a10.723 10.723 0 01-5.056-3.566zm11.766 3.566c.632-.94 1.16-2.15 1.562-3.566h3.494a10.718 10.718 0 01-5.056 3.566z" fill="url(#paint2_linear)"/><g filter="url(#filter3_d)"><rect width="154.35" height="117.6" rx="10" transform="matrix(-1 0 0 1 374.5 327.4)" fill="#fff"/></g><path d="M333.707 382.74h-12.48c-.492 0-.891.384-.891.857v2.571h-6.512c-.368-.997-1.359-1.714-2.521-1.714-1.475 0-2.674 1.154-2.674 2.572 0 1.117.745 2.07 1.782 2.424v7.004h-5.348c-.492 0-.891.384-.891.857v8.572c0 .473.399.857.891.857h3.315l-.614 2.363c-.141.542.286 1.065.865 1.065h5.348c.58 0 1.005-.525.865-1.065l-.615-2.363h3.316c.492 0 .891-.384.891-.857v-2.572h6.512c.368.998 1.359 1.715 2.521 1.715 1.475 0 2.674-1.154 2.674-2.572 0-1.117-.745-2.07-1.782-2.424v-3.576h1.782c.581 0 1.006-.525.865-1.065l-.614-2.363h3.315c.492 0 .891-.384.891-.858v-8.571c0-.473-.399-.857-.891-.857zm-22.404 3.428c.491 0 .891.385.891.858 0 .472-.4.857-.891.857-.492 0-.892-.385-.892-.857 0-.473.4-.858.892-.858zm-1.533 22.286l.446-1.714h2.174l.445 1.714h-3.065zm6.881-3.428h-10.697v-6.858h10.697v6.858zm8.295-3.429h-6.512v-4.286c0-.473-.399-.857-.891-.857h-5.349v-7.004a2.639 2.639 0 001.63-1.567h6.512v4.285c0 .474.399.858.891.858h3.316l-.615 2.363c-.141.541.286 1.065.865 1.065h1.783v3.576a2.639 2.639 0 00-1.63 1.567zm2.521 1.714c-.491 0-.891-.384-.891-.857 0-.472.4-.857.891-.857.492 0 .892.385.892.857 0 .473-.4.857-.892.857zm-1.532-8.571l.445-1.714h2.174l.446 1.714h-3.065zm6.881-3.429h-10.697v-6.857h10.697v6.857zm-14.421-31.094a4.78 4.78 0 002.602-.768c.77-.5 1.37-1.211 1.725-2.043a4.438 4.438 0 00.266-2.631 4.519 4.519 0 00-1.282-2.331 4.733 4.733 0 00-2.398-1.246 4.807 4.807 0 00-2.705.26 4.66 4.66 0 00-2.102 1.677 4.469 4.469 0 00-.789 2.53 4.495 4.495 0 001.374 3.217 4.761 4.761 0 003.309 1.335zm0-7.262c.552 0 1.09.159 1.549.457.458.297.815.721 1.026 1.216.211.495.267 1.04.159 1.565a2.683 2.683 0 01-.763 1.388c-.39.379-.886.637-1.427.742a2.865 2.865 0 01-1.61-.155 2.764 2.764 0 01-1.251-.998 2.648 2.648 0 01.347-3.42 2.833 2.833 0 011.97-.795zm-8.846 9.937c.712 0 1.409-.205 2.001-.59a3.523 3.523 0 001.326-1.572 3.406 3.406 0 00.205-2.023 3.472 3.472 0 00-.985-1.792 3.644 3.644 0 00-1.844-.959 3.699 3.699 0 00-2.081.2 3.575 3.575 0 00-1.616 1.289 3.432 3.432 0 00-.607 1.946c0 .928.379 1.819 1.054 2.475a3.655 3.655 0 002.547 1.026zm0-5.16c.337 0 .667.097.948.28.28.182.499.441.628.744s.163.636.097.958a1.642 1.642 0 01-.467.849c-.238.232-.542.39-.873.454a1.757 1.757 0 01-.986-.094 1.698 1.698 0 01-.765-.611 1.622 1.622 0 01.212-2.094c.32-.311.754-.486 1.206-.486zm17.692 5.16a3.67 3.67 0 002-.59 3.526 3.526 0 001.327-1.572 3.414 3.414 0 00.205-2.023 3.467 3.467 0 00-.986-1.792 3.636 3.636 0 00-1.844-.959 3.7 3.7 0 00-2.081.2 3.58 3.58 0 00-1.616 1.289 3.432 3.432 0 00-.607 1.946c0 .928.38 1.819 1.055 2.475a3.652 3.652 0 002.547 1.026zm0-5.16c.337 0 .667.097.947.28.281.182.5.441.629.744s.163.636.097.958a1.649 1.649 0 01-.467.849c-.239.232-.543.39-.874.454-.33.064-.674.031-.985-.094a1.7 1.7 0 01-.766-.611 1.628 1.628 0 01.212-2.094c.32-.311.754-.486 1.207-.486zm.126 7.008a5.105 5.105 0 00-2.375.602 7.715 7.715 0 00-2.776-2.563 7.98 7.98 0 00-3.695-.973 7.986 7.986 0 00-3.695.973 7.72 7.72 0 00-2.775 2.563 5.108 5.108 0 00-2.375-.602 5.721 5.721 0 00-3.899 1.784 5.407 5.407 0 00-1.472 3.937c0 .245.1.479.278.652a.96.96 0 00.67.27.962.962 0 00.67-.27.908.908 0 00.278-.652 3.598 3.598 0 01.918-2.633 3.803 3.803 0 012.557-1.245 3.177 3.177 0 011.495.386 9.055 9.055 0 00-.674 3.439c0 .244.1.479.277.651.178.173.419.27.671.27a.962.962 0 00.67-.27.91.91 0 00.277-.651c0-3.727 2.749-6.759 6.129-6.759 3.381 0 6.129 3.032 6.129 6.759 0 .244.1.479.278.651.178.173.419.27.67.27a.958.958 0 00.67-.27.906.906 0 00.278-.651 9.074 9.074 0 00-.674-3.439 3.177 3.177 0 011.495-.386 3.805 3.805 0 012.557 1.245c.65.726.98 1.672.918 2.633 0 .245.1.479.278.652.177.173.418.27.67.27a.962.962 0 00.67-.27.908.908 0 00.278-.652 5.404 5.404 0 00-1.473-3.937 5.717 5.717 0 00-3.898-1.784zm-48.873 39.345h-4.679a1.042 1.042 0 00-1.041 1.044 1.046 1.046 0 001.041 1.044h4.679a1.042 1.042 0 001.041-1.044 1.044 1.044 0 00-1.041-1.044zm6.237-7.981a1.043 1.043 0 00-.736 1.783 1.04 1.04 0 001.777-.738 1.04 1.04 0 00-1.041-1.027v-.018zm-6.237 7.981h-4.679a1.042 1.042 0 00-1.041 1.044 1.046 1.046 0 001.041 1.044h4.679a1.042 1.042 0 001.041-1.044 1.044 1.044 0 00-1.041-1.044z" fill="#FFB911"/><path d="M285.304 392.471h-1.609v-9.076a1.044 1.044 0 00-1.041-1.045 1.04 1.04 0 00-1.041 1.045v9.076h-10.916v-9.076a1.044 1.044 0 00-1.041-1.045 1.04 1.04 0 00-1.041 1.045v9.076h-1.609a4.162 4.162 0 00-2.939 1.224 4.182 4.182 0 00-1.22 2.949v7.441a4.182 4.182 0 001.22 2.949 4.162 4.162 0 002.939 1.224h1.609v1.048a1.04 1.04 0 001.041 1.045h13.011a1.044 1.044 0 001.041-1.045v-1.044h1.609a4.151 4.151 0 002.781-1.07 4.183 4.183 0 001.357-2.659c0-.139.021-.283.021-.435v-7.454a4.178 4.178 0 00-2.577-3.858 4.158 4.158 0 00-1.595-.315zm-3.691 15.804h-10.916v-6.414h10.916v6.414zm3.691-2.084h-1.609v-4.351h.568a1.044 1.044 0 000-2.089h-16.237a1.042 1.042 0 00-1.041 1.044 1.044 1.044 0 001.041 1.045h.572v4.351h-1.592c-.552 0-1.081-.22-1.472-.612a2.094 2.094 0 01-.609-1.477v-7.458a2.093 2.093 0 01.611-1.474c.39-.391.919-.61 1.47-.61h18.298c.552 0 1.08.219 1.471.61.39.391.61.921.611 1.474v7.441a2.089 2.089 0 01-2.082 2.106z" fill="#FFB911"/><path d="M272.871 387.111a1.047 1.047 0 01.027-1.44 1.034 1.034 0 011.435-.044l.776.77v-3.002c0-.277.11-.543.305-.739a1.038 1.038 0 011.472 0c.195.196.305.462.305.739v3.072l.867-.871a1.049 1.049 0 01.732-.31c.136-.001.271.025.398.076a1.05 1.05 0 01.648.958 1.03 1.03 0 01-.077.399 1.022 1.022 0 01-.222.339l-1.488 1.502a2.596 2.596 0 01-1.843.778 2.594 2.594 0 01-1.839-.757l-1.496-1.47zm6.372-24.995h-.951a2.44 2.44 0 00-2.295-1.64 2.44 2.44 0 00-2.295 1.64h-.951a.816.816 0 00-.811.821c0 .453.363.82.811.82h.951a2.44 2.44 0 002.295 1.641 2.44 2.44 0 002.295-1.641h.951a.815.815 0 00.811-.82.816.816 0 00-.811-.821zm-3.246 1.641a.817.817 0 01-.812-.82c0-.453.364-.821.812-.821.447 0 .811.368.811.821 0 .452-.364.82-.811.82zm13.037 8.312h-10.742a2.46 2.46 0 00-1.484-1.499v-1.891h5.68a.816.816 0 00.812-.82v-9.844a.817.817 0 00-.812-.821h-.811v-4.101c0-3.166-2.548-5.742-5.68-5.742-3.132 0-5.68 2.576-5.68 5.742v4.101h-.812a.816.816 0 00-.811.821v9.844c0 .453.363.82.811.82h5.68v1.891a2.46 2.46 0 00-1.483 1.499H262.96a.817.817 0 00-.812.821c0 .453.364.82.812.82h10.742a2.44 2.44 0 002.295 1.641 2.44 2.44 0 002.295-1.641h10.742a.815.815 0 00.811-.82.816.816 0 00-.811-.821zm-17.094-18.976c0-2.262 1.82-4.102 4.057-4.102s4.057 1.84 4.057 4.102v4.101h-1.623v-4.101c0-1.357-1.092-2.461-2.434-2.461s-2.434 1.104-2.434 2.461v4.101h-1.623v-4.101zm4.868 0v4.101h-1.623v-4.101c0-.453.364-.821.812-.821.447 0 .811.368.811.821zm-6.491 13.945v-8.203h11.36v8.203h-11.36zm5.68 6.672a.817.817 0 01-.812-.82c0-.453.364-.821.812-.821.447 0 .811.368.811.821 0 .452-.364.82-.811.82z" fill="#FFB911"/><g clip-path="url(#clip0)"><path d="M506.865 158.235a12.093 12.093 0 00-16.73 0 .443.443 0 00-.009.628l.909.929a.422.422 0 00.595.011 9.976 9.976 0 0113.74 0c.169.16.432.156.595-.011l.909-.929a.443.443 0 00-.009-.628zm-8.365 5.39c-.939 0-1.7.783-1.7 1.75s.761 1.75 1.7 1.75 1.7-.783 1.7-1.75-.761-1.75-1.7-1.75zm5.383-2.286a7.98 7.98 0 00-10.766 0 .44.44 0 00-.016.633l.915.93c.16.162.416.173.586.022a5.853 5.853 0 017.796 0c.169.151.426.14.585-.022l.915-.93a.44.44 0 00-.015-.633z" fill="#7197E1"/></g><path d="M97.5 252c-2.24 0-4.063 1.907-4.063 4.25v1.7h-.812c-.896 0-1.625.762-1.625 1.7v7.65c0 .938.729 1.7 1.625 1.7h9.75c.896 0 1.625-.762 1.625-1.7v-7.65c0-.938-.729-1.7-1.625-1.7h-.813v-1.7c0-2.343-1.822-4.25-4.062-4.25zm-2.438 4.25c0-1.406 1.094-2.55 2.438-2.55s2.438 1.144 2.438 2.55v1.7h-4.876v-1.7zm7.315 11.05h-4.064v-1.936a1.71 1.71 0 00.812-1.464c0-.938-.729-1.7-1.625-1.7s-1.625.762-1.625 1.7c0 .626.33 1.169.813 1.464v1.936h-4.063v-7.65h9.75l.002 7.65z" fill="#7197E1"/><path d="M277.284 433.713c.394 0 .737-.035 1.027-.104.295-.074.574-.173.839-.299v-1.71h-1.177a.372.372 0 01-.266-.091.32.32 0 01-.098-.234v-.988h3.127v3.803a4.759 4.759 0 01-1.573.767 6.04 6.04 0 01-.936.182 8.468 8.468 0 01-1.079.065 4.89 4.89 0 01-1.892-.358 4.483 4.483 0 01-1.495-.994 4.576 4.576 0 01-.988-1.521 5.185 5.185 0 01-.351-1.931 5.3 5.3 0 01.345-1.943 4.396 4.396 0 01.975-1.521 4.39 4.39 0 011.54-.988c.602-.234 1.278-.351 2.028-.351.767 0 1.43.115 1.989.344.563.226 1.04.52 1.43.884l-.507.793c-.1.161-.232.241-.396.241a.593.593 0 01-.319-.104 20.462 20.462 0 00-.429-.247 2.769 2.769 0 00-.481-.215c-.173-.06-.37-.11-.591-.149a4.298 4.298 0 00-.754-.059c-.464 0-.884.078-1.261.234-.373.156-.692.38-.956.67a3.02 3.02 0 00-.611 1.046 4.107 4.107 0 00-.214 1.365c0 .542.075 1.025.227 1.45.152.42.364.776.637 1.066.273.29.598.513.975.669.377.152.789.228 1.235.228zM287.498 435h-.722a.81.81 0 01-.357-.065c-.087-.048-.152-.141-.195-.28l-.143-.474a5.564 5.564 0 01-.501.403 3.01 3.01 0 01-.5.286 2.587 2.587 0 01-.553.176 3.328 3.328 0 01-.65.058c-.282 0-.542-.037-.78-.111a1.745 1.745 0 01-.617-.344 1.564 1.564 0 01-.397-.566 2.008 2.008 0 01-.143-.786c0-.251.065-.498.195-.741.134-.247.355-.468.663-.663.308-.199.717-.364 1.229-.494.511-.13 1.146-.204 1.904-.221v-.39c0-.446-.095-.776-.286-.988-.186-.217-.459-.325-.819-.325-.26 0-.477.03-.65.091-.173.061-.325.13-.455.208a16.99 16.99 0 01-.351.201.713.713 0 01-.357.091.467.467 0 01-.28-.084.656.656 0 01-.188-.208l-.293-.514c.767-.702 1.692-1.053 2.776-1.053.39 0 .736.065 1.04.195a2.18 2.18 0 011.261 1.346c.112.316.169.663.169 1.04V435zm-3.12-1.001c.164 0 .316-.015.455-.046.138-.03.268-.075.39-.136.125-.061.244-.134.357-.221a3.27 3.27 0 00.351-.319v-1.124c-.468.022-.86.063-1.176.123-.312.057-.564.13-.754.221-.191.091-.328.198-.41.319a.717.717 0 00-.117.396c0 .282.082.484.247.605.169.121.388.182.657.182zm6.889 1.105c-.577 0-1.021-.163-1.333-.488-.312-.329-.468-.782-.468-1.358v-3.725h-.676a.338.338 0 01-.227-.084c-.061-.056-.091-.141-.091-.254v-.637l1.072-.175.338-1.82a.335.335 0 01.117-.202.4.4 0 01.241-.071h.832v2.099h1.755v1.144h-1.755v3.614c0 .208.052.371.156.488a.528.528 0 00.416.175c.099 0 .182-.01.247-.032a3.172 3.172 0 00.312-.15.21.21 0 01.117-.039c.047 0 .086.013.117.039.03.022.063.057.097.104l.481.78a2.412 2.412 0 01-.806.442c-.303.1-.617.15-.942.15zm5.593-6.877c.42 0 .806.067 1.157.201.355.135.66.332.916.592.256.256.455.572.598.949a3.555 3.555 0 01.195 1.586.444.444 0 01-.058.188.241.241 0 01-.111.098.548.548 0 01-.182.026h-4.121c.048.685.232 1.187.553 1.508.32.321.745.481 1.274.481.26 0 .483-.03.669-.091.191-.061.355-.128.494-.202.143-.073.267-.14.371-.201a.634.634 0 01.312-.091c.065 0 .121.013.169.039a.388.388 0 01.123.11l.468.585a2.758 2.758 0 01-.598.527 3.569 3.569 0 01-.695.338 3.935 3.935 0 01-.735.176 5.287 5.287 0 01-.721.052c-.464 0-.895-.076-1.294-.228a2.966 2.966 0 01-1.04-.682 3.247 3.247 0 01-.695-1.119c-.169-.446-.254-.962-.254-1.547 0-.455.074-.881.221-1.28.147-.403.358-.752.631-1.047a2.996 2.996 0 011.007-.708c.399-.173.847-.26 1.346-.26zm.032 1.15c-.468 0-.834.133-1.098.397-.265.264-.434.639-.507 1.124h3.016a1.98 1.98 0 00-.085-.585 1.351 1.351 0 00-.26-.487 1.192 1.192 0 00-.442-.325 1.478 1.478 0 00-.624-.124zm3.343-1.046h1.274a.53.53 0 01.306.084.367.367 0 01.156.215l.955 3.562c.052.195.094.386.124.572.035.186.067.373.097.559.048-.186.098-.373.15-.559l.175-.572 1.105-3.575a.405.405 0 01.156-.215.456.456 0 01.273-.084h.709c.117 0 .214.028.292.084.078.057.13.128.156.215l1.092 3.64c.057.186.107.368.15.546.048.173.093.349.136.527.031-.187.063-.373.098-.56a8.83 8.83 0 01.143-.578l.988-3.562a.367.367 0 01.156-.215.496.496 0 01.286-.084h1.215L308.315 435h-1.294c-.138 0-.238-.095-.299-.286l-1.202-3.855a12.498 12.498 0 01-.111-.377 7.233 7.233 0 01-.078-.383 6.875 6.875 0 01-.188.773l-1.216 3.842c-.06.191-.177.286-.351.286h-1.228l-2.113-6.669zM316.557 435h-.721a.818.818 0 01-.358-.065c-.087-.048-.152-.141-.195-.28l-.143-.474a5.7 5.7 0 01-.5.403 3.059 3.059 0 01-.501.286 2.56 2.56 0 01-.552.176 3.328 3.328 0 01-.65.058c-.282 0-.542-.037-.78-.111a1.74 1.74 0 01-.618-.344 1.562 1.562 0 01-.396-.566 1.99 1.99 0 01-.143-.786c0-.251.065-.498.195-.741.134-.247.355-.468.663-.663.307-.199.717-.364 1.228-.494s1.146-.204 1.905-.221v-.39c0-.446-.096-.776-.286-.988-.187-.217-.46-.325-.819-.325-.26 0-.477.03-.65.091-.174.061-.325.13-.455.208a16.99 16.99 0 01-.351.201.72.72 0 01-.358.091.466.466 0 01-.279-.084.67.67 0 01-.189-.208l-.292-.514c.767-.702 1.692-1.053 2.775-1.053.39 0 .737.065 1.04.195.308.126.568.304.78.533.212.226.373.497.481.813.113.316.169.663.169 1.04V435zm-3.12-1.001c.165 0 .316-.015.455-.046.139-.03.269-.075.39-.136.126-.061.245-.134.358-.221a3.27 3.27 0 00.351-.319v-1.124a8.645 8.645 0 00-1.177.123c-.312.057-.563.13-.754.221-.191.091-.327.198-.409.319a.717.717 0 00-.117.396c0 .282.082.484.247.605.169.121.387.182.656.182zm6.836 2.834a.58.58 0 01-.188.254c-.074.06-.189.091-.345.091h-1.196l1.248-2.672-2.697-6.175h1.404c.13 0 .229.03.299.091a.61.61 0 01.156.208l1.423 3.458c.048.113.089.23.124.351.034.121.065.243.091.364.034-.126.071-.247.11-.364.044-.117.089-.236.137-.358l1.339-3.451a.473.473 0 01.442-.299h1.287l-3.634 8.502zm153.671-5.142V435h-1.749v-9.399h3.062c.628 0 1.172.074 1.631.221.459.147.839.353 1.138.617.299.265.52.581.663.949.143.369.214.772.214 1.209 0 .455-.076.874-.227 1.255a2.61 2.61 0 01-.683.975 3.176 3.176 0 01-1.137.637c-.455.152-.988.227-1.599.227h-1.313zm0-1.365h1.313c.32 0 .6-.039.838-.117a1.62 1.62 0 00.592-.344 1.45 1.45 0 00.351-.546 2.12 2.12 0 00.117-.722c0-.251-.039-.478-.117-.682a1.347 1.347 0 00-.351-.52 1.537 1.537 0 00-.592-.325 2.7 2.7 0 00-.838-.117h-1.313v3.373zM480.17 435v-6.669h.943c.165 0 .28.03.345.091.065.061.108.165.13.312l.097.806c.238-.412.518-.737.839-.975.32-.238.68-.358 1.079-.358.329 0 .602.076.819.228l-.208 1.202c-.013.078-.042.135-.085.169a.295.295 0 01-.175.046c-.065 0-.154-.015-.267-.046a1.802 1.802 0 00-.448-.045c-.334 0-.62.093-.858.279-.239.182-.44.451-.605.806V435h-1.606zm7.017-6.669V435h-1.606v-6.669h1.606zm.24-1.944a.917.917 0 01-.084.39 1.056 1.056 0 01-.228.319 1.068 1.068 0 01-.325.221c-.126.052-.26.078-.403.078a1.02 1.02 0 01-.396-.078 1.09 1.09 0 01-.54-.54 1.045 1.045 0 010-.793 1.08 1.08 0 01.221-.325 1 1 0 01.319-.214.98.98 0 01.799 0 1.047 1.047 0 01.553.539.98.98 0 01.084.403zm4.92 8.613h-1.456l-2.652-6.669h1.333c.117 0 .214.028.292.084a.425.425 0 01.169.215l1.287 3.562c.074.208.135.412.182.611.052.199.098.399.137.598.039-.199.082-.399.13-.598.052-.199.117-.403.195-.611l1.319-3.562a.447.447 0 01.163-.215.466.466 0 01.279-.084h1.268L492.347 435zm8.817 0h-.721a.818.818 0 01-.358-.065c-.087-.048-.152-.141-.195-.28l-.143-.474a5.7 5.7 0 01-.5.403 3.059 3.059 0 01-.501.286 2.56 2.56 0 01-.552.176 3.328 3.328 0 01-.65.058c-.282 0-.542-.037-.78-.111a1.74 1.74 0 01-.618-.344 1.562 1.562 0 01-.396-.566 1.99 1.99 0 01-.143-.786c0-.251.065-.498.195-.741.134-.247.355-.468.663-.663.307-.199.717-.364 1.228-.494s1.146-.204 1.905-.221v-.39c0-.446-.096-.776-.286-.988-.187-.217-.46-.325-.819-.325-.26 0-.477.03-.65.091-.174.061-.325.13-.455.208a16.99 16.99 0 01-.351.201.72.72 0 01-.358.091.466.466 0 01-.279-.084.67.67 0 01-.189-.208l-.292-.514c.767-.702 1.692-1.053 2.775-1.053.39 0 .737.065 1.04.195.308.126.568.304.78.533.212.226.373.497.481.813.113.316.169.663.169 1.04V435zm-3.12-1.001c.165 0 .316-.015.455-.046.139-.03.269-.075.39-.136.126-.061.245-.134.358-.221a3.27 3.27 0 00.351-.319v-1.124a8.645 8.645 0 00-1.177.123c-.312.057-.563.13-.754.221-.191.091-.327.198-.409.319a.717.717 0 00-.117.396c0 .282.082.484.247.605.169.121.387.182.656.182zm6.889 1.105c-.576 0-1.02-.163-1.332-.488-.312-.329-.468-.782-.468-1.358v-3.725h-.676a.338.338 0 01-.228-.084c-.06-.056-.091-.141-.091-.254v-.637l1.073-.175.338-1.82a.326.326 0 01.117-.202.399.399 0 01.24-.071h.832v2.099h1.755v1.144h-1.755v3.614c0 .208.052.371.156.488a.53.53 0 00.416.175c.1 0 .182-.01.247-.032.07-.026.128-.052.176-.078.052-.026.097-.05.136-.072a.21.21 0 01.117-.039c.048 0 .087.013.117.039a.475.475 0 01.098.104l.481.78a2.422 2.422 0 01-.806.442c-.304.1-.618.15-.943.15zm5.593-6.877c.42 0 .806.067 1.157.201.355.135.661.332.917.592.255.256.455.572.598.949a3.556 3.556 0 01.195 1.586.444.444 0 01-.059.188.244.244 0 01-.11.098.553.553 0 01-.182.026h-4.121c.047.685.231 1.187.552 1.508.321.321.745.481 1.274.481.26 0 .483-.03.67-.091.19-.061.355-.128.494-.202.143-.073.266-.14.37-.201a.634.634 0 01.312-.091c.065 0 .121.013.169.039a.38.38 0 01.124.11l.468.585a2.758 2.758 0 01-.598.527 3.55 3.55 0 01-1.43.514 5.301 5.301 0 01-.722.052c-.464 0-.895-.076-1.293-.228a2.957 2.957 0 01-1.04-.682 3.25 3.25 0 01-.696-1.119c-.169-.446-.253-.962-.253-1.547 0-.455.073-.881.221-1.28.147-.403.357-.752.63-1.047a2.99 2.99 0 011.008-.708c.398-.173.847-.26 1.345-.26zm.033 1.15c-.468 0-.835.133-1.099.397s-.433.639-.507 1.124h3.016a1.98 1.98 0 00-.084-.585 1.367 1.367 0 00-.26-.487 1.2 1.2 0 00-.442-.325 1.478 1.478 0 00-.624-.124zm13.221 3.406c.095 0 .178.037.247.111l.689.747a3.765 3.765 0 01-1.41 1.086c-.555.251-1.222.377-2.002.377-.698 0-1.326-.119-1.885-.358a4.14 4.14 0 01-1.424-.994 4.4 4.4 0 01-.91-1.521 5.763 5.763 0 01-.312-1.931c0-.706.117-1.352.351-1.937a4.44 4.44 0 01.988-1.521 4.455 4.455 0 011.521-.988 5.231 5.231 0 011.963-.357c.698 0 1.307.113 1.827.338.524.221.972.516 1.345.884l-.585.812a.52.52 0 01-.136.137.363.363 0 01-.221.058.512.512 0 01-.306-.117 3.228 3.228 0 00-1.007-.507c-.243-.078-.553-.117-.93-.117-.442 0-.849.078-1.222.234a2.712 2.712 0 00-.955.657 3.081 3.081 0 00-.624 1.046 4.02 4.02 0 00-.221 1.378c0 .529.073.999.221 1.411.151.412.355.758.611 1.04.255.282.556.498.903.65.347.147.719.221 1.118.221.238 0 .453-.013.644-.039.195-.026.372-.067.533-.124.164-.056.318-.127.461-.214.147-.091.293-.202.436-.332a.53.53 0 01.136-.091.322.322 0 01.156-.039zm3.879-7.442V435h-1.605v-9.659h1.605zm4.667 2.886c.498 0 .949.08 1.352.241.407.16.754.387 1.04.682.286.295.507.654.663 1.079.156.425.234.899.234 1.423a4.12 4.12 0 01-.234 1.43 3.087 3.087 0 01-.663 1.086 2.873 2.873 0 01-1.04.689c-.403.16-.854.241-1.352.241-.498 0-.951-.081-1.358-.241a2.927 2.927 0 01-1.047-.689 3.159 3.159 0 01-.669-1.086 4.12 4.12 0 01-.234-1.43c0-.524.078-.998.234-1.423a3.09 3.09 0 01.669-1.079c.29-.295.639-.522 1.047-.682.407-.161.86-.241 1.358-.241zm0 5.635c.555 0 .964-.186 1.229-.559.268-.372.403-.918.403-1.638 0-.719-.135-1.267-.403-1.644-.265-.377-.674-.566-1.229-.566-.563 0-.979.191-1.248.572-.269.377-.403.923-.403 1.638 0 .715.134 1.261.403 1.638.269.373.685.559 1.248.559zm6.011-5.531v4.238c0 .407.093.724.279.949.191.221.475.331.852.331.277 0 .537-.06.78-.182.242-.125.472-.296.689-.513v-4.823h1.605V435h-.981c-.208 0-.345-.098-.41-.293l-.11-.533a5.089 5.089 0 01-.429.384c-.148.113-.306.21-.475.292a2.568 2.568 0 01-.539.183 2.58 2.58 0 01-.618.071 2.43 2.43 0 01-.968-.182 1.959 1.959 0 01-.702-.527 2.33 2.33 0 01-.436-.799 3.512 3.512 0 01-.143-1.027v-4.238h1.606zM548.949 435c-.208 0-.344-.098-.409-.293l-.13-.643a3.924 3.924 0 01-.436.422 2.652 2.652 0 01-1.709.612c-.364 0-.698-.076-1.001-.228a2.283 2.283 0 01-.787-.657 3.303 3.303 0 01-.507-1.072 5.497 5.497 0 01-.175-1.456c0-.494.067-.953.201-1.378a3.37 3.37 0 01.579-1.105c.251-.312.552-.555.903-.728a2.58 2.58 0 011.183-.267c.373 0 .692.061.956.182.264.117.5.276.708.475v-3.523h1.606V435h-.982zm-2.138-1.177c.334 0 .617-.069.851-.208.234-.138.455-.335.663-.591v-2.99a1.57 1.57 0 00-.598-.468 1.73 1.73 0 00-.689-.137c-.242 0-.463.046-.663.137-.195.091-.361.23-.5.416a2.035 2.035 0 00-.312.702 3.973 3.973 0 00-.111 1.001c0 .39.031.721.091.994.065.269.156.49.273.663.117.169.26.293.429.371.169.074.358.11.566.11zM481.343 97.806c.286 0 .541-.047.765-.142a1.57 1.57 0 00.572-.402 1.68 1.68 0 00.357-.627c.085-.246.127-.52.127-.825v-4.763h1.479v4.763c0 .473-.077.911-.231 1.314-.15.4-.368.747-.654 1.04-.286.29-.633.517-1.04.682a3.704 3.704 0 01-1.375.242c-.509 0-.968-.08-1.375-.242a3.048 3.048 0 01-1.039-.682 3.08 3.08 0 01-.655-1.04 3.742 3.742 0 01-.225-1.314v-4.763h1.479v4.758c0 .304.041.579.121.824.085.246.204.457.358.633.154.172.343.306.566.401.228.096.484.144.77.144zm8.075-3.349a.39.39 0 01-.116.127.317.317 0 01-.154.032.5.5 0 01-.214-.055 6.835 6.835 0 00-.259-.12 2.124 2.124 0 00-.341-.127 1.584 1.584 0 00-.445-.055c-.268 0-.479.057-.633.17a.529.529 0 00-.231.446.44.44 0 00.116.308c.08.08.185.152.313.214.132.063.281.12.446.171.165.048.333.1.506.16a4.9 4.9 0 01.506.203c.165.073.311.169.44.286.132.114.236.251.313.412.081.162.121.356.121.584 0 .27-.049.522-.148.753a1.68 1.68 0 01-.435.594c-.19.165-.427.295-.709.39-.279.092-.6.138-.963.138-.194 0-.385-.018-.572-.055a3.064 3.064 0 01-1.006-.363 2.35 2.35 0 01-.38-.275l.314-.517a.44.44 0 01.143-.143.4.4 0 01.209-.05c.084 0 .163.024.236.072.077.048.165.099.264.154.099.055.215.106.347.154.135.048.306.072.511.072.162 0 .299-.019.413-.055a.889.889 0 00.286-.154.538.538 0 00.165-.215.654.654 0 00.055-.258.453.453 0 00-.121-.325.994.994 0 00-.314-.22 2.719 2.719 0 00-.445-.165 26.28 26.28 0 01-.512-.165 5.46 5.46 0 01-.511-.204 1.876 1.876 0 01-.446-.302 1.406 1.406 0 01-.313-.445 1.587 1.587 0 01-.116-.639c0-.23.046-.45.138-.66.091-.209.225-.39.401-.544.18-.158.402-.282.666-.374a2.75 2.75 0 01.924-.143c.388 0 .742.064 1.061.192a2.4 2.4 0 01.798.507l-.308.489zm3.784-1.188c.356 0 .682.057.979.17.301.114.559.281.776.501.216.216.385.484.506.803a3.01 3.01 0 01.165 1.342.377.377 0 01-.05.16.205.205 0 01-.093.082.46.46 0 01-.154.022h-3.487c.04.58.196 1.005.467 1.276.271.271.631.407 1.078.407.22 0 .409-.026.567-.077.161-.051.3-.108.418-.17.121-.063.225-.12.313-.171a.543.543 0 01.264-.077c.055 0 .103.011.143.033.04.022.075.053.105.094l.396.495a2.34 2.34 0 01-.506.445 3.021 3.021 0 01-1.21.434c-.209.03-.413.044-.611.044a3.05 3.05 0 01-1.094-.192 2.49 2.49 0 01-.88-.578 2.735 2.735 0 01-.589-.945c-.143-.378-.214-.815-.214-1.31 0-.385.062-.746.187-1.083.124-.341.302-.636.533-.886.235-.252.519-.452.853-.599.337-.147.716-.22 1.138-.22zm.028.974c-.396 0-.706.111-.93.335-.224.224-.367.54-.429.951h2.552c0-.175-.024-.34-.071-.495a1.15 1.15 0 00-.22-.412 1.017 1.017 0 00-.374-.275 1.248 1.248 0 00-.528-.104zM496.746 99v-5.643h.798c.139 0 .236.026.291.077.055.051.092.14.11.264l.083.682c.201-.348.438-.623.709-.825.271-.202.576-.303.913-.303.279 0 .51.065.693.193l-.176 1.018a.226.226 0 01-.071.143.258.258 0 01-.149.038.919.919 0 01-.225-.038 1.514 1.514 0 00-.38-.039c-.282 0-.524.079-.726.237-.202.153-.372.38-.511.681V99h-1.359zm7.84-4.543a.39.39 0 01-.116.127.317.317 0 01-.154.032.5.5 0 01-.214-.055 6.835 6.835 0 00-.259-.12 2.124 2.124 0 00-.341-.127 1.584 1.584 0 00-.445-.055c-.268 0-.479.057-.633.17a.529.529 0 00-.231.446.44.44 0 00.116.308c.08.08.185.152.313.214.132.063.281.12.446.171.165.048.333.1.506.16a4.9 4.9 0 01.506.203c.165.073.311.169.44.286.132.114.236.251.313.412.081.162.121.356.121.584 0 .27-.049.522-.148.753a1.68 1.68 0 01-.435.594c-.19.165-.427.295-.709.39-.279.092-.6.138-.963.138-.194 0-.385-.018-.572-.055a3.064 3.064 0 01-1.006-.363 2.35 2.35 0 01-.38-.275l.314-.517a.44.44 0 01.143-.143.4.4 0 01.209-.05c.084 0 .163.024.236.072.077.048.165.099.264.154.099.055.215.106.347.154.135.048.306.072.511.072.162 0 .299-.019.413-.055a.889.889 0 00.286-.154.538.538 0 00.165-.215.654.654 0 00.055-.258.453.453 0 00-.121-.325.994.994 0 00-.314-.22 2.719 2.719 0 00-.445-.165 26.28 26.28 0 01-.512-.165 5.46 5.46 0 01-.511-.204 1.876 1.876 0 01-.446-.302 1.406 1.406 0 01-.313-.445 1.587 1.587 0 01-.116-.639c0-.23.046-.45.138-.66.091-.209.225-.39.401-.544.18-.158.402-.282.666-.374a2.75 2.75 0 01.924-.143c.388 0 .742.064 1.061.192a2.4 2.4 0 01.798.507l-.308.489zm5.432 4.631c-.487 0-.863-.137-1.127-.412-.264-.28-.396-.662-.396-1.15v-3.151h-.572a.287.287 0 01-.193-.072c-.051-.048-.077-.12-.077-.215v-.538l.908-.149.286-1.54a.28.28 0 01.099-.17.335.335 0 01.203-.061h.704v1.776h1.485v.968h-1.485v3.059c0 .175.044.313.132.412a.449.449 0 00.352.148.67.67 0 00.209-.027c.059-.022.109-.044.149-.066l.115-.06a.177.177 0 01.099-.034.14.14 0 01.099.034.375.375 0 01.083.087l.407.66c-.198.165-.425.29-.682.374a2.544 2.544 0 01-.798.127zm2.401-.088v-5.643h.797c.14 0 .237.026.292.077.055.051.092.14.11.264l.082.682c.202-.348.439-.623.71-.825.271-.202.576-.303.913-.303.279 0 .51.065.693.193l-.176 1.018c-.011.066-.035.113-.072.143a.252.252 0 01-.148.038.933.933 0 01-.226-.038 1.5 1.5 0 00-.379-.039c-.282 0-.524.079-.726.237-.202.153-.372.38-.512.681V99h-1.358zm8.751 0h-.611a.683.683 0 01-.302-.055c-.073-.04-.128-.12-.165-.236l-.121-.402a4.71 4.71 0 01-.424.341 2.528 2.528 0 01-.423.242 2.184 2.184 0 01-.468.148 2.81 2.81 0 01-.55.05 2.23 2.23 0 01-.66-.093 1.49 1.49 0 01-.522-.292 1.332 1.332 0 01-.336-.478 1.71 1.71 0 01-.121-.666c0-.213.055-.422.165-.627.114-.209.301-.396.561-.561.261-.169.607-.308 1.04-.418.433-.11.97-.172 1.611-.187v-.33c0-.378-.08-.656-.242-.836-.157-.183-.388-.275-.693-.275a1.686 1.686 0 00-.935.253c-.106.062-.205.12-.297.17a.605.605 0 01-.302.078.394.394 0 01-.237-.072.557.557 0 01-.159-.176l-.248-.434c.649-.595 1.432-.892 2.349-.892.33 0 .623.056.88.166a1.828 1.828 0 011.067 1.138c.095.268.143.561.143.88V99zm-2.64-.847a1.8 1.8 0 00.385-.038 1.42 1.42 0 00.33-.116c.106-.051.207-.114.302-.187.099-.077.198-.167.297-.27v-.951a7.17 7.17 0 00-.995.105c-.264.047-.477.11-.638.186a.852.852 0 00-.347.27.608.608 0 00-.099.335c0 .239.07.41.209.512.143.103.329.154.556.154zm6.609.847h-1.232l-2.244-5.643h1.128a.41.41 0 01.247.072c.07.047.118.108.143.181l1.089 3.014c.063.176.114.348.154.517.044.169.083.337.116.506.033-.169.07-.337.11-.506a5.24 5.24 0 01.165-.517l1.116-3.014a.375.375 0 01.138-.181.393.393 0 01.236-.072h1.073L525.139 99zm5.188-5.731c.356 0 .682.057.979.17.301.114.559.281.776.501.216.216.385.484.506.803a3.01 3.01 0 01.165 1.342.377.377 0 01-.05.16.205.205 0 01-.093.082.46.46 0 01-.154.022h-3.487c.04.58.196 1.005.467 1.276.271.271.631.407 1.078.407.22 0 .409-.026.567-.077.161-.051.3-.108.418-.17.121-.063.225-.12.313-.171a.543.543 0 01.264-.077c.055 0 .103.011.143.033.04.022.075.053.105.094l.396.495a2.34 2.34 0 01-.506.445 3.021 3.021 0 01-1.21.434c-.209.03-.413.044-.611.044a3.05 3.05 0 01-1.094-.192 2.49 2.49 0 01-.88-.578 2.735 2.735 0 01-.589-.945c-.143-.378-.214-.815-.214-1.31 0-.385.062-.746.187-1.083.124-.341.302-.636.533-.886.235-.252.519-.452.853-.599.337-.147.716-.22 1.138-.22zm.028.974c-.396 0-.706.111-.93.335-.224.224-.367.54-.429.951h2.552c0-.175-.024-.34-.071-.495a1.15 1.15 0 00-.22-.412 1.017 1.017 0 00-.374-.275 1.248 1.248 0 00-.528-.104zm4.963-3.416V99h-1.359v-8.173h1.359zm2.986 2.53V99h-1.359v-5.643h1.359zm.203-1.644a.769.769 0 01-.071.33.884.884 0 01-.193.269.904.904 0 01-.275.187.882.882 0 01-.676 0 .932.932 0 01-.457-.456.883.883 0 010-.671.919.919 0 01.187-.275.85.85 0 01.27-.182.822.822 0 01.676 0 .83.83 0 01.275.181.866.866 0 01.193.275c.048.107.071.22.071.342zM539.844 99v-5.643h.83c.176 0 .292.082.347.248l.093.445a2.69 2.69 0 01.759-.566c.143-.07.295-.123.457-.16.161-.037.337-.055.528-.055.308 0 .581.053.819.16.239.102.437.249.594.44.162.186.283.412.363.676.085.26.127.548.127.864V99h-1.359v-3.591c0-.345-.08-.611-.242-.798-.157-.19-.396-.286-.715-.286a1.41 1.41 0 00-.66.16 2.384 2.384 0 00-.583.434V99h-1.358zm8.204-5.742c.242 0 .469.026.682.077.213.048.407.12.583.215h1.623v.505a.28.28 0 01-.066.198c-.044.048-.12.081-.226.1l-.506.093c.037.095.064.196.083.303.022.106.033.218.033.335a1.669 1.669 0 01-.633 1.331c-.194.158-.427.28-.698.368a3.152 3.152 0 01-1.496.066c-.176.107-.264.226-.264.358 0 .114.051.198.154.253.106.051.243.088.412.11.172.022.367.037.583.044.216.004.438.015.666.033.227.018.449.051.665.099.216.044.409.116.578.215.172.099.309.234.412.407.106.168.16.386.16.654 0 .25-.063.491-.187.726a1.9 1.9 0 01-.534.627c-.231.183-.515.33-.852.44a3.606 3.606 0 01-1.155.171 4.37 4.37 0 01-1.117-.127 2.57 2.57 0 01-.786-.33 1.403 1.403 0 01-.462-.473 1.112 1.112 0 01-.154-.561c0-.264.08-.486.242-.666.161-.18.385-.322.671-.428a.93.93 0 01-.336-.308.9.9 0 01-.126-.501c0-.084.014-.17.044-.258a1.054 1.054 0 01.363-.517 1.48 1.48 0 01.324-.215 1.8 1.8 0 01-.676-.616 1.653 1.653 0 01-.242-.902c0-.279.055-.53.165-.754.113-.227.269-.42.467-.577.202-.161.438-.284.71-.368a3.04 3.04 0 01.896-.127zm1.491 5.995c0-.11-.033-.2-.099-.27a.628.628 0 00-.27-.159 1.867 1.867 0 00-.401-.088 6.218 6.218 0 00-.484-.038 21.06 21.06 0 00-.528-.028 7.675 7.675 0 01-.523-.05 1.239 1.239 0 00-.374.303.61.61 0 00-.066.671c.051.088.13.163.237.226.11.062.251.11.423.143.172.036.383.055.633.055.253 0 .471-.02.654-.061.183-.037.334-.09.451-.16a.656.656 0 00.264-.242.577.577 0 00.083-.302zm-1.491-3.212c.169 0 .315-.022.44-.066a.865.865 0 00.308-.192.74.74 0 00.187-.292c.044-.114.066-.238.066-.374 0-.279-.084-.499-.253-.66-.165-.165-.414-.247-.748-.247s-.585.082-.753.247c-.165.161-.248.381-.248.66 0 .132.02.255.061.368a.883.883 0 00.187.297.917.917 0 00.313.193c.128.044.275.066.44.066zm3.455 2.123a.73.73 0 01.055-.286.712.712 0 01.165-.237.851.851 0 01.577-.22.8.8 0 01.363.078.704.704 0 01.259.203c.07.084.121.183.154.297.033.11.049.227.049.352 0 .176-.027.361-.082.555a2.72 2.72 0 01-.231.584 3.38 3.38 0 01-.897 1.072l-.236-.214a.256.256 0 01-.099-.204c0-.029.009-.062.027-.099a.513.513 0 01.077-.099l.149-.165c.059-.062.117-.136.176-.22a1.6 1.6 0 00.159-.27 1.08 1.08 0 00.11-.307.796.796 0 01-.313-.061.81.81 0 01-.248-.176.868.868 0 01-.159-.258.92.92 0 01-.055-.325zm-68.853 8.094c.242 0 .469.026.682.077.212.048.407.119.583.214h1.622v.506a.279.279 0 01-.066.198c-.044.048-.119.081-.225.099l-.506.094c.036.095.064.196.082.302.022.107.033.219.033.336a1.66 1.66 0 01-.632 1.331c-.195.158-.427.28-.699.368a2.871 2.871 0 01-.874.127c-.213 0-.42-.02-.622-.061-.176.107-.264.226-.264.358a.27.27 0 00.154.253c.107.051.244.088.413.11.172.022.366.037.583.044.216.004.438.015.665.033.228.018.449.051.666.099.216.044.409.115.577.214.173.099.31.235.413.407.106.169.159.387.159.655 0 .249-.062.491-.187.726a1.905 1.905 0 01-.533.627 2.71 2.71 0 01-.853.44 3.598 3.598 0 01-1.155.171c-.429 0-.801-.043-1.116-.127a2.565 2.565 0 01-.787-.33 1.422 1.422 0 01-.462-.473 1.124 1.124 0 01-.154-.561c0-.264.081-.486.242-.666.162-.179.385-.322.671-.429a.928.928 0 01-.335-.308.89.89 0 01-.127-.5c0-.084.015-.171.044-.259.03-.091.074-.181.132-.269a1.526 1.526 0 01.556-.462 1.8 1.8 0 01-.677-.616 1.662 1.662 0 01-.242-.902c0-.279.055-.53.165-.754.114-.227.27-.419.468-.577.201-.161.438-.284.709-.369.275-.084.574-.126.897-.126zm1.49 5.995c0-.11-.033-.2-.099-.27a.64.64 0 00-.269-.159 1.877 1.877 0 00-.402-.088 19.354 19.354 0 00-1.012-.066 7.64 7.64 0 01-.522-.05 1.255 1.255 0 00-.374.303.612.612 0 00-.066.671c.051.088.13.163.236.226.11.062.251.11.424.143.172.036.383.055.632.055.253 0 .471-.021.655-.061.183-.037.333-.09.451-.159a.658.658 0 00.264-.242.58.58 0 00.082-.303zm-1.49-3.212c.168 0 .315-.022.44-.066a.875.875 0 00.308-.193.741.741 0 00.187-.291c.044-.114.066-.238.066-.374 0-.279-.085-.499-.253-.66-.165-.165-.415-.248-.748-.248-.334 0-.585.083-.754.248-.165.161-.247.381-.247.66 0 .132.02.255.06.368a.893.893 0 00.187.297.931.931 0 00.314.193c.128.044.275.066.44.066zm4.984-2.684v3.586c0 .345.078.612.236.803.161.187.402.28.721.28.234 0 .454-.051.66-.154.205-.106.399-.251.583-.434v-4.081h1.358V112h-.83c-.176 0-.292-.083-.347-.248l-.093-.451a4.36 4.36 0 01-.363.325 2.164 2.164 0 01-.858.402c-.162.04-.336.06-.523.06-.308 0-.581-.051-.819-.154a1.657 1.657 0 01-.594-.446 1.956 1.956 0 01-.369-.676 2.954 2.954 0 01-.121-.869v-3.586h1.359zm7.341-.088c.355 0 .682.057.979.17.3.114.559.281.775.501.216.216.385.484.506.803a3.006 3.006 0 01.165 1.342.373.373 0 01-.049.159.205.205 0 01-.094.083.449.449 0 01-.154.022h-3.487c.04.579.196 1.005.468 1.276.271.271.63.407 1.078.407.22 0 .408-.026.566-.077.161-.051.301-.108.418-.171.121-.062.226-.119.314-.17a.54.54 0 01.264-.077c.055 0 .102.011.143.033.04.022.075.053.104.093l.396.495a2.32 2.32 0 01-.506.446 3.013 3.013 0 01-1.21.435 4.436 4.436 0 01-.61.044c-.393 0-.758-.065-1.095-.193a2.5 2.5 0 01-.88-.578 2.741 2.741 0 01-.588-.946 3.68 3.68 0 01-.215-1.309c0-.385.062-.746.187-1.083.125-.341.303-.636.534-.886.234-.253.518-.452.852-.599.337-.147.717-.22 1.139-.22zm.027.973c-.396 0-.706.112-.929.336-.224.224-.367.541-.429.951h2.552c0-.176-.024-.341-.072-.495a1.15 1.15 0 00-.22-.412 1.02 1.02 0 00-.374-.275 1.237 1.237 0 00-.528-.105zm6.866.215a.378.378 0 01-.116.126.317.317 0 01-.154.033.496.496 0 01-.214-.055 7.215 7.215 0 00-.259-.121 2.225 2.225 0 00-.341-.126 1.573 1.573 0 00-.445-.055c-.268 0-.479.057-.633.17a.53.53 0 00-.231.446.44.44 0 00.116.308c.081.081.185.152.313.214.132.063.281.12.446.171.165.048.334.101.506.159.172.059.341.127.506.204.165.073.312.169.44.286a1.249 1.249 0 01.434.995c0 .272-.049.523-.148.754a1.686 1.686 0 01-.435.594c-.19.165-.427.295-.709.39-.279.092-.6.138-.963.138-.194 0-.385-.018-.572-.055a3.108 3.108 0 01-1.006-.363 2.332 2.332 0 01-.38-.275l.314-.517a.443.443 0 01.143-.143.402.402 0 01.209-.05c.084 0 .163.024.236.072.077.048.165.099.264.154.099.055.215.106.347.154.136.048.306.071.511.071.162 0 .299-.018.413-.055a.86.86 0 00.286-.154.532.532 0 00.165-.214.638.638 0 00.055-.259c0-.132-.04-.24-.121-.324a.994.994 0 00-.314-.22 2.74 2.74 0 00-.445-.165 22.74 22.74 0 01-.512-.165 5.663 5.663 0 01-.511-.204 1.853 1.853 0 01-.446-.302 1.425 1.425 0 01-.313-.446 1.584 1.584 0 01-.116-.638c0-.231.046-.451.138-.66.092-.209.225-.39.401-.544.18-.158.402-.282.666-.374.268-.095.576-.143.924-.143.389 0 .742.064 1.061.192.319.129.585.297.798.506l-.308.49zm3.306 4.631c-.488 0-.864-.138-1.128-.413-.264-.278-.396-.661-.396-1.149v-3.152h-.572a.282.282 0 01-.192-.071c-.052-.048-.077-.119-.077-.215v-.539l.907-.148.286-1.54a.284.284 0 01.099-.171.338.338 0 01.204-.06h.704v1.776h1.485v.968h-1.485v3.058c0 .176.044.314.132.413a.447.447 0 00.352.148.684.684 0 00.209-.027 2.314 2.314 0 00.264-.127.177.177 0 01.099-.033c.04 0 .073.011.099.033a.42.42 0 01.082.088l.407.66c-.198.165-.425.29-.682.374a2.514 2.514 0 01-.797.127zm8.949-.088h-.61a.68.68 0 01-.303-.055c-.073-.04-.128-.119-.165-.237l-.121-.401a4.903 4.903 0 01-.423.341 2.599 2.599 0 01-.424.242 2.177 2.177 0 01-.467.149 2.82 2.82 0 01-.55.049c-.239 0-.459-.031-.66-.094a1.49 1.49 0 01-.523-.291 1.314 1.314 0 01-.335-.479 1.687 1.687 0 01-.121-.665c0-.213.055-.422.165-.627.113-.209.3-.396.561-.561.26-.169.606-.308 1.039-.418.433-.11.97-.172 1.612-.187v-.33c0-.378-.081-.656-.242-.836-.158-.183-.389-.275-.693-.275a1.69 1.69 0 00-.935.253l-.297.17a.604.604 0 01-.303.077.388.388 0 01-.236-.071.56.56 0 01-.16-.176l-.247-.435c.649-.594 1.431-.891 2.348-.891.33 0 .623.055.88.165a1.843 1.843 0 011.067 1.139c.095.268.143.561.143.88V112zm-2.64-.847c.139 0 .268-.013.385-.039.117-.025.227-.064.33-.115.106-.051.207-.114.303-.187.099-.077.198-.167.297-.27v-.951a7.195 7.195 0 00-.996.104c-.264.048-.477.11-.638.187a.84.84 0 00-.346.27.608.608 0 00-.099.335c0 .239.069.409.209.512.143.103.328.154.555.154zm7.941-3.603a.576.576 0 01-.121.121c-.036.03-.091.044-.165.044a.388.388 0 01-.203-.06 3.418 3.418 0 00-.237-.143 1.493 1.493 0 00-.33-.143 1.414 1.414 0 00-.467-.066c-.238 0-.447.044-.627.132-.18.084-.33.207-.451.368a1.723 1.723 0 00-.264.589 3.094 3.094 0 00-.088.775c0 .301.031.569.093.803.066.235.16.433.281.594.121.158.268.279.44.363.172.081.367.121.583.121.216 0 .39-.025.522-.077.136-.055.25-.113.341-.176a6.78 6.78 0 00.237-.176.365.365 0 01.231-.082c.11 0 .192.042.247.126l.391.495c-.15.176-.314.325-.49.446a2.796 2.796 0 01-.55.286 2.85 2.85 0 01-.583.149 4.195 4.195 0 01-.599.044c-.348 0-.677-.065-.985-.193a2.36 2.36 0 01-.808-.572 2.824 2.824 0 01-.545-.913 3.61 3.61 0 01-.198-1.238c0-.414.059-.797.176-1.149.121-.356.297-.662.528-.919a2.4 2.4 0 01.858-.61c.341-.147.734-.22 1.177-.22.422 0 .791.068 1.106.204.319.135.605.329.858.582l-.358.495zm5.243 0a.627.627 0 01-.121.121c-.037.03-.092.044-.165.044a.389.389 0 01-.204-.06 3.627 3.627 0 00-.236-.143 1.536 1.536 0 00-.33-.143 1.425 1.425 0 00-.468-.066c-.238 0-.447.044-.627.132-.18.084-.33.207-.451.368a1.723 1.723 0 00-.264.589 3.094 3.094 0 00-.088.775c0 .301.031.569.094.803.066.235.159.433.28.594.121.158.268.279.44.363.172.081.367.121.583.121.216 0 .391-.025.523-.077.135-.055.249-.113.341-.176a7.72 7.72 0 00.236-.176.365.365 0 01.231-.082c.11 0 .193.042.248.126l.39.495a2.52 2.52 0 01-.489.446c-.176.117-.36.213-.55.286-.187.07-.382.119-.583.149a4.22 4.22 0 01-.6.044c-.348 0-.676-.065-.984-.193a2.364 2.364 0 01-.809-.572 2.804 2.804 0 01-.544-.913 3.61 3.61 0 01-.198-1.238c0-.414.058-.797.176-1.149.121-.356.297-.662.528-.919a2.4 2.4 0 01.858-.61c.341-.147.733-.22 1.177-.22.421 0 .79.068 1.105.204.319.135.605.329.858.582l-.357.495zm3.685-1.281c.422 0 .803.068 1.144.204.345.135.638.328.88.577.242.249.429.554.561.913.132.359.198.761.198 1.204 0 .448-.066.851-.198 1.21-.132.36-.319.666-.561.919a2.434 2.434 0 01-.88.583 3.063 3.063 0 01-1.144.204c-.421 0-.805-.068-1.149-.204a2.492 2.492 0 01-.886-.583 2.664 2.664 0 01-.566-.919 3.486 3.486 0 01-.198-1.21c0-.443.066-.845.198-1.204a2.61 2.61 0 01.566-.913 2.52 2.52 0 01.886-.577 3.105 3.105 0 011.149-.204zm0 4.768c.47 0 .816-.157 1.04-.473.227-.315.341-.777.341-1.386 0-.608-.114-1.072-.341-1.391-.224-.319-.57-.479-1.04-.479-.476 0-.828.162-1.056.484-.227.319-.341.781-.341 1.386 0 .605.114 1.067.341 1.386.228.316.58.473 1.056.473zm5.086-4.68v3.586c0 .345.079.612.237.803.161.187.401.28.72.28.235 0 .455-.051.66-.154.206-.106.4-.251.583-.434v-4.081h1.359V112h-.831c-.176 0-.291-.083-.346-.248l-.094-.451a4.063 4.063 0 01-.363.325 2.31 2.31 0 01-.401.247c-.14.066-.292.118-.457.155a2.16 2.16 0 01-.522.06c-.308 0-.581-.051-.82-.154a1.675 1.675 0 01-.594-.446 1.971 1.971 0 01-.368-.676 2.954 2.954 0 01-.121-.869v-3.586h1.358zm5.009 5.643v-5.643h.831c.176 0 .291.082.346.247l.094.446a2.754 2.754 0 01.759-.567 2.157 2.157 0 01.984-.214c.308 0 .581.053.82.159.238.103.436.25.594.44.161.187.282.413.363.677.084.26.126.548.126.863V112h-1.358v-3.592c0-.344-.081-.61-.242-.797-.158-.191-.396-.286-.715-.286-.235 0-.455.053-.66.159-.206.107-.4.252-.583.435V112h-1.359zm8.106.088c-.488 0-.864-.138-1.128-.413-.264-.278-.396-.661-.396-1.149v-3.152h-.572a.282.282 0 01-.192-.071c-.052-.048-.077-.119-.077-.215v-.539l.907-.148.286-1.54a.284.284 0 01.099-.171.338.338 0 01.204-.06h.704v1.776h1.485v.968h-1.485v3.058c0 .176.044.314.132.413a.447.447 0 00.352.148.684.684 0 00.209-.027 2.314 2.314 0 00.264-.127.177.177 0 01.099-.033c.04 0 .073.011.099.033a.42.42 0 01.082.088l.407.66c-.198.165-.425.29-.682.374a2.518 2.518 0 01-.797.127zm5.75-4.631a.388.388 0 01-.116.126.32.32 0 01-.154.033.496.496 0 01-.214-.055 8.134 8.134 0 00-.259-.121 2.265 2.265 0 00-.341-.126 1.578 1.578 0 00-.445-.055c-.268 0-.479.057-.633.17a.53.53 0 00-.231.446.44.44 0 00.116.308c.08.081.185.152.313.214.132.063.281.12.446.171.165.048.333.101.506.159.172.059.341.127.506.204.165.073.311.169.44.286a1.249 1.249 0 01.434.995c0 .272-.049.523-.148.754a1.686 1.686 0 01-.435.594 2.09 2.09 0 01-.709.39c-.279.092-.6.138-.963.138-.194 0-.385-.018-.572-.055a3.064 3.064 0 01-1.006-.363 2.332 2.332 0 01-.38-.275l.314-.517a.443.443 0 01.143-.143.4.4 0 01.209-.05c.084 0 .163.024.236.072.077.048.165.099.264.154.099.055.215.106.347.154.135.048.306.071.511.071.161 0 .299-.018.413-.055a.87.87 0 00.286-.154.532.532 0 00.165-.214.655.655 0 00.055-.259.451.451 0 00-.121-.324.994.994 0 00-.314-.22 2.775 2.775 0 00-.445-.165 22.74 22.74 0 01-.512-.165 5.548 5.548 0 01-.511-.204 1.853 1.853 0 01-.446-.302 1.409 1.409 0 01-.313-.446 1.584 1.584 0 01-.116-.638c0-.231.046-.451.138-.66.091-.209.225-.39.401-.544.18-.158.402-.282.666-.374a2.75 2.75 0 01.924-.143c.388 0 .742.064 1.061.192.319.129.585.297.798.506l-.308.49z" fill="#2C4251"/><path d="M311 284c-2.412 0-4.375 1.907-4.375 4.25v1.7h-.875c-.965 0-1.75.762-1.75 1.7v7.65c0 .938.785 1.7 1.75 1.7h10.5c.965 0 1.75-.762 1.75-1.7v-7.65c0-.938-.785-1.7-1.75-1.7h-.875v-1.7c0-2.343-1.963-4.25-4.375-4.25zm-2.625 4.25c0-1.406 1.178-2.55 2.625-2.55s2.625 1.144 2.625 2.55v1.7h-5.25v-1.7zm7.877 11.05h-4.377v-1.936c.521-.295.875-.838.875-1.464 0-.938-.785-1.7-1.75-1.7s-1.75.762-1.75 1.7c0 .626.354 1.169.875 1.464v1.936h-4.375v-7.65h10.5l.002 7.65z" fill="#7197E1"/><path stroke="#7197E1" stroke-width="2" d="M517 279h-12m12 4h-12"/><path d="M504.6 176h-11.2a2.38 2.38 0 00-1.697.714 2.457 2.457 0 00-.703 1.724v8.124c0 .647.253 1.267.703 1.724a2.38 2.38 0 001.697.714h11.2a2.38 2.38 0 001.697-.714c.45-.457.703-1.077.703-1.724v-8.124c0-.647-.253-1.267-.703-1.724A2.38 2.38 0 00504.6 176zm-.536 1.625L499 181.484l-5.064-3.859h10.128zm.536 9.75h-11.2a.796.796 0 01-.566-.238.818.818 0 01-.234-.575v-7.921l5.92 4.509a.794.794 0 00.96 0l5.92-4.509v7.921a.818.818 0 01-.234.575.796.796 0 01-.566.238z" fill="#7197E1"/><defs><filter id="filter0_d" x="0" y="323.4" width="168.35" height="131.6" filterUnits="userSpaceOnUse" color-interpolation-filters="sRGB"><feFlood flood-opacity="0" result="BackgroundImageFix"/><feColorMatrix in="SourceAlpha" values="0 0 0 0 0 0 0 0 0 0 0 0 0 0 0 0 0 0 127 0" result="hardAlpha"/><feOffset dy="3"/><feGaussianBlur stdDeviation="3.5"/><feColorMatrix values="0 0 0 0 0.364722 0 0 0 0 0.387167 0 0 0 0 0.420833 0 0 0 0.08 0"/><feBlend in2="BackgroundImageFix" result="effect1_dropShadow"/><feBlend in="SourceGraphic" in2="effect1_dropShadow" result="shape"/></filter><filter id="filter1_d" x="433" y="0" width="168" height="132" filterUnits="userSpaceOnUse" color-interpolation-filters="sRGB"><feFlood flood-opacity="0" result="BackgroundImageFix"/><feColorMatrix in="SourceAlpha" values="0 0 0 0 0 0 0 0 0 0 0 0 0 0 0 0 0 0 127 0" result="hardAlpha"/><feOffset dy="3"/><feGaussianBlur stdDeviation="3.5"/><feColorMatrix values="0 0 0 0 0.364722 0 0 0 0 0.387167 0 0 0 0 0.420833 0 0 0 0.08 0"/><feBlend in2="BackgroundImageFix" result="effect1_dropShadow"/><feBlend in="SourceGraphic" in2="effect1_dropShadow" result="shape"/></filter><filter id="filter2_d" x="426.301" y="323.4" width="168.35" height="131.6" filterUnits="userSpaceOnUse" color-interpolation-filters="sRGB"><feFlood flood-opacity="0" result="BackgroundImageFix"/><feColorMatrix in="SourceAlpha" values="0 0 0 0 0 0 0 0 0 0 0 0 0 0 0 0 0 0 127 0" result="hardAlpha"/><feOffset dy="3"/><feGaussianBlur stdDeviation="3.5"/><feColorMatrix values="0 0 0 0 0.364722 0 0 0 0 0.387167 0 0 0 0 0.420833 0 0 0 0.08 0"/><feBlend in2="BackgroundImageFix" result="effect1_dropShadow"/><feBlend in="SourceGraphic" in2="effect1_dropShadow" result="shape"/></filter><filter id="filter3_d" x="213.148" y="323.4" width="168.35" height="131.6" filterUnits="userSpaceOnUse" color-interpolation-filters="sRGB"><feFlood flood-opacity="0" result="BackgroundImageFix"/><feColorMatrix in="SourceAlpha" values="0 0 0 0 0 0 0 0 0 0 0 0 0 0 0 0 0 0 127 0" result="hardAlpha"/><feOffset dy="3"/><feGaussianBlur stdDeviation="3.5"/><feColorMatrix values="0 0 0 0 0.364722 0 0 0 0 0.387167 0 0 0 0 0.420833 0 0 0 0.08 0"/><feBlend in2="BackgroundImageFix" result="effect1_dropShadow"/><feBlend in="SourceGraphic" in2="effect1_dropShadow" result="shape"/></filter><linearGradient id="paint0_linear" x1="290.496" y1="258" x2="290.496" y2="89.011" gradientUnits="userSpaceOnUse"><stop stop-color="#F2F6FE"/><stop offset=".38" stop-color="#EEF4FE"/><stop offset=".8" stop-color="#E0ECFD"/><stop offset="1" stop-color="#D7E7FD"/></linearGradient><linearGradient id="paint1_linear" x1="290" y1="209" x2="290" y2="159" gradientUnits="userSpaceOnUse"><stop stop-color="#D90F16"/><stop offset="1" stop-color="#FFB8A9"/></linearGradient><linearGradient id="paint2_linear" x1="517.5" y1="78" x2="517.5" y2="27" gradientUnits="userSpaceOnUse"><stop stop-color="#FD5900"/><stop offset="1" stop-color="#FFDE00"/></linearGradient><clipPath id="clip0"><path fill="#fff" transform="translate(490 154)" d="M0 0h17v14H0z"/></clipPath></defs></svg>