<svg width="560" height="419" fill="none" xmlns="http://www.w3.org/2000/svg"><path d="M451.492 141.503C435.164 61.17 365.164.646 280 .646a174.875 174.875 0 00-155.175 94.278C54.825 101.908 0 161.29 0 233.508c0 76.862 62.995 139.714 140 139.714h303.333C507.492 373.222 560 320.824 560 256.83a115.094 115.094 0 00-108.508-115.294v-.033z" fill="url(#paint0_linear)"/><path d="M441.741 63.18H103.106a8.543 8.543 0 00-8.543 8.542v338.636a8.542 8.542 0 008.543 8.542h338.635a8.542 8.542 0 008.543-8.542V71.722a8.543 8.543 0 00-8.543-8.542z" fill="#2C4251"/><path d="M95.574 78.377h353.754v331.981c0 2-.795 3.919-2.21 5.333a7.54 7.54 0 01-5.333 2.21H103.117a7.541 7.541 0 01-7.543-7.543V78.378z" fill="#fff" stroke="#F0F3FA" stroke-width="2"/><path d="M104.083 73.14a2.778 2.778 0 100-5.557 2.778 2.778 0 000 5.556z" fill="#D20F16"/><path opacity=".8" d="M111.594 73.14a2.778 2.778 0 100-5.557 2.778 2.778 0 000 5.556z" fill="#FFD447"/><path opacity=".8" d="M119.225 73.14a2.778 2.778 0 100-5.556 2.778 2.778 0 000 5.555z" fill="#60D394"/><path d="M420.812 89.445H117.754c-6.022 0-10.904 4.882-10.904 10.903v44.822c0 6.022 4.882 10.904 10.904 10.904h303.058c6.022 0 10.904-4.882 10.904-10.904v-44.822c0-6.022-4.882-10.903-10.904-10.903z" fill="#F0F3FA"/><path d="M408.998 117.818H366.35c-2.932 0-5.315 2.8-5.315 6.248 0 3.459 2.383 6.259 5.315 6.259h42.648c2.942 0 5.314-2.8 5.314-6.259 0-3.448-2.372-6.248-5.314-6.248z" fill="#2C4251"/><path d="M378.406 119.597h-9.476a4.48 4.48 0 000 8.96h9.476a4.48 4.48 0 100-8.96z" fill="#EF757A"/><path d="M376.386 124.072a2.718 2.718 0 10-5.436 0 2.718 2.718 0 005.436 0z" fill="#fff"/><path opacity=".8" d="M250.221 120.047h-84.812a3.954 3.954 0 01-2.937-1.082 3.97 3.97 0 01-.914-4.441 3.961 3.961 0 013.851-2.394h84.812a3.968 3.968 0 012.8 1.164 3.93 3.93 0 011.162 2.795 3.947 3.947 0 01-1.162 2.794 3.96 3.96 0 01-2.8 1.164z" fill="#E0E3EC"/><path d="M266.582 133.388H165.409c-.52 0-1.034-.102-1.513-.301a3.939 3.939 0 01-2.14-2.139 3.964 3.964 0 010-3.025 3.957 3.957 0 013.653-2.441h101.173a4.03 4.03 0 011.526.297c.478.203.914.493 1.285.856.371.365.663.802.856 1.285a3.886 3.886 0 010 3.031 3.86 3.86 0 01-.856 1.284 4.168 4.168 0 01-1.285.857 4.01 4.01 0 01-1.526.296zm-128.306 1.944a13.982 13.982 0 0012.883-8.659 13.983 13.983 0 00-3.059-15.218 13.974 13.974 0 00-21.493 2.138 13.975 13.975 0 00-2.353 7.761 14.01 14.01 0 004.116 9.893 14 14 0 009.906 4.085z" fill="#E0E3EC"/><path d="M420.812 170.985H117.754c-6.022 0-10.904 4.882-10.904 10.904v44.822c0 6.022 4.882 10.903 10.904 10.903h303.058c6.022 0 10.904-4.881 10.904-10.903v-44.822c0-6.022-4.882-10.904-10.904-10.904z" fill="#F0F3FA"/><path d="M408.998 199.392H366.35c-2.932 0-5.315 2.8-5.315 6.258 0 3.459 2.383 6.259 5.315 6.259h42.648c2.942 0 5.314-2.8 5.314-6.259 0-3.502-2.372-6.258-5.314-6.258z" fill="#2C4251"/><path d="M406.615 201.126h-9.476a4.48 4.48 0 100 8.96h9.476a4.48 4.48 0 100-8.96z" fill="#EF757A"/><path d="M404.594 205.601a2.717 2.717 0 10-5.435-.001 2.717 2.717 0 005.435.001z" fill="#fff"/><path opacity=".8" d="M250.221 201.588h-84.812a3.972 3.972 0 01-2.937-1.083 3.97 3.97 0 01-1.236-2.876 3.974 3.974 0 011.236-2.875 3.949 3.949 0 012.937-1.083h84.812a3.974 3.974 0 013.964 3.964 3.919 3.919 0 01-1.164 2.789 3.964 3.964 0 01-2.8 1.164z" fill="#7197E1"/><path d="M266.582 214.918H165.409a3.962 3.962 0 01-2.803-1.154 3.951 3.951 0 01-1.161-2.799 3.973 3.973 0 013.964-3.953h101.173a4.01 4.01 0 011.526.296c.478.203.914.494 1.285.857.369.366.66.803.857 1.284a3.908 3.908 0 010 3.031 3.892 3.892 0 01-.857 1.285 4.165 4.165 0 01-1.285.856 4.03 4.03 0 01-1.526.297z" fill="#8AA9E6"/><path opacity=".8" d="M138.276 216.861a13.974 13.974 0 0012.883-8.659 13.983 13.983 0 00-3.059-15.218 13.977 13.977 0 00-23.846 9.899 14.003 14.003 0 008.663 12.921 13.99 13.99 0 005.359 1.057z" fill="#7197E1"/><path d="M420.812 253.667H117.754c-6.022 0-10.904 4.882-10.904 10.904v44.822c0 6.022 4.882 10.904 10.904 10.904h303.058c6.022 0 10.904-4.882 10.904-10.904v-44.822c0-6.022-4.882-10.904-10.904-10.904z" fill="#F0F3FA"/><path d="M408.998 282.041H366.35c-2.932 0-5.315 2.8-5.315 6.248 0 3.459 2.383 6.259 5.315 6.259h42.648c2.942 0 5.314-2.8 5.314-6.259 0-3.448-2.372-6.248-5.314-6.248z" fill="#2C4251"/><path d="M378.659 283.82h-9.476a4.48 4.48 0 100 8.96h9.476a4.48 4.48 0 000-8.96z" fill="#EF757A"/><path d="M376.638 288.294a2.716 2.716 0 10-5.435 0 2.718 2.718 0 005.435 0z" fill="#fff"/><path opacity=".8" d="M250.221 284.27h-84.812a3.972 3.972 0 01-2.937-1.083 3.974 3.974 0 01-.914-4.44 3.97 3.97 0 013.851-2.394h84.812a3.964 3.964 0 012.8 1.164 3.926 3.926 0 011.162 2.795 3.95 3.95 0 01-1.162 2.794 3.964 3.964 0 01-2.8 1.164z" fill="#E0E3EC"/><path d="M266.582 297.611H165.409a3.952 3.952 0 110-7.906h101.173a4.01 4.01 0 011.526.297c.478.203.914.493 1.285.856.371.365.663.802.856 1.285a3.882 3.882 0 010 3.03 3.854 3.854 0 01-.856 1.285 4.185 4.185 0 01-1.285.857 4.029 4.029 0 01-1.526.296z" fill="#E0E3EC"/><path opacity=".8" d="M138.276 299.555a13.982 13.982 0 0012.883-8.66 13.98 13.98 0 00-10.216-19.031 13.978 13.978 0 00-16.689 13.713 14.01 14.01 0 004.116 9.893 13.996 13.996 0 009.906 4.085z" fill="#E0E3EC"/><path d="M420.812 336.361H117.754c-6.022 0-10.904 4.882-10.904 10.903v44.822c0 6.022 4.882 10.904 10.904 10.904h303.058c6.022 0 10.904-4.882 10.904-10.904v-44.822c0-6.021-4.882-10.903-10.904-10.903z" fill="#F0F3FA"/><path d="M408.998 364.723H366.35c-2.932 0-5.315 2.811-5.315 6.259 0 3.448 2.383 6.248 5.315 6.248h42.648c2.942 0 5.314-2.8 5.314-6.248 0-3.448-2.372-6.259-5.314-6.259z" fill="#2C4251"/><path d="M378.659 366.513h-9.476a4.48 4.48 0 100 8.96h9.476a4.48 4.48 0 000-8.96z" fill="#EF757A"/><path d="M376.638 370.988a2.717 2.717 0 10-5.435-.001 2.717 2.717 0 005.435.001z" fill="#fff"/><path opacity=".8" d="M250.221 366.952h-84.813a3.953 3.953 0 01-3.996-3.953 3.972 3.972 0 013.975-3.953h84.812a3.968 3.968 0 012.8 1.164 3.943 3.943 0 010 5.589 3.995 3.995 0 01-2.778 1.153z" fill="#7197E1"/><path d="M266.582 380.304H165.409a3.956 3.956 0 01-2.796-1.157 3.956 3.956 0 010-5.591 3.956 3.956 0 012.796-1.157h101.173a3.93 3.93 0 012.811 1.152 4.011 4.011 0 011.164 2.8 3.816 3.816 0 01-.308 1.516c-.199.48-.49.916-.856 1.284a4.168 4.168 0 01-1.285.857 4.01 4.01 0 01-1.526.296z" fill="#8AA9E6"/><path opacity=".8" d="M138.276 382.248a13.982 13.982 0 0012.883-8.659 13.983 13.983 0 00-3.059-15.218 13.974 13.974 0 00-21.493 2.138 13.978 13.978 0 00-2.353 7.761 14.01 14.01 0 004.116 9.893 14 14 0 009.906 4.085z" fill="#7197E1"/><defs><linearGradient id="paint0_linear" x1="20.753" y1="397.379" x2="1001.57" y2="-223.551" gradientUnits="userSpaceOnUse"><stop stop-color="#EFF3FE" stop-opacity=".42"/><stop offset="1" stop-color="#E8EFFF"/></linearGradient></defs></svg>