<svg width="560" height="421" fill="none" xmlns="http://www.w3.org/2000/svg"><path d="M451.491 141.833C435.163 61.49 365.164.977 280 .977a174.871 174.871 0 00-155.175 94.278C54.825 102.238 0 161.609 0 233.882c0 76.863 62.994 139.714 140 139.714h303.333c64.158 0 116.666-52.398 116.666-116.392A115.098 115.098 0 00451.491 141.91v-.077z" fill="url(#paint0_linear)"/><path d="M91.071 371.795l372.576 1.878" stroke="#8CABE7" stroke-width="4" stroke-linecap="round"/><path d="M376.078 200.842h-26.902a4.491 4.491 0 00-4.491 4.48v35.829a4.49 4.49 0 004.491 4.48h26.902a4.48 4.48 0 004.48-4.48v-35.818a4.482 4.482 0 00-4.48-4.491zm-170.525 0H178.64a4.492 4.492 0 00-4.491 4.491v35.829a4.49 4.49 0 004.491 4.48h26.913a4.492 4.492 0 004.491-4.48v-35.829a4.489 4.489 0 00-4.491-4.491z" fill="#D20F16"/><path d="M345.256 152.627H209.473a4.492 4.492 0 00-4.491 4.48l-3.909 80.607a4.488 4.488 0 004.491 4.48h143.612a4.492 4.492 0 004.491-4.48l-3.898-80.607a4.474 4.474 0 00-1.327-3.176 4.494 4.494 0 00-3.186-1.304z" fill="#DBE8FF"/><path opacity=".05" d="M380.569 227.283h-206.42v9.388h206.42v-9.388z" fill="#000"/><path d="M398.511 236.671H156.196a22.42 22.42 0 00-15.853 6.548 22.415 22.415 0 00-6.58 15.841v89.567a22.415 22.415 0 0022.433 22.389h242.315a22.401 22.401 0 0015.854-6.549 22.419 22.419 0 006.579-15.84V259.06a22.414 22.414 0 00-13.855-20.692 22.42 22.42 0 00-8.578-1.697z" fill="#FCBDC1"/><path d="M367.107 317.333H187.611a4.408 4.408 0 01-1.768-.297 4.384 4.384 0 01-1.505-.955 4.56 4.56 0 01-1.021-1.472 4.601 4.601 0 01-.351-1.756c0-.6.119-1.194.351-1.746a4.585 4.585 0 011.021-1.483 4.514 4.514 0 013.273-1.251h179.496a4.51 4.51 0 013.272 1.251c.435.422.782.926 1.021 1.483.232.552.352 1.146.351 1.746 0 .603-.12 1.199-.351 1.756a4.529 4.529 0 01-1.021 1.472 4.39 4.39 0 01-1.504.955 4.414 4.414 0 01-1.768.297z" fill="#D20F16"/><path opacity=".1" d="M133.763 346.058h287.181v2.13a22.829 22.829 0 01-22.828 22.828H156.547a22.819 22.819 0 01-16.142-6.686 22.845 22.845 0 01-6.686-16.142v-2.13h.044z" fill="#D20F16"/><path d="M221.233 308.318h112.252a3.744 3.744 0 013.744 3.744l13.451 104.742a3.742 3.742 0 01-3.7 3.744H207.793a3.768 3.768 0 01-2.658-1.098 4.12 4.12 0 01-.812-1.208 3.599 3.599 0 01-.275-1.438l13.44-104.742a3.75 3.75 0 011.097-2.647 3.734 3.734 0 012.648-1.097z" fill="#EDF3FF"/><path opacity=".15" d="M169.032 236.671h216.654v25.683a18.667 18.667 0 01-18.667 18.667H187.688a18.668 18.668 0 01-18.667-18.667v-25.683h.011z" fill="#fff"/><path d="M408.009 250.473h-11.903a2.624 2.624 0 00-2.624 2.624v1.45a2.624 2.624 0 002.624 2.624h11.903a2.624 2.624 0 002.624-2.624v-1.45a2.624 2.624 0 00-2.624-2.624z" fill="#fff"/><path d="M408.009 260.509h-11.903a2.624 2.624 0 00-2.624 2.625v1.449a2.624 2.624 0 002.624 2.624h11.903a2.624 2.624 0 002.624-2.624v-1.449a2.624 2.624 0 00-2.624-2.625z" fill="#D20F16"/><path d="M200.469 403.957h152.627a3.295 3.295 0 013.294 3.294v2.438a10.902 10.902 0 01-10.903 10.903H208.232a10.902 10.902 0 01-10.903-10.903v-2.438a3.296 3.296 0 013.294-3.294h-.154z" fill="#DBE8FF"/><defs><linearGradient id="paint0_linear" x1="20.753" y1="397.709" x2="1001.56" y2="-223.22" gradientUnits="userSpaceOnUse"><stop stop-color="#EFF3FE" stop-opacity=".42"/><stop offset="1" stop-color="#E8EFFF"/></linearGradient></defs></svg>