<svg width="111" height="32" fill="none" xmlns="http://www.w3.org/2000/svg"><path d="M2.402 7.811V19.44h6.786l5.96-10.326h13.498c-2.512-4.915-7.61-8.27-13.498-8.27-5.355 0-10.05 2.769-12.746 6.968z" fill="#DB4437"/><path d="M2.402 7.811V19.44h6.786l5.96-10.326h13.498c-2.512-4.915-7.61-8.27-13.498-8.27-5.355 0-10.05 2.769-12.746 6.968z" fill="url(#paint0_linear)"/><path d="M2.402 7.811l6.804 11.646.147-.092-6.84-11.737a1.612 1.612 0 01-.11.183z" fill="#3E2723" fill-opacity=".15"/><path d="M14.433 31.12l6.676-6.676v-5.006H9.188L2.402 7.81A15.017 15.017 0 000 15.99c0 8.124 6.4 14.763 14.433 15.13z" fill="#0F9D58"/><path d="M14.433 31.12l6.676-6.676v-5.006H9.188L2.402 7.81A15.017 15.017 0 000 15.99c0 8.124 6.4 14.763 14.433 15.13z" fill="url(#paint1_linear)"/><path d="M14.25 31.121c.055 0 .128 0 .183.019l6.548-11.462-.147-.092L14.25 31.12z" fill="#263238" fill-opacity=".15"/><path d="M14.434 31.12l6.675-6.675V19.44l-6.675 11.68z" fill="#FFCD40"/><path d="M14.434 31.12l6.675-6.675V19.44l-6.675 11.68z" fill="url(#paint2_linear)"/><path d="M15.149 9.113l5.96 10.325-6.675 11.683c.238.018.476.018.715.018 8.363 0 15.148-6.786 15.148-15.148 0-2.476-.605-4.824-1.65-6.878H15.149z" fill="#FFCD40"/><path d="M15.149 9.113l5.96 10.325-6.675 11.683c.238.018.476.018.715.018 8.363 0 15.148-6.786 15.148-15.148 0-2.476-.605-4.824-1.65-6.878H15.149z" fill="url(#paint3_linear)"/><path d="M28.646 9.113H15.148v3.595l13.498-3.595z" fill="url(#paint4_radial)"/><path d="M2.402 7.81l6.786 11.628 3.081-1.78-9.867-9.847z" fill="url(#paint5_radial)"/><path d="M21.11 19.438l-3.063-1.779-3.613 13.461 6.675-11.682z" fill="url(#paint6_radial)"/><path d="M15.15 22.868a6.877 6.877 0 100-13.755 6.877 6.877 0 000 13.755z" fill="#F1F1F1"/><path d="M15.15 21.492a5.502 5.502 0 100-11.003 5.502 5.502 0 000 11.003z" fill="#4285F4"/><path d="M28.553 8.93H15.147a6.88 6.88 0 00-6.877 6.877v.165a6.88 6.88 0 016.877-6.877h13.479a.65.65 0 00-.073-.165z" fill="#3E2723" fill-opacity=".2"/><path d="M15.259 22.867h-.11a6.89 6.89 0 01-5.96-3.448L2.402 7.811c-.019.018-.037.055-.055.073l6.84 11.719a6.89 6.89 0 005.96 3.448c1.908 0 3.65-.789 4.897-2.054a6.882 6.882 0 01-4.713 1.87c-.037.019-.055 0-.073 0z" fill="#fff" fill-opacity=".1"/><path d="M17.55 22.446a.264.264 0 01.001 0zm.348-.146c.11-.037.202-.092.312-.147-.11.055-.201.11-.312.147zm-.675.257c.018 0 .037-.019.055-.019-.018 0-.037.019-.055.019zm3.884-3.118zm-2.767 2.658c.091-.036.165-.091.257-.146-.092.055-.184.091-.257.146z" fill="#fff" fill-opacity=".1"/><path opacity=".1" d="M22.008 16.542v-.111c.018.018.018.055 0 .11zm-1.965 4.456l.44-.44.073-.129a7.7 7.7 0 01-.513.569z" fill="#3E2723"/><path opacity=".1" d="M21.84 14.34a7.12 7.12 0 01.257 1.889 6.796 6.796 0 01-.66 2.916 6.97 6.97 0 00.77-3.154 6.88 6.88 0 00-6.877-6.878h-.092a6.895 6.895 0 016.602 5.227z" fill="#3E2723"/><path opacity=".1" d="M21.973 16.945c0-.037 0-.055.018-.093-.018.038-.018.075-.018.093zm-4.696 5.593c.092-.037.184-.055.257-.092-.073.037-.165.055-.257.092zm.383-.128c.073-.038.165-.056.239-.093a1.266 1.266 0 00-.239.092zm.918-.459c.037-.018.056-.037.093-.055a.398.398 0 01-.093.055zm-.368.203c.038-.019.075-.037.13-.074-.055.037-.092.055-.13.074zm-2.972.714h.019a7.695 7.695 0 001.962-.311 6.396 6.396 0 01-1.98.311z" fill="#3E2723"/><path d="M21.108 19.439a7.009 7.009 0 01-2.44 2.475c-.036.019-.054.037-.09.055-.092.055-.166.092-.258.147a1.145 1.145 0 00-.128.073c-.092.055-.202.092-.312.147a1.266 1.266 0 01-.238.092c-.037.018-.073.037-.11.037-.092.036-.165.055-.257.091-.018 0-.037.018-.055.018a6.37 6.37 0 01-1.962.312h.055a6.849 6.849 0 004.713-1.87c.183-.184.349-.385.514-.587l.568-.99z" fill="#fff" fill-opacity=".1"/><path opacity=".1" d="M21.108 19.439a7.009 7.009 0 01-2.44 2.475c-.036.019-.054.037-.09.055-.092.055-.166.092-.258.147a1.145 1.145 0 00-.128.073c-.092.055-.202.092-.312.147a1.266 1.266 0 01-.238.092c-.037.018-.073.037-.11.037-.092.036-.165.055-.257.091-.018 0-.037.018-.055.018a6.37 6.37 0 01-1.962.312h.055a6.849 6.849 0 004.713-1.87c.183-.184.349-.385.514-.587l.568-.99z" fill="#3E2723"/><path d="M21.843 14.34c-.019-.074-.037-.129-.055-.202.128.44.201.88.238 1.357v.037c.018.146.018.311.018.458 0 .147 0 .275-.018.422v.11c0 .11-.018.22-.037.33 0 .037 0 .055-.018.092a6.749 6.749 0 01-.862 2.476l-.568.99-.074.128-6.033 10.564h.201l6.548-11.462c.091-.166.183-.349.275-.532.421-.88.66-1.87.66-2.916a7.931 7.931 0 00-.275-1.853z" fill="#fff" fill-opacity=".2"/><path d="M15.148 1.007c8.345 0 15.094 6.73 15.149 15.057v-.092c0-8.344-6.786-15.13-15.149-15.13C6.786.842 0 7.628 0 15.991v.091C.055 7.756 6.804 1.007 15.148 1.007z" fill="#fff" fill-opacity=".2"/><path d="M15.148 30.974c8.345 0 15.094-6.73 15.149-15.057v.092c0 8.363-6.786 15.148-15.149 15.148C6.786 31.157 0 24.353 0 15.991v-.092c.055 8.326 6.804 15.075 15.148 15.075z" fill="#3E2723" fill-opacity=".15"/><path d="M15.148 31.139c8.367 0 15.149-6.782 15.149-15.148 0-8.367-6.782-15.149-15.149-15.149C6.782.842 0 7.624 0 15.991c0 8.366 6.782 15.148 15.148 15.148z" fill="url(#paint7_radial)"/><path d="M38.55 16.375c0-3.264 2.293-5.758 5.558-5.758 2.586 0 4.034 1.54 4.695 3.062l-1.816.862c-.477-1.247-1.54-2.017-2.971-2.017-1.724 0-3.356 1.54-3.356 3.925 0 2.292 1.632 3.924 3.356 3.924 1.54 0 2.586-.77 3.173-2.017l1.815.77c-.678 1.54-2.2 3.063-4.786 3.063-3.375-.055-5.667-2.55-5.667-5.814zm13.902-5.373l-.092 1.54h.092c.569-.953 1.926-1.815 3.448-1.815 2.788 0 4.126 1.815 4.126 4.511v6.62H58.01v-6.345c0-2.2-1.156-2.97-2.678-2.97-1.724 0-2.879 1.632-2.879 3.356v5.941h-2.017V6.124h2.017v4.878zm9.683 10.838V11.002h1.926v1.724h.092c.476-1.247 2.017-2.018 3.172-2.018.679 0 1.064.092 1.54.294l-.77 1.925a3.676 3.676 0 00-1.063-.183c-1.339 0-2.788 1.155-2.788 3.173v5.942h-2.109v-.019zm17.845-5.465c0 3.265-2.293 5.759-5.557 5.759-3.265 0-5.557-2.494-5.557-5.759 0-3.264 2.292-5.758 5.557-5.758 3.264 0 5.556 2.494 5.556 5.758zm-2.018 0c0-2.494-1.724-3.924-3.54-3.924-1.815 0-3.539 1.43-3.539 3.924 0 2.494 1.724 3.925 3.54 3.925 1.815 0 3.54-1.43 3.54-3.925zm3.631-5.373h1.926v1.54h.092c.568-1.063 2.017-1.815 3.356-1.815 1.724 0 2.88.77 3.448 2.109.77-1.247 2.109-2.11 3.74-2.11 2.587 0 3.834 1.816 3.834 4.512v6.62h-2.11v-6.345c0-2.2-.861-2.97-2.402-2.97-1.632 0-2.787 1.632-2.787 3.356v5.941h-2.018v-6.327c0-2.2-.861-2.97-2.402-2.97-1.632 0-2.788 1.632-2.788 3.356v5.941h-2.017V11.002h.128zm17.845 5.373c0-3.062 2.109-5.758 5.281-5.758 3.173 0 5.282 2.292 5.282 5.758v.385h-8.528c.092 2.293 1.724 3.54 3.448 3.54 1.156 0 2.403-.477 2.971-1.816l1.816.77c-.679 1.541-2.201 2.972-4.695 2.972-3.375-.092-5.575-2.586-5.575-5.85zm5.263-3.833c-1.54 0-2.677 1.064-3.063 2.586h6.236c-.092-.954-.862-2.586-3.173-2.586z" fill="#757575"/><defs><radialGradient id="paint4_radial" cx="0" cy="0" r="1" gradientUnits="userSpaceOnUse" gradientTransform="translate(14.493 9.097) scale(14.4749)"><stop stop-color="#3E2723" stop-opacity=".2"/><stop offset="1" stop-color="#3E2723" stop-opacity="0"/></radialGradient><radialGradient id="paint5_radial" cx="0" cy="0" r="1" gradientUnits="userSpaceOnUse" gradientTransform="translate(2.39 7.818) scale(13.4361)"><stop stop-color="#3E2723" stop-opacity=".2"/><stop offset="1" stop-color="#3E2723" stop-opacity="0"/></radialGradient><radialGradient id="paint6_radial" cx="0" cy="0" r="1" gradientUnits="userSpaceOnUse" gradientTransform="translate(15.123 16.016) scale(15.1278)"><stop stop-color="#263238" stop-opacity=".2"/><stop offset="1" stop-color="#263238" stop-opacity="0"/></radialGradient><radialGradient id="paint7_radial" cx="0" cy="0" r="1" gradientUnits="userSpaceOnUse" gradientTransform="translate(4.525 4.977) scale(30.4295)"><stop stop-color="#fff" stop-opacity=".1"/><stop offset="1" stop-color="#fff" stop-opacity="0"/></radialGradient><linearGradient id="paint0_linear" x1="4.562" y1="13.902" x2="13.6" y2="8.622" gradientUnits="userSpaceOnUse"><stop stop-color="#A52714" stop-opacity=".6"/><stop offset=".66" stop-color="#A52714" stop-opacity="0"/></linearGradient><linearGradient id="paint1_linear" x1="18.528" y1="26.389" x2="8.485" y2="20.507" gradientUnits="userSpaceOnUse"><stop stop-color="#055524" stop-opacity=".4"/><stop offset=".33" stop-color="#055524" stop-opacity="0"/></linearGradient><linearGradient id="paint2_linear" x1="14.123" y1="9.291" x2="16.652" y2="20.365" gradientUnits="userSpaceOnUse"><stop stop-color="#EA6100" stop-opacity=".3"/><stop offset=".66" stop-color="#EA6100" stop-opacity="0"/></linearGradient><linearGradient id="paint3_linear" x1="19.047" y1="8.166" x2="21.576" y2="19.241" gradientUnits="userSpaceOnUse"><stop stop-color="#EA6100" stop-opacity=".3"/><stop offset=".66" stop-color="#EA6100" stop-opacity="0"/></linearGradient></defs></svg>