<svg width="543" height="408" fill="none" xmlns="http://www.w3.org/2000/svg"><path d="M437.785 137.243C421.953 59.5 354.078.945 271.5.945a169.826 169.826 0 00-88.026 24.599 169.348 169.348 0 00-62.438 66.628C53.161 98.929 0 156.378 0 226.312c0 74.375 61.082 135.193 135.75 135.193h294.125c62.21 0 113.124-50.703 113.124-112.625a111.246 111.246 0 00-30.331-76.703 111.7 111.7 0 00-74.883-34.86v-.074z" fill="url(#paint0_linear)"/><path d="M88.305 359.762l361.265 1.817" stroke="#8CABE7" stroke-width="4" stroke-linecap="round"/><path d="M364.663 194.342h-26.086a4.356 4.356 0 00-3.075 1.269 4.335 4.335 0 00-1.279 3.066v34.669a4.335 4.335 0 001.279 3.066 4.356 4.356 0 003.075 1.269h26.086a4.346 4.346 0 003.071-1.27 4.327 4.327 0 001.273-3.065v-34.659a4.328 4.328 0 00-1.269-3.072 4.35 4.35 0 00-3.075-1.273zm-165.349 0h-26.096a4.358 4.358 0 00-3.079 1.273 4.34 4.34 0 00-1.276 3.072v34.67a4.345 4.345 0 001.279 3.066 4.365 4.365 0 003.076 1.269h26.096a4.36 4.36 0 003.075-1.269 4.337 4.337 0 001.279-3.066v-34.67a4.338 4.338 0 00-1.275-3.072 4.36 4.36 0 00-3.079-1.273z" fill="#D20F16"/><path d="M334.775 147.688H203.114a4.36 4.36 0 00-3.076 1.269 4.342 4.342 0 00-1.279 3.066l-3.79 77.998a4.345 4.345 0 001.279 3.066 4.36 4.36 0 003.075 1.269h139.253a4.365 4.365 0 003.076-1.269 4.345 4.345 0 001.279-3.066l-3.78-77.998a4.326 4.326 0 00-.337-1.665 4.352 4.352 0 00-4.039-2.67z" fill="#DBE8FF"/><path opacity=".05" d="M369.017 219.927H168.863v9.084h200.154v-9.084z" fill="#000"/><path d="M386.414 229.011H151.455a21.763 21.763 0 00-15.372 6.336 21.661 21.661 0 00-6.38 15.328v86.668a21.661 21.661 0 006.38 15.328 21.731 21.731 0 007.054 4.694 21.792 21.792 0 008.318 1.643h234.959c2.854.002 5.68-.556 8.318-1.643a21.731 21.731 0 007.054-4.694 21.661 21.661 0 006.38-15.328v-86.668a21.661 21.661 0 00-6.38-15.328 21.763 21.763 0 00-15.372-6.336z" fill="#FCBDC1"/><path d="M355.961 307.062H181.914a4.268 4.268 0 01-1.714-.287 4.256 4.256 0 01-1.459-.924 4.414 4.414 0 01-.99-1.424 4.451 4.451 0 01-.341-1.7c0-.58.116-1.155.341-1.689a4.433 4.433 0 01.99-1.435 4.371 4.371 0 013.173-1.211h174.047a4.371 4.371 0 013.173 1.211c.422.408.758.896.99 1.435.225.534.341 1.109.341 1.689a4.451 4.451 0 01-.341 1.7 4.414 4.414 0 01-.99 1.424 4.256 4.256 0 01-1.459.924 4.268 4.268 0 01-1.714.287z" fill="#D20F16"/><path opacity=".1" d="M129.703 334.857h278.463v2.062a22.059 22.059 0 01-6.484 15.619 22.131 22.131 0 01-7.181 4.789 22.175 22.175 0 01-8.471 1.681H151.795a22.146 22.146 0 01-15.652-6.47 22.059 22.059 0 01-6.483-15.619v-2.062h.043z" fill="#D20F16"/><path d="M214.519 298.339h108.844a3.624 3.624 0 013.631 3.623l13.043 101.352a3.62 3.62 0 01-1.049 2.547 3.632 3.632 0 01-2.539 1.076H201.487a3.656 3.656 0 01-2.577-1.062 3.993 3.993 0 01-.788-1.169 3.48 3.48 0 01-.266-1.392l13.032-101.352a3.628 3.628 0 011.063-2.562 3.64 3.64 0 012.568-1.061z" fill="#EDF3FF"/><path opacity=".15" d="M163.901 229.011h210.077v24.852c0 4.79-1.907 9.384-5.301 12.772a18.121 18.121 0 01-12.799 5.29H181.991a18.12 18.12 0 01-12.799-5.29 18.047 18.047 0 01-5.301-12.772v-24.852h.01z" fill="#fff"/><path d="M395.621 242.366H384.08a2.542 2.542 0 00-2.545 2.54v1.402a2.542 2.542 0 002.545 2.54h11.541a2.542 2.542 0 002.545-2.54v-1.402a2.542 2.542 0 00-2.545-2.54z" fill="#fff"/><path d="M395.621 252.078H384.08a2.542 2.542 0 00-2.545 2.539v1.403a2.542 2.542 0 002.545 2.539h11.541a2.542 2.542 0 002.545-2.539v-1.403a2.542 2.542 0 00-2.545-2.539z" fill="#D20F16"/><path d="M194.385 390.883h147.994c.847 0 1.659.336 2.258.933.599.598.936 1.409.936 2.254v2.359c0 2.798-1.114 5.482-3.097 7.46A10.582 10.582 0 01335 406.98H201.912a10.584 10.584 0 01-7.476-3.091 10.54 10.54 0 01-3.096-7.46v-2.359a3.185 3.185 0 013.194-3.187h-.149z" fill="#DBE8FF"/><path d="M24.74 69.797c6.185 3.771 14.258 1.833 18.031-4.33 3.773-6.163 1.817-14.216-4.368-17.987-6.186-3.771-14.258-1.833-18.032 4.33-3.773 6.162-1.817 14.216 4.369 17.987zm84.433-33.214c6.186 3.771 14.259 1.833 18.032-4.33 3.773-6.163 1.817-14.216-4.369-17.987-6.185-3.771-14.258-1.833-18.031 4.33-3.773 6.163-1.817 14.216 4.368 17.987zM74.82 84.18c10.367 6.32 23.896 3.072 30.22-7.256 6.323-10.328 3.045-23.825-7.321-30.145s-23.896-3.072-30.22 7.257C61.178 64.364 64.455 77.86 74.82 84.18z" fill="#F7F9FF"/><defs><linearGradient id="paint0_linear" x1="20.123" y1="384.837" x2="970.031" y2="-217.776" gradientUnits="userSpaceOnUse"><stop stop-color="#EFF3FE" stop-opacity=".42"/><stop offset="1" stop-color="#E8EFFF"/></linearGradient></defs></svg>