<svg width="1440" height="1535" fill="none" xmlns="http://www.w3.org/2000/svg"><path fill-rule="evenodd" clip-rule="evenodd" d="M311.778-620.919C928.911-723.166 1261.98-429.873 1488.06-270.694c0 0 119.46 400.706 345.7 329.381 260.01-61.952 241.05 368.894 551.49 327.921 117.04 43.568 65.82 516.525 169.45 562.415-456.02 78.937-905.86 295.787-1309.2 359.227-80.48 13.93-174.1 17.35-243.11 16.53-241.984-15.5-440.271-155.11-668.282-115.64-120.712 20.89-257.898 110.04-321.063 146.5-112.918 70.61-185.599 134.26-330.214 178.44-93.139-66.86 87.34-1345.808 54.443-1467.77C-123.53-99.425-53.28-576.874 311.778-620.92z" fill="url(#paint0_linear)"/><defs><linearGradient id="paint0_linear" x1="336.5" y1="1719.5" x2="1165.64" y2="-925.757" gradientUnits="userSpaceOnUse"><stop stop-color="#F5F8FF"/><stop offset="1" stop-color="#F5F8FF" stop-opacity="0"/></linearGradient></defs></svg>