<svg width="882" height="1305" fill="none" xmlns="http://www.w3.org/2000/svg"><path fill-rule="evenodd" clip-rule="evenodd" d="M59.798 659.28c55.815 80.721 204.534 102.138 318.072 129.39 92.293 24.193 251.292 30.736 328.353 114.516 85.362 86.793 123.282 212.184 216.638 343.734 75.692 18.17 150.389 45.28 222.429 57.47-124.27-203.24-19.89-454.604-134.19-630.966-21.928-35.865-18.471-62.88-46.036-86.837-98.307-86.84 41.946-155.992-20.192-257.611-32.895-53.798-11.017-94.914-10.711-136.662 4.266-77.52-5.006-117.474-31.276-192.123C820.567 2.874 143.584 94.42 79.525 228.87 18.112 289.745-52.823 506.782 59.799 659.28z" fill="url(#paint0_linear)"/><defs><linearGradient id="paint0_linear" x1="284.006" y1="-.874" x2="-8.478" y2="656.564" gradientUnits="userSpaceOnUse"><stop stop-color="#F5F8FF" stop-opacity=".5"/><stop offset="1" stop-color="#F5F8FF" stop-opacity=".79"/></linearGradient></defs></svg>