<svg width="778" height="1412" fill="none" xmlns="http://www.w3.org/2000/svg"><path fill-rule="evenodd" clip-rule="evenodd" d="M16.037 555.665c32.285 90.067 188.307 142.416 303.479 192.944 92.884 43.049 265.603 83.172 320.176 180.717 62.625 102.224 59.058 231.764 114.307 379.064 76.781 33.68 149.24 75.82 224.158 102.94-63.381-223.31 107.373-539.837 45.263-734.994-11.18-39.408-30.418-83.499-52.112-112.567-76.862-105.024 40.772-165.242 9.081-276.9-16.777-59.112-75.574-117.675-60.147-158.059 32.717-74.2-12.583-45.84-14.528-123.747C814.1-9.828 361.339 2.295 193.336 142.846 123.749 190.688-52.855 383.984 16.037 555.665z" fill="url(#paint0_linear)"/><defs><linearGradient id="paint0_linear" x1="921.103" y1="1257.82" x2="504.023" y2="-128.503" gradientUnits="userSpaceOnUse"><stop stop-color="#F5F8FF" stop-opacity=".21"/><stop offset="1" stop-color="#F5F8FF" stop-opacity=".75"/></linearGradient></defs></svg>