<svg width="196" height="38" fill="none" xmlns="http://www.w3.org/2000/svg"><path d="M46.125 11.482V3.518h1.252v6.913h3.792v1.05h-5.044zm6.887-6.734c-.388 0-.726-.298-.726-.68 0-.383.338-.693.726-.693.4 0 .726.31.726.692 0 .383-.325.681-.726.681zm-.55 6.734V5.715h1.126v5.767H52.46zm2.33-.752l.539-.788c.413.43 1.214.823 2.027.823.851 0 1.302-.334 1.302-.823 0-.574-.688-.765-1.464-.932-1.026-.227-2.228-.49-2.228-1.73 0-.92.826-1.708 2.303-1.708 1.039 0 1.79.358 2.303.824l-.501.752c-.35-.406-1.026-.705-1.79-.705-.763 0-1.239.287-1.239.753 0 .501.651.668 1.402.835 1.051.227 2.303.502 2.303 1.827 0 .991-.851 1.767-2.44 1.767-1.014 0-1.903-.299-2.516-.895zm7.99.895c-.952 0-1.44-.513-1.44-1.42V6.657H60.34v-.943h1V4.14h1.127v1.576h1.227v.943h-1.227v3.307c0 .406.2.705.588.705.263 0 .501-.108.614-.227l.288.812c-.238.215-.589.37-1.177.37zm1.73-3.033c0-1.671 1.264-3.02 3.028-3.02 1.815 0 2.942 1.349 2.942 3.116v.263H65.7c.087.979.838 1.79 2.052 1.79.639 0 1.34-.238 1.79-.68l.526.704c-.601.561-1.452.86-2.428.86-1.803 0-3.13-1.218-3.13-3.033zm3.028-2.137c-1.213 0-1.79.932-1.852 1.72h3.692c-.025-.765-.563-1.72-1.84-1.72zm8.377 5.027v-3.69c0-.955-.513-1.265-1.29-1.265-.7 0-1.338.406-1.664.836v4.119h-1.126V5.715h1.126v.812c.4-.466 1.202-.955 2.14-.955 1.277 0 1.94.645 1.94 1.862v4.048h-1.126zm8.705.143c-1.877 0-3.053-1.361-3.053-3.033 0-1.66 1.176-3.02 3.053-3.02 1.89 0 3.054 1.36 3.054 3.02 0 1.672-1.164 3.033-3.054 3.033zm0-.955c1.214 0 1.877-.98 1.877-2.078 0-1.086-.663-2.065-1.877-2.065-1.201 0-1.877.979-1.877 2.065 0 1.099.676 2.078 1.877 2.078zm8.502.812v-3.69c0-.955-.513-1.265-1.29-1.265-.7 0-1.339.406-1.664.836v4.119h-1.126V5.715h1.126v.812c.4-.466 1.201-.955 2.14-.955 1.277 0 1.94.645 1.94 1.862v4.048h-1.126z" fill="#000"/><path fill-rule="evenodd" clip-rule="evenodd" d="M15.79 11.563v12.5h4.296V11.562h-4.297z" fill="#FAB908"/><path d="M2.898 18.79a2.148 2.148 0 100-4.298 2.148 2.148 0 000 4.297z" fill="#0066D9"/><path d="M2.898 21.133a2.148 2.148 0 100-4.297 2.148 2.148 0 000 4.297z" fill="#0066D9"/><path d="M5.047 16.64H.75v2.344h4.297v-2.343z" fill="#0066D9"/><path d="M32.977 21.133a2.148 2.148 0 100-4.297 2.148 2.148 0 000 4.297z" fill="#4285F4"/><path d="M32.977 18.79a2.148 2.148 0 100-4.298 2.148 2.148 0 000 4.297z" fill="#4285F4"/><path d="M30.828 18.984h4.297v-2.343h-4.297v2.343z" fill="#4285F4"/><path d="M10.32 25.82a2.148 2.148 0 100-4.297 2.148 2.148 0 000 4.297z" fill="#EA4335"/><path d="M10.32 28.164a2.148 2.148 0 100-4.297 2.148 2.148 0 000 4.297z" fill="#EA4335"/><path d="M12.469 23.672H8.172v2.344h4.297v-2.344zM10.32 11.758a2.148 2.148 0 100-4.297 2.148 2.148 0 000 4.297zm0 7.617a2.148 2.148 0 100-4.297 2.148 2.148 0 000 4.297z" fill="#EA4335"/><path d="M12.469 9.61H8.172v7.665h4.297V9.61z" fill="#EA4335"/><path d="M25.555 14.102a2.148 2.148 0 100-4.297 2.148 2.148 0 000 4.297z" fill="#34A853"/><path d="M25.555 11.758a2.148 2.148 0 100-4.297 2.148 2.148 0 000 4.297z" fill="#34A853"/><path d="M23.406 11.953h4.297V9.61h-4.297v2.344z" fill="#34A853"/><path d="M17.938 7.266a2.148 2.148 0 100-4.297 2.148 2.148 0 000 4.297z" fill="#FAB908"/><path d="M17.938 4.922a2.148 2.148 0 100-4.297 2.148 2.148 0 000 4.297z" fill="#FAB908"/><path d="M15.79 5.117h4.296V2.773h-4.297v2.344zM17.938 35a2.148 2.148 0 100-4.297 2.148 2.148 0 000 4.297z" fill="#FAB908"/><path d="M17.938 32.656a2.148 2.148 0 100-4.297 2.148 2.148 0 000 4.297z" fill="#FAB908"/><path d="M15.79 32.852h4.296v-2.344h-4.297v2.344z" fill="#FAB908"/><path d="M25.555 28.164a2.148 2.148 0 100-4.297 2.148 2.148 0 000 4.297zm0-7.617a2.148 2.148 0 100-4.297 2.148 2.148 0 000 4.297z" fill="#34A853"/><path d="M23.406 26.016h4.297v-7.618h-4.297v7.618z" fill="#34A853"/><path d="M17.938 13.71a2.148 2.148 0 100-4.296 2.148 2.148 0 000 4.297zm0 12.5a2.148 2.148 0 100-4.296 2.148 2.148 0 000 4.297z" fill="#FAB908"/><path d="M52.344 33.867c3.938 0 6.264-2.346 6.264-6.284v-1.48h-5.982v1.822h3.756v.252c-.03 2.206-1.661 3.716-4.018 3.716-2.77 0-4.491-2.145-4.491-5.62 0-3.413 1.671-5.448 4.45-5.448 1.894 0 3.314 1.038 3.858 2.84h2.316c-.503-2.9-2.95-4.813-6.183-4.813-4.14 0-6.748 2.86-6.748 7.442 0 4.663 2.619 7.573 6.778 7.573zm12.76-.04c3.031 0 5.025-2.085 5.025-5.499 0-3.404-2.004-5.488-5.025-5.488-3.021 0-5.026 2.084-5.026 5.488 0 3.414 1.994 5.499 5.026 5.499zm0-1.793c-1.702 0-2.81-1.35-2.81-3.706 0-2.346 1.108-3.696 2.81-3.696s2.81 1.35 2.81 3.696c0 2.357-1.098 3.706-2.81 3.706zm11.259 1.793c3.031 0 5.025-2.085 5.025-5.499 0-3.404-2.004-5.488-5.025-5.488-3.021 0-5.025 2.084-5.025 5.488 0 3.414 1.994 5.499 5.025 5.499zm0-1.793c-1.702 0-2.81-1.35-2.81-3.706 0-2.346 1.108-3.696 2.81-3.696s2.81 1.35 2.81 3.696c0 2.357-1.098 3.706-2.81 3.706zm11.239 5.58c3.021 0 4.975-1.652 4.975-4.18V23.031h-2.115v1.813h-.04c-.645-1.229-1.873-1.984-3.374-1.984-2.72 0-4.451 2.095-4.451 5.428 0 3.303 1.742 5.378 4.4 5.378 1.511 0 2.76-.756 3.354-1.904h.04v1.743c0 1.45-1.007 2.417-2.709 2.417-1.238 0-2.205-.584-2.517-1.47h-2.186c.272 1.832 2.125 3.162 4.623 3.162zm-.02-5.751c-1.672 0-2.76-1.35-2.76-3.565 0-2.205 1.088-3.605 2.76-3.605 1.702 0 2.82 1.43 2.82 3.605 0 2.185-1.118 3.565-2.82 3.565zm9.396 1.762V19.093h-2.175v14.532h2.175zm6.757.202c2.427 0 4.26-1.38 4.562-3.313h-2.064c-.292.926-1.209 1.55-2.447 1.55-1.743 0-2.85-1.218-2.85-3.061v-.131h7.482v-.745c0-3.213-1.833-5.287-4.773-5.287-2.991 0-4.905 2.215-4.905 5.538 0 3.344 1.883 5.449 4.995 5.449zm2.508-6.476h-5.297c.111-1.6 1.178-2.76 2.699-2.76 1.52 0 2.548 1.139 2.598 2.76zm10.554 6.274V28.66h3.122c2.85 0 4.854-1.953 4.854-4.793 0-2.83-1.964-4.774-4.783-4.774h-5.449v14.532h2.256zm2.588-6.858h-2.588v-5.77h2.598c1.954 0 3.072 1.047 3.072 2.88s-1.118 2.89-3.082 2.89zm11.652 7.06c3.032 0 5.026-2.085 5.026-5.499 0-3.404-2.004-5.488-5.026-5.488-3.021 0-5.025 2.084-5.025 5.488 0 3.414 1.994 5.499 5.025 5.499zm0-1.793c-1.702 0-2.809-1.35-2.809-3.706 0-2.346 1.107-3.696 2.809-3.696 1.702 0 2.81 1.35 2.81 3.696 0 2.357-1.098 3.706-2.81 3.706zm10.685 1.773c1.541 0 2.75-.776 3.374-1.984h.04v1.802h2.115V19.093h-2.185v5.7h-.04c-.595-1.168-1.803-1.933-3.324-1.933-2.658 0-4.431 2.125-4.431 5.468 0 3.344 1.773 5.479 4.451 5.479zm.574-1.843c-1.722 0-2.799-1.4-2.799-3.636 0-2.226 1.077-3.635 2.799-3.635 1.672 0 2.79 1.44 2.79 3.635 0 2.216-1.118 3.636-2.79 3.636zm11.713 1.863c2.548 0 4.35-1.53 4.582-3.787h-2.095c-.251 1.229-1.128 1.964-2.467 1.964-1.692 0-2.81-1.35-2.81-3.676 0-2.276 1.108-3.676 2.79-3.676 1.42 0 2.266.897 2.487 2.025h2.075c-.191-2.085-1.853-3.837-4.582-3.837-3.012 0-4.985 2.125-4.985 5.488 0 3.424 1.973 5.499 5.005 5.499zm9.225-.02c1.389 0 2.729-.745 3.343-1.924h.051v1.742h2.084v-7.3c0-2.126-1.641-3.485-4.209-3.485-2.619 0-4.25 1.41-4.371 3.323h2.054c.192-.947.977-1.55 2.236-1.55 1.329 0 2.125.704 2.125 1.882v.816l-2.9.171c-2.518.141-3.938 1.28-3.938 3.132 0 1.904 1.45 3.193 3.525 3.193zm.604-1.722c-1.168 0-1.934-.605-1.934-1.531 0-.906.735-1.48 2.035-1.571l2.608-.161v.835c0 1.38-1.188 2.428-2.709 2.428zm10.957 1.742c2.497 0 4.3-1.33 4.3-3.263 0-1.53-.826-2.377-2.991-2.88l-1.722-.393c-1.148-.262-1.631-.715-1.631-1.38 0-.846.785-1.42 1.963-1.42 1.219 0 1.974.645 2.095 1.672h2.044c-.07-1.954-1.671-3.323-4.139-3.323-2.437 0-4.088 1.299-4.088 3.192 0 1.54.997 2.508 3.011 2.97l1.722.404c1.158.262 1.551.664 1.551 1.35 0 .865-.806 1.41-2.115 1.41-1.329 0-2.085-.545-2.286-1.652h-2.155c.201 2.014 1.792 3.313 4.441 3.313zm9.597-.131c.484 0 .967-.04 1.209-.1v-1.723c-.141.03-.494.05-.715.05-.886 0-1.289-.412-1.289-1.329v-5.84h2.014V23.03h-2.014v-2.508h-2.186v2.508h-1.54v1.722h1.54v6.083c0 2.044.836 2.86 2.981 2.86zm6.979.13c2.498 0 4.301-1.328 4.301-3.262 0-1.53-.826-2.377-2.991-2.88l-1.722-.393c-1.149-.262-1.632-.715-1.632-1.38 0-.846.786-1.42 1.964-1.42 1.218 0 1.974.645 2.095 1.672h2.044c-.071-1.954-1.672-3.323-4.139-3.323-2.437 0-4.089 1.299-4.089 3.192 0 1.54.997 2.508 3.011 2.97l1.722.404c1.159.262 1.551.664 1.551 1.35 0 .865-.805 1.41-2.115 1.41-1.329 0-2.084-.545-2.286-1.652h-2.155c.202 2.014 1.793 3.313 4.441 3.313z" fill="#000"/></svg>