<svg width="1440" height="844" fill="none" xmlns="http://www.w3.org/2000/svg"><path fill-rule="evenodd" clip-rule="evenodd" d="M247.104-1296.34c619.391-87.53 945.386 213.61 1167.616 378.124 0 0 109.89 403.435 337.76 337.515 261.41-55.746 232.21 374.526 543.53 340.954 115.97 46.341 53.51 517.945 156.02 566.288-457.78 68.064-912.64 274.147-1317.39 327.969-80.78 12.011-174.454 13.2-243.426 10.738C649.666 643.991 454.758 499.7 225.872 533.732 104.697 551.749-34.571 637.603-98.587 672.555c-114.566 67.902-188.741 129.798-334.366 170.526-91.522-69.052 119.344-1343.347 89.359-1466.057C-200.493-785.351-118.9-1260.99 247.104-1296.34z" fill="url(#paint0_linear)"/><defs><linearGradient id="paint0_linear" x1="586.544" y1="670.873" x2="530.05" y2="-48.408" gradientUnits="userSpaceOnUse"><stop stop-color="#F5F8FF"/><stop offset="1" stop-color="#F5F8FF" stop-opacity="0"/></linearGradient></defs></svg>