<svg width="1440" height="965" fill="none" xmlns="http://www.w3.org/2000/svg"><path fill-rule="evenodd" clip-rule="evenodd" d="M338.87-1184.08c618.093-96.27 948.31 200.229 1172.84 361.586 0 0 115.58 401.843 342.5 332.709 260.59-59.435 237.48 371.207 548.29 333.238 116.62 44.698 60.83 517.137 164.01 564.027-456.77 74.527-908.68 287.018-1312.62 346.553-80.61 13.152-174.25 15.664-243.25 14.178C768.812 750.37 571.885 608.847 343.503 646.11 222.594 665.838 84.553 753.651 21.038 789.504-92.558 859.019-165.85 921.957-310.885 964.738c-92.489-67.751 100.348-1344.898 68.632-1467.173C-101.461-666.816-26.598-1143.56 338.87-1184.08z" fill="url(#paint0_linear)"/><defs><linearGradient id="paint0_linear" x1="1348.84" y1="748.485" x2="47.339" y2="166.383" gradientUnits="userSpaceOnUse"><stop stop-color="#F5F8FF"/><stop offset="1" stop-color="#F5F8FF" stop-opacity=".47"/></linearGradient></defs></svg>