<svg width="1440" height="908" fill="none" xmlns="http://www.w3.org/2000/svg"><path fill-rule="evenodd" clip-rule="evenodd" d="M1164.17 5.113c-159.06-29.714-352.731 84.129-513.544 160.175-133.145 59.783-320.768 197.794-507.5 184.344-199.701-8.908-791.988-117.267-1053.927-163.518-107.209 50.698-67.636 229.118 38.624 344.077 382.099 89.592 794.993 110.563 1147.048 124.144 67.429 15.811 239.939 25.118 299.591 23.938 214.4-2.813 398.579-225.05 589.628-180.253 101.14 23.715 210.05 163.003 259.32 204.889 87.3 81.138 140.89 154.371 259.32 204.89 89.92-77.501 88.22-267.486 134.07-408.406-184.99-119.209-344-444.667-652.63-494.28z" fill="url(#paint0_linear)"/><defs><linearGradient id="paint0_linear" x1="447.581" y1="762.081" x2="616.637" y2="-144.319" gradientUnits="userSpaceOnUse"><stop stop-color="#F5F8FF" stop-opacity="0"/><stop offset="1" stop-color="#F5F8FF"/></linearGradient></defs></svg>