<svg width="545" height="403" fill="none" xmlns="http://www.w3.org/2000/svg"><g clip-path="url(#clip0)"><path opacity=".9" d="M230.743 45.324c45.968 15.25 116.041-2.596 158.378-27.175 83.67-48.753 180.396 12.168 143.931 108.052-36.93 97.101 10.198 114.947 11.434 171.812 1.468 68.79-110.092 87.448-150.266 90.287-88.847 6.327-158.069-.243-247.147-3.001-32.989-1.055-114.032-12.736-130.643-26.202-16.765-14.359-20.782-38.532-9.734-56.541 18.619-30.096 52.612-37.559 65.746-69.763 21.941-41.858-40.174-87.286-11.82-139.77 31.057-57.109 94.949-72.684 170.121-47.699z" fill="url(#paint0_linear)" fill-opacity=".5"/><path d="M279.951 79.26c0-10.238-3.008-20.313-8.7-28.845-5.691-8.53-13.821-15.112-23.334-19.093-9.512-3.82-20-4.957-30.082-2.925-10.081 2.03-19.35 6.987-26.505 14.3-29.269-9.182-59.432 9.18-65.936 38.35-16.098 4.956-27.806 19.987-27.806 37.05 0 21.45 17.968 39 39.513 39h143.012c21.464 0 39.514-17.469 39.514-39 0-21.532-18.294-38.838-39.676-38.838z" fill="#fff" stroke="#DCE8F7" stroke-miterlimit="10"/><path d="M229.137 398.653c87.888 0 159.11-8.206 159.11-18.363 0-10.237-71.222-18.362-159.11-18.362-87.889 0-159.11 8.206-159.11 18.362 0 10.157 71.221 18.363 159.11 18.363zm155.289-227.338H223.689v52.894h160.574v-52.894h.163zM223.689 347.953c0 4.225 3.496 7.8 7.805 7.8h144.882c4.228 0 7.806-3.494 7.806-7.8V241.678H223.527v106.356h.162v-.081z" fill="#DCE8F7"/><path d="M223.689 172.534h92.523v32.663c0 3.493-2.764 6.337-6.341 6.337h-86.182v-39z" fill="#A6BBDE"/><path d="M384.426 125.247H223.689v44.037h160.574v-44.037h.163z" fill="#DCE8F7"/><path d="M376.376 97.947H268.487v5.931h35.529v9.181H223.77v9.588h160.574v-16.738c.081-4.469-3.821-7.962-7.968-7.962zm14.31 200.85h-.488c-3.252 0-5.935-2.682-5.935-5.932v-96.931c0-3.25 2.683-5.931 5.935-5.931h.488c3.252 0 5.935 2.681 5.935 5.931v96.931c.163 3.169-2.602 5.932-5.935 5.932z" fill="#A6BBDE"/><path d="M391.906 194.959c-.732-1.462-.244-3.006.975-3.494l47.319-24.456c1.219-.731 2.764-.244 3.252 1.219v.244c.731 1.218.244 2.762-1.22 3.25l-47.318 24.456c-.895.487-2.602 0-3.008-1.219z" fill="#A6BBDE"/><path d="M308.326 268.003h-50.408c-.976 0-1.464-.731-1.464-1.463v-.243c0-.975.732-1.463 1.464-1.463h50.408c.975 0 1.463.731 1.463 1.463v.243c-.162.732-.732 1.463-1.463 1.463zm0 16.494h-50.408c-.976 0-1.464-.732-1.464-1.463v-.244c0-.975.732-1.462 1.464-1.462h50.408c.975 0 1.463.731 1.463 1.462v.244c-.162.731-.732 1.463-1.463 1.463zm0 16.493h-50.408c-.976 0-1.464-.731-1.464-1.462v-.244c0-.975.732-1.462 1.464-1.462h50.408c.975 0 1.463.731 1.463 1.462v.244c-.162.731-.732 1.462-1.463 1.462zm0 16.413h-50.408c-.976 0-1.464-.731-1.464-1.463v-.243c0-.975.732-1.463 1.464-1.463h50.408c.975 0 1.463.731 1.463 1.463v.243c-.162.813-.732 1.463-1.463 1.463z" fill="#fff"/><path d="M384.426 226.647H223.689v13h160.574v-13h.163z" fill="#DCE8F7"/><path d="M339.14 241.678v106.356c0 4.225 2.439 7.8 5.203 7.8h35.042c2.764 0 5.203-3.494 5.203-7.8V241.678H339.14z" fill="#A6BBDE"/><path d="M375.157 117.447h-10.163c-1.463 0-2.439-.975-2.439-2.438v-.244c0-1.462.976-2.437 2.439-2.437h10.082c1.463 0 2.439.975 2.439 2.437v.244c.244 1.219-.895 2.438-2.358 2.438z" fill="#F4C1C3"/><path d="M357.921 117.447h-10.082c-1.463 0-2.439-.975-2.439-2.438v-.244c0-1.462.976-2.437 2.439-2.437h10.082c1.464 0 2.439.975 2.439 2.437v.244c0 1.219-1.219 2.438-2.439 2.438z" fill="#fff"/><path d="M380.523 361.847H227.348c-1.708 0-3.008-1.463-3.008-3.007v-.243c0-1.707 1.463-3.007 3.008-3.007h153.175c1.707 0 3.008 1.463 3.008 3.007v.243c.163 1.625-1.301 3.007-3.008 3.007z" fill="#A6BBDE"/><path d="M157.265 311.309c.487 2.031 1.219 4.225 3.008 5.281 2.439 1.3 5.284 0 7.561-1.462 7.968-4.55 16.098-9.588 20.814-17.469 4.553-7.962 3.983-19.744-3.822-24.537-4.553 4.55-6.585 9.587-10.081 15.193-6.261-12.512-8.293-27.056-5.773-40.787.488-3.006 1.301-6.094.488-9.019s-3.984-5.444-6.829-4.306c-1.464.569-3.984 14.462-4.553 16.494-1.708 6.337-2.765 13-3.496 19.581-1.383 13.812-.57 27.706 2.683 41.031zm144.557 66.381c1.707 1.95 3.333 3.819 5.691 5.038 2.683 1.462 5.935 1.462 8.943 1.544 10.082.243 20.326.487 30.489.731.732 0 1.707 0 2.195-.569.569-.731.244-1.787-.325-2.275-.732-.569-1.545-.731-2.439-.975-6.586-1.3-13.09-2.519-19.757-3.819-6.829-1.3-14.065-2.762-19.594-7.068-4.065-3.088-7.073-7.557-9.756-12.025-9.025-15.194-21.22-44.769-29.757-60.125-1.301-2.519-15.773 10.318-15.204 12.756 3.09 11.862 40.896 56.712 49.514 66.787z" fill="#C1826A"/><path d="M176.94 283.847c-.325 1.787 5.935 6.012 7.317 6.825 2.521 1.462 5.041 2.925 7.562 4.306 1.544.975 3.496 1.787 5.284 1.219 1.545-.569 2.521-2.194 3.252-3.738 2.683-5.281 18.05-32.256 6.098-33.069-11.707-.893-27.236 13.894-29.513 24.457z" fill="#FBBD20"/><path d="M190.843 374.928c-1.301-3.819 34.554-34.369 31.302-36.888-30.57-3.493-83.173-9.831-110.166-12.756-5.204-.569-10.488-.812-15.285 1.219-4.797 1.95-8.537 6.744-8.05 11.944 1.546 17.468 52.604 33.231 69.19 48.75 3.821 3.493 8.049 7.312 13.252 7.556 6.748.325 12.033-5.525 16.261-10.725 4.634-5.85 5.772-2.113 3.496-9.1z" fill="#87A4D4"/><path d="M188.485 286.04c-1.708 7.719 1.951 22.832 2.439 30.632.488 7.8-8.618 13.487-14.716 18.525 25.61 1.95 45.286-3.332 65.205 6.175-4.797-16.575 10.488-32.5 11.464-49.644.325-6.825 2.195-32.094.081-33.8-4.065-3.331-15.204-4.794-19.025-4.469-7.073.569-14.553 1.3-21.545 2.519-13.415 2.437-22.684 25.025-23.903 30.062z" fill="#FCD97A"/><path d="M214.827 235.747c2.44 3.575 3.09 8.45 1.708 12.593-1.382 4.144-4.797 7.557-9.025 9.019-1.707.569-4.309 11.944 12.277 10.806 10.082-.568 20.244-14.787 17.968-14.787-5.203 0-3.984-22.263-2.927-27.219" fill="#C1826A"/><path d="M193.282 201.378c-2.277 3.006-5.285 5.931-5.691 9.75-.082 2.194.731 4.306.569 6.5-.244 4.712-4.472 8.531-4.472 13.244 0 3.818 2.927 7.231 6.26 8.775 3.334 1.543 7.318 2.031 11.058 2.275 8.455.731 18.211.812 23.821-5.525 4.066-4.55 4.553-11.457 3.984-17.55-1.057-10.238-4.797-21.45-11.22-29.575-5.935-7.475-22.114-2.275-22.521 1.706-.243 3.9.488 7.475-1.788 10.4z" fill="#274253"/><path d="M234.828 226.403l-20.082 9.344c2.439 3.575 3.089 8.45 1.707 12.593-.244.813-1.951 3.494-2.276 4.225 15.854-3.006 18.212-13.975 17.805-18.606-.081-5.281 2.358-5.444 2.846-7.556z" fill="#583529"/><path d="M204.99 233.39c.813 4.957 2.683 10.319 7.073 12.757 4.228 2.193 9.513.975 13.497-1.707 6.016-3.818 10.081-10.318 12.195-17.225 2.033-6.825 2.195-14.218 1.789-21.45-.244-3.575-.732-7.556-3.334-10.075-2.195-2.031-5.284-2.681-8.211-2.762-7.318-.244-18.619 2.031-22.033 9.262-3.984 8.45-2.602 22.425-.976 31.2z" fill="#C1826A"/><path d="M254.34 258.984c3.009 2.519 5.204 6.013 7.074 9.506 5.528 10.075 9.837 20.963 12.764 32.094-2.276 8.775-21.057 16.088-22.033 14.788-3.577-5.2-9.756-12.838-13.496-17.957-5.529-7.475 1.463-33.637 3.252-38.756 2.033-5.444 8.943-2.6 12.439.325z" fill="#FBBD20"/><path d="M179.704 337.147H107.1c-1.788 0-3.577-1.463-3.983-3.25l-12.765-49.319c-.488-1.788.57-3.25 2.44-3.25h72.603c1.788 0 3.577 1.462 3.984 3.25l12.764 49.319c.407 1.787-.65 3.25-2.439 3.25z" fill="#DCE8F7"/><path d="M209.867 337.147h-86.262c-1.464 0-2.683-1.219-2.683-2.682 0-1.462 1.219-2.681 2.683-2.681h86.262c1.464 0 2.683 1.219 2.683 2.681.082 1.463-1.056 2.682-2.683 2.682z" fill="#DCE8F7"/><path d="M227.43 218.115c.488 2.925 0 5.769.813 8.532.976 3.331 2.439 4.062 3.577 7.312 1.545 4.225 1.789 7.475 0 10.481 4.96 2.925 15.041 2.194 19.757-1.056 4.715-3.087 8.049-7.962 11.301-12.594 1.707-2.437 3.333-4.956 3.333-7.8 0-3.818-3.008-6.987-5.284-10.237-3.74-5.444-8.537-8.531-7.318-15.031 1.464-7.475-6.26-18.607-17.561-21.044-7.236-1.544-8.699 1.056-16.017 1.3-3.008.081-6.097.325-9.024 1.544-2.927 1.218-5.204 3.818-5.448 6.825-.244 3.006 2.521 6.256 5.529 5.768-3.252-.731-6.586 2.925-5.691 6.013.731 2.681 3.008 3.087 5.203 3.25 13.822.569 16.017 10.562 16.83 16.737z" fill="#274253"/><path d="M104.011 365.665c-5.935-1.462-12.52-1.462-17.724 1.95-5.203 3.332-8.049 10.319-5.285 15.844 3.09 6.013 11.058 7.963 17.806 7.719 31.545-1.056 44.147-6.094 35.285-14.219-3.252-3.006-9.756-3.494-13.74-5.037-5.447-2.194-10.732-4.794-16.342-6.257z" fill="#EA8F96"/><path d="M161.981 251.428H145.72l-3.821-29.819h24.065l-3.983 29.819z" fill="#75DBA1"/><path d="M214.503 334.547c-8.456 1.462-16.098 5.443-23.985 9.018-20.488 9.344-36.912 26.325-59.107 30.469-2.195 8.45-2.521 14.706 1.707 17.469 30.651-4.713 61.465-9.344 91.141-18.769 5.772-1.787 11.708-3.981 16.504-7.8 8.212-6.581 10.814-19.5.732-25.837-6.911-4.55-19.35-5.932-26.992-4.55z" fill="#B1C0DD"/><path d="M151.98 394.022c1.301 3.981 4.96 6.743 8.943 7.962 3.984 1.219 8.212.813 12.277.244a73.915 73.915 0 0032.278-13.244c2.276-1.706 4.796-3.981 4.715-6.825-.081-4.062-5.285-6.256-9.35-5.444-4.065.813-7.48 3.575-11.463 4.957-8.7 2.925-14.229-3.575-22.115-3.982-8.293-.325-18.131 7.313-15.285 16.332z" fill="#EA8F96"/><path d="M424.833 156.122c-9.838 9.75-20.976 13.731-37.4 17.062 4.472 6.256 16.749 15.356 16.749 15.356s5.041-2.762 7.236-3.818c10.081-4.957 41.302-23.075 42.765-29.819-8.374 2.194-25.61 2.925-29.35 1.219z" fill="#DCE8F7"/><path d="M425.808 115.253c-5.691 17.062-16.26 24.212-33.09 30.55 20.488 4.062 28.294 26.244 28.294 26.244s4.065-4.957 6.016-6.825c8.781-8.938 33.903-41.113 31.871-52.65-8.456 3.981-27.806 5.687-33.091 2.681zm18.294-69.631c5.203 19.256 2.927 34.856-7.724 51.837 12.602 8.45 30.895 11.7 47.156 12.594-.244-15.275 9.512-55.331-1.057-68.413-16.098 6.825-30.326 4.063-38.375 3.982z" fill="#fff"/><path d="M497.518 144.503c-7.073 7.719-14.797 11.212-25.285 11.212-.244 8.044 3.496 17.063 7.724 24.538 6.748-4.469 27.48-11.456 30.244-19.825-7.642-5.119-10.407-12.188-12.683-15.925z" fill="#FCD97A"/><path d="M466.46 210.722c-9.268.731-16.26-1.707-23.09-8.044-4.959 5.037-8.049 13.081-9.838 20.475 6.993 1.219 24.554 9.181 31.546 5.525-1.87-7.963.651-14.219 1.382-17.956z" fill="#75DBA1"/><path d="M493.941 110.703c-2.277 5.2-5.529 8.287-10.976 10.237 1.3 4.063 4.796 8.044 8.293 11.213 2.683-3.494 11.951-10.563 11.951-15.356-4.797-1.544-7.48-4.632-9.268-6.094z" fill="#F4C1C3"/><path d="M113.686 281.734c-17.317-17.062-29.106-60.125 21.058-89.862 62.603-37.05-30.001-103.432 46.099-111.232" stroke="#A6BBDE" stroke-miterlimit="10" stroke-dasharray="2 2"/><path d="M181.819 76.497l-9.838 10.075 23.253 8.53-13.415-18.605z" fill="#D0DCF2"/><path d="M178.566 60.165l3.822 20.232.081 20.718 52.603-7.8-56.506-33.15z" fill="#D0DCF2"/><path d="M182.55 80.397l.082 20.718 52.603-7.8-52.685-12.918z" fill="#DCE8F7"/><path d="M182.55 80.397l-.813-4.47 53.579 17.307-52.766-12.837z" fill="#95A9BC"/><path d="M182.55 80.397l-.813-4.47-10.081 11.7 10.894-7.23z" fill="#95A9BC"/><path d="M385.97 331.134c0-.244.081-.325.081-.569 0 .082 0 .082-.081.244v.325z" fill="#F4C1C3"/><path d="M402.8 274.584c-14.554 20.963-17.318 65.081-18.375 74.425 7.073-44.281 13.822-37.862 23.253-48.1 4.959-5.281 9.512-12.837 9.35-20.312-.244-8.857-9.269-12.919-14.228-6.013z" fill="#EA8F96"/><path d="M404.019 295.465c8.456-16.575 13.253-10.075 27.074-11.7 4.716-.487 11.789-4.062 15.367.569 4.227 5.525-2.44 13.731-6.017 17.469-11.951 12.512-37.806 19.987-42.928 22.344-5.041 2.437-8.293 11.943-11.545 22.506 4.553-20.638 14.96-45.175 18.049-51.188zm-23.09 53.382c7.236-16.332 3.009-38.757 4.553-42.9 2.196-6.257 7.968-10.482 9.025-17.307 1.057-7.312-2.52-14.787-3.008-22.1-.325-5.281 3.089-22.262-5.529-22.75-5.284-.243-9.593 5.2-11.301 9.507-2.195 5.687.976 10.481 1.464 16.006.731 7.962-3.578 13.812.244 21.856 2.683 5.688 6.829 9.588 7.805 16.006 1.057 6.582.975 29.332-2.765 40.138" fill="#EF757A"/><path d="M379.628 348.359c-.813-1.706-10-25.594-12.276-30.062-1.057-2.032-1.789-4.063-3.334-5.932-5.528-6.581-14.228-9.018-22.521-9.018-3.496 0-9.594.081-11.951 3.331-1.057 1.544-.488 3.575-.326 5.444.082 1.787 0 3.575.57 5.281 1.219 3.575 5.203 6.256 8.699 7.556 6.098 2.519 12.277.813 18.212-1.3 11.464-6.012 21.057 21.775 23.74 26-.487-.569-.813-1.219-.813-1.3z" fill="#F4C1C3"/><path d="M380.442 347.384c-3.009-6.094-3.822-33.881-6.992-38.106-3.09-3.981-8.7-4.469-13.009-6.338-8.455-3.818-14.716-13.325-12.846-22.75 1.545-8.45 9.594-9.75 16.098-5.443 6.992 4.712 10.814 12.268 10.814 20.556.162 8.694 5.935 52.081 5.935 52.081z" fill="#F4C1C3"/><path d="M402.312 329.59c2.277-3.493 6.017-5.525 10.244-5.687 3.822 0 6.83 2.681 5.204 6.744-1.789 4.468-7.074 6.581-11.708 5.931-2.439-.325-4.797-1.706-7.236-.813-2.439.975-10.488 12.269-13.334 14.057.163-.163 14.472-16.657 16.83-20.232z" fill="#EA8F96"/><path d="M383.043 380.697c10.488 0 18.862-13.325 18.862-29.819h-37.643c-.081 16.494 8.374 29.819 18.781 29.819z" fill="#274253"/></g><defs><linearGradient id="paint0_linear" x1="76.005" y1="-24.301" x2="482.994" y2="396.821" gradientUnits="userSpaceOnUse"><stop stop-color="#E8EFFF"/><stop offset="1" stop-color="#EFF3FE"/></linearGradient><clipPath id="clip0"><path fill="#fff" transform="translate(.5 .964)" d="M0 0h544v402H0z"/></clipPath></defs></svg>