<svg width="97" height="21" fill="none" xmlns="http://www.w3.org/2000/svg"><g clip-path="url(#clip0)" fill="#BF1920"><path d="M15.838 18.879c-4.51 0-8.165-3.77-8.165-8.42 0-4.651 3.655-8.417 8.165-8.417 1.59 0 3.073.467 4.327 1.277l-4.327 7.14 8.147-4.85c-.886-1.454-2.155-2.707-3.69-3.657C18.34.746 15.625 0 12.62 0 8.334 0 4.574 1.606 2.477 4.01.924 5.788 0 8.025 0 10.458c0 2.436.924 4.675 2.477 6.453 2.102 2.408 5.806 4.004 10.021 4.004 4.215 0 7.918-1.598 10.022-4.004.115-.132.227-.266.332-.405l-.318-1.227c-1.478 2.175-3.926 3.6-6.696 3.6zm27.011 1.53l-3.42-13.15c-.549-2.125-2.426-3.687-4.66-3.687a4.69 4.69 0 00-1.65.3l-7.362 2.76h7.571l1.294 4.98a7.026 7.026 0 00-4.68-1.79c-3.553 0-6.43 2.455-6.43 5.483 0 3.029 2.877 5.488 6.43 5.488 2.56 0 4.822-1.292 6.217-3.276l.75 2.892h5.94zm-10.43-2.043c-1.64 0-2.968-1.369-2.968-3.061 0-1.69 1.328-3.06 2.968-3.06 1.639 0 2.97 1.37 2.97 3.06 0 1.692-1.331 3.061-2.97 3.061zm24.37-14.792c-.449 0-.873.102-1.251.285L50.81 6.13c-.234-1.45-1.456-2.556-2.93-2.556-.447 0-.872.102-1.255.285l-5.77 2.772h4.056V20.41h5.94V8.164c0-.845.663-1.533 1.485-1.533.817 0 1.485.688 1.485 1.533V20.41h5.936V6.63c0-1.69-1.33-3.057-2.97-3.057m22.267 8.672c0 4.789-3.765 8.67-8.409 8.67-4.647 0-8.414-3.881-8.414-8.67 0-4.788 3.767-8.67 8.414-8.67 4.644 0 8.409 3.882 8.409 8.67zm-8.06-6.04c-.265-1.02-1.282-1.625-2.272-1.351-.988.273-1.578 1.322-1.313 2.343l2.885 11.087c.266 1.021 1.281 1.626 2.27 1.356.99-.276 1.578-1.325 1.313-2.345l-2.884-11.09z"/><path d="M94.03 3.574c-.45 0-.877.102-1.261.285L88.047 6.13c-.233-1.45-1.455-2.556-2.93-2.556-.445 0-.871.102-1.255.285l-5.768 2.772h4.056V20.41h5.937V8.164c0-.845.665-1.533 1.487-1.533.82 0 1.483.688 1.483 1.533V20.41h5.94V6.63c0-1.69-1.33-3.057-2.967-3.057"/></g><defs><clipPath id="clip0"><path fill="#fff" d="M0 0h97v21H0z"/></clipPath></defs></svg>