<svg width="97" height="19" fill="none" xmlns="http://www.w3.org/2000/svg"><path d="M10.618.185L6.635 3.78h6.338V9.5l3.983-3.595V.185h-6.338zM12.973 9.5v5.72H6.635l3.983 3.595h6.338v-5.72L12.973 9.5zm0 0L6.635 3.78v11.44l6.338-5.72zm-6.338 5.72L.297 9.5v5.72h6.338zM.297 9.5l6.338-5.72H.297V9.5z" fill="#E31A2F"/><path d="M21.184 3.146h2.354v12.71h-2.354V3.147zm5.35 6.027l4.514-6.027h-2.733l-4.6 6.03 5.22 6.68h2.954l-5.355-6.683zm62.43 6.684h7.731V4.629c0-.82-.734-1.483-1.642-1.483h-7.44v1.932h6.726V8.41h-5.375c-.909 0-1.644.664-1.644 1.483v4.48c0 .82.737 1.484 1.644 1.484zm.713-5.515h4.662v3.582h-4.662v-3.582zm-5.878-7.196c.907 0 1.643.663 1.643 1.483v4.176c0 .818-.736 1.482-1.643 1.482h-.952l3.42 5.57h-2.583L79.117 8.41h3.968V5.078H78.33v10.779h-2.356V3.146H83.8zM65.492 4.628c0-.819.735-1.482 1.642-1.482h6.846v1.932h-6.131V8.41h5.922v1.932h-5.922v3.582h6.13v1.933h-6.845c-.907 0-1.642-.664-1.642-1.483V4.627zm-10.16 0c0-.819.736-1.482 1.643-1.482h6.749v1.932H57.69v8.847h6.034v1.932h-6.748c-.908 0-1.644-.664-1.644-1.483V4.627zm-11.789.001c0-.82.735-1.483 1.642-1.483h6.454c.907 0 1.642.663 1.642 1.483v9.745c0 .819-.735 1.483-1.643 1.483h-6.453c-.907 0-1.642-.664-1.642-1.483V4.629zm2.355 9.296h5.026V5.078h-5.026v8.846zM32.3 9.028V3.146h2.357V8.58h4.48V3.146h2.356v11.228c0 .819-.736 1.483-1.643 1.483h-6.982v-1.932h6.269v-3.413h-5.194c-.908 0-1.642-.664-1.642-1.484z" fill="#231F20"/></svg>