<svg width="95" height="17" fill="none" xmlns="http://www.w3.org/2000/svg"><g clip-path="url(#clip0)" fill="#DC2F34"><path d="M36.967 8.502c0 3.313 2.47 5.757 6.608 5.757 1.755.032 3.495-.33 5.09-1.062l1.545 2.095C48.07 16.414 46.013 17 42.85 17c-6.595 0-11.444-3.15-11.444-8.49 0-5.347 4.85-8.49 11.444-8.49 3.163-.02 4.981.442 7.209 1.39l-1.586 2.407c-1.686-.891-3.155-1.072-4.898-1.072-4.133 0-6.608 2.439-6.608 5.752M62.13 0c-6.388 0-10.993 3.151-10.993 8.5s4.61 8.5 10.992 8.5c6.383 0 10.991-3.15 10.991-8.5S68.516 0 62.13 0zm0 14.355c-3.511 0-5.453-2.612-5.453-5.858 0-3.246 1.94-5.855 5.45-5.855 3.511 0 5.453 2.612 5.453 5.855 0 3.242-1.939 5.858-5.452 5.858h.001zm27.597-4.624v6.84h5.276V.427h-5.276v6.154H81.66V.428h-5.266V16.57h5.266V9.731h8.067zM28.225.428h-5.557V16.57h5.557V.428zM6.724 7.817V9.36a41.218 41.218 0 017.232 7.21h6.22c-2.164-2.52-5.484-5.517-7.93-7.02 2.87-.12 6.072-1.27 6.072-4.538C18.316.816 13.796.05 9.228.05c-3.73 0-7.17.164-9.22.337V16.57h5.175V2.821a33.133 33.133 0 014.07-.209c2.673 0 4.023.875 4.023 2.403 0 1.297-.56 2.858-6.552 2.802z"/></g><defs><clipPath id="clip0"><path fill="#fff" d="M0 0h95v17H0z"/></clipPath></defs></svg>