<svg width="97" height="21" fill="none" xmlns="http://www.w3.org/2000/svg"><path d="M66.381.02a10.251 10.251 0 00-4.08.718 10.166 10.166 0 00-3.45 2.272 10.043 10.043 0 00-2.247 3.446 9.961 9.961 0 00-.67 4.047 9.818 9.818 0 00.624 4.073 9.899 9.899 0 002.243 3.47c.985.988 2.169 1.76 3.475 2.267 1.305.506 2.704.736 4.105.674 2.81 0 5.504-1.105 7.49-3.071a10.43 10.43 0 003.102-7.413 10.43 10.43 0 00-3.102-7.412A10.647 10.647 0 0066.38.02zm-35.698 0c-2.312.01-4.556.78-6.38 2.187a10.62 10.62 0 00-2.935 3.753 10.512 10.512 0 00-.987 4.645 10.129 10.129 0 00.68 4.154 10.208 10.208 0 002.314 3.53 11.263 11.263 0 007.887 2.697 16.404 16.404 0 007.267-1.839c.496-.286.64-.408.516-.899l-.867-2.432a.593.593 0 00-.376-.378.606.606 0 00-.532.072c-.544.28-1.102.533-1.673.756a10.956 10.956 0 01-3.613.736 5.959 5.959 0 01-2.706-.368 5.906 5.906 0 01-2.249-1.533 5.203 5.203 0 01-1.218-2.922h13.668c.516 0 .723-.347.723-.92V8.623a8.69 8.69 0 00-.776-3.446 8.771 8.771 0 00-2.086-2.865A8.876 8.876 0 0034.28.495 8.942 8.942 0 0030.746.02h-.062zm22.278 0c-3.943 0-6.359.879-7.907 2.861-1.177 1.512-1.384 3.208-1.384 6.825v9.952c0 .715.33 1.042 1.012 1.042h3.117c.723 0 1.012-.367 1.012-1.042V9.441c0-2.269 0-3.556.847-4.414a4.405 4.405 0 011.655-1.017 4.44 4.44 0 011.937-.21c.392 0 1.322 0 1.652.144h.268c.33 0 .454-.123.558-.552l.475-2.268c0-.47 0-.838-.455-.94A14.328 14.328 0 0052.961.06V.02zM1.16.286C.83.286.581.55.725 1a30.936 30.936 0 005.74 9.523 24.51 24.51 0 00-6.4 9.44c-.165.45 0 .736.33.736H4.07a.958.958 0 00.64-.17.94.94 0 00.372-.545A25.048 25.048 0 019.5 13.262a20.062 20.062 0 014.336 6.723c.268.675.599.715 1.012.715h4.005c.785 0 .847-.408.702-.776a30.41 30.41 0 00-6.627-9.788A26.748 26.748 0 0018.998 1c.206-.572-.166-.715-.475-.715h-3.345c-.413 0-.681.143-.991.715a29.244 29.244 0 01-4.13 6.13A26.791 26.791 0 016.424 1c-.227-.53-.475-.714-.95-.714H1.16zm77.383 0c-.33 0-.578.265-.433.715a30.936 30.936 0 005.74 9.523 24.508 24.508 0 00-6.401 9.44c-.165.45 0 .736.33.736h3.675a.958.958 0 00.64-.17.94.94 0 00.372-.545 25.047 25.047 0 014.418-6.723 20.064 20.064 0 014.336 6.723c.269.675.599.715 1.012.715h4.005c.785 0 .847-.408.702-.776a30.41 30.41 0 00-6.627-9.788A26.75 26.75 0 0096.38 1c.206-.572-.165-.715-.475-.715H92.56c-.413 0-.681.143-.99.715a29.244 29.244 0 01-4.13 6.13A26.792 26.792 0 0183.806 1c-.227-.531-.475-.715-.95-.715h-4.315zM66.382 3.82c3.633 0 5.016 3.127 5.016 6.641 0 3.515-1.383 6.662-5.017 6.662-3.633 0-5.058-3.126-5.058-6.662 0-3.535 1.404-6.6 5.058-6.6V3.82zm-35.533 0a4.168 4.168 0 011.783.263c.568.217 1.08.555 1.5.99.42.436.738.958.93 1.529.193.571.256 1.177.184 1.775V8.5h-9.435a6.43 6.43 0 01.599-1.942 4.821 4.821 0 011.826-1.976 4.89 4.89 0 012.613-.7V3.82z" fill="#D40E2A"/></svg>