<svg width="36" height="36" fill="none" xmlns="http://www.w3.org/2000/svg"><path fill-rule="evenodd" clip-rule="evenodd" d="M17.505 34.996h-.519l3.58-9.84h4.922a2.409 2.409 0 002.113-1.476l3.884-10.673a2.209 2.209 0 00-2.22-3.167h-6.837L16.7 25.585l-3.25 8.946a17.515 17.515 0 01-9.575-6.047A17.502 17.502 0 0112.789.644L9.44 9.858 3.875 25.165H7.58l4.743-13.008h2.793l-4.744 13.008h3.705l4.404-12.158a2.209 2.209 0 00-2.22-3.167h-3.123L16.718 0h.778c4.646 0 9.1 1.845 12.385 5.128a17.503 17.503 0 010 24.759 17.519 17.519 0 01-12.385 5.127l.01-.018zm10.597-22.883h-2.784l-3.857 10.735h2.783l3.903-10.735h-.045z" fill="#009FDB"/></svg>