<svg width="97" height="18" fill="none" xmlns="http://www.w3.org/2000/svg"><path d="M15.54.18H.195v3.452l1.406 5.135 4.4.233 3.733-3.453 7.384-1.463L15.54.179z" fill="#00C425"/><path d="M.195 3.632v14.189H3.93l6.244-.48-.439-4.888-9.539-8.82z" fill="#3AF23A"/><path d="M3.926 17.82H19.27v-3.452l-1.63-4.593L13.465 9l-9.54 8.82z" fill="#006446"/><path d="M92.674 7.178L89.3 10.017l3.374 2.856v1.644h-.11l-5.007-4.202v3.995h-1.452V2.215h1.452v7.554l4.984-4.194h.133v1.603zM27.219 14.31h7.406v-1.352h-5.898V2.612h-1.508V14.31zm12.527-8.718c-2.276 0-4.346 1.71-4.346 4.462 0 2.673 1.899 4.446 4.62 4.446 1.214 0 2.343-.283 3.352-.964v-1.443c-1.06.823-2.243 1.17-3.304 1.17-1.639 0-3.085-.937-3.218-2.693h6.916c.017-.173.054-.548.054-.69 0-2.816-1.833-4.288-4.074-4.288zm.015 1.221c1.283 0 2.588.769 2.639 2.588h-5.55c.085-1.408 1.25-2.588 2.91-2.588zm24.356-1.22c-1.232 0-2.121.6-2.651 1.487-.446-.95-1.266-1.488-2.584-1.488-1.146 0-2.002.618-2.464 1.44h-.034l-.17-1.265h-1.146v8.543h1.47V8.915c0-1.045.702-2.025 1.985-2.025 1.249 0 1.796.68 1.796 1.914v5.506h1.471V8.82c0-.997.72-1.93 1.968-1.93 1.266 0 1.813.68 1.813 1.914v5.506h1.472V8.614c0-1.788-.907-3.022-2.926-3.022zm8.868 0c-2.206 0-4.26 1.724-4.26 4.46 0 2.706 2.054 4.447 4.26 4.447 1.386 0 2.687-.602 3.388-1.789h.017l.171 1.599h1.198V5.767h-1.198l-.171 1.597h-.017c-.701-1.17-2.002-1.772-3.388-1.772zm.274 1.265c1.745 0 3.063 1.297 3.063 3.18 0 1.882-1.318 3.18-3.063 3.18-1.71 0-3.062-1.282-3.062-3.164 0-1.914 1.351-3.196 3.062-3.196zm10.773-1.186c-.805 0-2.02.348-2.653 1.455h-.016l-.155-1.36h-1.18v8.543h1.47V9.39c0-1.978 1.73-2.59 3.15-2.322V5.72a3.591 3.591 0 00-.616-.047zm-30.86-.097h-.117l-3.861 3.56-3.853-3.56h-.118V7.3l2.97 2.748-2.97 2.73v1.74h.12l3.833-3.577 3.876 3.576h.12v-1.753l-2.996-2.742 2.996-2.79V5.575zm39.502-3.172v-.188h1.604v.188h-.68v1.492h-.243V2.403h-.68zm2.417-.188l.692 1.412.694-1.412h.33v1.68h-.228v-1.4h-.004l-.687 1.4h-.207l-.687-1.4h-.004v1.4h-.23v-1.68h.33z" fill="#32323C"/><path d="M19.274 14.368V.179H15.54L9.734 5.547l9.54 8.82z" fill="#008A44"/></svg>