<svg width="60" height="35" fill="none" xmlns="http://www.w3.org/2000/svg"><path d="M15.57 13.018c1.694.042 9.878.382 14.032.367 4.152.015 12.337-.323 14.03-.367.118-.003.176.056.184.143a13.77 13.77 0 000-.86c-.008.091-.066.147-.183.146-1.694-.045-9.88-.385-14.031-.364-4.155-.02-12.338.319-14.031.364-.116.003-.174-.05-.185-.137a13.062 13.062 0 000 .844c.01-.084.07-.139.185-.136zm-.097-1.72c.033-.127.127-.192.256-.187.128.003 9.623.549 13.87.583 4.246-.036 13.744-.582 13.871-.583a.24.24 0 01.258.197c-.04-.303-.093-.601-.156-.897.003.116-.093.192-.204.192-1.764-.034-10.938-.236-13.77-.236-2.829 0-12.003.202-13.767.236-.115 0-.211-.082-.204-.2a11.78 11.78 0 00-.154.895zm.417-1.87c.043-.09.101-.134.205-.131l13.509.758 13.513-.758c.096 0 .153.037.194.12a10.373 10.373 0 00-.291-.808c.05.145-.026.235-.167.237-.297 0-6.396.077-6.396.077H22.75s-6.1-.077-6.394-.077c-.141-.003-.216-.09-.171-.226-.108.262-.207.535-.294.808zm27.417 6.622c-.04.082-.098.121-.194.118-1.76-.096-13.513-.758-13.513-.758s-11.753.662-13.51.758c-.103.003-.16-.037-.203-.13.087.274.186.542.294.808-.045-.138.03-.228.168-.228l6.396-.076h13.707l6.396.076c.14 0 .216.096.166.235.11-.265.207-.53.293-.804zm.425-1.893a.24.24 0 01-.258.197c-.127-.004-9.625-.549-13.87-.583-4.247.034-13.742.579-13.87.583a.235.235 0 01-.257-.19c.04.303.09.605.156.9-.008-.122.09-.204.204-.201 1.764.033 10.938.235 13.767.235 2.832 0 12.006-.202 13.77-.236.11-.002.207.076.204.192.061-.293.114-.593.154-.897z" fill="#fff"/><path d="M29.599.35c6.195 0 11.478 3.458 13.41 8.247.06.15-.015.25-.16.25-.298 0-6.397.077-6.397.077H22.745s-6.1-.077-6.396-.077c-.145 0-.22-.1-.16-.25C18.12 3.809 23.404.35 29.599.35zm.001 10.017c2.832 0 12.006.202 13.77.235.122 0 .224-.09.201-.223a12.714 12.714 0 00-.246-.921c-.04-.115-.1-.164-.211-.161l-13.514.758-13.509-.758c-.114-.003-.174.048-.213.161-.045.127-.219.76-.246.921-.022.132.078.223.201.223 1.764-.033 10.938-.235 13.767-.235zm0 1.716c4.152-.02 12.337.319 14.03.364.128.003.184-.066.184-.168 0-.202-.06-.821-.081-.95-.023-.146-.126-.227-.264-.22-.128.003-9.626.55-13.87.584-4.247-.036-13.742-.582-13.871-.584-.138-.007-.242.074-.264.22a10.38 10.38 0 00-.081.95c-.003.101.055.17.184.168 1.695-.045 9.88-.383 14.033-.364zm-.001 13.035c6.195 0 11.478-3.459 13.41-8.248.06-.153-.015-.25-.16-.25l-6.397-.076H22.745l-6.396.075c-.145 0-.22.098-.16.25 1.932 4.79 7.215 8.25 13.41 8.25zm.001-10.02c2.832 0 12.006-.202 13.77-.236.122-.002.224.091.201.225a12.88 12.88 0 01-.246.92c-.04.116-.1.164-.211.161-1.76-.1-13.514-.758-13.514-.758l-13.509.758c-.114.003-.174-.045-.213-.161a11.465 11.465 0 01-.246-.92c-.022-.134.078-.227.201-.224 1.764.033 10.938.235 13.767.235zm0-1.716c4.152.018 12.337-.322 14.03-.364.128-.003.184.064.184.166 0 .2-.06.819-.081.95a.243.243 0 01-.264.22c-.128-.004-9.626-.549-13.87-.583-4.247.034-13.742.579-13.871.583-.138.006-.242-.072-.264-.22a10.73 10.73 0 01-.081-.95c-.003-.102.055-.169.184-.166 1.695.042 9.88.382 14.033.364z" fill="#007EC5"/><path d="M7.803 33.923c-.592 0-1.525-.442-1.525-1.865 0-1.425.93-1.879 1.525-1.879.596 0 1.523.454 1.523 1.879.001 1.428-.929 1.865-1.523 1.865zM7.8 29.461c-1.37 0-2.483 1.163-2.483 2.598 0 1.433 1.113 2.599 2.483 2.599 1.372 0 2.485-1.166 2.485-2.599.002-1.435-1.113-2.598-2.485-2.598zm38.197 4.462c-.592 0-1.525-.442-1.525-1.865 0-1.425.93-1.879 1.525-1.879.596 0 1.524.454 1.524 1.879 0 1.428-.931 1.865-1.524 1.865zm-.004-4.462c-1.37 0-2.481 1.163-2.481 2.598 0 1.433 1.111 2.599 2.48 2.599 1.373 0 2.486-1.166 2.486-2.599 0-1.435-1.113-2.598-2.485-2.598zM.598 29.58h.897v4.957H.598V29.58zm16.019 0h.897v4.957h-.897V29.58zm19.673 0h.896v4.957h-.897V29.58zm-14.677.664h.393l.045-.64a4.323 4.323 0 00-.543-.033c-1.908 0-3.137 1.024-3.137 2.487 0 1.466 1.229 2.487 3.137 2.487.2 0 .346-.011.543-.03l-.045-.642h-.393c-1.355 0-2.247-.707-2.247-1.82 0-1.114.897-1.81 2.247-1.81zm-7.025 2.296c0 .01-.003.013-.008.004-.655-1.213-2.055-2.487-2.907-2.964h-.61v4.957h.844l-.034-3.827c0-.015.001-.018.01-.015 1.064.737 2.217 2.162 2.825 3.842h.692V29.58h-.845c-.002 0 .033 2.953.033 2.96zm27.315 0c0 .01-.005.013-.009.004-.654-1.213-2.053-2.487-2.905-2.964h-.614v4.957h.844l-.034-3.827c0-.015.003-.018.012-.015 1.063.737 2.217 2.162 2.823 3.842h.696V29.58h-.846c-.003 0 .033 2.953.033 2.96zm-19.579 1.997h.85s1.327-3.162 1.376-3.27c.059.11 1.638 3.27 1.638 3.27h1.014l-2.638-5.055-2.24 5.055zm34.431-5.055l-2.24 5.055h.85s1.327-3.162 1.377-3.27c.06.11 1.638 3.27 1.638 3.27h1.015l-2.64-5.055zM3.092 31.597c.52-.542 1.928-2.017 1.928-2.017H3.94l-2.05 2.17c.985.649 1.807 1.538 2.314 2.787h.942c-.388-1.172-1.135-2.247-2.055-2.94zM50.15 29.58h-.896v4.957h2.85v-.688H50.15V29.58zm4.93 0h-3.4v.688h1.252v4.27h.897v-4.27h1.253v-.688m-22.433 2.436c-.09.172-.216.5-.302.733-.003.004-.01.004-.013 0a7.415 7.415 0 00-.297-.729c-.43-.897-1.109-2.13-1.512-2.562-.237.44-1.176 4.25-1.373 5.08h.9l.71-3.26c.003-.01.007-.015.012-.007.309.478.907 1.708 1.269 2.826h.595c.332-1.047.956-2.356 1.262-2.832.004-.003.009 0 .009.007.003.008.721 3.268.721 3.268h.9c-.2-.828-1.135-4.638-1.374-5.079-.41.43-1.077 1.664-1.507 2.555z" fill="#231F20"/></svg>