<svg width="97" height="13" fill="none" xmlns="http://www.w3.org/2000/svg"><path d="M33.16 5.113h-8.559V.496h-4.413v12.18H24.6V7.683h8.56v4.887h4.413V.496H33.16v4.671m11.802 2.515l3.07-4.725 2.975 4.725h-6.045zM46.324.388L38.4 12.568h3.377l1.612-2.496h9.135l1.573 2.497h5.393L51.563.496h-5.239m30.685 5.228c.282-.33.48-.718.577-1.131a2.595 2.595 0 00-.015-1.254 2.705 2.705 0 00-.605-1.12 2.946 2.946 0 00-1.07-.753A19.603 19.603 0 0068.22.083a48.745 48.745 0 00-7.868.539v12h4.414V2.437a19.876 19.876 0 013.838-.27 6.364 6.364 0 013.53.863c.219.146.396.34.519.563a1.5 1.5 0 010 1.444c-.123.223-.3.416-.518.562-.787.629-2.4 1.114-5.988.611l-.499.773 6.794 5.64h6.006l-6.14-4.94c1.775-.117 3.445-.832 4.7-2.012M10.516 4.664c-2.552-.467-4.72-.755-4.72-1.527 0-.773 1.746-1.078 4.24-.845 2.282.234 4.513.785 6.62 1.635L18.23 1.52A30.19 30.19 0 009.998.083C6.563-.025.787.263.538 3.514.306 6.478 4.835 7.107 7.79 7.826c2.955.719 5.584.862 5.584 1.796 0 .665-.94 1.168-3.473.989a22.517 22.517 0 01-8.194-2.174L0 11.06A32.518 32.518 0 009.979 13c4.01 0 8.558-.539 8.654-3.773 0-2.677-2.897-3.593-8.117-4.563zm80.77.97a5.85 5.85 0 01-3.627.773 18.39 18.39 0 01-3.838-.45V2.364a20.142 20.142 0 013.838-.27 6.73 6.73 0 013.55.863c.218.15.396.347.518.573a1.533 1.533 0 010 1.46c-.122.226-.3.422-.518.572l.077.072zm3.761-4.24A18.42 18.42 0 0087.371.011a48.95 48.95 0 00-7.887.539v12h4.414V8.222c1.504.225 3.025.34 4.548.341 3.627 0 6.313-.826 7.522-2.084.39-.342.683-.769.855-1.242.173-.473.22-.979.137-1.472a2.973 2.973 0 00-.614-1.362c-.32-.4-.74-.722-1.222-.936" fill="#E6000D"/></svg>