<svg width="1440" height="996" fill="none" xmlns="http://www.w3.org/2000/svg"><path fill-rule="evenodd" clip-rule="evenodd" d="M1391.5 825.999C924.908 1103.75 394.51 352-114.499 662c0 0-114.504 257.999-341 328.501-260.229 61.009 27.082-455.066-283.5-415.224-116.883-43.993-218.737 46.266-322.201 0 456.309-77.281 906.93-292.494 1310.506-354.466 80.525-13.637 174.155-16.715 243.163-15.644 241.927 16.381 439.704 156.714 667.861 118.073 120.78-20.456 258.29-109.101 321.59-145.337C1595.1 107.705 1668.01 44.326 1812.78.67c92.9 67.192 250.27 168.249 282.72 290.33-139.8 165.227-386.5 346-704 534.999z" fill="url(#paint0_linear)"/><defs><linearGradient id="paint0_linear" x1="1252.5" y1="211" x2="661.335" y2="1669" gradientUnits="userSpaceOnUse"><stop stop-color="#F5F8FF"/><stop offset="1" stop-color="#F5F8FF" stop-opacity="0"/></linearGradient></defs></svg>