<svg width="1440" height="983" fill="none" xmlns="http://www.w3.org/2000/svg"><path fill-rule="evenodd" clip-rule="evenodd" d="M260.186 81.576c136.817-13.625 355.941 44.457 536.299 144.431 0 0 191.485 83.266 354.635 26.296C1339.04 207.264 1451.43 20.207 1676.5.113c86.11 52.665 58.86 531.853 135.26 585.948-330.23 48.66-653.03 238.527-945.252 275.051-58.275 8.587-126.34 5.522-176.585-.145-176.45-32.761-323.727-189.15-488.841-164.82-87.413 12.88-185.37 94.272-230.569 127.074-80.687 64.171-132.236 124.049-236.552 159.026-69.206-74.761-51.376-240.77-77.905-367.566C-246.149 455.25-4.577 100.983 260.186 81.576z" fill="url(#paint0_linear)"/><defs><linearGradient id="paint0_linear" x1="-122.805" y1="1210.05" x2="1012" y2="-63.655" gradientUnits="userSpaceOnUse"><stop stop-color="#F5F8FF"/><stop offset="1" stop-color="#F5F8FF" stop-opacity=".45"/></linearGradient></defs></svg>