<svg width="1440" height="1247" fill="none" xmlns="http://www.w3.org/2000/svg"><path fill-rule="evenodd" clip-rule="evenodd" d="M1177.26 286.485c-174.01-62.751-400.126 1.45-586.122 37.436-153.694 26.815-375.377 114.994-581.693 61.415C-211.719 333.169-859.884 101.651-1146.69.828c-124 23.991-96.95 199.894 10.27 330.952 416.282 167.81 873.309 278.062 1263.404 368.04 73.461 29.613 264.358 76.189 330.786 88.172 238.617 44.407 464.467-123.466 672.61-39.561 110.19 44.42 218.04 198.86 268.84 248.928 89.35 95.201 141.97 175.591 268.83 248.931 107.33-52.91 123.48-231.34 187.82-353.353-194.34-152.316-340.22-492.235-678.61-606.452z" fill="url(#paint0_linear)"/><defs><linearGradient id="paint0_linear" x1="308.759" y1="838.698" x2="599.354" y2="32.278" gradientUnits="userSpaceOnUse"><stop stop-color="#F5F8FF" stop-opacity="0"/><stop offset="1" stop-color="#F5F8FF"/></linearGradient></defs></svg>