<svg width="85" height="85" fill="none" xmlns="http://www.w3.org/2000/svg"><circle cx="42.686" cy="42.352" r="38.924" stroke="#F2C94C" stroke-opacity=".2" stroke-width="6"/><path d="M76.295 22.209c10.982 19.022 4.695 43.213-14.043 54.032C43.513 87.059 19.42 80.409 8.437 61.386" stroke="#FFB911" stroke-width="6" stroke-linecap="round"/><g clip-path="url(#clip0)"><path d="M47.145 42.885h-1.19a3.052 3.052 0 00-2.87-2.051 3.052 3.052 0 00-2.87 2.05h-1.19c-.56 0-1.015.46-1.015 1.026a1.02 1.02 0 001.015 1.026h1.19a3.052 3.052 0 002.87 2.05 3.052 3.052 0 002.87-2.05h1.19c.56 0 1.015-.46 1.015-1.026a1.02 1.02 0 00-1.015-1.025zm-4.06 2.05c-.56 0-1.015-.46-1.015-1.025s.455-1.025 1.015-1.025c.56 0 1.015.46 1.015 1.025 0 .566-.455 1.026-1.015 1.026zm16.308 10.391H45.955a3.075 3.075 0 00-1.855-1.874v-2.364h7.105c.56 0 1.015-.46 1.015-1.026V37.758a1.02 1.02 0 00-1.015-1.026H50.19v-5.127c0-3.957-3.187-7.177-7.105-7.177-3.918 0-7.105 3.22-7.105 7.177v5.127h-1.015c-.56 0-1.015.46-1.015 1.026v12.304a1.02 1.02 0 001.015 1.026h7.105v2.364a3.075 3.075 0 00-1.856 1.874H26.777c-.56 0-1.015.46-1.015 1.026a1.02 1.02 0 001.015 1.025h13.437a3.052 3.052 0 002.871 2.05 3.052 3.052 0 002.87-2.05h13.438c.56 0 1.015-.46 1.015-1.025a1.02 1.02 0 00-1.015-1.026zM38.01 31.606c0-2.828 2.276-5.128 5.075-5.128 2.798 0 5.075 2.3 5.075 5.127v5.127h-2.03v-5.127c0-1.696-1.366-3.076-3.045-3.076-1.68 0-3.045 1.38-3.045 3.076v5.127h-2.03v-5.127zm6.09 0v5.126h-2.03v-5.127c0-.565.455-1.025 1.015-1.025.56 0 1.015.46 1.015 1.026zm-8.12 17.431V38.783h14.21v10.254H35.98zm7.105 8.34c-.56 0-1.015-.46-1.015-1.025 0-.566.455-1.026 1.015-1.026.56 0 1.015.46 1.015 1.026 0 .565-.455 1.025-1.015 1.025z" fill="url(#paint0_linear)"/></g><defs><linearGradient id="paint0_linear" x1="43.085" y1="59.428" x2="43.085" y2="24.428" gradientUnits="userSpaceOnUse"><stop stop-color="#FD9800"/><stop offset="1" stop-color="#FAC64B"/></linearGradient><clipPath id="clip0"><path fill="#fff" transform="translate(25.762 24.428)" d="M0 0h34.647v35H0z"/></clipPath></defs></svg>