<svg width="86" height="85" fill="none" xmlns="http://www.w3.org/2000/svg"><circle cx="42.686" cy="42.352" r="38.924" stroke="#D90F16" stroke-opacity=".2" stroke-width="6"/><path d="M82.273 42c0 21.54-17.46 39-39 39-21.539 0-39-17.46-39-39s17.461-39 39-39" stroke="#D90F16" stroke-width="6" stroke-linecap="round"/><g clip-path="url(#clip0)"><path d="M39.764 55.634H27.89c-.44 0-.843-.204-1.103-.561a1.352 1.352 0 01-.196-1.223c1.349-4.193 5.462-7.122 10.003-7.122 2.113 0 4.142.636 5.868 1.84a1.365 1.365 0 001.561-2.238 12.967 12.967 0 00-2.721-1.454 6.947 6.947 0 002.259-4.583 10.169 10.169 0 017.157-2.904c2.114 0 4.142.636 5.868 1.84a1.365 1.365 0 001.562-2.239 12.972 12.972 0 00-2.722-1.453 6.943 6.943 0 002.282-5.15 6.968 6.968 0 00-6.96-6.96 6.968 6.968 0 00-6.96 6.96c0 2.03.874 3.861 2.266 5.135a13.03 13.03 0 00-2.97 1.613 6.971 6.971 0 00-6.46-4.368 6.968 6.968 0 00-6.96 6.96c0 2.025.869 3.85 2.253 5.123-3.701 1.387-6.703 4.366-7.924 8.165a4.054 4.054 0 00.589 3.666 4.053 4.053 0 003.308 1.683h11.873a1.365 1.365 0 100-2.73zm10.985-29.477a4.235 4.235 0 014.231 4.23 4.235 4.235 0 01-4.23 4.231 4.235 4.235 0 01-4.231-4.23 4.235 4.235 0 014.23-4.23zm-14.124 9.34a4.235 4.235 0 014.23 4.23 4.235 4.235 0 01-4.23 4.23 4.235 4.235 0 01-4.23-4.23 4.235 4.235 0 014.23-4.23z" fill="url(#paint0_linear)"/><g clip-path="url(#clip1)"><path d="M48.152 46.835a1.33 1.33 0 011.882 0l3.72 3.724 3.718-3.724a1.331 1.331 0 012.182 1.452c-.07.163-.172.31-.299.433l-3.719 3.724 3.72 3.724a1.334 1.334 0 01-.947 2.26 1.331 1.331 0 01-.937-.374l-3.719-3.724-3.719 3.724a1.331 1.331 0 01-2.256-.948c-.003-.35.131-.686.374-.938l3.719-3.724-3.72-3.724a1.334 1.334 0 010-1.885z" fill="#E54444"/></g></g><defs><clipPath id="clip0"><path fill="#fff" transform="translate(23.762 23.428)" d="M0 0h36v35H0z"/></clipPath><clipPath id="clip1"><path fill="#fff" transform="translate(47.762 46.428)" d="M0 0h12v12H0z"/></clipPath><linearGradient id="paint0_linear" x1="41.263" y1="58.364" x2="41.263" y2="23.428" gradientUnits="userSpaceOnUse"><stop stop-color="#D90F16"/><stop offset="1" stop-color="#FFB8A9"/></linearGradient></defs></svg>