<svg width="85" height="85" fill="none" xmlns="http://www.w3.org/2000/svg"><circle cx="42.686" cy="42.352" r="38.924" stroke="#2BC44E" stroke-opacity=".2" stroke-width="6"/><path d="M62.256 76.241C43.517 87.06 19.424 80.41 8.44 61.387" stroke="#2BC44E" stroke-width="6" stroke-linecap="round"/><g clip-path="url(#clip0)"><path d="M43.085 42.935c-.56 0-1.015.46-1.015 1.026a1.02 1.02 0 001.015 1.025 1.02 1.02 0 001.015-1.025 1.02 1.02 0 00-1.015-1.026zm16.308 10.391H45.955a3.075 3.075 0 00-1.855-1.874v-2.364h13.195c.364 0 .7-.196.88-.515.182-.318.18-.71-.003-1.027l-14.21-24.61a1.013 1.013 0 00-.877-.508c-.361 0-.695.194-.877.508l-14.21 24.61a1.034 1.034 0 00-.004 1.027c.181.319.517.515.88.515H42.07v2.364a3.075 3.075 0 00-1.856 1.874H26.777c-.56 0-1.015.46-1.015 1.026a1.02 1.02 0 001.015 1.025h13.437a3.052 3.052 0 002.87 2.05 3.052 3.052 0 002.871-2.05h13.438c.56 0 1.015-.46 1.015-1.025a1.02 1.02 0 00-1.015-1.026zm-28.751-6.289l12.443-21.549 12.443 21.55H30.642zm12.443 8.34c-.56 0-1.015-.46-1.015-1.025 0-.566.455-1.026 1.015-1.026.56 0 1.015.46 1.015 1.026 0 .565-.455 1.025-1.015 1.025zm0-24.746a1.02 1.02 0 00-1.015 1.025v8.203a1.02 1.02 0 001.015 1.026c.56 0 1.015-.46 1.015-1.026v-8.203a1.02 1.02 0 00-1.015-1.025z" fill="url(#paint0_linear)"/></g><defs><linearGradient id="paint0_linear" x1="43.085" y1="57.428" x2="43.085" y2="22.428" gradientUnits="userSpaceOnUse"><stop stop-color="#2BC44E"/><stop offset="1" stop-color="#9CFFAC"/></linearGradient><clipPath id="clip0"><path fill="#fff" transform="translate(25.762 22.428)" d="M0 0h34.647v35H0z"/></clipPath></defs></svg>