<svg width="1440" height="2174" fill="none" xmlns="http://www.w3.org/2000/svg"><path fill-rule="evenodd" clip-rule="evenodd" d="M1099 2153.37c-617.503 100-949.503-194.51-1175.003-354.51 0 0-118.003-401.13-344.5-330.63-260.229 61-239.711-369.77-550.293-329.93-116.884-43.99-63.944-516.757-167.404-563.023 456.306-77.281 906.927-292.495 1310.503-354.466 80.524-13.638 174.155-16.715 243.162-15.645C657.393 221.548 855.17 361.88 1083.32 323.24c120.79-20.457 258.3-109.102 321.6-145.337C1518.09 107.705 1591 44.325 1735.78.669c92.89 67.193-92.24 1345.481-59.78 1467.561-139.8 165.23-211.79 642.42-577 685.14z" fill="url(#paint0_linear)"/><defs><linearGradient id="paint0_linear" x1="816.997" y1="254.865" x2="953.494" y2="1534.22" gradientUnits="userSpaceOnUse"><stop stop-color="#F5F8FF"/><stop offset="1" stop-color="#F5F8FF" stop-opacity="0"/></linearGradient></defs></svg>