<svg width="1440" height="1233" fill="none" xmlns="http://www.w3.org/2000/svg"><path d="M591.331 246.876c-176.499-50.528-389.842-76.429-540.05-16.157C-242.022 339.216-335.48 668.409-490.5 827.447c78.012 139.689 120.465 339.613 227.284 404.613 105.238-74.71 141.156-161.44 208.538-262.634C-15.744 916.418 59.468 750.18 153.86 706.789c342.861-157.611 491.87 97.565 913.201 72.893 421.32-24.673 1105.5-411.011 1105.5-411.011 78.25-140.193 75.89-334.883-41.78-368.569-247.97 96.438-807.8 318.468-1002.98 364.302-181.311 48.238-391.075-79.034-536.469-117.528z" fill="url(#paint0_linear)"/><defs><linearGradient id="paint0_linear" x1="841.729" y1="976.903" x2="1032.17" y2="212.213" gradientUnits="userSpaceOnUse"><stop stop-color="#F5F8FF" stop-opacity="0"/><stop offset="1" stop-color="#F5F8FF"/></linearGradient></defs></svg>