<svg width="574" height="410" fill="none" xmlns="http://www.w3.org/2000/svg"><g clip-path="url(#clip0)"><path d="M219.999 270.798h-85.452v133.08h85.452v-133.08z" fill="#DCE8F7"/><path d="M236.062 356.436c-2.895.093-6.07 2.148-6.537 5.417-.467 2.521.84 5.043 2.148 7.191 1.4 2.241 2.988 4.389 5.043 5.603 2.148-3.829 5.603-8.872 6.537-13.355.56-2.801.84-2.334-1.775-3.642-1.681-.84-3.642-1.307-5.416-1.214z" fill="#A6BBDE"/><path d="M239.237 362.039c.28-.56.934-.84 1.494-.56l9.526 5.51c.56.28.747 1.027.467 1.681-.28.56-.934.841-1.494.56l-9.526-5.51c-.467-.373-.747-1.12-.467-1.681zm-2.522 5.604c.28-.56.934-.841 1.494-.56l9.526 5.509c.56.281.747 1.028.467 1.681-.28.561-.934.841-1.494.561l-9.526-5.51c-.56-.28-.747-1.027-.467-1.681z" fill="#A6BBDE"/><path d="M117.644 390.243c8.779-16.437 25.682-27.083 42.773-26.803 17.09.28 45.76 24.468 43.612 34.741-1.587 7.378-11.393 7.285-26.335-4.109-9.339-7.098-18.772-23.254-13.729-31.285 4.016-6.444 11.674-8.499 18.678-9.246 16.81-1.774 33.994 1.214 49.497 8.498" stroke="#A6BBDE" stroke-miterlimit="10"/><path d="M6.137 308.994c2.148 1.775 5.417 2.335 7.471.374 1.588-1.588 1.961-4.109 2.148-6.538.187-2.428.094-5.043-.84-7.284-3.456 1.401-8.592 2.802-11.487 5.417-1.868 1.681-1.775 1.12-.56 3.735.747 1.681 1.96 3.269 3.268 4.296z" fill="#A6BBDE"/><path d="M6.697 302.924c-.467.28-1.12 0-1.307-.561l-4.11-10.086c-.186-.56 0-1.214.468-1.494.466-.28 1.12 0 1.307.56l4.11 9.993c.186.654 0 1.308-.468 1.588zm4.67-2.428c-.467.28-1.12 0-1.308-.561l-4.109-9.992c-.186-.561 0-1.214.467-1.495.467-.28 1.121 0 1.308.561l4.109 9.992c.28.561.093 1.214-.467 1.495z" fill="#A6BBDE"/><path d="M149.209 239.606c1.588-4.483 5.137-7.845 9.152-9.713 4.016-1.868 25.589-10.086 31.753 10.647 3.829 12.794.373 83.677-31.099 90.027-9.152 1.868-18.211-1.681-26.522-6.164-5.977-3.268-12.608-7.377-14.196-14.568" stroke="#A6BBDE" stroke-miterlimit="10"/><path d="M135.388 275H60.957v129.251h74.431V275z" fill="#DCE8F7"/><path d="M106.997 357.837c-14.662 6.257-32.219 3.082-44.453-8.032-12.234-11.113-20.452-46.788-13.728-52.858 4.856-4.296 11.954 2.054 16.903 19.798 3.082 11.114 1.681 28.671-6.07 31.193-6.164 2.054-12.701-1.401-18.211-5.324-12.981-9.432-23.814-22.507-31.286-37.729" stroke="#A6BBDE" stroke-miterlimit="10"/><path d="M40.504 242.501l-.654 14.942c-.093 1.961-1.588 3.456-3.269 3.362-1.774-.093-3.082-1.774-2.988-3.735l.654-14.943c.093-1.961 1.587-3.455 3.268-3.362 1.681.094 3.082 1.775 2.989 3.736z" fill="#A6BBDE"/><path d="M37.329 257.443c0 .467-.374.841-.748.841l-10.086-.561c-.373 0-.747-.373-.747-.84 0-.467.374-.841.747-.841l9.993.561c.467 0 .84.373.84.84zm.186-5.23c0 .467-.374.841-.747.841l-9.993-.56c-.373 0-.747-.374-.747-.841 0-.467.374-.841.747-.841l9.993.561c.467-.094.747.373.747.84zm.281-5.323c0 .467-.374.841-.748.841l-9.992-.561c-.374 0-.747-.373-.747-.84 0-.467.373-.841.747-.841l9.992.561c.374 0 .748.373.748.84zm.187-5.323c0 .467-.374.84-.747.84l-10.086-.56c-.374 0-.747-.373-.747-.84 0-.467.373-.841.747-.841l9.992.56c.56 0 .84.467.84.841z" fill="#A6BBDE"/><path d="M37.236 251.279c7.751-3.735 16.623-6.35 29.791-22.04 17.93-21.386-8.312-34.18-12.514-7.844-8.032 50.15 27.27 73.03 41.745 70.509" stroke="#A6BBDE" stroke-miterlimit="10"/><path d="M229.244 257.817l-4.949 13.821c-.654 1.775.093 3.923 1.774 4.576 1.588.748 3.455-.186 4.109-1.961l4.95-13.821c.653-1.775-.094-3.923-1.775-4.576-1.587-.748-3.455.186-4.109 1.961z" fill="#A6BBDE"/><path d="M226.536 272.946c-.187.467 0 .934.374 1.121l9.339 4.202c.373.187.84 0 .934-.467.186-.467 0-.934-.374-1.121l-9.339-4.202c-.28-.187-.747.093-.934.467zm1.775-4.856c-.187.466 0 .933.373 1.12l9.339 4.203c.374.186.841 0 .934-.467.187-.467 0-.934-.374-1.121l-9.339-4.202c-.28-.187-.747 0-.933.467zm1.774-4.95c-.187.467 0 .934.373 1.121l9.339 4.202c.374.187.841 0 .934-.467.187-.467 0-.934-.373-1.121l-9.339-4.202c-.28-.187-.747.093-.934.467zm1.774-4.856c-.186.467 0 .934.374 1.12l9.339 4.203c.373.187.84 0 .934-.467.186-.467 0-.934-.374-1.121l-9.339-4.202c-.373-.187-.747 0-.934.467z" fill="#A6BBDE"/><path d="M228.964 267.436c-5.696-7.004-12.794-13.542-18.771-33.994-8.218-27.83 20.359-27.176 14.289-1.214-11.487 49.216-52.112 53.512-64.252 44.453m-63.879-30.445c-9.339-6.35-21.946-5.977-30.912.934-6.724 5.137-11.113 13.168-14.755 21.293-6.91 15.503-11.58 33.153-8.032 50.057 3.55 16.81 17.651 31.752 32.967 29.791 7.378-.934 14.382-5.79 18.398-12.701 4.015-6.911 5.136-16.063 2.895-24.001m11.393 74.805c-2.335-7.565-8.498-13.448-15.503-14.756-7.004-1.307-14.568 1.868-18.958 8.125-2.708 3.923-5.043 9.339-9.432 9.713-4.11.373-7.098-4.016-9.9-7.378-2.801-3.362-7.844-6.164-10.74-2.895-.653 4.296-2.334 9.619-6.163 9.619-3.269 0-5.323-4.296-5.23-7.938.094-3.642 1.495-7.191 1.775-10.833.56-8.779-7.098-17.09-14.943-16.157" stroke="#A6BBDE" stroke-miterlimit="10"/><path d="M170.689 218.593H81.222v185.752h89.467V218.593z" fill="#A6BBDE"/><path d="M157.802 258.47c0-1.681-1.308-3.081-2.802-3.081H97.94c-1.495 0-2.803 1.4-2.803 3.081v1.495H81.783v1.961h13.354v1.774c0 1.681 1.308 3.082 2.802 3.082H155c1.494 0 2.802-1.401 2.802-3.082v-1.774h12.888v-1.961h-12.888v-1.495zm0 18.025c0-1.681-1.308-3.082-2.802-3.082H97.94c-1.495 0-2.803 1.307-2.803 3.082v1.587H81.783v1.961h13.354v1.681c0 1.681 1.308 3.082 2.802 3.082H155c1.494 0 2.802-1.401 2.802-3.082v-1.681h12.888v-1.961h-12.888v-1.587zm0 18.024c0-1.681-1.308-3.082-2.802-3.082H97.94c-1.495 0-2.803 1.401-2.803 3.082v1.681H81.783v1.961h13.354v1.588c0 1.681 1.308 3.081 2.802 3.081H155c1.494 0 2.802-1.4 2.802-3.081v-1.588h12.888V296.2h-12.888v-1.681zm12.888 24.188H81.783v1.961h88.907v-1.961zm0-83.117H81.783v1.961h88.907v-1.961zm-12.888 140.831c0-1.681-1.308-3.082-2.802-3.082H97.94c-1.495 0-2.803 1.401-2.803 3.082v1.775H81.783v1.961h13.354v1.494c0 1.681 1.308 3.082 2.802 3.082H155c1.588 0 2.802-1.401 2.802-3.082v-1.494h12.888v-1.961h-12.888v-1.775zm0-18.117c0-1.681-1.308-3.082-2.802-3.082H97.94c-1.495 0-2.803 1.401-2.803 3.082v1.774H81.783v1.961h13.354v1.495c0 1.681 1.308 3.081 2.802 3.081H155c1.588 0 2.802-1.307 2.802-3.081v-1.495h12.888v-1.961h-12.888v-1.774zm0-18.024c0-1.681-1.308-3.082-2.802-3.082H97.94c-1.495 0-2.803 1.401-2.803 3.082v1.587H81.783v1.961h13.354v1.681c0 1.681 1.308 3.082 2.802 3.082H155c1.588 0 2.802-1.401 2.802-3.082v-1.681h12.888v-1.961h-12.888v-1.587z" fill="#BECFE5"/><path d="M33.874 372.779c-.374-3.082-2.055-6.07-4.67-7.191-2.615-1.121-5.977-.093-7.284 2.615-.654 1.401-.84 3.082-1.681 4.202-.934 1.214-2.522 1.588-3.923 1.121-1.4-.467-2.521-1.588-3.268-2.895-.747-1.214-1.214-2.615-2.055-3.642-.84-1.027-2.428-1.681-3.455-.841m103.101-137.095c-6.537-2.709-14.101-6.724-14.942-14.382-1.027-8.686 7.378-15.41 8.405-24.095.467-4.109-.934-8.685-4.202-10.833-3.176-2.148-7.939-1.027-9.62 2.615-1.4 3.175-.28 7.098 1.775 9.712 2.148 2.615 5.043 4.203 7.938 5.604 9.059 4.669 18.118 9.432 27.176 14.102 3.082 1.587 6.257 3.268 8.219 6.257 1.961 2.988 2.334 7.751-.187 10.273-2.895 2.801-7.845.84-9.806-2.896-1.961-3.735-1.681-8.405-.934-12.701.747-4.856 1.961-9.712 4.576-13.634 2.615-3.923 6.724-6.911 11.114-6.818 3.268.094 6.257 1.868 9.058 3.829 5.604 3.923 10.74 8.966 13.729 15.596 2.988 6.537 3.548 14.849.186 21.2" stroke="#A6BBDE" stroke-miterlimit="10"/><path d="M499.514 92.424a81.797 81.797 0 00-13.355-44.734c-8.685-13.26-21.386-23.534-36.142-29.697-14.662-5.977-30.912-7.658-46.508-4.483-15.596 3.175-29.978 10.833-41.091 22.227-45.294-14.102-92.082 14.101-102.075 59.489-25.028 7.658-43.146 30.912-43.146 57.434 0 33.247 27.737 60.33 60.984 60.33h221.333c33.246 0 60.983-27.083 60.983-60.33 0-33.246-27.737-60.236-60.983-60.236z" stroke="#87A4D4" stroke-miterlimit="10" stroke-dasharray="2 2"/><path d="M458.796 112.129c0-13.168-3.829-26.056-11.114-37.076-7.191-11.02-17.744-19.518-29.884-24.654-12.141-4.95-25.589-6.35-38.57-3.736-12.888 2.615-24.842 8.966-34.087 18.398-37.543-11.674-76.3 11.674-84.611 49.31-20.733 6.35-35.768 25.588-35.768 47.628 0 27.55 22.973 49.964 50.523 49.964h183.417c27.55 0 50.524-22.414 50.524-49.964 0-27.55-22.88-49.87-50.43-49.87z" fill="#DCE8F7"/><path d="M342.059 52.64c14.287 0 25.868-11.582 25.868-25.869 0-14.287-11.581-25.869-25.868-25.869-14.287 0-25.869 11.582-25.869 25.87 0 14.286 11.582 25.868 25.869 25.868z" fill="#fff" stroke="#87A4D4" stroke-miterlimit="10" stroke-dasharray="2 2"/><path d="M356.908 29.293l-2.802-1.214c.093-.654.093-1.308.093-1.962l2.896-1.12c.56-.187.84-.84.653-1.494l-1.868-4.857c-.186-.56-.84-.84-1.494-.654l-2.895 1.121c-.467-.467-.84-.934-1.307-1.4l1.214-2.802c.187-.56 0-1.214-.561-1.495l-4.669-2.054c-.56-.187-1.214 0-1.494.56l-1.214 2.802c-.654-.094-1.308-.094-1.962-.094l-1.12-2.895c-.187-.56-.841-.84-1.494-.653l-4.857 1.867c-.56.187-.84.841-.653 1.495l1.12 2.895c-.467.467-.934.84-1.401 1.307l-2.801-1.214c-.561-.187-1.214 0-1.494.56l-2.055 4.67c-.187.56 0 1.214.56 1.494l2.802 1.214c-.093.654-.093 1.308-.093 1.961l-2.895 1.121c-.561.187-.841.84-.654 1.494l1.868 4.857c.186.56.84.84 1.494.653l2.895-1.12c.467.467.84.934 1.307 1.4l-1.214 2.802c-.187.56 0 1.214.561 1.494l4.669 2.055c.56.187 1.214 0 1.494-.56l1.214-2.802c.654.093 1.308.093 1.962.093l1.12 2.895c.187.56.841.84 1.494.654l4.857-1.868c.56-.186.84-.84.653-1.494l-1.12-2.895c.467-.467.934-.84 1.401-1.307l2.801 1.214c.561.186 1.214 0 1.495-.56l2.054-4.67c.28-.56 0-1.308-.56-1.494zm-17.184 2.988c-2.988-1.307-4.389-4.856-3.082-7.938 1.308-2.988 4.856-4.39 7.938-3.082 2.989 1.308 4.39 4.856 3.082 7.938-1.494 2.989-4.949 4.39-7.938 3.082z" fill="#F4C1C3"/><path d="M154.626 148.177c7.658.748 14.382-4.949 15.036-12.514.747-7.564-4.95-14.382-12.514-15.036-3.549-.28-6.911.748-9.526 2.709a21.195 21.195 0 002.428-8.032c1.027-11.58-7.471-21.76-19.052-22.88-11.486-1.12-21.759 7.471-22.88 19.051a23.551 23.551 0 00.747 7.752c-1.868-4.763-6.257-8.312-11.673-8.779-7.658-.747-14.382 4.95-15.036 12.514-.187 1.775 0 3.456.467 5.137-13.822-4.67-36.422 1.681-38.383 20.078h110.386zM400.8 282.845c5.23.467 9.9-3.362 10.46-8.685.467-5.23-3.362-9.899-8.685-10.46-2.428-.187-4.763.467-6.631 1.868.841-1.681 1.494-3.549 1.681-5.51.747-8.031-5.136-15.036-13.168-15.783-8.031-.747-15.036 5.137-15.783 13.168-.186 1.868 0 3.642.561 5.417-1.308-3.269-4.296-5.697-8.032-6.071-5.23-.467-9.899 3.362-10.459 8.686-.094 1.214 0 2.428.373 3.548-9.619-3.175-25.215 1.215-26.523 13.915l76.206-.093z" fill="#DCE8F7"/><path d="M429.845 351.86c0 .373.28.654.28.654l-.28-.654z" fill="#EA8F96"/><path d="M399.306 312.356c5.417 21.387-1.121 19.425 8.125 36.142 9.059 16.997 13.168 16.53 18.304 32.033" stroke="#EA8F96" stroke-miterlimit="10"/><path d="M403.509 339.719c-2.054-1.307-3.268-3.362-5.977-4.482-8.405-2.989-16.716.84-23.534-7.285-3.268-4.015-2.148-12.607 4.763-10.553 3.736 1.214 4.856 5.697 7.938 7.938 3.269 2.428 7.751 2.055 11.3 4.39 3.736 2.428 4.483 6.91 6.164 10.833m-18.771-43.239c-1.588-2.429-5.137-5.51-7.938-3.082-1.962 1.587-2.429 4.482-2.055 6.817 3.269 18.491 24.935 13.915 26.429 27.27 0-8.779-7.284-10.553-10.179-15.409-2.802-4.95-3.082-10.927-6.257-15.596z" fill="#D90F16"/><path d="M402.108 326.645c-2.428-20.266-18.024-32.313-18.211-42.959 0-2.428.374-5.417 2.055-7.285 4.856-5.696 9.432 9.619 10.086 12.141.934 3.735 1.308 7.938 2.055 11.86.747 5.791 4.202 18.118 4.015 26.243z" fill="#D90F16"/><path d="M402.389 330.661c-.187-1.215-.187-2.429-.187-3.736 0-2.895-.28-5.51-.28-8.405 0-6.911.467-23.534 7.284-27.55 3.269-2.055 4.016 2.708 4.016 4.763-.28 5.51-3.082 10.553-5.51 15.409-2.895 5.323-5.323 11.02-5.136 17.184m15.035-13.355c.373-1.587 1.587-6.911-1.121-7.751-2.428-.841-8.125 2.615-10.833 23.16-1.588 11.674 5.79 23.535 7.284 26.336.467.934.934 2.148 1.588 3.269l.373.84c.467-1.12-2.241-5.977-2.708-6.817-2.708-5.977-5.043-10.086-3.082-16.53 2.428-7.751 6.631-14.569 8.499-22.507z" fill="#D90F16"/><path d="M424.148 333.742c.374-1.214 1.775-5.136-.653-5.51-2.429-.373-4.857 3.082-5.697 4.39-3.549 4.856-4.483 10.366-5.137 15.502-1.214 8.592 4.39 14.663 5.51 16.717.374.841 1.121 1.588 1.495 2.428l.373.654c.841-.467-1.961-4.203-2.241-4.856-2.428-4.39-4.483-7.191-2.428-12.141 2.241-6.164 6.724-11.393 8.778-17.184zm-13.915 20.173c-7.938-8.592-18.958-14.289-30.445-15.69-2.615-.373-5.79-.187-7.284 2.242-.934 1.961-.187 4.015 1.12 5.51 2.148 2.614 5.791 3.922 9.433 4.015 3.549.28 6.911-.373 10.459-.186 7.939.186 13.449 1.307 18.958 6.91" fill="#D90F16"/><path d="M430.312 282.845c-1.588-3.549-5.323-7.938-9.432-5.136-2.709 1.587-3.923 5.136-3.923 7.938.841 23.814 29.044 22.04 28.391 38.943 1.587-11.02-7.285-14.382-10.18-20.732-2.615-6.537-1.774-14.382-4.856-21.013z" fill="#EA8F96"/><path d="M448.803 315.905c1.307-5.043 1.214-10.74 5.697-14.662 3.922-3.362 9.619-3.736 13.261-7.285 3.269-3.268 4.016-9.432 8.592-11.393 8.405-3.922 11.3 6.537 7.751 12.141-6.911 11.393-18.211 7.938-28.017 13.448-2.988 1.587-4.202 4.482-6.537 6.817" fill="#D90F16"/><path d="M463.092 260.525c1.587-3.549 5.323-7.938 9.432-5.136 2.708 1.587 3.922 5.136 3.922 7.938-.84 23.814-29.044 22.04-28.39 38.943-1.588-11.02 7.284-14.382 10.179-20.732 2.709-6.911 1.868-14.569 4.857-21.013z" fill="#EA8F96"/><path d="M447.963 266.222c0-5.043 0-10.18.373-15.036.28-2.988 3.269-23.067 10.46-16.717 2.428 2.055 3.269 5.697 3.736 8.779 1.961 13.635-15.69 31.379-15.036 57.061-1.494-10.46.467-26.336.467-34.087z" fill="#EA8F96"/><path d="M447.215 302.644c-.84-7.752-4.856-14.569-9.432-20.639-4.016-5.51-8.405-11.394-9.619-18.211-.374-2.615-.28-8.592 4.015-6.538 9.059 3.923 12.795 24.282 13.822 33.06.374 3.549.841 6.911 1.214 10.46.187 1.307.374 2.895.374 4.483v.186m-39.223 23.628c0 .373 0 .84-.187.84l.187-.84z" fill="#F4C1C3"/><path d="M423.308 313.757c-.467-1.214-3.269-5.51-.187-6.35 3.082-.841 6.817 2.708 7.938 3.922 5.137 4.856 7.285 10.833 9.246 16.53 2.988 9.432-2.709 16.997-3.923 19.425-.373.934-1.12 1.774-1.494 2.895 0 0-.373.841-.373.654-1.121-.654 1.587-5.137 2.054-5.977 2.241-5.137 4.389-8.592.841-13.728-4.016-5.791-10.553-11.02-14.102-17.371z" fill="#EA8F96"/><path d="M448.803 281.724c-3.081 27.83 4.576 23.815-3.922 46.508-8.592 22.694-13.728 23.068-17.371 43.333" stroke="#F4C1C3" stroke-miterlimit="10"/><path d="M446.375 325.151c6.817-12.982 18.491-23.628 31.939-29.138 3.082-1.307 7.191-2.241 9.619.187 1.961 1.961 1.774 4.856.654 7.191-1.961 4.016-5.977 6.537-10.086 7.938-4.109 1.401-8.592 1.961-12.981 3.082-9.526 2.895-15.877 6.163-20.733 14.942m-.373 39.41c5.696-12.514 14.662-21.853 25.121-26.335 2.428-1.121 5.51-1.495 7.191 1.214 1.308 2.054 1.121 4.856.28 7.191-1.307 3.922-4.576 6.163-7.751 7.191-3.269.933-6.537 1.214-9.712 2.054-7.285 1.961-12.141 4.763-16.157 12.981" fill="#EA8F96"/><path d="M443.293 370.351c2.708-5.416 2.708-11.487 2.054-17.464-.373-5.323-.934-11.02 1.121-16.156.84-2.055 3.269-5.79 5.51-2.708 4.483 6.257-1.308 21.292-4.016 27.736-1.12 2.428-2.241 4.857-3.549 7.658-.373 1.121-.933 2.055-1.587 3.082v.187" fill="#EA8F96"/><path d="M441.519 405.932h-18.211l-10.179-38.009h38.383l-9.993 38.009z" fill="#274253"/><path d="M137.349 363.627c3.735-5.51 68.641-42.399 62.104-50.71-8.966-11.394-58.369 45.107-62.104 50.71z" fill="#583529"/><path d="M148.369 347.191l-20.826 18.304s32.593 37.169 35.394 34.647c2.802-2.521-16.716-24.841-9.245-46.414-3.923-4.67-5.323-6.537-5.323-6.537zm128.224 28.577l-1.775 27.643s49.31 3.269 49.497-.467c.186-3.736-29.325-5.79-39.411-26.336-6.07-.467-8.311-.84-8.311-.84z" fill="#EF757A"/><path d="M199.173 287.048c-4.483 5.51-51.084 50.897-52.578 57.995-1.495 7.097.84 10.273 7.658 8.031 21.666-15.129 62.757-48.749 67.24-52.485 19.051-15.783 41.372-90.027 36.422-95.724-3.456-4.016-36.422-10.46-36.982-4.95-1.308 13.168-13.168 76.486-21.76 87.133z" fill="#87A4D4"/><path d="M297.231 157.236c5.79-.84 24.375-21.666 30.165-27.176 12.421-11.674 8.499-27.363 6.07-27.083-5.136.56-9.245 4.669-11.86 9.152-2.522 4.483-1.121 6.911-3.269 11.58-2.521 5.417-13.915 15.036-19.798 16.344-4.483 1.027-30.539-36.422-33.714-37.169-3.922-.934-7.191 15.689-8.312 20.265-.84 3.362 30.819 35.488 40.718 34.087z" fill="#583529"/><path d="M221.212 207.48c.934 7.284 3.922 14.102 7.285 20.639 6.63 12.981 39.877 63.692 40.437 68.174.56 4.016 5.043 74.712 7.285 84.424 2.428 2.242 6.817.747 8.498-2.148 1.681-2.895 10.46-84.05 9.432-91.054-1.587-10.927-28.95-97.219-31.005-99.46-3.549-3.829-15.783-2.055-21.013-2.428-5.136-.374-12.981-1.962-16.997 2.334-4.295 4.67-4.762 13.542-3.922 19.519z" fill="#B1C0DD"/><path d="M215.609 108.487c-1.401 2.988-1.12 6.537-.56 9.899a149.772 149.772 0 006.631 24.842c2.708 7.284 5.977 14.569 6.63 22.413.747 8.499-6.817 24.001-5.23 24.188 11.301 1.775 41.279 7.191 43.24 7.752 2.148.653 11.58-56.314 10.833-71.91-.28-4.857-.934-9.993-3.549-14.102-3.082-4.95-5.79-10.18-22.787-14.195-16.997-4.016-30.912 2.148-35.208 11.113z" fill="#EF757A"/><path d="M234.473 71.972c-3.175-7.191-1.867-16.53 3.082-22.134 4.95-5.697 13.262-7.377 19.892-4.109a15.49 15.49 0 016.351 5.697c1.681 2.802 2.335 6.164 3.549 9.152 1.214 2.988 5.043 5.884 5.136 7.004.093 1.121-3.362 1.214-2.522 6.818.467 2.988 2.429 5.416 1.962 7.284-.467 1.868-2.709 2.428-5.043 2.428-2.335 0-7.098.56-8.125 2.895-.561 1.308-.467 5.79-.374 7.285.374 3.082 2.335 10.273-.187 11.58-3.922 2.055-18.584-4.389-16.063-10.553 2.802-6.91-5.043-17.37-7.658-23.347zm-48.281 85.264c-1.962 6.631-1.962 13.729-1.962 20.639v44.921c0 2.054 0 4.109.841 5.977 1.121 2.708 3.829 6.817 6.631 7.751 2.801.841 5.79.934 8.778.934-1.027-4.763-1.401-11.861-.934-16.717l2.522 10.086c1.401-5.883 2.708-12.234.467-17.931-1.027-2.708-2.895-5.043-4.016-7.657-2.335-5.324-.56-36.142 4.483-45.388 3.922-7.191 30.258-37.449 29.604-45.667-.373-4.576-29.044 11.86-31.192 15.596-5.23 9.245-12.234 17.37-15.222 27.456z" fill="#583529"/><path d="M219.064 103.351c-5.696 5.229-15.129 20.358-19.331 26.896-1.027 1.681 14.569 11.954 16.53 11.3 1.681-.56 5.323-5.977 6.444-7.378 2.615-3.362 5.136-6.817 7.564-10.273 2.709-3.829 5.323-7.938 5.884-12.607.467-3.923-1.308-9.153-4.857-11.394-4.295-2.521-9.152.654-12.234 3.456z" fill="#EA8F96"/><path d="M245.774 68.61c-1.121 1.12.84-6.818-3.455-6.164-1.775.28-3.362 1.588-3.736 3.362-.374 1.774.187 3.642.654 5.417 1.307 4.576 1.961 9.152 3.268 13.634-17.183-5.323-23.721-29.51-13.821-32.5.84-.28 1.867-.466 2.428-1.213.84-1.028.28-2.522.28-3.83-.093-1.96 1.214-3.828 2.802-5.042 1.681-1.12 3.642-1.681 5.603-2.148 5.043-1.12 10.273-1.681 15.503-1.588 2.241 0 4.576.187 6.537 1.401 3.642 2.241 3.362 7.938-.934 8.125-17.09.84-10.927 16.25-15.129 20.546z" fill="#000"/><path d="M329.638 119.227c.934 1.214 7.191 7.097 6.537-18.678-.093-2.615-1.027-4.483-3.362-4.483-8.778.187-4.202 22.04-3.175 23.161z" fill="#583529"/><path d="M326.463 125.204l-11.114-6.538c-1.681-.373-2.988-2.614-2.895-4.949l.374-32.78c.093-2.335 2.335-4.296 5.323-3.736l11.113 2.709c1.681.373 4.203 2.708 4.11 5.043l-1.681 35.768c-.094 2.241-3.549 4.95-5.23 4.483z" fill="#87A4D4"/><path d="M325.996 125.204l-11.954-5.324c-1.681-.373-2.989-2.614-2.895-4.949l1.494-33.34c.093-2.335 1.588-3.83 3.269-3.456l12.047 2.989c1.681.373 2.988 2.615 2.895 4.95l-1.681 35.768c0 2.148-1.494 3.735-3.175 3.362z" fill="#fff"/><path d="M161.63 49.838l-19.518 7.658.56-12.047 18.958 4.39z" fill="#A6BBDE"/><path d="M189.18 28.452l-28.951 34.834-11.767-13.168-14.008-10.646 54.726-11.02z" fill="#F4F8FD"/><path d="M189.18 28.452l-46.508 17.184 5.697 4.482 40.811-21.666z" fill="#A6BBDE"/><path d="M545.274 167.696c15.215 0 27.55-12.335 27.55-27.55s-12.335-27.55-27.55-27.55-27.55 12.335-27.55 27.55 12.335 27.55 27.55 27.55z" fill="#fff" stroke="#87A4D4" stroke-miterlimit="10" stroke-dasharray="2 2"/><path d="M548.169 146.683l12.328-15.409c.466-.56.373-1.308-.187-1.775l-3.549-2.895c-.56-.467-1.308-.373-1.775.187l-10.366 12.795c-.56.56-1.494.56-1.961 0l-4.669-5.884c-.467-.56-1.214-.654-1.775-.187l-3.549 2.895c-.56.467-.653 1.308-.186 1.775l10.179 12.701c.56.56 1.494.56 1.961 0l3.549-4.203z" fill="#75DBA1"/><path d="M563.672 403.598H26.962v5.79h536.71v-5.79z" fill="#C3D3EA"/><path d="M475.232 70.384c17.021 0 30.819-13.798 30.819-30.819 0-17.02-13.798-30.818-30.819-30.818-17.02 0-30.818 13.798-30.818 30.819 0 17.02 13.798 30.818 30.818 30.818z" fill="#fff" stroke="#87A4D4" stroke-miterlimit="10" stroke-dasharray="2 2"/><path d="M494.1 44.296c1.034-8.604-5.103-16.416-13.706-17.45-8.604-1.034-16.416 5.103-17.45 13.706-1.034 8.604 5.103 16.416 13.706 17.45 8.604 1.034 16.416-5.103 17.45-13.706z" fill="#FCD97A"/><path opacity=".5" d="M491.689 44.006c.874-7.272-4.313-13.875-11.585-14.75-7.272-.873-13.876 4.314-14.749 11.586-.874 7.272 4.313 13.876 11.585 14.75 7.272.873 13.875-4.314 14.749-11.586z" fill="#FBBD20"/><path d="M479.771 32.217c.757-6.299-3.736-12.019-10.035-12.775-6.299-.757-12.019 3.736-12.776 10.035-.756 6.299 3.736 12.018 10.035 12.775 6.299.757 12.019-3.736 12.776-10.035z" fill="#FCD97A"/><path opacity=".5" d="M477.823 31.983a9.527 9.527 0 10-18.915-2.272 9.527 9.527 0 0018.915 2.272z" fill="#FBBD20"/><path d="M357.748 241.287c21.663 0 39.224-17.561 39.224-39.224 0-21.662-17.561-39.223-39.224-39.223-21.662 0-39.223 17.561-39.223 39.223 0 21.663 17.561 39.224 39.223 39.224z" fill="#fff" stroke="#87A4D4" stroke-miterlimit="10" stroke-dasharray="2 2"/><path d="M349.997 188.989c0-4.39 3.549-7.845 7.844-7.845 4.39 0 7.845 3.455 7.845 7.845v16.343h2.802v-16.343a10.642 10.642 0 00-10.647-10.647 10.642 10.642 0 00-10.646 10.647l.093 16.063h2.802l-.093-16.063z" fill="#274253"/><path d="M366.246 222.422h-16.903a7.095 7.095 0 01-7.098-7.097V201.69a7.095 7.095 0 017.098-7.098h16.903a7.094 7.094 0 017.098 7.098v13.728c0 3.829-3.175 7.004-7.098 7.004z" fill="#FCD97A"/><path d="M361.391 204.305c0-2.055-1.588-3.643-3.643-3.643-2.054 0-3.642 1.588-3.642 3.643 0 1.214.654 2.334 1.588 2.895l-1.401 7.284h7.004l-1.401-7.284c.934-.561 1.495-1.588 1.495-2.895z" fill="#274253"/></g><defs><clipPath id="clip0"><path fill="#fff" transform="translate(.5)" d="M0 0h573v409.964H0z"/></clipPath></defs></svg>