<svg width="1440" height="1531" fill="none" xmlns="http://www.w3.org/2000/svg"><path fill-rule="evenodd" clip-rule="evenodd" d="M1452.67 991.082C988.8 1384.8 262.861 652.87-241.873 1090.12c0 0-78.509 306.37-315.653 426.42-276.182 115.83-54.756-507.86-390.513-406.04-137.331-26.86-233.081 91.83-356.011 59.96 489.811-170.3 947.667-491.952 1382.058-635.524 86.437-30.053 189.319-50.877 265.766-62.535 270.362-26.918 515.005 91.337 759.906 6.186 129.66-45.08 265.1-168.614 328.3-220.431 111.98-98.624 180.75-182.22 332.59-257.397 115.15 56.956 307.84 139.333 366.41 268.184-123.72 208.579-362.67 454.227-678.31 722.139z" fill="url(#paint0_linear)"/><defs><linearGradient id="paint0_linear" x1="713" y1="407" x2="360.5" y2="1237" gradientUnits="userSpaceOnUse"><stop stop-color="#F5F8FF"/><stop offset="1" stop-color="#F5F8FF" stop-opacity=".1"/></linearGradient></defs></svg>