<svg width="1440" height="1225" fill="none" xmlns="http://www.w3.org/2000/svg"><path fill-rule="evenodd" clip-rule="evenodd" d="M87.355 236.587c149.957-60.808 362.425 12.167 535.165 54.649 142.386 32.058 353.744 129.922 534.05 79.538C1350.5 322.259 1909.32 98.071 2156.79.56c115.16 28.322 111.93 211.049 30.7 344.874-356.59 163.922-757.02 266.734-1099.31 350.184-62.93 28.927-230.13 72.417-288.82 83.145-210.662 39.959-435.426-141.128-613.721-59.167-94.391 43.391-173.363 201.584-213.3 252.446-69.386 96.908-107.309 179.348-213.3 252.448-103.56-58.03-139.749-244.547-212.748-373.509 157.527-153.674 248.513-504.288 541.064-614.394z" fill="url(#paint0_linear)"/><defs><linearGradient id="paint0_linear" x1="940.394" y1="835.613" x2="594.144" y2="-18.935" gradientUnits="userSpaceOnUse"><stop stop-color="#F5F8FF" stop-opacity="0"/><stop offset="1" stop-color="#F5F8FF"/></linearGradient></defs></svg>