<svg width="1440" height="1225" fill="none" xmlns="http://www.w3.org/2000/svg"><path d="M634.732 275.615c-172.739-42.483-382.543-60.809-532.499 0-292.552 110.106-394.183 421.809-551.71 575.483 73 128.963 109.188 315.472 212.748 373.512 105.991-73.1 143.914-155.55 213.3-252.45 39.938-50.863 118.91-209.056 213.301-252.447C532.732 562.102 672.5 797.5 1089 762.5c416.5-35 1102.73-416.949 1102.73-416.949 81.22-133.824 84.46-316.552-30.7-344.874-247.48 97.51-806.3 321.699-1000.22 370.215-180.314 50.383-383.691-63.22-526.078-95.277z" fill="url(#paint0_linear)"/><defs><linearGradient id="paint0_linear" x1="861" y1="954" x2="1015.33" y2="219.044" gradientUnits="userSpaceOnUse"><stop stop-color="#F5F8FF" stop-opacity="0"/><stop offset="1" stop-color="#F5F8FF"/></linearGradient></defs></svg>