<svg width="1120" height="445" fill="none" xmlns="http://www.w3.org/2000/svg"><rect x=".5" y="1.482" width="1119" height="390.141" rx="25.5" stroke="#7197E1" stroke-dasharray="3 3"/><path d="M730.766 192.323l5 2.887v-5.774l-5 2.887zm337.714 45.792l-5-2.886v5.773l5-2.887zm-333.407-45.292h2.871v-1h-2.871v1zm5.742 0h2.872v-1h-2.872v1zm5.743 0h2.871v-1h-2.871v1zm5.742 0h2.872v-1H752.3v1zm5.743 0h2.871v-1h-2.871v1zm5.743 0h1.435v-1h-1.435v1zm1.435 0c.368 0 .727.036 1.074.105l.194-.981a6.538 6.538 0 00-1.268-.124v1zm3.056.926c.6.402 1.117.919 1.518 1.519l.831-.557a6.539 6.539 0 00-1.793-1.793l-.556.831zm2.34 3.5c.068.347.104.706.104 1.074h1c0-.433-.042-.857-.123-1.268l-.981.194zm.104 1.074v1.408h1v-1.408h-1zm0 4.224v2.816h1v-2.816h-1zm0 5.632v2.816h1v-2.816h-1zm0 5.632v2.816h1v-2.816h-1zm0 5.632v2.816h1v-2.816h-1zm0 5.632v2.816h1v-2.816h-1zm0 5.632v1.408h1v-1.408h-1zm0 1.408c0 .434.043.858.124 1.268l.981-.194a5.502 5.502 0 01-.105-1.074h-1zm1.095 3.612a6.539 6.539 0 001.793 1.793l.557-.831a5.529 5.529 0 01-1.519-1.518l-.831.556zm4.137 2.765c.411.081.835.123 1.268.123v-1a5.58 5.58 0 01-1.074-.104l-.194.981zm1.268.123h1.399v-1h-1.399v1zm4.197 0h2.798v-1h-2.798v1zm5.596 0h2.798v-1h-2.798v1zm5.596 0h2.798v-1h-2.798v1zm5.596 0h2.798v-1h-2.798v1zm5.597 0h2.798v-1h-2.798v1zm5.596 0h1.399v-1h-1.399v1zm1.399 0h1.498v-1h-1.498v1zm4.494 0h2.996v-1h-2.996v1zm5.993 0h2.996v-1h-2.996v1zm5.992 0h2.997v-1h-2.997v1zm5.993 0h2.996v-1h-2.996v1zm5.993 0h2.996v-1h-2.996v1zm5.992 0h2.997v-1h-2.997v1zm5.993 0h2.996v-1h-2.996v1zm5.993 0h2.996v-1h-2.996v1zm5.993 0h2.996v-1h-2.996v1zm5.992 0h2.997v-1h-2.997v1zm5.993 0h2.996v-1h-2.996v1zm5.993 0h2.996v-1h-2.996v1zm5.992 0h2.997v-1h-2.997v1zm5.993 0h2.996v-1h-2.996v1zm5.993 0h2.996v-1h-2.996v1zm5.992 0h2.997v-1h-2.997v1zm5.993 0h2.996v-1h-2.996v1zm5.993 0h2.996v-1h-2.996v1zm5.992 0h2.997v-1h-2.997v1zm5.993 0h2.996v-1h-2.996v1zm5.993 0h2.996v-1h-2.996v1zm5.992 0h2.997v-1h-2.997v1zm5.993 0h2.996v-1h-2.996v1zm5.993 0h2.996v-1h-2.996v1zm5.992 0h2.997v-1h-2.997v1zm5.993 0h2.996v-1h-2.996v1zm5.993 0h2.996v-1h-2.996v1zm5.992 0h2.997v-1h-2.997v1zm5.993 0h2.996v-1h-2.996v1zm5.993 0h2.996v-1h-2.996v1zm5.992 0h2.997v-1h-2.997v1zm5.998 0h2.99v-1h-2.99v1zm5.99 0h2.99v-1h-2.99v1zm5.99 0h3v-1h-3v1zm5.99 0h3v-1h-3v1zm6 0h2.99v-1h-2.99v1zm5.99 0h2.99v-1h-2.99v1zm5.99 0h3v-1h-3v1zm5.99 0h3v-1h-3v1zm6 0h2.99v-1h-2.99v1zm5.99 0h3v-1h-3v1zm5.99 0h3v-1h-3v1zm-935.063-134.6l-5-2.887v5.774l5-2.887zm-4.213-.5h-2.808v1h2.808v-1zm-5.616 0h-2.809v1h2.809v-1zm-5.617 0h-2.809v1h2.809v-1zm-5.617 0h-2.808v1h2.808v-1zm-5.617 0H96.44v1h2.808v-1zm-5.616 0h-1.404v1h1.404v-1zm-1.404 0c-.48 0-.954.023-1.422.069l.097.995c.436-.042.878-.064 1.325-.064v-1zm-4.21.621a14.4 14.4 0 00-2.627 1.089l.472.882c.773-.414 1.59-.755 2.444-1.014l-.29-.957zm-4.99 2.67a14.583 14.583 0 00-2.01 2.01l.773.635a13.584 13.584 0 011.872-1.872l-.635-.773zm-3.59 4.372a14.42 14.42 0 00-1.09 2.627l.958.29c.258-.854.599-1.672 1.013-2.445l-.882-.472zm-1.642 5.416a14.65 14.65 0 00-.068 1.421h1c0-.447.021-.889.064-1.324l-.996-.097zm-.068 1.421v1.55h1v-1.55h-1zm0 4.65v3.099h1v-3.099h-1zm0 6.199v3.099h1v-3.099h-1zm0 6.199v3.099h1v-3.099h-1zm0 6.199v3.1h1v-3.1h-1zm0 6.199v3.1h1v-3.1h-1zm0 6.199v3.1h1v-3.1h-1zm0 6.2v3.099h1v-3.099h-1zm0 6.199v3.099h1v-3.099h-1zm0 6.199v3.1h1v-3.1h-1zm0 6.199v3.1h1v-3.1h-1zm0 6.199v1.55h1v-1.55h-1zm0 1.55v1.557h1v-1.557h-1zm0 4.671v3.114h1v-3.114h-1zm0 6.229v3.114h1v-3.114h-1zm0 6.228v3.114h1v-3.114h-1zm0 6.228v3.114h1v-3.114h-1zm0 6.228v3.114h1v-3.114h-1zm0 6.229v1.557h1v-1.557h-1zm0 1.557c0 .479.023.953.068 1.421l.996-.097a13.666 13.666 0 01-.064-1.324h-1zm.62 4.21a14.41 14.41 0 001.09 2.626l.88-.472a13.428 13.428 0 01-1.012-2.444l-.958.29zm2.67 4.989a14.575 14.575 0 002.01 2.009l.635-.772a13.64 13.64 0 01-1.872-1.872l-.772.635zm4.373 3.591a14.4 14.4 0 002.626 1.089l.29-.957c-.853-.259-1.671-.6-2.444-1.014l-.472.882zm5.415 1.641c.468.045.942.069 1.422.069v-1a13.8 13.8 0 01-1.325-.064l-.097.995zm1.422.069h1.503v-1h-1.503v1zm4.509 0h3.006v-1h-3.006v1zm6.012 0h3.006v-1h-3.006v1zm6.013 0h3.006v-1h-3.006v1zm6.012 0h3.006v-1h-3.006v1zm6.012 0h3.007v-1h-3.007v1zm6.013 0h3.006v-1h-3.006v1zm6.012 0h3.006v-1h-3.006v1zm6.013 0h3.006v-1h-3.006v1zm6.012 0h3.006v-1h-3.006v1zm6.012 0h3.007v-1h-3.007v1zm6.013 0h1.503v-1h-1.503v1z" fill="#7197E1"/><path d="M227.052 105.923h66.136c7.732 0 14 6.268 14 14v55.952c0 7.732 6.268 14 14 14h19.39" stroke="#7197E1" stroke-dasharray="3 3"/><path d="M659.451 144.485a93.524 93.524 0 00-57.768-86.795 93.493 93.493 0 00-102.192 20.63c-52.803-16.503-107.465 16.503-119.092 69.433-29.152 8.999-50.317 36.031-50.317 67.111 0 38.825 32.364 70.412 71.196 70.412h258.173c38.832 0 71.196-31.598 71.196-70.412 0-38.815-32.364-70.379-71.196-70.379z" fill="url(#paint0_linear)"/><g filter="url(#filter0_d)"><path d="M530.369 266.65c46.216 0 83.682-37.47 83.682-83.691 0-46.221-37.466-83.69-83.682-83.69s-83.681 37.469-83.681 83.69 37.465 83.691 83.681 83.691z" fill="#fff"/></g><path d="M563.026 191.382a14.472 14.472 0 00-4.838-1.389v-6.667c0-.579-.223-1.134-.622-1.543a2.094 2.094 0 00-1.502-.638h-23.529v-9.01h10.62a8.365 8.365 0 005.654-2.206 8.801 8.801 0 002.792-5.51 8.907 8.907 0 00-1.485-6.021 8.494 8.494 0 00-5.01-3.48 10.994 10.994 0 00-2.794-5.593 10.538 10.538 0 00-5.339-3.075 10.34 10.34 0 00-6.105.468 10.64 10.64 0 00-4.835 3.856 8.247 8.247 0 00-5.349.475 8.527 8.527 0 00-3.988 3.691 8.437 8.437 0 00-5.558 3.046 8.875 8.875 0 00-1.987 6.138 8.82 8.82 0 002.675 5.856 8.373 8.373 0 005.867 2.355h10.62v9.01h-23.521c-.563 0-1.103.229-1.502.638a2.213 2.213 0 00-.622 1.543v6.667a14.36 14.36 0 00-4.829 1.389c-2.367 1.211-3.667 3-3.667 5.03v17.449c0 2.038 1.3 3.828 3.667 5.039a16.87 16.87 0 006.958 1.504c2.395 0 4.765-.512 6.957-1.504 2.358-1.211 3.658-3.001 3.658-5.039v-17.449c0-2.03-1.3-3.819-3.658-5.03a14.426 14.426 0 00-4.838-1.389v-4.451h21.388v4.451a14.427 14.427 0 00-4.837 1.389c-2.359 1.211-3.659 3-3.659 5.03v17.449c0 2.038 1.3 3.828 3.659 5.039a16.865 16.865 0 006.957 1.504c2.396 0 4.765-.512 6.957-1.504 2.367-1.211 3.668-3.001 3.668-5.039v-17.449c0-2.03-1.301-3.819-3.668-5.03a14.347 14.347 0 00-4.829-1.389v-4.451h21.38v4.451a14.353 14.353 0 00-4.829 1.389c-2.367 1.211-3.668 3-3.668 5.03v17.449c0 2.038 1.301 3.828 3.668 5.039a16.865 16.865 0 006.957 1.504c2.396 0 4.765-.512 6.958-1.504 2.358-1.211 3.658-3.001 3.658-5.039v-17.449c.009-2.03-1.292-3.819-3.65-5.03zm-51.853 22.479c0 .08-.225.578-1.309 1.139a12.82 12.82 0 01-5.059 1.042 12.82 12.82 0 01-5.059-1.042c-1.083-.561-1.317-1.059-1.317-1.139v-3.41a17.13 17.13 0 0012.744 0v3.41zm0-8.725c0 .081-.225.579-1.309 1.14a12.836 12.836 0 01-5.059 1.041c-1.737 0-3.456-.354-5.059-1.041-1.083-.561-1.317-1.059-1.317-1.14v-3.409a17.14 17.14 0 0012.744 0v3.409zm-1.309-9.854c1.084.56 1.309 1.059 1.309 1.13 0 .071-.225.579-1.309 1.14a12.836 12.836 0 01-5.059 1.041c-1.737 0-3.456-.354-5.059-1.041-1.083-.561-1.317-1.06-1.317-1.14 0-.08.234-.57 1.317-1.13a12.698 12.698 0 0110.118 0zm26.945 18.579c0 .08-.234.578-1.318 1.139a12.815 12.815 0 01-5.058 1.042c-1.737 0-3.457-.354-5.059-1.042-1.084-.561-1.309-1.059-1.309-1.139v-3.41a17.13 17.13 0 0012.744 0v3.41zm0-8.725c0 .081-.234.579-1.318 1.14a12.831 12.831 0 01-5.058 1.041c-1.737 0-3.457-.354-5.059-1.041-1.084-.561-1.309-1.059-1.309-1.14v-3.409a17.14 17.14 0 0012.744 0v3.409zm-1.318-9.854c1.084.56 1.318 1.059 1.318 1.13 0 .071-.234.579-1.318 1.14a12.831 12.831 0 01-5.058 1.041c-1.737 0-3.457-.354-5.059-1.041-1.084-.561-1.309-1.06-1.309-1.14 0-.08.225-.57 1.309-1.13a12.698 12.698 0 0110.117 0zm-17.798-27.509a4.188 4.188 0 01-3.004-1.278 4.42 4.42 0 01-1.245-3.084c0-1.157.448-2.267 1.245-3.085a4.19 4.19 0 013.004-1.277 2.213 2.213 0 001.439-.304c.433-.263.769-.667.953-1.147a4.32 4.32 0 01.927-1.574 4.18 4.18 0 011.485-1.029 4.081 4.081 0 011.767-.295 4.094 4.094 0 011.725.494 2.097 2.097 0 002.406-.327c.214-.198.386-.438.507-.706a6.46 6.46 0 012.933-3.1 6.21 6.21 0 014.175-.543 6.336 6.336 0 013.592 2.252 6.644 6.644 0 011.438 4.062c0 .579.224 1.133.622 1.542.398.409.939.639 1.502.639 1.127 0 2.207.46 3.004 1.278a4.42 4.42 0 011.244 3.084 4.422 4.422 0 01-1.244 3.085 4.192 4.192 0 01-3.004 1.277l-25.471.036zm44.744 46.088c0 .08-.226.578-1.309 1.139a12.823 12.823 0 01-5.059 1.042A12.82 12.82 0 01551.01 215c-1.092-.561-1.318-1.059-1.318-1.139v-3.41a17.132 17.132 0 0012.745 0v3.41zm0-8.725c0 .081-.226.579-1.309 1.14a12.84 12.84 0 01-5.059 1.041c-1.737 0-3.456-.354-5.059-1.041-1.092-.561-1.318-1.059-1.318-1.14v-3.409a17.142 17.142 0 0012.745 0v3.409zm-1.292-7.584a12.836 12.836 0 01-5.059 1.041c-1.737 0-3.456-.354-5.059-1.041-1.092-.561-1.317-1.06-1.317-1.14 0-.08.225-.57 1.317-1.13a12.698 12.698 0 0110.118 0c1.084.56 1.309 1.059 1.309 1.13 0 .071-.243.579-1.309 1.14z" fill="url(#paint1_linear)"/><path d="M196.525 281.277c24.236 0 43.884-19.648 43.884-43.885 0-24.236-19.648-43.884-43.884-43.884-24.237 0-43.884 19.648-43.884 43.884 0 24.237 19.647 43.885 43.884 43.885z" fill="url(#paint2_linear)"/><path d="M196.524 271.737c18.968 0 34.344-15.377 34.344-34.345 0-18.967-15.376-34.344-34.344-34.344-18.968 0-34.344 15.377-34.344 34.344 0 18.968 15.376 34.345 34.344 34.345z" fill="#fff"/><g clip-path="url(#clip0)"><g clip-path="url(#clip1)"><path d="M199.986 251.407h-16.837a1.39 1.39 0 01-1.094-.52 1.43 1.43 0 01-.289-1.198c1.418-6.815 7.43-11.793 14.372-11.961a8.708 8.708 0 00.728 0c2.127.05 4.173.535 6.087 1.445a1.368 1.368 0 001.174-2.47 18.02 18.02 0 00-2.057-.826 9.289 9.289 0 003.727-7.439c0-5.126-4.171-9.297-9.297-9.297s-9.297 4.171-9.297 9.297a9.289 9.289 0 003.735 7.445 17.784 17.784 0 00-5.729 3.149 17.838 17.838 0 00-6.12 10.1 4.153 4.153 0 00.845 3.48 4.126 4.126 0 003.215 1.529h16.837a1.367 1.367 0 100-2.734zm-10.049-22.969a6.57 6.57 0 016.563-6.563 6.57 6.57 0 016.562 6.563 6.57 6.57 0 01-6.229 6.554 18.484 18.484 0 00-.664 0c-3.465-.173-6.232-3.046-6.232-6.554zM214 247.647c0 .755-.612 1.367-1.367 1.367h-3.76v3.76a1.367 1.367 0 11-2.734 0v-3.76h-3.76a1.367 1.367 0 110-2.734h3.76v-3.76a1.367 1.367 0 112.734 0v3.76h3.76c.755 0 1.367.612 1.367 1.367z" fill="url(#paint3_linear)"/></g></g><path d="M856.693 281.277c24.236 0 43.884-19.648 43.884-43.884 0-24.237-19.648-43.884-43.884-43.884-24.237 0-43.884 19.647-43.884 43.884 0 24.236 19.647 43.884 43.884 43.884z" fill="url(#paint4_linear)"/><path d="M856.692 271.737c18.968 0 34.344-15.376 34.344-34.344 0-18.968-15.376-34.344-34.344-34.344-18.968 0-34.344 15.376-34.344 34.344 0 18.968 15.376 34.344 34.344 34.344z" fill="#fff"/><path d="M858.943 246.034h-6.38a1.416 1.416 0 00-1.418 1.423 1.415 1.415 0 001.418 1.422h6.38c.376 0 .737-.149 1.003-.416a1.426 1.426 0 000-2.012 1.416 1.416 0 00-1.003-.417zm8.502-10.87a1.421 1.421 0 100 2.842 1.421 1.421 0 000-2.842zm-8.502 10.87h-6.38a1.416 1.416 0 00-1.418 1.423 1.415 1.415 0 001.418 1.422h6.38c.376 0 .737-.149 1.003-.416a1.426 1.426 0 000-2.012 1.416 1.416 0 00-1.003-.417zm0 0h-6.38a1.416 1.416 0 00-1.418 1.423 1.415 1.415 0 001.418 1.422h6.38c.376 0 .737-.149 1.003-.416a1.426 1.426 0 000-2.012 1.416 1.416 0 00-1.003-.417z" fill="#63E17D"/><path d="M868.227 230.191h-2.193v-12.365a1.434 1.434 0 00-.418-1.004 1.42 1.42 0 00-1.001-.418h-17.737a1.423 1.423 0 00-1.419 1.422v12.365h-2.176a5.674 5.674 0 00-5.243 3.526 5.709 5.709 0 00-.427 2.182v10.136a5.697 5.697 0 001.663 4.017 5.669 5.669 0 004.007 1.667h2.194v1.422a1.422 1.422 0 001.419 1.423h17.737a1.416 1.416 0 001.418-1.423v-1.422h2.194a5.672 5.672 0 003.79-1.457 5.696 5.696 0 001.85-3.623v-10.74a5.692 5.692 0 00-3.487-5.268 5.66 5.66 0 00-2.171-.44zm-19.912-10.924h14.881v10.924h-14.881v-10.924zm14.881 32.452h-14.881v-8.707h14.881v8.707zm5.031-2.839h-2.193v-5.868h.774a1.418 1.418 0 001.419-1.423 1.418 1.418 0 00-1.419-1.423h-22.112c-.376 0-.737.15-1.003.417a1.426 1.426 0 000 2.012c.266.267.627.417 1.003.417h.781v5.927h-2.194c-.752 0-1.474-.3-2.006-.833a2.848 2.848 0 01-.832-2.012v-10.195a2.85 2.85 0 01.834-2.008 2.835 2.835 0 012.004-.831h24.944c.752 0 1.473.299 2.005.831.532.532.832 1.254.833 2.008v10.136c0 .754-.299 1.478-.831 2.011a2.833 2.833 0 01-2.007.834z" fill="url(#paint5_linear)"/><path d="M973.079 281.277c24.237 0 43.881-19.648 43.881-43.884 0-24.237-19.644-43.884-43.881-43.884-24.236 0-43.884 19.647-43.884 43.884 0 24.236 19.648 43.884 43.884 43.884z" fill="url(#paint6_linear)"/><path d="M973.078 271.737c18.968 0 34.342-15.376 34.342-34.344 0-18.968-15.374-34.344-34.342-34.344-18.967 0-34.344 15.376-34.344 34.344 0 18.968 15.377 34.344 34.344 34.344z" fill="#fff"/><path d="M977.236 246.034h-6.38a1.416 1.416 0 00-1.418 1.423 1.415 1.415 0 001.418 1.422h6.38c.376 0 .737-.149 1.003-.416a1.426 1.426 0 000-2.012 1.416 1.416 0 00-1.003-.417zm8.502-10.87a1.421 1.421 0 100 2.842 1.421 1.421 0 000-2.842zm-8.502 10.87h-6.38a1.416 1.416 0 00-1.418 1.423 1.415 1.415 0 001.418 1.422h6.38c.376 0 .737-.149 1.003-.416a1.426 1.426 0 000-2.012 1.416 1.416 0 00-1.003-.417zm0 0h-6.38a1.416 1.416 0 00-1.418 1.423 1.415 1.415 0 001.418 1.422h6.38c.376 0 .737-.149 1.003-.416a1.426 1.426 0 000-2.012 1.416 1.416 0 00-1.003-.417z" fill="#63E17D"/><path d="M986.52 230.191h-2.193v-12.365a1.434 1.434 0 00-.418-1.004 1.42 1.42 0 00-1.001-.418h-17.737a1.423 1.423 0 00-1.419 1.422v12.365h-2.176a5.674 5.674 0 00-5.243 3.526 5.709 5.709 0 00-.427 2.182v10.136a5.697 5.697 0 001.663 4.017 5.669 5.669 0 004.007 1.667h2.194v1.422a1.422 1.422 0 001.419 1.423h17.736a1.417 1.417 0 001.419-1.423v-1.422h2.194a5.672 5.672 0 003.79-1.457 5.696 5.696 0 001.85-3.623v-10.74a5.692 5.692 0 00-3.487-5.268 5.66 5.66 0 00-2.171-.44zm-19.912-10.924h14.881v10.924h-14.881v-10.924zm14.881 32.452h-14.881v-8.707h14.881v8.707zm5.031-2.839h-2.193v-5.868h.774a1.418 1.418 0 001.419-1.423 1.418 1.418 0 00-1.419-1.423h-22.112c-.376 0-.737.15-1.003.417a1.426 1.426 0 000 2.012c.266.267.627.417 1.003.417h.781v5.927h-2.194a2.84 2.84 0 01-2.838-2.845v-10.195a2.85 2.85 0 01.834-2.008 2.835 2.835 0 012.004-.831h24.944c.752 0 1.473.299 2.005.831a2.85 2.85 0 01.833 2.008v10.136c0 .754-.299 1.478-.831 2.011a2.833 2.833 0 01-2.007.834z" fill="url(#paint7_linear)"/><rect x="131.652" y="75.508" width="118.296" height="61.056" rx="7" fill="#F2F6FE"/><rect x="141.191" y="85.048" width="99.216" height="41.976" rx="4" fill="#fff"/><path d="M171.976 112.036h-4.179a.93.93 0 00-.93.932.93.93 0 00.93.932h4.179a.932.932 0 000-1.864zm5.57-7.122a.927.927 0 00-.859.575.938.938 0 00.202 1.016.929.929 0 001.516-1.016.931.931 0 00-.859-.575zm-5.57 7.122h-4.179a.93.93 0 00-.93.932.93.93 0 00.93.932h4.179a.932.932 0 000-1.864zm0 0h-4.179a.93.93 0 00-.93.932.93.93 0 00.93.932h4.179a.932.932 0 000-1.864z" fill="#F5AB00"/><path d="M178.056 101.654h-1.437v-8.1a.937.937 0 00-.929-.932h-11.62a.932.932 0 00-.93.931v8.101h-1.425a3.71 3.71 0 00-2.631 1.097 3.743 3.743 0 00-1.084 2.642v6.641a3.734 3.734 0 001.089 2.632 3.716 3.716 0 002.626 1.092h1.437v.932a.931.931 0 00.929.932h11.62a.934.934 0 00.93-.932v-.932h1.437a3.717 3.717 0 002.483-.955 3.728 3.728 0 001.212-2.373v-7.037a3.718 3.718 0 00-.279-1.427 3.72 3.72 0 00-3.428-2.312zm-13.045-7.157h9.749v7.157h-9.749v-7.157zm9.749 21.261h-9.749v-5.705h9.749v5.705zm3.296-1.86h-1.437v-3.845h.508a.927.927 0 00.929-.932.927.927 0 00-.929-.932H162.64a.927.927 0 00-.929.932.927.927 0 00.929.932h.512v3.883h-1.437a1.863 1.863 0 01-1.86-1.864v-6.679a1.87 1.87 0 01.546-1.315 1.857 1.857 0 011.314-.545h16.341a1.857 1.857 0 011.859 1.86v6.641a1.86 1.86 0 01-1.859 1.864z" fill="url(#paint8_linear)"/><path d="M194.822 99.637c.27 0 .506-.035.71-.105a1.43 1.43 0 00.515-.295c.14-.13.245-.284.315-.46.07-.18.105-.379.105-.595 0-.437-.137-.78-.41-1.03-.27-.25-.682-.375-1.235-.375h-1.11v2.86h1.11zm0-3.695c.46 0 .86.053 1.2.16.34.106.621.258.845.455.223.193.388.428.495.705.11.276.165.583.165.92 0 .336-.059.646-.175.93-.117.28-.289.521-.515.725a2.4 2.4 0 01-.85.475c-.337.11-.725.165-1.165.165h-1.11v2.645h-1.065v-7.18h2.175zm4.512 3.075a2.32 2.32 0 01.59-.785c.23-.19.506-.285.83-.285.11 0 .213.013.31.04.1.023.186.06.26.11l-.065.735c-.024.09-.079.135-.165.135-.047 0-.117-.009-.21-.025a1.44 1.44 0 00-.3-.03c-.157 0-.295.023-.415.07a.937.937 0 00-.325.2 1.306 1.306 0 00-.25.325 3.005 3.005 0 00-.205.435v3.18h-.975v-5.08h.56c.106 0 .178.02.215.06.04.036.068.103.085.2l.06.715zm3.762-.975v5.08h-.975v-5.08h.975zm.185-1.57a.65.65 0 01-.205.475.702.702 0 01-.215.145.697.697 0 01-.515 0 .783.783 0 01-.215-.145.774.774 0 01-.145-.215.681.681 0 01-.05-.26.657.657 0 01.41-.62.64.64 0 01.515 0 .6.6 0 01.215.145.666.666 0 01.205.475zm2.141 2.275a3.43 3.43 0 01.345-.32 2.113 2.113 0 01.815-.405c.157-.04.324-.06.5-.06.28 0 .525.046.735.14.214.093.392.225.535.395.144.166.252.368.325.605.074.236.11.498.11.785v3.235h-.98v-3.235c0-.364-.083-.645-.25-.845-.166-.204-.421-.305-.765-.305-.25 0-.485.06-.705.18a2.325 2.325 0 00-.605.48v3.725h-.975v-5.08h.585c.137 0 .222.065.255.195l.075.51zm6.203 4.455c-.41 0-.727-.115-.95-.345-.22-.23-.33-.559-.33-.985v-3.04h-.59a.219.219 0 01-.145-.05c-.037-.037-.055-.09-.055-.16v-.395l.825-.115.22-1.515a.226.226 0 01.075-.13c.04-.034.09-.05.15-.05h.495v1.705h1.44v.71h-1.44v2.975c0 .2.048.35.145.45.1.096.226.145.38.145.09 0 .166-.012.23-.035.066-.024.123-.049.17-.075a8.29 8.29 0 00.12-.08.156.156 0 01.09-.035c.033 0 .058.008.075.025.02.013.04.036.06.07l.29.47c-.16.146-.35.26-.57.34-.22.08-.449.12-.685.12zm-18.328 8.33c0 .43.058.815.175 1.155.116.336.283.623.5.86.216.236.476.418.78.545.306.123.648.185 1.025.185.376 0 .716-.062 1.02-.185.306-.127.566-.309.78-.545a2.46 2.46 0 00.5-.86c.116-.34.175-.725.175-1.155 0-.427-.059-.81-.175-1.15a2.44 2.44 0 00-.5-.865 2.127 2.127 0 00-.78-.545 2.622 2.622 0 00-1.02-.19c-.377 0-.719.063-1.025.19a2.161 2.161 0 00-.78.545 2.41 2.41 0 00-.5.865 3.52 3.52 0 00-.175 1.15zm6.39 5.05h-.88c-.13 0-.245-.019-.345-.055a.682.682 0 01-.28-.19l-1.21-1.32c-.367.12-.765.18-1.195.18-.53 0-1.015-.09-1.455-.27a3.292 3.292 0 01-1.125-.755 3.513 3.513 0 01-.725-1.16 4.073 4.073 0 01-.26-1.48c0-.534.086-1.025.26-1.475.173-.45.415-.837.725-1.16.313-.327.688-.58 1.125-.76.44-.184.925-.275 1.455-.275.533 0 1.018.091 1.455.275.436.18.811.433 1.125.76.313.323.555.71.725 1.16.173.45.26.941.26 1.475 0 .333-.035.651-.105.955-.067.3-.164.58-.29.84-.127.26-.284.496-.47.71-.184.213-.392.4-.625.56l1.835 1.985zm4.934-6.54v5.08h-.585c-.133 0-.22-.065-.26-.195l-.07-.51c-.11.116-.225.223-.345.32-.12.096-.248.18-.385.25a2.18 2.18 0 01-.93.215c-.28 0-.527-.047-.74-.14a1.495 1.495 0 01-.53-.39 1.732 1.732 0 01-.325-.61 2.66 2.66 0 01-.11-.785v-3.235h.98v3.235c0 .363.083.646.25.85.167.2.422.3.765.3.25 0 .483-.059.7-.175.217-.12.42-.284.61-.49v-3.72h.975zm4.726 1.975a1.61 1.61 0 00-.085-.535 1.17 1.17 0 00-.24-.425 1.1 1.1 0 00-.39-.28c-.153-.067-.33-.1-.53-.1-.41 0-.733.118-.97.355-.233.236-.382.565-.445.985h2.66zm.805 2.38c-.12.14-.258.261-.415.365a2.52 2.52 0 01-.5.245c-.177.063-.36.11-.55.14a3.5 3.5 0 01-.555.045 2.68 2.68 0 01-.975-.175 2.242 2.242 0 01-.775-.52 2.447 2.447 0 01-.51-.85c-.12-.34-.18-.73-.18-1.17 0-.354.055-.682.165-.985a2.39 2.39 0 01.47-.8 2.2 2.2 0 01.755-.535c.297-.13.63-.195 1-.195.31 0 .595.051.855.155.263.1.49.246.68.44.19.193.338.431.445.715.11.283.165.606.165.97 0 .15-.017.251-.05.305-.033.05-.095.075-.185.075h-3.33c.01.303.053.568.13.795.077.223.182.41.315.56.137.15.298.261.485.335.187.073.395.11.625.11.217 0 .403-.025.56-.075.16-.05.297-.104.41-.16.117-.06.213-.115.29-.165.08-.05.15-.075.21-.075.08 0 .142.03.185.09l.28.36zm5.348-4.355v5.08h-.585c-.133 0-.22-.065-.26-.195l-.07-.51c-.11.116-.225.223-.345.32-.12.096-.248.18-.385.25a2.18 2.18 0 01-.93.215c-.28 0-.527-.047-.74-.14a1.495 1.495 0 01-.53-.39 1.732 1.732 0 01-.325-.61 2.66 2.66 0 01-.11-.785v-3.235h.98v3.235c0 .363.083.646.25.85.167.2.422.3.765.3.25 0 .483-.059.7-.175.217-.12.42-.284.61-.49v-3.72h.975zm4.726 1.975c0-.194-.029-.372-.085-.535a1.199 1.199 0 00-.24-.425 1.1 1.1 0 00-.39-.28c-.154-.067-.33-.1-.53-.1-.41 0-.734.118-.97.355-.234.236-.382.565-.445.985h2.66zm.805 2.38c-.12.14-.259.261-.415.365-.157.1-.324.181-.5.245-.177.063-.36.11-.55.14a3.5 3.5 0 01-.555.045 2.68 2.68 0 01-.975-.175 2.242 2.242 0 01-.775-.52 2.447 2.447 0 01-.51-.85c-.12-.34-.18-.73-.18-1.17 0-.354.055-.682.165-.985.11-.307.266-.574.47-.8a2.19 2.19 0 01.755-.535c.296-.13.63-.195 1-.195.31 0 .595.051.855.155.263.1.49.246.68.44.19.193.338.431.445.715.11.283.165.606.165.97 0 .15-.017.251-.05.305-.034.05-.095.075-.185.075h-3.33c.01.303.053.568.13.795.076.223.181.41.315.56.136.15.298.261.485.335a1.7 1.7 0 00.625.11c.216 0 .403-.025.56-.075.16-.05.296-.104.41-.16.116-.06.213-.115.29-.165.08-.05.15-.075.21-.075.08 0 .141.03.185.09l.28.36z" fill="#2C4251"/><rect x="835.707" y="75.509" width="150.733" height="78.228" rx="7" fill="#F2F6FE"/><rect x="845.246" y="85.05" width="131.652" height="59.148" rx="4" fill="#fff"/><path d="M884.641 123.016h-5.276a1.175 1.175 0 000 2.353h5.276a1.176 1.176 0 000-2.353zm7.032-8.991a1.174 1.174 0 00-1.151 1.406 1.174 1.174 0 102.235-.68 1.167 1.167 0 00-.635-.637 1.171 1.171 0 00-.449-.089zm-7.032 8.991h-5.276a1.175 1.175 0 000 2.353h5.276a1.176 1.176 0 000-2.353zm0 0h-5.276a1.175 1.175 0 000 2.353h5.276a1.176 1.176 0 000-2.353z" fill="#63E17D"/><path d="M892.32 109.912h-1.814V99.685a1.18 1.18 0 00-1.173-1.176h-14.67a1.179 1.179 0 00-1.174 1.176v10.227h-1.799c-.618 0-1.229.123-1.799.361a4.709 4.709 0 00-2.891 4.36v8.383a4.714 4.714 0 001.375 3.323 4.688 4.688 0 003.315 1.378h1.814v1.177a1.177 1.177 0 001.173 1.176h14.67a1.175 1.175 0 001.174-1.176v-1.177h1.814a4.683 4.683 0 003.135-1.205 4.707 4.707 0 001.53-2.996v-8.883a4.715 4.715 0 00-2.884-4.357 4.674 4.674 0 00-1.796-.364zm-16.469-9.035h12.308v9.035h-12.308v-9.035zm12.308 26.84h-12.308v-7.201h12.308v7.201zm4.161-2.348h-1.814v-4.853h.641a1.173 1.173 0 001.173-1.177 1.172 1.172 0 00-1.173-1.176h-18.289a1.17 1.17 0 00-1.173 1.176 1.179 1.179 0 001.173 1.177h.646v4.902h-1.814c-.623 0-1.22-.248-1.66-.689a2.357 2.357 0 01-.688-1.664v-8.432a2.356 2.356 0 01.69-1.661 2.344 2.344 0 011.658-.687h20.63c.622 0 1.218.247 1.658.687.44.44.688 1.038.689 1.661v8.383c0 .624-.247 1.223-.687 1.664a2.345 2.345 0 01-1.66.689z" fill="url(#paint9_linear)"/><path d="M942.641 123.016h-5.276a1.175 1.175 0 000 2.353h5.276a1.176 1.176 0 000-2.353zm7.032-8.991a1.174 1.174 0 00-1.151 1.406 1.174 1.174 0 102.235-.68 1.167 1.167 0 00-.635-.637 1.171 1.171 0 00-.449-.089zm-7.032 8.991h-5.276a1.175 1.175 0 000 2.353h5.276a1.176 1.176 0 000-2.353zm0 0h-5.276a1.175 1.175 0 000 2.353h5.276a1.176 1.176 0 000-2.353z" fill="#63E17D"/><path d="M950.32 109.912h-1.814V99.685a1.18 1.18 0 00-1.173-1.176h-14.67a1.179 1.179 0 00-1.174 1.176v10.227h-1.799c-.618 0-1.229.123-1.799.361a4.709 4.709 0 00-2.891 4.36v8.383a4.714 4.714 0 001.375 3.323 4.688 4.688 0 003.315 1.378h1.814v1.177a1.177 1.177 0 001.173 1.176h14.67a1.175 1.175 0 001.174-1.176v-1.177h1.814a4.683 4.683 0 003.135-1.205 4.707 4.707 0 001.53-2.996v-8.883a4.715 4.715 0 00-2.884-4.357 4.674 4.674 0 00-1.796-.364zm-16.469-9.035h12.308v9.035h-12.308v-9.035zm12.308 26.84h-12.308v-7.201h12.308v7.201zm4.161-2.348h-1.814v-4.853h.641a1.173 1.173 0 001.173-1.177 1.172 1.172 0 00-1.173-1.176h-18.289a1.17 1.17 0 00-1.173 1.176 1.179 1.179 0 001.173 1.177h.646v4.902h-1.814c-.623 0-1.22-.248-1.66-.689a2.357 2.357 0 01-.688-1.664v-8.432a2.356 2.356 0 01.69-1.661 2.344 2.344 0 011.658-.687h20.63c.622 0 1.218.247 1.658.687.44.44.688 1.038.689 1.661v8.383c0 .624-.247 1.223-.687 1.664a2.345 2.345 0 01-1.66.689z" fill="url(#paint10_linear)"/><path d="M390.615 431.946c22.071 0 39.963-17.884 39.963-39.945 0-22.06-17.892-39.944-39.963-39.944s-39.963 17.884-39.963 39.944c0 22.061 17.892 39.945 39.963 39.945z" fill="url(#paint11_linear)"/><g filter="url(#filter1_d)"><path d="M390.186 432.192c22.656 0 41.022-17.939 41.022-40.068 0-22.129-18.366-40.068-41.022-40.068s-41.022 17.939-41.022 40.068c0 22.129 18.366 40.068 41.022 40.068z" fill="#fff"/></g><path fill-rule="evenodd" clip-rule="evenodd" d="M390.604 411.773h-.586l4.043-11.113h5.559a2.715 2.715 0 002.385-1.667l4.386-12.042a2.489 2.489 0 00-.198-2.527 2.5 2.5 0 00-2.308-1.049h-7.722l-6.468 17.78-3.72 10.082a19.775 19.775 0 01-15.186-18.844 19.765 19.765 0 013.899-12.178 19.782 19.782 0 0110.539-7.246l-3.78 10.406-6.286 17.285h4.184l5.357-14.689h3.153l-5.357 14.689h4.185l4.993-13.709a2.498 2.498 0 00-1.21-3.366 2.493 2.493 0 00-1.297-.21h-3.497l4.043-11.113h.879a19.782 19.782 0 0113.986 5.791 19.762 19.762 0 010 27.959 19.782 19.782 0 01-13.986 5.791l.01-.03zm11.967-25.812h-3.143l-4.407 12.123h3.143l4.407-12.123z" fill="#009FDB"/><path d="M695.475 431.944c22.071 0 39.963-17.884 39.963-39.944 0-22.061-17.892-39.945-39.963-39.945S655.512 369.939 655.512 392c0 22.06 17.892 39.944 39.963 39.944z" fill="url(#paint12_linear)"/><g filter="url(#filter2_d)"><path d="M695.468 434.1c22.655 0 41.022-18.794 41.022-41.976 0-23.183-18.367-41.977-41.022-41.977-22.656 0-41.023 18.794-41.023 41.977 0 23.182 18.367 41.976 41.023 41.976z" fill="#fff"/></g><path fill-rule="evenodd" clip-rule="evenodd" d="M710.727 377.957a18.817 18.817 0 015.862 8.456.423.423 0 01-.283.435l-3.032.101-17.05.131h-16.353l-5.327-.081a.378.378 0 01-.252-.333 13.473 13.473 0 011.718-3.849c5.053-7.89 14.261-11.376 23.64-9.891a22.652 22.652 0 0111.047 5.052l.03-.021zm5.711 18.983a.387.387 0 01.238.184.368.368 0 01.025.301c-2.517 8.082-10.876 13.335-19.093 13.921-8.894.616-17.475-3.203-21.922-10.709a16.223 16.223 0 01-1.334-3.263.334.334 0 01.233-.384l.717-.101h38.114l2.971.101.051-.05zm.596-2.465c.516.384.101 1.101 0 1.647-.101.101-.101.282-.303.282l-3.265-.08-11.178-.637-7.328-.283-11.714.536-7.075.464a9.75 9.75 0 01-2.112-.05 2.927 2.927 0 01-.333-1.566c.434-.394 1.01-.111 1.566-.263l16.394.435h8.328l10.845-.334c2.021-.101 4.184-.151 6.165-.151h.01zm.485-2.101c.081.474.081.959 0 1.434-.303.384-.768.152-1.152.202l-8.177-.384-8.014-.333-9.764.05-6.731.233-8.894.485a2.532 2.532 0 01-1.102-.051 2.684 2.684 0 01-.151-1.586l.252-.162h2.022l13.139.495 7.964.051 6.115-.101 13.412-.566c.364.051.849-.151 1.101.233h-.02zm-.151-2.395c.101.465.384 1.334-.152 1.667h-2.881l-11.117-.485h-9.996l-6.428.122-12.361.495c-.333-.051-.768.121-.95-.263a4.862 4.862 0 010-1.384c.303-.465.819-.131 1.203-.233l13.796.718c3.81.101 7.843 0 11.542 0l7.964-.384 8.278-.485c.333 0 .869-.182 1.102.202v.03zm-.496-2.505c.297.494.398 1.082.283 1.647l-.232.131h-4.579l-11.279-.253-8.086-.05-7.893.202-9.662.232h-1.436c-.616-.283-.131-1.01-.101-1.495.101-.131.202-.333.384-.333l3.235.101 9.611.545 8.733.384 15.393-.879c1.829-.151 3.648-.283 5.478-.283l.182.132-.031-.081z" fill="#0080C9"/><path d="M543.045 431.946c22.071 0 39.963-17.884 39.963-39.945 0-22.06-17.892-39.944-39.963-39.944s-39.963 17.884-39.963 39.944c0 22.061 17.892 39.945 39.963 39.945z" fill="url(#paint13_linear)"/><g filter="url(#filter3_d)"><path d="M542.827 432.192c22.656 0 41.022-17.939 41.022-40.068 0-22.129-18.366-40.068-41.022-40.068s-41.022 17.939-41.022 40.068c0 22.129 18.366 40.068 41.022 40.068z" fill="#fff"/></g><path d="M546.917 372.027l-7.701 7.708h12.31V392l7.732-7.708v-12.265h-12.341zM551.485 392v12.254h-12.269l7.742 7.708h12.3v-12.264L551.485 392zm0 0l-12.269-12.265v24.519L551.485 392zm-12.269 12.254L526.875 392v12.254h12.341zM526.875 392l12.341-12.265h-12.341V392z" fill="#E31A2F"/><path d="M85.756 431.945c22.071 0 39.963-17.884 39.963-39.945 0-22.06-17.892-39.944-39.963-39.944S45.793 369.94 45.793 392c0 22.061 17.892 39.945 39.963 39.945z" fill="url(#paint14_linear)"/><g filter="url(#filter4_d)"><path d="M85.861 432.192c22.129 0 40.068-17.939 40.068-40.068 0-22.129-17.939-40.068-40.068-40.068-22.129 0-40.068 17.939-40.068 40.068 0 22.129 17.94 40.068 40.068 40.068z" fill="#fff"/></g><path d="M96.144 374.938h-27.46v6.678l2.476 9.971 7.873.454 6.68-6.687 13.251-2.859-2.82-7.557z" fill="#00C425"/><path d="M68.684 381.616v27.448h6.68l11.179-.93-.789-9.476-17.07-17.042z" fill="#3AF23A"/><path d="M75.367 409.065h27.461v-6.688l-2.921-8.88-7.47-1.495-17.07 17.063z" fill="#006446"/><path d="M102.829 402.376v-27.438h-6.681l-10.39 10.375 17.071 17.063z" fill="#008A44"/><path d="M238.182 431.944c22.071 0 39.963-17.884 39.963-39.945 0-22.06-17.892-39.944-39.963-39.944s-39.963 17.884-39.963 39.944c0 22.061 17.892 39.945 39.963 39.945z" fill="url(#paint15_linear)"/><g filter="url(#filter5_d)"><path d="M238.5 434.1c23.182 0 41.976-18.794 41.976-41.976 0-23.183-18.794-41.977-41.976-41.977-23.183 0-41.977 18.794-41.977 41.977 0 23.182 18.794 41.976 41.977 41.976z" fill="#fff"/></g><path d="M246.389 386.816a4.977 4.977 0 00-3.683 1.478 4.963 4.963 0 00-1.421 3.704 4.879 4.879 0 001.397 3.728 4.89 4.89 0 003.707 1.455 5.182 5.182 0 100-10.365zm-17.475 0a5.173 5.173 0 00-3.113 1.081 5.278 5.278 0 00-1.92 4.162 5.049 5.049 0 001.466 3.798 5.518 5.518 0 003.86 1.334 8.08 8.08 0 003.558-.909c.233-.152.313-.212.253-.445l-.425-1.202a.297.297 0 00-.183-.187.299.299 0 00-.261.025 7.279 7.279 0 01-.819.374 5.04 5.04 0 01-1.769.364 2.9 2.9 0 01-2.436-.94 2.552 2.552 0 01-.586-1.434h6.691c.243 0 .354-.172.354-.455v-1.303a4.33 4.33 0 00-2.903-4.031 4.358 4.358 0 00-1.736-.232h-.031zm10.916 0c-1.931 0-3.113.444-3.871 1.424-.576.748-.687 1.586-.687 3.374v4.9c0 .344.171.515.495.515h1.526a.445.445 0 00.38-.133.45.45 0 00.125-.382v-5.051c0-1.132 0-1.758.405-2.182a2.174 2.174 0 011.768-.606c.182 0 .647 0 .799.07h.141c.162 0 .223-.06.273-.272l.233-1.122c0-.232 0-.414-.223-.475a6.99 6.99 0 00-1.364-.05v-.01zm-25.359.131c-.171 0-.293.142-.222.364a15.374 15.374 0 002.81 4.697 12.277 12.277 0 00-3.133 4.678c-.071.212 0 .353.171.353h1.8c.262 0 .373-.09.495-.353a12.473 12.473 0 012.163-3.324 9.959 9.959 0 012.112 3.324c.141.333.293.353.505.353h1.961c.374 0 .404-.202.344-.373a14.915 14.915 0 00-3.245-4.839 13.543 13.543 0 002.972-4.516c.091-.283-.081-.364-.233-.364h-1.647c-.192 0-.334.071-.475.364a14.389 14.389 0 01-2.021 3.031 13.26 13.26 0 01-1.769-3.031c-.111-.263-.233-.364-.465-.364h-2.123zm37.881 0c-.171 0-.293.142-.222.364a15.374 15.374 0 002.81 4.697 12.277 12.277 0 00-3.133 4.678c-.071.212.05.353.171.353h1.8c.262 0 .373-.09.495-.353a12.473 12.473 0 012.163-3.324 9.959 9.959 0 012.112 3.324c.142.333.293.353.505.353h1.961c.374 0 .415-.202.344-.373a14.915 14.915 0 00-3.245-4.839 13.543 13.543 0 002.972-4.516c.091-.283-.081-.364-.233-.364h-1.647c-.192 0-.334.071-.475.364a14.389 14.389 0 01-2.021 3.031 13.297 13.297 0 01-1.769-3.031c-.111-.263-.233-.364-.465-.364h-2.123zm-5.963 1.758c1.789 0 2.466 1.536 2.466 3.283 0 1.748-.677 3.284-2.466 3.284-1.789 0-2.476-1.546-2.476-3.284 0-1.737.718-3.273 2.476-3.273v-.01zm-17.394 0a2.026 2.026 0 011.619.619 2.012 2.012 0 01.544 1.644v.061h-4.629c.049-.335.151-.659.303-.96a2.366 2.366 0 012.163-1.354v-.01z" fill="#D40E2A"/><path d="M1000.46 431.944c22.13 0 40.07-17.884 40.07-39.944 0-22.061-17.94-39.945-40.07-39.945-22.126 0-40.065 17.884-40.065 39.945 0 22.06 17.939 39.944 40.065 39.944z" fill="url(#paint16_linear)"/><g filter="url(#filter6_d)"><path d="M1000.75 434.1c23.71 0 42.93-18.794 42.93-41.976 0-23.183-19.22-41.977-42.93-41.977-23.709 0-42.93 18.794-42.93 41.977 0 23.182 19.221 41.976 42.93 41.976z" fill="#fff"/></g><path d="M991.721 391.18h-4.519v-2.617h-2.331v6.84h2.331v-2.748h4.519v2.748h2.331v-6.84h-2.331v2.617zm6.221 1.473l1.632-2.657 1.566 2.657h-3.198zm.72-4.041l-4.185 6.839h1.783l.861-1.394h4.789l.84 1.394h2.84l-4.18-6.839h-2.779m16.249 2.911c.14-.187.25-.405.3-.637.05-.232.04-.472-.01-.703a1.643 1.643 0 00-.32-.628 1.51 1.51 0 00-.56-.426 9.762 9.762 0 00-4.05-.778c-1.4-.019-2.79.083-4.17.303v6.748h2.34v-5.718a9.347 9.347 0 012.03-.161c.65-.027 1.3.142 1.86.484.12.083.21.191.28.317a.94.94 0 01.09.406c0 .141-.03.28-.09.406a.913.913 0 01-.28.316c-.41.354-1.26.626-3.16.344l-.27.434 3.58 3.172h3.19l-3.2-2.748a3.938 3.938 0 002.49-1.131m-35.178-.596c-1.347-.262-2.482-.424-2.482-.859 0-.434.922-.606 2.229-.474a12.2 12.2 0 013.506.919l.831-1.354a15.148 15.148 0 00-4.357-.808c-1.804 0-4.854.111-4.986 1.93-.122 1.667 2.26 2.02 3.82 2.424 1.561.404 2.959.485 2.959 1.01 0 .374-.506.657-1.834.556a11.436 11.436 0 01-4.337-1.222l-.902 1.475a16.274 16.274 0 005.28 1.091c2.118 0 4.509-.303 4.57-2.112 0-1.515-1.53-2.02-4.297-2.576zm42.658.527c-.57.358-1.25.515-1.92.445a9.913 9.913 0 01-1.97-.263v-2.02a9.474 9.474 0 012.03-.162c.66-.023 1.31.145 1.87.485.12.085.21.195.28.322.06.127.1.268.1.41 0 .143-.04.284-.1.411a.942.942 0 01-.28.322l-.01.05zm2.04-2.394a9.222 9.222 0 00-4.05-.778c-1.4-.018-2.8.084-4.18.303v6.749h2.34v-2.395c.8.119 1.6.179 2.41.182 1.9 0 3.32-.464 3.97-1.161.2-.194.36-.435.45-.702.09-.266.11-.551.07-.83a1.674 1.674 0 00-.32-.768 1.729 1.729 0 00-.65-.529" fill="#E6000D"/><path d="M847.929 431.965a39.987 39.987 0 0022.206-6.74 39.944 39.944 0 006.042-61.475 39.988 39.988 0 00-43.565-8.65 39.948 39.948 0 00-21.62 52.209 39.962 39.962 0 0021.639 21.618 39.987 39.987 0 0015.298 3.038z" fill="url(#paint17_linear)"/><g filter="url(#filter7_d)"><path d="M847.17 434.1a41.982 41.982 0 0038.772-25.926 41.974 41.974 0 00-30.611-57.223 41.973 41.973 0 00-43.085 17.864 41.973 41.973 0 005.238 53A41.976 41.976 0 00847.17 434.1z" fill="#fff"/></g><path d="M842.005 391.728c0 1.768 1.314 3.031 3.528 3.031a6.354 6.354 0 002.718-.576l.819 1.122a7.682 7.682 0 01-3.932.919c-3.517 0-6.064-1.687-6.064-4.546s2.588-4.546 6.064-4.546a8.546 8.546 0 013.851.747l-.849 1.283a5.127 5.127 0 00-2.607-.565c-2.214 0-3.528 1.303-3.528 3.03m13.434-4.457c-3.407 0-5.873 1.687-5.873 4.556 0 2.869 2.466 4.546 5.873 4.546 3.406 0 5.872-1.687 5.872-4.546s-2.456-4.556-5.872-4.556zm0 7.688a2.874 2.874 0 01-2.773-1.95 2.854 2.854 0 01-.138-1.192 2.915 2.915 0 012.911-3.162 2.924 2.924 0 012.763 1.972c.131.382.181.788.147 1.19a2.862 2.862 0 01-1.732 2.913 2.89 2.89 0 01-1.178.229zm14.735-2.473v3.657h2.82v-8.638h-2.82v3.294h-4.306v-3.294h-2.809v8.638h2.809v-3.657h4.306zm-32.839-4.981h-2.972v8.638h2.972v-8.638zm-11.481 3.951v.829a22.097 22.097 0 013.86 3.859h3.326a21.672 21.672 0 00-4.235-3.758c1.536-.061 3.244-.677 3.244-2.425 0-2.253-2.415-2.657-4.861-2.657-2.022 0-3.821.081-4.922.182v8.658h2.759v-7.355c.721-.082 1.447-.12 2.173-.111 1.425 0 2.143.465 2.143 1.283 0 .818-.273 1.526-3.487 1.495z" fill="#DC2F34"/><defs><linearGradient id="paint0_linear" x1="530.359" y1="285.276" x2="530.359" y2="50.606" gradientUnits="userSpaceOnUse"><stop stop-color="#F2F6FE"/><stop offset=".38" stop-color="#EEF4FE"/><stop offset=".8" stop-color="#E0ECFD"/><stop offset="1" stop-color="#D7E7FD"/></linearGradient><linearGradient id="paint1_linear" x1="530.424" y1="220.404" x2="530.424" y2="145.992" gradientUnits="userSpaceOnUse"><stop stop-color="#D90F16"/><stop offset="1" stop-color="#FFB8A9"/></linearGradient><linearGradient id="paint2_linear" x1="16820.7" y1="36811.3" x2="23762.3" y2="36811.3" gradientUnits="userSpaceOnUse"><stop stop-color="#F2F6FE"/><stop offset="1" stop-color="#D7E7FD"/></linearGradient><linearGradient id="paint3_linear" x1="196.5" y1="254.141" x2="196.5" y2="219.141" gradientUnits="userSpaceOnUse"><stop stop-color="#D90F16"/><stop offset="1" stop-color="#FFB8A9"/></linearGradient><linearGradient id="paint4_linear" x1="17480.9" y1="36811.3" x2="24422.5" y2="36811.3" gradientUnits="userSpaceOnUse"><stop stop-color="#F2F6FE"/><stop offset="1" stop-color="#D7E7FD"/></linearGradient><linearGradient id="paint5_linear" x1="855.749" y1="254.564" x2="855.749" y2="216.404" gradientUnits="userSpaceOnUse"><stop stop-color="#2BC44E"/><stop offset="1" stop-color="#9CFFAC"/></linearGradient><linearGradient id="paint6_linear" x1="17597.3" y1="36811.3" x2="24538.9" y2="36811.3" gradientUnits="userSpaceOnUse"><stop stop-color="#F2F6FE"/><stop offset="1" stop-color="#D7E7FD"/></linearGradient><linearGradient id="paint7_linear" x1="974.042" y1="254.564" x2="974.042" y2="216.404" gradientUnits="userSpaceOnUse"><stop stop-color="#2BC44E"/><stop offset="1" stop-color="#9CFFAC"/></linearGradient><linearGradient id="paint8_linear" x1="169.882" y1="117.622" x2="169.882" y2="92.622" gradientUnits="userSpaceOnUse"><stop stop-color="#FD5900"/><stop offset="1" stop-color="#FFDE00"/></linearGradient><linearGradient id="paint9_linear" x1="882" y1="130.07" x2="882" y2="98.509" gradientUnits="userSpaceOnUse"><stop stop-color="#2BC44E"/><stop offset="1" stop-color="#9CFFAC"/></linearGradient><linearGradient id="paint10_linear" x1="940" y1="130.07" x2="940" y2="98.509" gradientUnits="userSpaceOnUse"><stop stop-color="#2BC44E"/><stop offset="1" stop-color="#9CFFAC"/></linearGradient><linearGradient id="paint11_linear" x1="350.642" y1="392.001" x2="430.578" y2="392.001" gradientUnits="userSpaceOnUse"><stop stop-color="#F2F6FE"/><stop offset="1" stop-color="#D7E7FD"/></linearGradient><linearGradient id="paint12_linear" x1="16706.1" y1="4065.32" x2="23027.5" y2="4065.32" gradientUnits="userSpaceOnUse"><stop stop-color="#F2F6FE"/><stop offset="1" stop-color="#D7E7FD"/></linearGradient><linearGradient id="paint13_linear" x1="7644.35" y1="3987.83" x2="13965.7" y2="3987.83" gradientUnits="userSpaceOnUse"><stop stop-color="#F2F6FE"/><stop offset="1" stop-color="#D7E7FD"/></linearGradient><linearGradient id="paint14_linear" x1="14375.1" y1="3899.95" x2="20696.4" y2="3899.95" gradientUnits="userSpaceOnUse"><stop stop-color="#F2F6FE"/><stop offset="1" stop-color="#D7E7FD"/></linearGradient><linearGradient id="paint15_linear" x1="24533.5" y1="3909.54" x2="30854.8" y2="3909.54" gradientUnits="userSpaceOnUse"><stop stop-color="#F2F6FE"/><stop offset="1" stop-color="#D7E7FD"/></linearGradient><linearGradient id="paint16_linear" x1="76243.6" y1="3510.89" x2="82581.6" y2="3510.89" gradientUnits="userSpaceOnUse"><stop stop-color="#F2F6FE"/><stop offset="1" stop-color="#D7E7FD"/></linearGradient><linearGradient id="paint17_linear" x1="3213250" y1="790147" x2="3713560" y2="790147" gradientUnits="userSpaceOnUse"><stop stop-color="#F2F6FE"/><stop offset="1" stop-color="#D7E7FD"/></linearGradient><filter id="filter0_d" x="439.688" y="95.268" width="181.363" height="181.382" filterUnits="userSpaceOnUse" color-interpolation-filters="sRGB"><feFlood flood-opacity="0" result="BackgroundImageFix"/><feColorMatrix in="SourceAlpha" values="0 0 0 0 0 0 0 0 0 0 0 0 0 0 0 0 0 0 127 0" result="hardAlpha"/><feOffset dy="3"/><feGaussianBlur stdDeviation="3.5"/><feColorMatrix values="0 0 0 0 0.364722 0 0 0 0 0.387167 0 0 0 0 0.420833 0 0 0 0.08 0"/><feBlend in2="BackgroundImageFix" result="effect1_dropShadow"/><feBlend in="SourceGraphic" in2="effect1_dropShadow" result="shape"/></filter><filter id="filter1_d" x="342.164" y="348.056" width="96.044" height="94.136" filterUnits="userSpaceOnUse" color-interpolation-filters="sRGB"><feFlood flood-opacity="0" result="BackgroundImageFix"/><feColorMatrix in="SourceAlpha" values="0 0 0 0 0 0 0 0 0 0 0 0 0 0 0 0 0 0 127 0" result="hardAlpha"/><feOffset dy="3"/><feGaussianBlur stdDeviation="3.5"/><feColorMatrix values="0 0 0 0 0.364722 0 0 0 0 0.387167 0 0 0 0 0.420833 0 0 0 0.08 0"/><feBlend in2="BackgroundImageFix" result="effect1_dropShadow"/><feBlend in="SourceGraphic" in2="effect1_dropShadow" result="shape"/></filter><filter id="filter2_d" x="647.445" y="346.147" width="96.044" height="97.952" filterUnits="userSpaceOnUse" color-interpolation-filters="sRGB"><feFlood flood-opacity="0" result="BackgroundImageFix"/><feColorMatrix in="SourceAlpha" values="0 0 0 0 0 0 0 0 0 0 0 0 0 0 0 0 0 0 127 0" result="hardAlpha"/><feOffset dy="3"/><feGaussianBlur stdDeviation="3.5"/><feColorMatrix values="0 0 0 0 0.364722 0 0 0 0 0.387167 0 0 0 0 0.420833 0 0 0 0.08 0"/><feBlend in2="BackgroundImageFix" result="effect1_dropShadow"/><feBlend in="SourceGraphic" in2="effect1_dropShadow" result="shape"/></filter><filter id="filter3_d" x="494.805" y="348.056" width="96.044" height="94.136" filterUnits="userSpaceOnUse" color-interpolation-filters="sRGB"><feFlood flood-opacity="0" result="BackgroundImageFix"/><feColorMatrix in="SourceAlpha" values="0 0 0 0 0 0 0 0 0 0 0 0 0 0 0 0 0 0 127 0" result="hardAlpha"/><feOffset dy="3"/><feGaussianBlur stdDeviation="3.5"/><feColorMatrix values="0 0 0 0 0.364722 0 0 0 0 0.387167 0 0 0 0 0.420833 0 0 0 0.08 0"/><feBlend in2="BackgroundImageFix" result="effect1_dropShadow"/><feBlend in="SourceGraphic" in2="effect1_dropShadow" result="shape"/></filter><filter id="filter4_d" x="38.793" y="348.056" width="94.136" height="94.136" filterUnits="userSpaceOnUse" color-interpolation-filters="sRGB"><feFlood flood-opacity="0" result="BackgroundImageFix"/><feColorMatrix in="SourceAlpha" values="0 0 0 0 0 0 0 0 0 0 0 0 0 0 0 0 0 0 127 0" result="hardAlpha"/><feOffset dy="3"/><feGaussianBlur stdDeviation="3.5"/><feColorMatrix values="0 0 0 0 0.364722 0 0 0 0 0.387167 0 0 0 0 0.420833 0 0 0 0.08 0"/><feBlend in2="BackgroundImageFix" result="effect1_dropShadow"/><feBlend in="SourceGraphic" in2="effect1_dropShadow" result="shape"/></filter><filter id="filter5_d" x="189.523" y="346.147" width="97.952" height="97.952" filterUnits="userSpaceOnUse" color-interpolation-filters="sRGB"><feFlood flood-opacity="0" result="BackgroundImageFix"/><feColorMatrix in="SourceAlpha" values="0 0 0 0 0 0 0 0 0 0 0 0 0 0 0 0 0 0 127 0" result="hardAlpha"/><feOffset dy="3"/><feGaussianBlur stdDeviation="3.5"/><feColorMatrix values="0 0 0 0 0.364722 0 0 0 0 0.387167 0 0 0 0 0.420833 0 0 0 0.08 0"/><feBlend in2="BackgroundImageFix" result="effect1_dropShadow"/><feBlend in="SourceGraphic" in2="effect1_dropShadow" result="shape"/></filter><filter id="filter6_d" x="950.82" y="346.147" width="99.86" height="97.952" filterUnits="userSpaceOnUse" color-interpolation-filters="sRGB"><feFlood flood-opacity="0" result="BackgroundImageFix"/><feColorMatrix in="SourceAlpha" values="0 0 0 0 0 0 0 0 0 0 0 0 0 0 0 0 0 0 127 0" result="hardAlpha"/><feOffset dy="3"/><feGaussianBlur stdDeviation="3.5"/><feColorMatrix values="0 0 0 0 0.364722 0 0 0 0 0.387167 0 0 0 0 0.420833 0 0 0 0.08 0"/><feBlend in2="BackgroundImageFix" result="effect1_dropShadow"/><feBlend in="SourceGraphic" in2="effect1_dropShadow" result="shape"/></filter><filter id="filter7_d" x="798.18" y="346.147" width="97.952" height="97.952" filterUnits="userSpaceOnUse" color-interpolation-filters="sRGB"><feFlood flood-opacity="0" result="BackgroundImageFix"/><feColorMatrix in="SourceAlpha" values="0 0 0 0 0 0 0 0 0 0 0 0 0 0 0 0 0 0 127 0" result="hardAlpha"/><feOffset dy="3"/><feGaussianBlur stdDeviation="3.5"/><feColorMatrix values="0 0 0 0 0.364722 0 0 0 0 0.387167 0 0 0 0 0.420833 0 0 0 0.08 0"/><feBlend in2="BackgroundImageFix" result="effect1_dropShadow"/><feBlend in="SourceGraphic" in2="effect1_dropShadow" result="shape"/></filter><clipPath id="clip0"><path fill="#fff" transform="translate(179 219.141)" d="M0 0h35.421v35H0z"/></clipPath><clipPath id="clip1"><path fill="#fff" transform="translate(179 219.141)" d="M0 0h35v35H0z"/></clipPath></defs></svg>