<svg width="1440" height="1203" fill="none" xmlns="http://www.w3.org/2000/svg"><path fill-rule="evenodd" clip-rule="evenodd" d="M184.981 16.446c152.332-57.992 382.17 56.924 567.548 129.487C905.073 202.08 1135.93 347.692 1321.1 306.117c199.65-37.69 367.27-175.239 618.91-267.424 123.59 48.376 253.9 83.346 366.89 136.482-360.54 161.833-801.02 401.087-1123.02 535.236-63.62 28.559-141.73 53.232-202.499 59.74-218.001 25.159-470.28-225.072-650.55-144.156-95.438 42.839-164.558 229.637-202.078 288.018C64.318 1026.01 31.696 1123.74-73.324 1202.03c-114.003-83.83-168.468-319.005-256.577-487.153 152.122-172.131 216.945-595.853 514.882-698.431z" fill="url(#paint0_linear)"/><defs><linearGradient id="paint0_linear" x1="175.381" y1="869.581" x2="108.247" y2="-313.271" gradientUnits="userSpaceOnUse"><stop stop-color="#F5F8FF" stop-opacity=".33"/><stop offset="1" stop-color="#F5F8FF"/></linearGradient></defs></svg>