<svg width="117" height="39" fill="none" xmlns="http://www.w3.org/2000/svg"><path d="M46.125 11.482V3.518h1.252v6.913h3.792v1.05h-5.044zm6.887-6.734c-.388 0-.726-.298-.726-.68 0-.383.338-.693.726-.693.4 0 .726.31.726.692 0 .383-.325.681-.726.681zm-.55 6.734V5.715h1.126v5.767H52.46zm2.33-.752l.539-.788c.413.43 1.214.823 2.027.823.851 0 1.302-.334 1.302-.823 0-.574-.688-.765-1.464-.932-1.026-.227-2.228-.49-2.228-1.73 0-.92.826-1.708 2.303-1.708 1.039 0 1.79.358 2.303.824l-.501.752c-.35-.406-1.026-.705-1.79-.705-.763 0-1.239.287-1.239.753 0 .501.651.668 1.402.835 1.051.227 2.303.502 2.303 1.827 0 .991-.851 1.767-2.44 1.767-1.014 0-1.903-.299-2.516-.895zm7.99.895c-.952 0-1.44-.513-1.44-1.42V6.657H60.34v-.943h1V4.14h1.127v1.576h1.227v.943h-1.227v3.307c0 .406.2.705.588.705.263 0 .501-.108.614-.227l.288.812c-.238.215-.589.37-1.177.37zm1.73-3.033c0-1.671 1.264-3.02 3.028-3.02 1.815 0 2.942 1.349 2.942 3.116v.263H65.7c.087.979.838 1.79 2.052 1.79.639 0 1.34-.238 1.79-.68l.526.704c-.601.561-1.452.86-2.428.86-1.803 0-3.13-1.218-3.13-3.033zm3.028-2.137c-1.213 0-1.79.932-1.852 1.72h3.692c-.025-.765-.563-1.72-1.84-1.72zm8.377 5.027v-3.69c0-.955-.513-1.265-1.29-1.265-.7 0-1.338.406-1.664.836v4.119h-1.126V5.715h1.126v.812c.4-.466 1.202-.955 2.14-.955 1.277 0 1.94.645 1.94 1.862v4.048h-1.126zm8.705.143c-1.877 0-3.053-1.361-3.053-3.033 0-1.66 1.176-3.02 3.053-3.02 1.89 0 3.054 1.36 3.054 3.02 0 1.672-1.164 3.033-3.054 3.033zm0-.955c1.214 0 1.877-.98 1.877-2.078 0-1.086-.663-2.065-1.877-2.065-1.201 0-1.877.979-1.877 2.065 0 1.099.676 2.078 1.877 2.078zm8.502.812v-3.69c0-.955-.513-1.265-1.29-1.265-.7 0-1.339.406-1.664.836v4.119h-1.126V5.715h1.126v.812c.4-.466 1.201-.955 2.14-.955 1.277 0 1.94.645 1.94 1.862v4.048h-1.126z" fill="#000"/><path fill-rule="evenodd" clip-rule="evenodd" d="M28.105 15.862c-5.54-3.29-14.68-3.593-19.968-1.988a1.607 1.607 0 11-.934-3.076c6.072-1.843 16.164-1.487 22.542 2.3a1.608 1.608 0 01-1.64 2.764zm-.182 4.873a1.34 1.34 0 01-1.843.442c-4.62-2.84-11.662-3.662-17.127-2.003a1.342 1.342 0 01-1.672-.893 1.342 1.342 0 01.893-1.671c6.243-1.895 14.003-.977 19.308 2.283a1.34 1.34 0 01.441 1.842zm-2.103 4.68a1.07 1.07 0 01-1.473.357c-4.036-2.467-9.116-3.024-15.099-1.657a1.07 1.07 0 11-.477-2.088c6.547-1.497 12.163-.853 16.694 1.915.505.309.664.969.355 1.473zM17.937.625C8.445.625.75 8.32.75 17.812.75 27.305 8.445 35 17.938 35c9.492 0 17.187-7.695 17.187-17.188C35.125 8.32 27.43.625 17.937.625z" fill="#1ED760"/><path d="M51.885 33.9c3.835 0 6.277-1.952 6.277-5.057 0-2.396-1.415-3.778-4.862-4.508l-1.803-.377c-2.135-.456-2.98-1.255-2.98-2.454 0-1.506 1.416-2.442 3.345-2.442 1.997 0 3.355 1.016 3.515 2.67h2.477c-.08-2.876-2.465-4.85-5.958-4.85-3.504 0-5.98 1.94-5.98 4.76 0 2.373 1.495 3.903 4.793 4.599l1.792.377c2.203.479 3.07 1.278 3.07 2.556 0 1.473-1.495 2.546-3.584 2.546-2.191 0-3.743-.982-3.971-2.614h-2.489c.16 2.933 2.637 4.794 6.358 4.794zm10.74 3.697v-5.946h.057c.685 1.335 2.054 2.18 3.778 2.18 3.013 0 5.01-2.408 5.01-6.209 0-3.8-2.008-6.198-5.056-6.198-1.735 0-3.116.88-3.823 2.26h-.046v-2.066h-2.386v15.98h2.466zm3.139-5.855c-1.895 0-3.15-1.62-3.15-4.12 0-2.477 1.266-4.12 3.15-4.12 1.951 0 3.173 1.61 3.173 4.12 0 2.523-1.222 4.12-3.173 4.12zm12.76 2.112c3.436 0 5.695-2.363 5.695-6.232 0-3.858-2.27-6.22-5.695-6.22-3.424 0-5.695 2.362-5.695 6.22 0 3.87 2.26 6.232 5.695 6.232zm0-2.032c-1.929 0-3.184-1.53-3.184-4.2 0-2.66 1.255-4.189 3.184-4.189 1.929 0 3.184 1.53 3.184 4.19 0 2.67-1.244 4.2-3.184 4.2zm11.699 1.884c.548 0 1.096-.046 1.37-.115V31.64a5.4 5.4 0 01-.81.057c-1.005 0-1.462-.468-1.462-1.507v-6.62h2.283v-1.95H89.32v-2.842h-2.477v2.841h-1.746v1.952h1.746v6.894c0 2.317.948 3.242 3.379 3.242zm4.714-14.028c.787 0 1.415-.639 1.415-1.415 0-.788-.628-1.415-1.415-1.415-.788 0-1.427.627-1.427 1.415 0 .776.64 1.415 1.427 1.415zm1.232 13.948V21.619h-2.465v12.007h2.465zm5.719 0V23.57h2.396v-1.929h-2.431v-1.13c0-1.061.503-1.598 1.575-1.598.331 0 .662.023.902.069v-1.826a8.848 8.848 0 00-1.381-.114c-2.442 0-3.538 1.095-3.538 3.424v1.175h-1.655v1.93h1.655v10.055h2.477zm5.535 4.474c2.488 0 3.675-.936 4.703-3.847l4.496-12.634h-2.602l-3.036 9.77h-.045l-3.036-9.77h-2.671l4.337 12.018c0 .011-.217.72-.217.742-.377 1.233-.993 1.712-2.134 1.712-.206 0-.617 0-.799-.046v1.998c.182.034.799.057 1.004.057z" fill="#000"/></svg>