<svg width="1440" height="1109" fill="none" xmlns="http://www.w3.org/2000/svg"><path fill-rule="evenodd" clip-rule="evenodd" d="M-39.448 137.381c152.686-53.59 361.433 29.433 531.951 80.103 140.696 38.81 347.147 146.639 529.657 104.91C1218.17 283.18 1787.05 85.89 2038.89.29c113.68 33.78 101.74 216.145 14.22 345.945-364 146.734-768.88 230.337-1114.761 297.372-64.235 25.894-233.316 61.363-292.452 69.281-212.327 29.869-428.201-161.729-610.201-88.361-96.353 38.841-182.777 193.089-225.094 241.99-73.928 93.486-115.738 174.023-225.093 241.993-100.676-62.91-127.931-250.934-194.699-383.23 164.675-145.989 272.274-491.866 569.742-587.899z" fill="url(#paint0_linear)"/><defs><linearGradient id="paint0_linear" x1="784.061" y1="776.397" x2="478.948" y2="-93.688" gradientUnits="userSpaceOnUse"><stop stop-color="#F5F8FF" stop-opacity="0"/><stop offset="1" stop-color="#F5F8FF"/></linearGradient></defs></svg>