<svg width="1440" height="1111" fill="none" xmlns="http://www.w3.org/2000/svg"><path fill-rule="evenodd" clip-rule="evenodd" d="M1437.04 189.908C916.564-119.92 324.912 718.647-242.881 372.847c0 0-127.727-287.795-380.381-366.439-290.282-68.05 30.209 507.621-316.241 463.176-130.377 49.074-243.997-51.609-359.407.001C-789.906 555.79-287.244 795.858 162.939 864.987c89.825 15.212 194.268 18.645 271.245 17.451 269.867-18.274 490.484-174.813 744.986-131.71 134.74 22.82 288.13 121.702 358.73 162.122 126.25 78.305 207.58 149 369.07 197.7 103.63-74.95 279.17-187.678 315.38-323.858-155.95-184.309-431.14-385.958-785.31-596.784z" fill="url(#paint0_linear)"/><defs><linearGradient id="paint0_linear" x1="1281.99" y1="875.931" x2="622.552" y2="-750.444" gradientUnits="userSpaceOnUse"><stop stop-color="#F5F8FF"/><stop offset="1" stop-color="#F5F8FF" stop-opacity="0"/></linearGradient></defs></svg>