<svg width="1440" height="908" fill="none" xmlns="http://www.w3.org/2000/svg"><path fill-rule="evenodd" clip-rule="evenodd" d="M1227.18 5.113c-159.07-29.714-352.739 84.129-513.552 160.175-133.145 59.783-320.768 197.794-507.5 184.344C6.427 340.724-585.86 232.365-847.799 186.114c-107.209 50.698-67.636 229.118 38.623 344.077 382.1 89.592 794.994 110.563 1147.049 124.144 67.429 15.811 239.939 25.118 299.591 23.938 214.4-2.813 398.576-225.05 589.626-180.253 101.15 23.715 210.05 163.003 259.32 204.889 87.3 81.138 140.89 154.371 259.32 204.89 89.92-77.501 88.23-267.486 134.07-408.406-184.99-119.209-344-444.667-652.62-494.28z" fill="url(#paint0_linear)"/><defs><linearGradient id="paint0_linear" x1="510.583" y1="762.081" x2="679.639" y2="-144.319" gradientUnits="userSpaceOnUse"><stop stop-color="#F5F8FF" stop-opacity="0"/><stop offset="1" stop-color="#F5F8FF"/></linearGradient></defs></svg>