<svg width="1440" height="700" fill="none" xmlns="http://www.w3.org/2000/svg"><path fill-rule="evenodd" clip-rule="evenodd" d="M1152.44 548.82c-114.99 13.837-291.413 30.231-440.475-26.621 0 0-158.75-45.794-296.751-3.364-158.515 35.768-256.751 159.114-445.875 180.401-71.062-30.285-37.938-336.43-100.826-367.992 277.898-43.442 472.477-154.537 718.249-188.818 49.04-7.667 183.498-1.713 225.5 0 147.228 14.203 270.008 79.675 408.958 57.954 73.56-11.499 157.43-67.021 196.03-89.612 69.02-43.904 113.52-83.976 201.72-110.182 56.42 44.991 37.91 151.368 57.43 231.103-85.4 105.205-301.57 294.784-523.96 317.131z" fill="url(#paint0_linear)"/><defs><linearGradient id="paint0_linear" x1="1407.76" y1="132.926" x2="515.005" y2="1036.89" gradientUnits="userSpaceOnUse"><stop stop-color="#F5F8FF"/><stop offset="1" stop-color="#F5F8FF" stop-opacity=".45"/></linearGradient></defs></svg>