<svg width="162" height="58" fill="none" xmlns="http://www.w3.org/2000/svg"><g clip-path="url(#clip0)"><path fill-rule="evenodd" clip-rule="evenodd" d="M32.825 12.692c-1.361-.444-2.123-1.388-3.266-2.331-.633-.528-2.04-2.346-3.102-2.332-1.953 0-3.327 4.92-5.551 5.33-4.313.784-8.844-.23-14.042 0-.19-.882 1.647-2.527 2.45-3.47 2.197-.201 4.952.381 6.857-.333C19.348 8.362 21.763.923 25.314.062c1.19-.291 3.3 1.583 4.245 2.332a23.806 23.806 0 013.402 2.998c-.048 2.373.224 5.17-.136 7.3zM44.09 6.863a35.665 35.665 0 013.402 2.831c.252 2.734-.415 4.983.163 6.995.538 1.874 3.34 3.47 4.762 4.664 1.79 1.52 4.232 3.108 4.409 4.857.326 3.241-4.157 5.67-5.225 7.828-2.36-.146-5.34.333-7.184-.333.408-1.388 1.36-2.082 2.286-3.164.558-.695 2.265-2.138 2.286-3.165.034-2.082-4.082-3.386-4.898-5.496a7.06 7.06 0 01-.327-2.165c-.116-3.636.354-8.75.326-12.852zm84.902 2.832c5.578-1.187 9.435 4.052 6.857 9.493-.83 1.742-3.299 2.963-5.061 2.998-4.443.09-8.014-5.344-5.225-10.16a4.726 4.726 0 011.449-1.572 4.618 4.618 0 011.98-.76zm-.49 9.826c5.694 4.274 8.327-9.667 1.143-7.828-2.783.708-3.429 6.114-1.143 7.828zm-62.86-9.826h7.837v1.998h-5.388c-.38.61-.061 1.936-.163 2.831 1.265.375 3.197.063 4.762.167v1.998h-4.572c-.38.695-.054 2.159-.163 3.165h5.878v1.998h-8.164l-.027-12.157zm10.13 0h2.45c.972 3.004 2.19 5.76 3.101 8.827 1.218-2.81 2.204-5.857 3.266-8.827h2.449c-1.395 4.163-3.055 8.098-4.572 12.157h-2.122c-1.538-4.052-3.211-7.966-4.572-12.157zm13.708 0h7.837v1.998H91.93c-.38.61-.054 1.936-.163 2.831 1.265.375 3.197.063 4.762.167v1.998h-4.572c-.38.695-.054 2.159-.163 3.165h5.878v1.998h-8.164L89.48 9.695zm11.265-.001c2.878.063 6.919-.437 8.327 1.333 1.409 1.77.878 5.288-2.122 5.829 1.075 1.728 2.435 3.178 3.401 4.996h-2.775c-1.483-1.485-1.721-4.24-4.245-4.663-.722.93-.136 3.192-.327 4.663h-2.286l.027-12.158zm2.286 5.496c2.456.257 5.014-.18 4.082-2.83-.775-.82-2.503-.695-4.082-.695v3.525zm8.98-5.495h2.613c.857 1.783 1.986 3.296 2.938 4.996a48.771 48.771 0 003.103-4.996h2.612c-1.674 3.9-5.442 5.683-4.572 12.157h-2.285c.898-6.474-2.762-8.285-4.409-12.157zm27.593 0h2.286c2.273 2.567 3.987 5.697 6.041 8.494V9.695h2.286v12.157c-.748-.2-1.503.257-2.286 0-1.19-.402-2.34-3.074-3.102-4.163-1.197-1.7-2.122-3.116-2.939-4.33v8.493h-2.286V9.695zm14.042 0h7.844v1.998h-5.388c-.381.61-.061 1.936-.163 2.831 1.265.375 3.197.063 4.762.167v1.998h-4.572c-.381.695-.054 2.159-.163 3.165h5.878v1.998h-8.164l-.034-12.157z" fill="#4C555B"/><path fill-rule="evenodd" clip-rule="evenodd" d="M26.947 15.357c1.72-.458 3.238 1.388 4.571 2.498 1.334 1.11 2.245 1.999 3.592 3.165 1.953 1.693 6.701 4.746 6.858 6.828.115 1.582-1.606 3.116-2.613 4.33-2.415 2.908-3.857 4.705-6.204 7.495-.864 1.02-2.204 3.06-3.592 3.164-1.497.104-3.32-1.86-4.245-2.665-2.476-2.165-4.565-4.094-7.347-6.495-1.116-.964-3.041-2.255-3.102-3.664-.103-2.158 4.251-5.954 5.55-7.495 1.178-1.387 2.042-2.595 2.94-3.663.768-.916 2.143-3.123 3.592-3.498z" fill="#DA0E15"/><path fill-rule="evenodd" clip-rule="evenodd" d="M5.232 24.184c2.415.09 5.251-.25 7.183.333-.4 1.388-1.36 2.151-2.285 3.331-.51.625-2.313 2.137-2.286 3.164.04 1.777 4.653 3.782 5.225 5.663 1.36 4.504-.912 8.813 0 14.323-.864.194-2.477-1.68-3.402-2.498-.19-2.776.306-5.031-.326-6.995-.565-1.763-3.32-3.47-4.763-4.663C2.79 35.364.143 33.837.007 31.984c-.15-1.97 4.082-6.1 5.225-7.8z" fill="#4C555B"/><path d="M112.991 31.103c2.296 0 4.157-1.423 4.157-3.179 0-1.755-1.861-3.178-4.157-3.178-2.296 0-4.157 1.423-4.157 3.178 0 1.756 1.861 3.179 4.157 3.179z" fill="#DA0E15"/><path fill-rule="evenodd" clip-rule="evenodd" d="M66.132 26.516c7.388.458 16.933-1.54 19.43 3.664 1.483 3.095.585 7.501-1.307 9.66-2.66 3.032-7.537 3.518-12.245 3.47v10.68h-6.041c.109-9.099-.218-18.647.163-27.474zM78.541 37.84c1.728-1.735 1.905-5.461-.327-6.828-1.456-.896-3.517-.597-6.04-.694-.382 2.72-.055 6.162-.164 9.16 2.66.048 4.932-.063 6.53-1.638zm78.187-8.14v3.831c1.252.389 3.211.056 4.762.167v3.47h-4.572c.075 5.176-2.217 15.87 4.899 13.323.374.778.054 2.27.163 3.331-3.626 1.062-7.98.868-9.96-1.499-2.667-3.192-.36-9.715-1.143-14.989-.496-.389-1.687-.062-2.449-.166v-3.47h2.449v-3.47c2.13-.035 3.81-.493 5.851-.527zm-51.411 3.644v4.858a6.763 6.763 0 00-4.602.024 6.923 6.923 0 00-3.561 2.974v12.789h-5.878V33.677h5.878v3.47c1.496-1.735 4.163-4.6 8.163-3.803zM143.36 53.99h-6.041c-.919-4.54 2.04-15.802-1.96-16.49-2.918-.506-4.673 2.048-6.041 3.831V53.99h-5.878V33.677h5.878v3.47c1.524-1.547 3.851-3.81 7.021-3.997 2.354-.146 5.048.819 6.204 2.831 2.558 4.462-.224 11.978.817 18.008zm-27.45-20.313V53.99h-5.878c.109-6.717-.218-13.879.163-20.319l5.715.007z" fill="#DA0E15"/><path fill-rule="evenodd" clip-rule="evenodd" d="M50.132 44.67c.19.693-1.81 2.49-2.45 3.47-2.836.214-5.013-.355-7.02.332-1.858.625-3.239 3.512-4.409 4.997-1.36 1.748-3.163 4.358-4.762 4.496-2.986.257-5.64-4.267-7.674-5.33.096-2.4-.204-5.204.164-7.327 1.422.368 2.163 1.388 3.265 2.331.633.535 2.102 2.318 3.102 2.332 2.041 0 3.205-4.33 5.225-5.163 4.313-1.742 9.123.889 14.559-.139z" fill="#4C555B"/></g><defs><clipPath id="clip0"><path fill="#fff" d="M0 0h162v58H0z"/></clipPath></defs></svg>